<svg width="17" height="20" viewBox="0 0 17 20" fill="none" xmlns="http://www.w3.org/2000/svg">
<path d="M14.5826 9.99974C14.5826 9.66822 14.4729 9.35028 14.2775 9.11586C14.0822 8.88144 13.8172 8.74974 13.541 8.74974H5.29097L8.02708 5.46641C8.21108 5.22945 8.31125 4.91604 8.30649 4.59221C8.30173 4.26837 8.1924 3.9594 8.00155 3.73037C7.8107 3.50135 7.55322 3.37017 7.28336 3.36445C7.0135 3.35874 6.75232 3.47894 6.55485 3.69974L2.04097 9.11641C1.8459 9.35079 1.73633 9.66849 1.73633 9.99974C1.73633 10.331 1.8459 10.6487 2.04097 10.8831L6.55485 16.2997C6.75232 16.5205 7.0135 16.6408 7.28336 16.635C7.55322 16.6293 7.8107 16.4981 8.00155 16.2691C8.1924 16.0401 8.30173 15.7311 8.30649 15.4073C8.31125 15.0834 8.21108 14.77 8.02708 14.5331L5.29097 11.2497H13.541C13.8172 11.2497 14.0822 11.118 14.2775 10.8836C14.4729 10.6492 14.5826 10.3313 14.5826 9.99974Z" fill="black"/>
</svg>
