<svg width="16" height="12" viewBox="0 0 16 12" fill="none" xmlns="http://www.w3.org/2000/svg">
<path d="M2 2C1.46957 2 0.960859 2.21071 0.585786 2.58579C0.210714 2.96086 0 3.46957 0 4L0 10C0 10.5304 0.210714 11.0391 0.585786 11.4142C0.960859 11.7893 1.46957 12 2 12H14C14.5304 12 15.0391 11.7893 15.4142 11.4142C15.7893 11.0391 16 10.5304 16 10V4C16 3.46957 15.7893 2.96086 15.4142 2.58579C15.0391 2.21071 14.5304 2 14 2H12.828C12.2976 1.99989 11.789 1.7891 11.414 1.414L10.586 0.586C10.211 0.210901 9.70239 0.000113275 9.172 0H6.828C6.29761 0.000113275 5.78899 0.210901 5.414 0.586L4.586 1.414C4.21101 1.7891 3.70239 1.99989 3.172 2H2ZM2.5 4C2.36739 4 2.24021 3.94732 2.14645 3.85355C2.05268 3.75979 2 3.63261 2 3.5C2 3.36739 2.05268 3.24021 2.14645 3.14645C2.24021 3.05268 2.36739 3 2.5 3C2.63261 3 2.75979 3.05268 2.85355 3.14645C2.94732 3.24021 3 3.36739 3 3.5C3 3.63261 2.94732 3.75979 2.85355 3.85355C2.75979 3.94732 2.63261 4 2.5 4ZM11.5 6.5C11.5 7.42826 11.1313 8.3185 10.4749 8.97487C9.8185 9.63125 8.92826 10 8 10C7.07174 10 6.1815 9.63125 5.52513 8.97487C4.86875 8.3185 4.5 7.42826 4.5 6.5C4.5 5.57174 4.86875 4.6815 5.52513 4.02513C6.1815 3.36875 7.07174 3 8 3C8.92826 3 9.8185 3.36875 10.4749 4.02513C11.1313 4.6815 11.5 5.57174 11.5 6.5Z" fill="#2D2D2D"/>
</svg>
