<svg width="34" height="34" viewBox="0 0 34 34" fill="none" xmlns="http://www.w3.org/2000/svg">
<circle cx="17" cy="17" r="17" fill="#FEDE8A"/>
<path d="M10.721 9.05097L26.076 16.617C26.1597 16.6582 26.2302 16.7221 26.2795 16.8014C26.3288 16.8806 26.3549 16.9721 26.3549 17.0655C26.3549 17.1588 26.3288 17.2503 26.2795 17.3296C26.2302 17.4088 26.1597 17.4727 26.076 17.514L10.72 25.08C10.6339 25.1222 10.5376 25.1389 10.4423 25.1279C10.3471 25.117 10.2571 25.0789 10.1829 25.0182C10.1087 24.9575 10.0535 24.8767 10.0239 24.7856C9.99434 24.6944 9.99157 24.5967 10.016 24.504L11.985 17.07L10.015 9.62797C9.99017 9.53508 9.99268 9.43702 10.0222 9.34552C10.0517 9.25403 10.107 9.17298 10.1814 9.11209C10.2558 9.0512 10.3461 9.01305 10.4417 9.00221C10.5372 8.99137 10.6338 9.0083 10.72 9.05097H10.721ZM11.264 10.434L12.874 16.516L12.936 16.504L13 16.5H20C20.1249 16.4997 20.2454 16.5463 20.3377 16.6305C20.4301 16.7147 20.4875 16.8304 20.4988 16.9548C20.5101 17.0792 20.4744 17.2034 20.3987 17.3028C20.3231 17.4022 20.2129 17.4697 20.09 17.492L20 17.5H13C12.9691 17.5001 12.9383 17.4974 12.908 17.492L11.265 23.698L24.723 17.066L11.264 10.434Z" fill="#2D2D2D"/>
</svg>
