<svg width="15" height="15" viewBox="0 0 15 15" fill="none" xmlns="http://www.w3.org/2000/svg">
<path d="M14.5827 3.05155L11.3243 0.317383L10.4106 1.40113L13.6689 4.1353L14.5827 3.05155ZM4.58102 1.40113L3.67435 0.317383L0.416016 3.04447L1.32977 4.12822L4.58102 1.40113ZM7.85352 4.66655H6.79102V8.91655L10.1556 10.9353L10.6868 10.064L7.85352 8.3853V4.66655ZM7.49935 1.83322C3.97893 1.83322 1.12435 4.6878 1.12435 8.20822C1.12435 11.7286 3.97185 14.5832 7.49935 14.5832C9.1901 14.5832 10.8116 13.9116 12.0072 12.716C13.2027 11.5205 13.8743 9.89897 13.8743 8.20822C13.8743 6.51746 13.2027 4.89595 12.0072 3.70041C10.8116 2.50487 9.1901 1.83322 7.49935 1.83322ZM7.49935 13.1665C4.7581 13.1665 2.54102 10.9495 2.54102 8.20822C2.54102 5.46697 4.7581 3.24988 7.49935 3.24988C10.2406 3.24988 12.4577 5.46697 12.4577 8.20822C12.4577 10.9495 10.2406 13.1665 7.49935 13.1665Z" fill="#2D2D2D"/>
</svg>
