<svg width="15" height="15" viewBox="0 0 15 15" fill="none" xmlns="http://www.w3.org/2000/svg">
<path d="M1.0014 1.0014C1.09139 0.911187 1.19829 0.83961 1.31599 0.790772C1.43368 0.741935 1.55985 0.716797 1.68728 0.716797C1.8147 0.716797 1.94087 0.741935 2.05857 0.790772C2.17626 0.83961 2.28316 0.911187 2.37315 1.0014L7.49978 6.12997L12.6264 1.0014C12.7165 0.911333 12.8234 0.839885 12.9411 0.791139C13.0588 0.742393 13.1849 0.717304 13.3123 0.717304C13.4397 0.717304 13.5658 0.742393 13.6835 0.791139C13.8012 0.839885 13.9081 0.911333 13.9982 1.0014C14.0882 1.09147 14.1597 1.1984 14.2084 1.31608C14.2572 1.43377 14.2823 1.5599 14.2823 1.68728C14.2823 1.81466 14.2572 1.94079 14.2084 2.05847C14.1597 2.17615 14.0882 2.28308 13.9982 2.37315L8.86959 7.49978L13.9982 12.6264C14.0882 12.7165 14.1597 12.8234 14.2084 12.9411C14.2572 13.0588 14.2823 13.1849 14.2823 13.3123C14.2823 13.4397 14.2572 13.5658 14.2084 13.6835C14.1597 13.8012 14.0882 13.9081 13.9982 13.9982C13.9081 14.0882 13.8012 14.1597 13.6835 14.2084C13.5658 14.2572 13.4397 14.2823 13.3123 14.2823C13.1849 14.2823 13.0588 14.2572 12.9411 14.2084C12.8234 14.1597 12.7165 14.0882 12.6264 13.9982L7.49978 8.86959L2.37315 13.9982C2.28308 14.0882 2.17615 14.1597 2.05847 14.2084C1.94079 14.2572 1.81466 14.2823 1.68728 14.2823C1.5599 14.2823 1.43377 14.2572 1.31608 14.2084C1.1984 14.1597 1.09147 14.0882 1.0014 13.9982C0.911333 13.9081 0.839885 13.8012 0.791139 13.6835C0.742393 13.5658 0.717304 13.4397 0.717304 13.3123C0.717304 13.1849 0.742393 13.0588 0.791139 12.9411C0.839885 12.8234 0.911333 12.7165 1.0014 12.6264L6.12997 7.49978L1.0014 2.37315C0.911187 2.28316 0.83961 2.17626 0.790772 2.05857C0.741935 1.94087 0.716797 1.8147 0.716797 1.68728C0.716797 1.55985 0.741935 1.43368 0.790772 1.31599C0.83961 1.19829 0.911187 1.09139 1.0014 1.0014Z" fill="#2D2D2D"/>
</svg>
