<svg width="14" height="13" viewBox="0 0 14 13" fill="none" xmlns="http://www.w3.org/2000/svg">
<path d="M8.25864 5.03613C7.92351 5.03613 7.66381 5.29617 7.66381 5.61722C7.66381 5.93826 7.92351 6.1983 8.25864 6.1983C8.56476 6.1983 8.82446 5.93826 8.82446 5.61722C8.82446 5.29617 8.56476 5.03613 8.25864 5.03613ZM4.19639 5.03613C3.86126 5.03613 3.60156 5.29617 3.60156 5.61722C3.60156 5.93826 3.86126 6.1983 4.19639 6.1983C4.50251 6.1983 4.76221 5.93826 4.76221 5.61722C4.76221 5.29617 4.50251 5.03613 4.19639 5.03613Z" fill="#2D2D2D"/>
<path d="M12.9165 3.93198C12.2186 2.97319 11.2437 2.33255 10.1745 2.04346V2.04491C9.92637 1.7689 9.64637 1.51467 9.33299 1.28805C6.95803 -0.440668 3.62408 0.0866641 1.89037 2.46474C0.493245 4.39684 0.552728 6.99573 1.97742 8.84212L1.98902 10.7684C1.98902 10.8149 1.99628 10.8614 2.01079 10.905C2.08768 11.1505 2.34882 11.2856 2.59256 11.2086L4.42928 10.629C4.9153 10.8018 5.41727 10.9006 5.91635 10.9282L5.9091 10.934C7.20176 11.8768 8.8963 12.1601 10.4501 11.6458L12.2941 12.2473C12.3405 12.2618 12.3884 12.2705 12.4377 12.2705C12.6945 12.2705 12.902 12.0628 12.902 11.8056V9.85902C14.1801 8.12158 14.2135 5.72026 12.9165 3.93198ZM4.63239 9.59753L4.45829 9.52489L3.022 9.97523L3.00749 8.46442L2.89142 8.33368C1.66404 6.83448 1.5828 4.67431 2.73184 3.08941C4.13041 1.16893 6.8115 0.74474 8.72366 2.13062C10.6416 3.52667 11.0667 6.20691 9.68119 8.11577C8.51909 9.71229 6.43864 10.3021 4.63239 9.59753ZM11.9589 9.35057L11.8429 9.49584L11.8574 11.0067L10.4356 10.5273L10.2615 10.5999C9.44906 10.9021 8.58293 10.9268 7.78063 10.7016L7.77773 10.7001C8.84988 10.3704 9.82191 9.70212 10.5227 8.74043C11.6311 7.21073 11.811 5.2888 11.1668 3.65015L11.1755 3.65596C11.5092 3.89566 11.8153 4.19492 12.075 4.55664C13.1283 6.00353 13.0688 7.9734 11.9589 9.35057Z" fill="#2D2D2D"/>
<path d="M6.22764 5.03613C5.89251 5.03613 5.63281 5.29617 5.63281 5.61722C5.63281 5.93826 5.89251 6.1983 6.22764 6.1983C6.53376 6.1983 6.79346 5.93826 6.79346 5.61722C6.79346 5.29617 6.53376 5.03613 6.22764 5.03613Z" fill="#2D2D2D"/>
</svg>
