<svg width="14" height="14" viewBox="0 0 14 14" fill="none" xmlns="http://www.w3.org/2000/svg">
<path d="M7.00099 1.55047e-09C7.73152 -2.19017e-05 8.43366 0.232024 8.96002 0.647429C9.48638 1.06283 9.79604 1.6293 9.82399 2.22791L9.82595 2.31655H13.3879C13.5449 2.31696 13.6959 2.36672 13.8096 2.45559C13.9233 2.54446 13.9911 2.66568 13.9992 2.79432C14.0072 2.92296 13.9549 3.04924 13.8529 3.14719C13.7509 3.24514 13.6069 3.30731 13.4507 3.32092L13.3879 3.32374H12.8519L12.0152 12.4167C11.9755 12.8473 11.739 13.2497 11.3529 13.5433C10.9668 13.8369 10.4596 14 9.93306 14H4.06893C3.54236 14 3.03523 13.8369 2.64913 13.5433C2.26302 13.2497 2.02646 12.8473 1.98681 12.4167L1.14964 3.32374H0.614122C0.462086 3.3238 0.315429 3.27761 0.20253 3.19411C0.0896306 3.1106 0.018516 2.99573 0.00294757 2.87171L0 2.82014C0 2.55948 0.241718 2.34475 0.551236 2.31937L0.614122 2.31655H4.17603C4.17603 1.70216 4.47366 1.11294 5.00344 0.678501C5.53323 0.244064 6.25177 1.55047e-09 7.00099 1.55047e-09ZM11.6202 3.32374H2.38181L3.2121 12.3409C3.22845 12.5182 3.3258 12.6838 3.48467 12.8046C3.64354 12.9255 3.85221 12.9927 4.06893 12.9928H9.93306C10.1499 12.9928 10.3586 12.9256 10.5176 12.8048C10.6766 12.6839 10.774 12.5182 10.7904 12.3409L11.6202 3.32374ZM8.59771 5.43885C8.91558 5.43885 9.17744 5.63706 9.20888 5.89088L9.21183 5.94245V10.3741C9.21257 10.5036 9.15244 10.6283 9.04394 10.7224C8.93544 10.8165 8.78691 10.8727 8.62919 10.8794C8.47148 10.886 8.31671 10.8426 8.19704 10.7581C8.07736 10.6736 8.00197 10.5545 7.98654 10.4257L7.98359 10.3741V5.94245C7.98359 5.66446 8.25871 5.43885 8.59771 5.43885ZM5.40427 5.43885C5.72214 5.43885 5.984 5.63706 6.01545 5.89088L6.0184 5.94245V10.3741C6.01913 10.5036 5.959 10.6283 5.8505 10.7224C5.742 10.8165 5.59347 10.8727 5.43576 10.8794C5.27805 10.886 5.12328 10.8426 5.0036 10.7581C4.88392 10.6736 4.80854 10.5545 4.7931 10.4257L4.79015 10.3741V5.94245C4.79015 5.66446 5.06528 5.43885 5.40427 5.43885ZM7.00099 1.00719C6.59315 1.00717 6.20075 1.13513 5.9043 1.36482C5.60785 1.5945 5.42982 1.90851 5.40673 2.24242L5.40427 2.31655H8.59771C8.59771 1.96928 8.42948 1.63625 8.13004 1.39069C7.8306 1.14514 7.42447 1.00719 7.00099 1.00719Z" fill="#2D2D2D"/>
</svg>
