<svg width="30" height="30" viewBox="0 0 34 34" fill="none" xmlns="http://www.w3.org/2000/svg">
<circle cx="17" cy="17" r="17" fill="#FEDE8A"/>
<path d="M26 19V14C26 13.4696 25.7893 12.9609 25.4142 12.5858C25.0391 12.2107 24.5304 12 24 12H10C9.46957 12 8.96086 12.2107 8.58579 12.5858C8.21071 12.9609 8 13.4696 8 14V20C8 20.5304 8.21071 21.0391 8.58579 21.4142C8.96086 21.7893 9.46957 22 10 22H17" stroke="#2D2D2D" stroke-width="1.5" stroke-linecap="round" stroke-linejoin="round"/>
<path d="M25.8792 22.9167C26.3732 23.2207 26.3422 23.9597 25.8342 24.0177L23.2672 24.3087L22.1162 26.6207C21.8882 27.0797 21.1832 26.8547 21.0662 26.2867L19.8112 20.1707C19.7122 19.6907 20.1442 19.3887 20.5612 19.6457L25.8792 22.9167V22.9167Z" stroke="#2D2D2D" stroke-width="1.5"/>
<path d="M17 17.01L17.01 16.999" stroke="#2D2D2D" stroke-width="1.5" stroke-linecap="round" stroke-linejoin="round"/>
<path d="M21 17.01L21.01 16.999" stroke="#2D2D2D" stroke-width="1.5" stroke-linecap="round" stroke-linejoin="round"/>
<path d="M13 17.01L13.01 16.999" stroke="#2D2D2D" stroke-width="1.5" stroke-linecap="round" stroke-linejoin="round"/>
</svg>
