<svg width="15" height="14" viewBox="0 0 15 14" fill="none" xmlns="http://www.w3.org/2000/svg">
<path d="M3.14341 5.69632C3.4227 4.87057 3.9617 4.15211 4.68352 3.64343C5.40534 3.13475 6.27311 2.86183 7.16304 2.86362C8.17182 2.86362 9.08391 3.21362 9.8002 3.78646L11.8846 1.75002C10.6144 0.667925 8.98661 0 7.16304 0C4.33963 0 1.90899 1.57385 0.740234 3.87921L3.14341 5.69632Z" fill="#EA4335"/>
<path d="M9.57441 10.5069C8.92377 10.917 8.09764 11.1357 7.16287 11.1357C6.2765 11.1375 5.412 10.8668 4.69179 10.3618C3.97157 9.85691 3.43212 9.14338 3.14982 8.32227L0.738281 10.1114C1.32997 11.2817 2.24565 12.2665 3.38131 12.9537C4.51698 13.641 5.8271 14.0032 7.16287 13.9993C8.91362 13.9993 10.5862 13.3909 11.8391 12.2493L9.57501 10.5069H9.57441Z" fill="#34A853"/>
<path d="M11.8403 12.2495C13.1505 11.0548 14.0011 9.27677 14.0011 6.99941C14.0011 6.58524 13.9361 6.14015 13.8388 5.72656H7.16406V8.43151H11.0058C10.8166 9.34094 10.3074 10.045 9.57619 10.507L11.8403 12.2495Z" fill="#4A90E2"/>
<path d="M3.14999 8.32279C3.00396 7.89632 2.92977 7.4495 2.93032 6.99978C2.93032 6.54361 3.00494 6.10552 3.14342 5.69601L0.740244 3.87891C0.248612 4.84882 -0.00482304 5.9174 6.95134e-05 6.99978C6.95134e-05 8.11979 0.265697 9.17564 0.738453 10.1119L3.14999 8.32279Z" fill="#FBBC05"/>
</svg>
