<svg width="17" height="16" viewBox="0 0 17 16" fill="none" xmlns="http://www.w3.org/2000/svg">
<path d="M8.5 0.5625C13.0909 0.5625 16.8125 3.46317 16.8125 7.04229C16.8125 10.6206 13.0909 13.5213 8.5 13.5213C8.04287 13.5215 7.5862 13.4924 7.13279 13.4342L3.64312 15.7166C3.2465 15.9264 3.10638 15.9034 3.26946 15.3896L3.97563 12.4779C1.69562 11.322 0.1875 9.31912 0.1875 7.04229C0.1875 3.46396 3.90913 0.5625 8.5 0.5625ZM13.1764 6.94333L14.3401 5.816C14.4073 5.74626 14.4447 5.65318 14.4446 5.55637C14.4445 5.45956 14.4068 5.36657 14.3395 5.29699C14.2722 5.22741 14.1805 5.18668 14.0837 5.18337C13.987 5.18006 13.8927 5.21444 13.8208 5.27925L12.2945 6.7565V5.53575C12.2945 5.43665 12.2551 5.3416 12.185 5.27153C12.1149 5.20145 12.0199 5.16208 11.9208 5.16208C11.8217 5.16208 11.7266 5.20145 11.6566 5.27153C11.5865 5.3416 11.5471 5.43665 11.5471 5.53575V7.56004C11.5331 7.61779 11.5331 7.67804 11.5471 7.73579V8.875C11.5471 8.9741 11.5865 9.06915 11.6566 9.13922C11.7266 9.2093 11.8217 9.24867 11.9208 9.24867C12.0199 9.24867 12.1149 9.2093 12.185 9.13922C12.2551 9.06915 12.2945 8.9741 12.2945 8.875V7.79596L12.6325 7.469L13.763 9.07846C13.7912 9.11864 13.8271 9.15287 13.8685 9.17919C13.91 9.20551 13.9562 9.22341 14.0046 9.23186C14.053 9.24032 14.1025 9.23916 14.1505 9.22846C14.1984 9.21776 14.2437 9.19772 14.2839 9.1695C14.3241 9.14127 14.3583 9.10541 14.3846 9.06395C14.411 9.0225 14.4289 8.97627 14.4373 8.9279C14.4458 8.87952 14.4446 8.82996 14.4339 8.78204C14.4232 8.73411 14.4032 8.68876 14.375 8.64858L13.1764 6.94254V6.94333ZM10.8346 8.4665H9.67879V5.54762C9.67437 5.4516 9.63311 5.36098 9.56359 5.29459C9.49407 5.2282 9.40165 5.19115 9.30552 5.19115C9.2094 5.19115 9.11697 5.2282 9.04745 5.29459C8.97793 5.36098 8.93667 5.4516 8.93225 5.54762V8.84017C8.93225 9.046 9.0985 9.21383 9.30513 9.21383H10.8346C10.9337 9.21383 11.0288 9.17446 11.0988 9.10439C11.1689 9.03431 11.2083 8.93927 11.2083 8.84017C11.2083 8.74106 11.1689 8.64602 11.0988 8.57594C11.0288 8.50587 10.9337 8.4665 10.8346 8.4665ZM6.19783 7.602L6.74883 6.25062L7.25392 7.602H6.19783ZM8.19521 7.98833L8.19679 7.97567C8.1966 7.88153 8.16067 7.79098 8.09625 7.72233L7.26817 5.50567C7.23345 5.40003 7.16733 5.30751 7.07863 5.24045C6.98994 5.1734 6.88289 5.13501 6.77179 5.13042C6.65988 5.12992 6.55047 5.16352 6.45813 5.22673C6.36578 5.28995 6.29487 5.37979 6.25483 5.48429L4.93988 8.71033C4.92132 8.75576 4.91189 8.80441 4.91213 8.85348C4.91237 8.90256 4.92228 8.9511 4.94128 8.99635C4.96028 9.0416 4.98801 9.08266 5.02289 9.11719C5.05776 9.15172 5.09909 9.17905 5.14452 9.1976C5.18995 9.21616 5.2386 9.22559 5.28767 9.22535C5.33675 9.22511 5.38529 9.2152 5.43054 9.1962C5.47579 9.17719 5.51685 9.14946 5.55138 9.11459C5.58591 9.07972 5.61323 9.03839 5.63179 8.99296L5.89304 8.34933H7.53179L7.7685 8.98267C7.78459 9.03001 7.81002 9.07364 7.84329 9.11097C7.87655 9.1483 7.91696 9.17858 7.96214 9.20001C8.00732 9.22144 8.05633 9.23358 8.10629 9.23572C8.15625 9.23786 8.20612 9.22995 8.25296 9.21247C8.29981 9.19498 8.34267 9.16827 8.379 9.13392C8.41533 9.09957 8.4444 9.05827 8.46448 9.01248C8.48457 8.96669 8.49526 8.91734 8.49592 8.86734C8.49658 8.81734 8.4872 8.76772 8.46833 8.72142L8.19521 7.98833ZM5.56529 5.55158C5.56529 5.45262 5.52603 5.35769 5.45613 5.28764C5.38622 5.21759 5.29138 5.17813 5.19242 5.17792H2.62346C2.52436 5.17792 2.42931 5.21728 2.35924 5.28736C2.28916 5.35744 2.24979 5.45248 2.24979 5.55158C2.24979 5.65069 2.28916 5.74573 2.35924 5.8158C2.42931 5.88588 2.52436 5.92525 2.62346 5.92525H3.54179V8.88292C3.54179 8.98202 3.58116 9.07706 3.65124 9.14714C3.72131 9.21721 3.81636 9.25658 3.91546 9.25658C4.01456 9.25658 4.1096 9.21721 4.17968 9.14714C4.24976 9.07706 4.28913 8.98202 4.28913 8.88292V5.92525H5.19163C5.29073 5.92525 5.38577 5.88588 5.45585 5.8158C5.52592 5.74573 5.56529 5.65069 5.56529 5.55158Z" fill="#EFDB4A"/>
</svg>
