<svg width="869" height="788" viewBox="0 0 869 788" fill="none" xmlns="http://www.w3.org/2000/svg">
<path d="M869 602.663H0V603.057H869V602.663Z" fill="#EBEBEB"/>
<path d="M781.926 628.021H724.363V628.414H781.926V628.021Z" fill="#EBEBEB"/>
<path d="M575.66 632.307H560.557V632.701H575.66V632.307Z" fill="#EBEBEB"/>
<path d="M722.626 613.395H689.273V613.789H722.626V613.395Z" fill="#EBEBEB"/>
<path d="M166.24 616.043H91.1758V616.437H166.24V616.043Z" fill="#EBEBEB"/>
<path d="M192.727 616.043H181.726V616.437H192.727V616.043Z" fill="#EBEBEB"/>
<path d="M391.311 622.693H228.495V623.087H391.311V622.693Z" fill="#EBEBEB"/>
<path d="M351.928 238.654L284.094 202.879H231.832L162.886 236.968V468.876H351.928V238.654Z" fill="#E0E0E0"/>
<path d="M160.938 238.654L162.885 236.968C188.001 215.023 221.546 202.798 256.424 202.879C291.302 202.798 324.847 215.023 349.963 236.968L351.91 238.654V468.876H160.938V238.654ZM339.257 243.587C316.652 224.795 287.1 214.37 256.433 214.37C225.766 214.37 196.213 224.795 173.608 243.587V457.387H339.257V243.587Z" fill="#FAFAFA"/>
<path d="M261.186 458.774H251.679V381.802H171.21V373.197H251.679V294.476H171.21V285.855H251.679V212.871H261.186V285.855H341.656V294.476H261.186V373.197H341.656V381.802H261.186V458.774Z" fill="#F0F0F0"/>
<path d="M154.682 236.4L156.42 234.635C182.955 210.624 218.911 197.14 256.398 197.14C293.885 197.14 329.841 210.624 356.377 234.635L358.236 236.321V474.628H154.682V236.4ZM345.688 241.128C321.698 220.275 289.751 208.633 256.52 208.633C223.288 208.633 191.341 220.275 167.352 241.128V463.139H345.601L345.688 241.128Z" fill="#F0F0F0"/>
<path d="M708.061 238.654L640.227 202.879H587.965L519.019 236.968V468.876H708.061V238.654Z" fill="#E0E0E0"/>
<path d="M517.072 238.654L519.019 236.968C544.135 215.023 577.68 202.798 612.558 202.879C647.442 202.795 680.993 215.02 706.114 236.968L708.061 238.654V468.876H517.072V238.654ZM695.391 243.587C672.786 224.795 643.233 214.37 612.567 214.37C581.9 214.37 552.347 224.795 529.742 243.587V457.387H695.391V243.587Z" fill="#FAFAFA"/>
<path d="M617.32 458.774H607.813V381.802H527.344V373.197H607.813V294.476H527.344V285.855H607.813V212.871H617.32V285.855H697.789V294.476H617.32V373.197H697.789V381.802H617.32V458.774Z" fill="#F0F0F0"/>
<path d="M510.729 236.4L512.588 234.714C539.124 210.703 575.08 197.218 612.567 197.218C650.054 197.218 686.01 210.703 712.545 234.714L714.405 236.4V474.628H510.729V236.4ZM701.735 241.128C677.745 220.275 645.798 208.633 612.567 208.633C579.335 208.633 547.388 220.275 523.399 241.128V463.139H701.735V241.128Z" fill="#F0F0F0"/>
<path d="M463.412 180.598C467.341 165.503 457.031 150.377 440.383 146.814C423.736 143.251 407.055 152.6 403.126 167.696C399.197 182.792 409.507 197.918 426.155 201.481C442.802 205.043 459.483 195.694 463.412 180.598Z" fill="#F0F0F0"/>
<path d="M459.303 177.999C461.633 164.983 451.885 152.718 437.531 150.605C423.177 148.492 409.651 157.331 407.321 170.348C404.991 183.364 414.739 195.628 429.093 197.741C443.447 199.854 456.972 191.015 459.303 177.999Z" fill="#FAFAFA"/>
<path d="M432.049 176.04C431.751 176.039 431.458 175.968 431.198 175.835L419.032 169.531C418.831 169.429 418.655 169.292 418.513 169.128C418.371 168.965 418.266 168.777 418.205 168.576C418.143 168.375 418.127 168.165 418.155 167.959C418.184 167.752 418.257 167.552 418.371 167.372C418.601 167.011 418.978 166.747 419.421 166.638C419.864 166.529 420.336 166.583 420.735 166.788L430.346 171.706V157.726C430.346 157.308 430.529 156.908 430.855 156.612C431.181 156.316 431.623 156.15 432.084 156.15C432.545 156.15 432.987 156.316 433.313 156.612C433.639 156.908 433.822 157.308 433.822 157.726V174.464C433.822 174.882 433.639 175.282 433.313 175.578C432.987 175.873 432.545 176.04 432.084 176.04H432.049Z" fill="#E0E0E0"/>
<path d="M434.5 673.834C620.61 673.834 771.481 665.847 771.481 655.994C771.481 646.141 620.61 638.154 434.5 638.154C248.391 638.154 97.5195 646.141 97.5195 655.994C97.5195 665.847 248.391 673.834 434.5 673.834Z" fill="#F5F5F5"/>
<path d="M732.862 508.685C733.227 511.002 726.293 512.531 720.696 513.413C721.166 517.621 724.172 521.876 728.517 525.832C733.87 523.106 741.535 519.528 742.943 520.363C744.35 521.199 736.634 525.927 731.733 528.622C735.235 531.395 738.946 533.943 742.838 536.249C745.237 534.216 748.052 532.436 749.79 533.397C751.528 534.358 751.059 537.558 750.207 540.363C756.03 543.515 760.409 545.327 760.409 545.327C762.097 540.41 763.398 535.391 764.303 530.308C764.007 529.772 763.712 529.252 763.451 528.732C762.495 526.762 763.451 525.927 764.963 525.58C765.414 521.984 765.449 518.355 765.067 514.753C758.463 513.508 750.433 511.175 753.44 507.598C755.265 505.423 758.654 505.187 762.026 505.722C761.563 505.003 761.021 504.327 760.409 503.705C748.383 491.696 740.005 503.705 740.005 503.705C733.053 498.425 723.216 499.86 721.096 508.102C724.902 507.172 732.41 505.896 732.862 508.685Z" fill="#154122"/>
<path opacity="0.3" d="M732.862 508.685C733.227 511.002 726.293 512.531 720.696 513.413C721.166 517.621 724.172 521.876 728.517 525.832C733.87 523.106 741.535 519.528 742.943 520.363C744.35 521.199 736.634 525.927 731.733 528.622C735.235 531.395 738.946 533.943 742.838 536.249C745.237 534.216 748.052 532.436 749.79 533.397C751.528 534.358 751.059 537.558 750.207 540.363C756.03 543.515 760.409 545.327 760.409 545.327C762.097 540.41 763.398 535.391 764.303 530.308C764.007 529.772 763.712 529.252 763.451 528.732C762.495 526.762 763.451 525.927 764.963 525.58C765.414 521.984 765.449 518.355 765.067 514.753C758.463 513.508 750.433 511.175 753.44 507.598C755.265 505.423 758.654 505.187 762.026 505.722C761.563 505.003 761.021 504.327 760.409 503.705C748.383 491.696 740.005 503.705 740.005 503.705C733.053 498.425 723.216 499.86 721.096 508.102C724.902 507.172 732.41 505.896 732.862 508.685Z" fill="white"/>
<path d="M747.862 596.926L746.124 596.784C746.124 595.98 753.232 515.588 733.349 508.008C732.402 507.601 731.363 507.403 730.315 507.427C729.268 507.452 728.241 507.699 727.319 508.15C720.123 511.538 716.682 525.612 716.647 525.753L714.909 525.423C715.048 524.808 718.559 510.482 726.467 506.747C727.619 506.196 728.895 505.892 730.197 505.859C731.499 505.827 732.791 506.066 733.975 506.558C755.057 514.564 748.157 593.553 747.862 596.926Z" fill="#154122"/>
<path d="M750.364 595.176C750.016 591.551 741.883 506.495 757.073 497.464C760.723 495.305 764.025 494.848 766.719 496.109C773.897 499.387 774.835 513.303 774.87 513.886L773.132 513.981C773.132 513.839 772.228 500.38 765.937 497.511C763.781 496.534 761.105 496.944 758.029 498.788C743.708 507.298 752.015 594.168 752.102 595.034L750.364 595.176Z" fill="#154122"/>
<path d="M752.641 602.032C752.537 599.274 750.034 534.154 763.868 528.464C765.154 527.915 766.558 527.63 767.979 527.63C769.4 527.63 770.803 527.915 772.089 528.464C781.579 532.247 787.436 548.275 787.731 548.952L786.08 549.441C786.08 549.283 780.223 533.381 771.429 529.883C770.366 529.428 769.206 529.192 768.031 529.192C766.856 529.192 765.696 529.428 764.633 529.883C754.031 534.248 753.684 583.388 754.431 601.969L752.641 602.032Z" fill="#154122"/>
<path d="M749.077 599.069L747.339 598.896C749.773 579.511 754.43 527.881 746.818 521.672C746.447 521.27 745.956 520.975 745.404 520.821C744.852 520.667 744.262 520.662 743.707 520.805C738.597 522.57 735.504 539.37 734.721 545.69L732.983 545.517C733.279 543.09 736.06 521.766 743.064 519.324C743.915 519.068 744.83 519.041 745.697 519.249C746.564 519.456 747.346 519.887 747.948 520.49C757.872 528.512 749.494 596.201 749.077 599.069Z" fill="#154122"/>
<path d="M720.123 562.333H782.569L777.355 625.767H725.337L720.123 562.333Z" fill="#263238"/>
<path d="M728.621 539.071C727.978 540.647 723.129 539.386 719.323 538.157C718.02 540.899 718.315 544.461 719.445 548.259C723.79 548.259 729.873 548.385 730.412 549.362C730.95 550.339 724.415 550.828 720.383 550.938C721.493 553.734 722.818 556.457 724.346 559.086C726.588 558.582 729.004 558.345 729.664 559.464C730.325 560.583 728.882 562.427 727.283 563.893C729.716 567.612 731.715 570.118 731.715 570.118C734.618 567.613 737.319 564.921 739.797 562.065C739.797 561.655 739.797 561.229 739.797 560.804C739.953 559.228 740.84 559.07 741.9 559.37C743.528 557.291 744.92 555.068 746.054 552.735C742.456 549.914 738.372 545.974 741.587 544.697C743.533 543.925 745.671 544.807 747.6 546.273C747.572 545.685 747.49 545.1 747.357 544.524C744.472 533.381 734.774 538.22 734.774 538.22C732.462 532.798 725.875 530.623 721.443 535.068C724.294 535.667 729.438 537.164 728.621 539.071Z" fill="#154122"/>
<path opacity="0.3" d="M728.621 539.071C727.978 540.647 723.129 539.386 719.323 538.157C718.02 540.899 718.315 544.461 719.445 548.259C723.79 548.259 729.873 548.385 730.412 549.362C730.95 550.339 724.415 550.828 720.383 550.938C721.493 553.734 722.818 556.457 724.346 559.086C726.588 558.582 729.004 558.345 729.664 559.464C730.325 560.583 728.882 562.427 727.283 563.893C729.716 567.612 731.715 570.118 731.715 570.118C734.618 567.613 737.319 564.921 739.797 562.065C739.797 561.655 739.797 561.229 739.797 560.804C739.953 559.228 740.84 559.07 741.9 559.37C743.528 557.291 744.92 555.068 746.054 552.735C742.456 549.914 738.372 545.974 741.587 544.697C743.533 543.925 745.671 544.807 747.6 546.273C747.572 545.685 747.49 545.1 747.357 544.524C744.472 533.381 734.774 538.22 734.774 538.22C732.462 532.798 725.875 530.623 721.443 535.068C724.294 535.667 729.438 537.164 728.621 539.071Z" fill="white"/>
<path d="M774.992 546.588C773.052 546.75 771.139 547.115 769.291 547.676C768.789 546.48 768.501 545.219 768.439 543.941C768.057 532.515 777.129 537.337 781.822 533.98C782.902 533.117 784.171 532.469 785.545 532.078C786.919 531.687 788.369 531.562 789.799 531.711C789.395 532.341 789.035 532.994 788.722 533.665C788.608 533.915 788.558 534.186 788.576 534.456C788.595 534.727 788.681 534.99 788.829 535.225C788.976 535.461 789.181 535.663 789.428 535.816C789.674 535.969 789.956 536.069 790.251 536.108C791.425 536.321 792.643 536.189 793.727 535.73C794.042 535.559 794.344 535.369 794.631 535.162C795.402 536.355 795.987 537.638 796.369 538.976C796.841 540.572 797.115 542.211 797.186 543.862C796.474 544.002 795.771 544.181 795.083 544.398C794.809 544.504 794.564 544.665 794.369 544.869C794.173 545.073 794.032 545.315 793.954 545.576C793.877 545.838 793.867 546.111 793.924 546.377C793.981 546.642 794.104 546.892 794.283 547.108C795.033 547.801 795.917 548.362 796.89 548.763C796.571 550.595 796.041 552.391 795.309 554.122H794.666C794.197 554.216 793.745 554.311 793.293 554.437C793.036 554.5 792.786 554.584 792.545 554.689C792.235 554.811 791.964 555.002 791.757 555.244C791.551 555.487 791.415 555.773 791.364 556.076C791.332 556.374 791.384 556.675 791.514 556.951C791.645 557.226 791.85 557.467 792.111 557.652C792.407 557.849 792.721 558.023 793.049 558.172C791.85 560.061 790.132 561.635 788.061 562.742C786.274 561.984 784.533 561.136 782.847 560.205C783.212 559.748 783.595 559.291 783.942 558.818C784.348 558.294 784.538 557.659 784.481 557.021C784.386 556.383 784.017 555.805 783.454 555.412C782.89 555.02 782.179 554.845 781.474 554.925C780.785 555.021 780.162 555.354 779.736 555.855C779.319 556.407 778.867 556.943 778.398 557.431C775.993 555.829 773.841 553.936 772.002 551.805H772.193C773.36 551.525 774.553 551.345 775.756 551.269C776.106 551.228 776.442 551.124 776.748 550.965C777.053 550.805 777.32 550.593 777.535 550.34C777.75 550.087 777.907 549.798 777.999 549.489C778.09 549.181 778.114 548.859 778.068 548.543C778.022 548.226 777.908 547.92 777.733 547.644C777.557 547.367 777.323 547.124 777.043 546.93C776.764 546.735 776.445 546.592 776.105 546.509C775.765 546.426 775.41 546.405 775.061 546.446L774.992 546.588Z" fill="#154122"/>
<path opacity="0.5" d="M774.992 546.588C773.052 546.75 771.139 547.115 769.291 547.676C768.789 546.48 768.501 545.219 768.439 543.941C768.057 532.515 777.129 537.337 781.822 533.98C782.902 533.117 784.171 532.469 785.545 532.078C786.919 531.687 788.369 531.562 789.799 531.711C789.395 532.341 789.035 532.994 788.722 533.665C788.608 533.915 788.558 534.186 788.576 534.456C788.595 534.727 788.681 534.99 788.829 535.225C788.976 535.461 789.181 535.663 789.428 535.816C789.674 535.969 789.956 536.069 790.251 536.108C791.425 536.321 792.643 536.189 793.727 535.73C794.042 535.559 794.344 535.369 794.631 535.162C795.402 536.355 795.987 537.638 796.369 538.976C796.841 540.572 797.115 542.211 797.186 543.862C796.474 544.002 795.771 544.181 795.083 544.398C794.809 544.504 794.564 544.665 794.369 544.869C794.173 545.073 794.032 545.315 793.954 545.576C793.877 545.838 793.867 546.111 793.924 546.377C793.981 546.642 794.104 546.892 794.283 547.108C795.033 547.801 795.917 548.362 796.89 548.763C796.571 550.595 796.041 552.391 795.309 554.122H794.666C794.197 554.216 793.745 554.311 793.293 554.437C793.036 554.5 792.786 554.584 792.545 554.689C792.235 554.811 791.964 555.002 791.757 555.244C791.551 555.487 791.415 555.773 791.364 556.076C791.332 556.374 791.384 556.675 791.514 556.951C791.645 557.226 791.85 557.467 792.111 557.652C792.407 557.849 792.721 558.023 793.049 558.172C791.85 560.061 790.132 561.635 788.061 562.742C786.274 561.984 784.533 561.136 782.847 560.205C783.212 559.748 783.595 559.291 783.942 558.818C784.348 558.294 784.538 557.659 784.481 557.021C784.386 556.383 784.017 555.805 783.454 555.412C782.89 555.02 782.179 554.845 781.474 554.925C780.785 555.021 780.162 555.354 779.736 555.855C779.319 556.407 778.867 556.943 778.398 557.431C775.993 555.829 773.841 553.936 772.002 551.805H772.193C773.36 551.525 774.553 551.345 775.756 551.269C776.106 551.228 776.442 551.124 776.748 550.965C777.053 550.805 777.32 550.593 777.535 550.34C777.75 550.087 777.907 549.798 777.999 549.489C778.09 549.181 778.114 548.859 778.068 548.543C778.022 548.226 777.908 547.92 777.733 547.644C777.557 547.367 777.323 547.124 777.043 546.93C776.764 546.735 776.445 546.592 776.105 546.509C775.765 546.426 775.41 546.405 775.061 546.446L774.992 546.588Z" fill="white"/>
<path d="M778.624 507.22C779.709 506.536 780.875 505.965 782.1 505.518C781.778 504.69 781.315 503.914 780.727 503.217C775.409 497.07 773.01 503.217 768.874 503.311C767.9 503.292 766.932 503.459 766.034 503.802C765.136 504.144 764.327 504.653 763.66 505.297C764.179 505.464 764.684 505.664 765.172 505.896C765.354 505.981 765.512 506.102 765.634 506.252C765.756 506.401 765.839 506.573 765.876 506.756C765.913 506.939 765.903 507.127 765.847 507.305C765.792 507.484 765.691 507.649 765.554 507.787C765.042 508.38 764.327 508.802 763.521 508.985C763.272 509.008 763.022 509.008 762.773 508.985C762.948 509.918 763.264 510.825 763.712 511.68C764.226 512.712 764.874 513.685 765.641 514.58C766.087 514.369 766.546 514.179 767.014 514.012C767.211 513.959 767.418 513.948 767.621 513.979C767.823 514.009 768.016 514.081 768.183 514.189C768.35 514.297 768.489 514.437 768.587 514.601C768.686 514.764 768.742 514.945 768.752 515.131C768.684 515.79 768.496 516.435 768.196 517.038C769.265 517.874 770.43 518.604 771.672 519.213L772.037 519.008C772.332 518.866 772.611 518.74 772.906 518.63C773.074 518.558 773.248 518.5 773.427 518.456C773.648 518.399 773.881 518.392 774.105 518.436C774.33 518.48 774.539 518.574 774.714 518.709C774.885 518.856 775.012 519.04 775.082 519.244C775.152 519.449 775.163 519.666 775.113 519.875C775.056 520.095 774.981 520.311 774.887 520.521C776.43 521.042 778.097 521.183 779.719 520.931C780.309 519.814 780.825 518.667 781.266 517.495L780.014 517.196C779.548 517.087 779.141 516.83 778.867 516.471C778.608 516.101 778.52 515.654 778.624 515.226C778.732 514.794 779.018 514.416 779.424 514.17C779.841 513.943 780.336 513.864 780.814 513.949C781.305 514.083 781.804 514.194 782.309 514.28C782.79 512.481 783.001 510.63 782.934 508.78H782.813C782.066 509.093 781.356 509.473 780.692 509.915C780.283 510.114 779.807 510.166 779.357 510.06C778.908 509.954 778.519 509.698 778.269 509.344C778.019 508.989 777.925 508.562 778.007 508.148C778.089 507.734 778.34 507.363 778.711 507.109L778.624 507.22Z" fill="#154122"/>
<path opacity="0.3" d="M778.624 507.22C779.709 506.536 780.875 505.965 782.1 505.518C781.778 504.69 781.315 503.914 780.727 503.217C775.409 497.07 773.01 503.217 768.874 503.311C767.9 503.292 766.932 503.459 766.034 503.802C765.136 504.144 764.327 504.653 763.66 505.297C764.179 505.464 764.684 505.664 765.172 505.896C765.354 505.981 765.512 506.102 765.634 506.252C765.756 506.401 765.839 506.573 765.876 506.756C765.913 506.939 765.903 507.127 765.847 507.305C765.792 507.484 765.691 507.649 765.554 507.787C765.042 508.38 764.327 508.802 763.521 508.985C763.272 509.008 763.022 509.008 762.773 508.985C762.948 509.918 763.264 510.825 763.712 511.68C764.226 512.712 764.874 513.685 765.641 514.58C766.087 514.369 766.546 514.179 767.014 514.012C767.211 513.959 767.418 513.948 767.621 513.979C767.823 514.009 768.016 514.081 768.183 514.189C768.35 514.297 768.489 514.437 768.587 514.601C768.686 514.764 768.742 514.945 768.752 515.131C768.684 515.79 768.496 516.435 768.196 517.038C769.265 517.874 770.43 518.604 771.672 519.213L772.037 519.008C772.332 518.866 772.611 518.74 772.906 518.63C773.074 518.558 773.248 518.5 773.427 518.456C773.648 518.399 773.881 518.392 774.105 518.436C774.33 518.48 774.539 518.574 774.714 518.709C774.885 518.856 775.012 519.04 775.082 519.244C775.152 519.449 775.163 519.666 775.113 519.875C775.056 520.095 774.981 520.311 774.887 520.521C776.43 521.042 778.097 521.183 779.719 520.931C780.309 519.814 780.825 518.667 781.266 517.495L780.014 517.196C779.548 517.087 779.141 516.83 778.867 516.471C778.608 516.101 778.52 515.654 778.624 515.226C778.732 514.794 779.018 514.416 779.424 514.17C779.841 513.943 780.336 513.864 780.814 513.949C781.305 514.083 781.804 514.194 782.309 514.28C782.79 512.481 783.001 510.63 782.934 508.78H782.813C782.066 509.093 781.356 509.473 780.692 509.915C780.283 510.114 779.807 510.166 779.357 510.06C778.908 509.954 778.519 509.698 778.269 509.344C778.019 508.989 777.925 508.562 778.007 508.148C778.089 507.734 778.34 507.363 778.711 507.109L778.624 507.22Z" fill="white"/>
<path d="M727.718 518.645C727.353 520.962 734.287 522.491 739.884 523.373C739.414 527.581 736.408 531.837 732.08 535.808C726.71 533.066 719.062 529.504 717.637 530.324C716.212 531.143 723.946 535.887 728.847 538.598C725.34 541.366 721.63 543.914 717.742 546.225C715.343 544.192 712.528 542.396 710.79 543.373C709.052 544.35 709.521 547.518 710.39 550.339C704.55 553.412 700.188 555.287 700.188 555.287C698.49 550.372 697.183 545.353 696.277 540.268C696.573 539.748 696.868 539.212 697.146 538.692C698.085 536.722 697.146 535.887 695.617 535.619C695.175 532.023 695.14 528.395 695.513 524.792C702.117 523.531 710.147 521.214 707.14 517.621C705.402 515.462 702.013 515.21 698.554 515.746C699.023 515.03 699.571 514.36 700.188 513.744C712.197 501.735 720.575 513.744 720.575 513.744C727.527 508.465 737.381 509.883 739.501 518.141C735.678 517.148 728.222 515.793 727.718 518.645Z" fill="#154122"/>
<path opacity="0.5" d="M727.718 518.645C727.353 520.962 734.287 522.491 739.884 523.373C739.414 527.581 736.408 531.837 732.08 535.808C726.71 533.066 719.062 529.504 717.637 530.324C716.212 531.143 723.946 535.887 728.847 538.598C725.34 541.366 721.63 543.914 717.742 546.225C715.343 544.192 712.528 542.396 710.79 543.373C709.052 544.35 709.521 547.518 710.39 550.339C704.55 553.412 700.188 555.287 700.188 555.287C698.49 550.372 697.183 545.353 696.277 540.268C696.573 539.748 696.868 539.212 697.146 538.692C698.085 536.722 697.146 535.887 695.617 535.619C695.175 532.023 695.14 528.395 695.513 524.792C702.117 523.531 710.147 521.214 707.14 517.621C705.402 515.462 702.013 515.21 698.554 515.746C699.023 515.03 699.571 514.36 700.188 513.744C712.197 501.735 720.575 513.744 720.575 513.744C727.527 508.465 737.381 509.883 739.501 518.141C735.678 517.148 728.222 515.793 727.718 518.645Z" fill="white"/>
<path d="M516.725 585.153L521.4 544.918L562.312 543.894C562.312 543.894 568.465 580.835 567.283 580.677C566.101 580.52 516.725 585.153 516.725 585.153Z" fill="#FEDE8A"/>
<path opacity="0.2" d="M516.725 585.153L521.4 544.918L562.312 543.894C562.312 543.894 568.465 580.835 567.283 580.677C566.101 580.52 516.725 585.153 516.725 585.153Z" fill="black"/>
<path d="M550.946 578.029L567.423 556.58C567.423 556.58 585.706 563.388 585.706 564.082C585.706 564.775 586.506 580.204 586.506 580.204L550.946 578.029Z" fill="#263238"/>
<path opacity="0.2" d="M550.946 578.029L567.423 556.58C567.423 556.58 585.706 563.388 585.706 564.082C585.706 564.775 586.506 580.204 586.506 580.204L550.946 578.029Z" fill="white"/>
<path d="M511.874 571.766C513.433 563.054 506.909 554.846 497.302 553.432C487.694 552.018 478.642 557.933 477.083 566.645C475.523 575.357 482.047 583.566 491.654 584.98C501.262 586.394 510.314 580.478 511.874 571.766Z" fill="#FEDE8A"/>
<path d="M500.301 573.049L489.316 537.416L494.808 534.453L505.81 535.698L510.016 542.396L518.706 545.674L524.876 570.512L520.044 575.492C520.044 575.492 521.07 580.724 520.392 580.724C519.714 580.724 503.012 581.954 503.012 581.954L500.301 573.049Z" fill="#FEDE8A"/>
<path opacity="0.2" d="M520.079 575.555C520.079 575.555 521.104 580.788 520.409 580.788C520.009 580.788 513.944 581.213 509.095 581.576L503.064 582.001L500.3 573.049L489.299 537.416L494.808 534.453L495.608 534.548L505.81 535.714L510.016 542.412L518.706 545.674L524.876 570.512L520.079 575.555Z" fill="white"/>
<path d="M497.555 547.408C497.555 548.397 497.231 549.363 496.625 550.185C496.019 551.007 495.158 551.648 494.15 552.025C493.142 552.403 492.034 552.501 490.964 552.307C489.895 552.113 488.913 551.635 488.144 550.935C487.374 550.235 486.851 549.343 486.64 548.373C486.429 547.403 486.541 546.398 486.961 545.485C487.38 544.573 488.089 543.793 488.997 543.246C489.906 542.699 490.973 542.409 492.063 542.412C492.786 542.41 493.503 542.538 494.171 542.788C494.84 543.039 495.447 543.407 495.958 543.872C496.468 544.336 496.873 544.888 497.147 545.495C497.421 546.102 497.56 546.752 497.555 547.408Z" fill="#263238"/>
<path d="M492.062 549.898C493.579 549.898 494.808 548.783 494.808 547.408C494.808 546.033 493.579 544.918 492.062 544.918C490.546 544.918 489.316 546.033 489.316 547.408C489.316 548.783 490.546 549.898 492.062 549.898Z" fill="white"/>
<path d="M505.758 573.05C505.758 574.038 505.435 575.004 504.83 575.825C504.224 576.647 503.364 577.287 502.357 577.665C501.35 578.043 500.243 578.142 499.174 577.95C498.105 577.757 497.123 577.281 496.353 576.582C495.582 575.884 495.058 574.993 494.845 574.024C494.633 573.055 494.742 572.051 495.159 571.138C495.576 570.225 496.282 569.445 497.188 568.896C498.094 568.347 499.159 568.054 500.249 568.054C500.973 568.052 501.69 568.179 502.36 568.43C503.029 568.68 503.638 569.048 504.15 569.512C504.662 569.977 505.067 570.528 505.343 571.135C505.619 571.742 505.76 572.393 505.758 573.05Z" fill="#263238"/>
<path d="M503.064 573.05C503.067 573.546 502.908 574.032 502.607 574.446C502.305 574.86 501.875 575.184 501.37 575.376C500.865 575.568 500.309 575.62 499.772 575.525C499.235 575.43 498.741 575.193 498.353 574.843C497.964 574.493 497.7 574.047 497.591 573.56C497.483 573.074 497.537 572.569 497.746 572.11C497.954 571.651 498.309 571.259 498.763 570.983C499.218 570.707 499.753 570.56 500.3 570.56C501.03 570.56 501.731 570.821 502.248 571.288C502.766 571.754 503.059 572.388 503.064 573.05Z" fill="white"/>
<path opacity="0.2" d="M520.079 575.555C520.079 575.555 521.105 580.787 520.41 580.787C520.01 580.787 513.944 581.213 509.095 581.575C508.864 579.576 508.771 577.565 508.817 575.555L513.753 569.488L508.991 546.242L500.301 543.752L495.608 534.563L505.81 535.73L510.016 542.428L518.706 545.69L524.876 570.512L520.079 575.555Z" fill="white"/>
<path d="M539.058 560.851C539.058 560.851 527.309 562.191 528.421 553.869C528.952 549.104 531.186 544.627 534.782 541.119L529.846 540.568C529.846 540.568 509.807 562.065 537.129 565.784L539.058 560.851Z" fill="#263238"/>
<path d="M539.319 535.43C539.925 536.387 540.189 537.49 540.074 538.588C539.959 539.687 539.47 540.725 538.676 541.561C535.913 544.713 526.51 541.86 526.823 538.582C527.136 535.304 532.558 532.452 532.558 532.452L533.688 533.192C533.688 533.192 527.275 536.975 532.541 538.598C537.807 540.221 538.137 536.108 538.137 536.108L539.319 535.43Z" fill="#FEDE8A"/>
<path d="M557.742 566.966C557.742 566.966 566.432 574.295 570.881 566.966C573.526 562.821 574.612 558.009 573.975 553.255L578.337 555.43C578.337 555.43 580.683 583.498 556.16 572.088L557.742 566.966Z" fill="#263238"/>
<path d="M530.316 575.539L539.25 557.604C539.25 557.604 559.272 560.883 558.629 561.513C557.985 562.143 556.717 583.798 556.717 583.798L530.316 575.539Z" fill="#FEDE8A"/>
<path d="M554.092 536.565L550.251 547.408H551.85L554.092 536.565Z" fill="#263238"/>
<path d="M555.048 536.991C555.051 537.166 554.997 537.339 554.891 537.487C554.786 537.634 554.634 537.75 554.455 537.819C554.277 537.887 554.08 537.906 553.889 537.873C553.699 537.839 553.524 537.755 553.387 537.63C553.249 537.506 553.156 537.347 553.119 537.174C553.082 537.002 553.103 536.823 553.179 536.661C553.255 536.499 553.382 536.362 553.545 536.266C553.708 536.17 553.898 536.121 554.092 536.124C554.346 536.124 554.589 536.215 554.768 536.378C554.947 536.54 555.048 536.761 555.048 536.991Z" fill="#263238"/>
<path d="M537.912 542.412L534.088 557.305C534.088 557.305 563.495 564.933 563.495 564.003C563.495 563.073 566.415 549.898 566.415 549.898L537.912 542.412Z" fill="#FEDE8A"/>
<path opacity="0.4" d="M537.912 542.412L534.088 557.305C534.088 557.305 563.495 564.933 563.495 564.003C563.495 563.073 566.415 549.898 566.415 549.898L537.912 542.412Z" fill="white"/>
<path d="M546.184 549.142C546.188 549.488 546.078 549.828 545.868 550.118C545.658 550.408 545.358 550.634 545.006 550.769C544.653 550.904 544.265 550.941 543.89 550.875C543.514 550.809 543.169 550.644 542.897 550.4C542.626 550.156 542.44 549.844 542.365 549.505C542.289 549.165 542.326 548.812 542.471 548.492C542.617 548.171 542.864 547.897 543.182 547.704C543.499 547.511 543.873 547.408 544.255 547.408C544.764 547.408 545.252 547.59 545.613 547.915C545.975 548.24 546.18 548.681 546.184 549.142Z" fill="white"/>
<path d="M560.539 552.388C560.539 552.731 560.427 553.066 560.217 553.351C560.007 553.636 559.709 553.858 559.359 553.99C559.01 554.121 558.626 554.155 558.255 554.088C557.884 554.021 557.543 553.856 557.276 553.614C557.008 553.371 556.826 553.062 556.753 552.726C556.679 552.39 556.717 552.041 556.861 551.724C557.006 551.408 557.251 551.137 557.565 550.946C557.88 550.756 558.25 550.654 558.628 550.654C559.133 550.658 559.617 550.842 559.974 551.167C560.332 551.491 560.535 551.929 560.539 552.388Z" fill="white"/>
<path d="M545.75 555.43L553.345 558.235V559.795L544.255 556.832L545.75 555.43Z" fill="white"/>
<path opacity="0.4" d="M557.742 568.841C557.221 575.334 556.717 583.797 556.717 583.797L530.316 575.555L537.042 562.064L557.742 568.841Z" fill="white"/>
<path d="M573.975 546.226C572.86 546.676 571.927 547.429 571.305 548.38C570.682 549.331 570.4 550.435 570.499 551.537C570.672 555.588 580.127 558.219 582.022 555.43C583.916 552.64 581.344 547.408 581.344 547.408H579.953C579.953 547.408 582.699 553.87 577.381 552.388C572.063 550.907 574.461 547.408 574.461 547.408L573.975 546.226Z" fill="#FEDE8A"/>
<path d="M470.772 625.767H592.05V572.041H470.772V625.767Z" fill="#263238"/>
<path opacity="0.6" d="M470.772 625.767H592.05V572.041H470.772V625.767Z" fill="white"/>
<path opacity="0.3" d="M470.789 625.767H556.716V572.041H470.789V625.767Z" fill="white"/>
<path d="M556.716 572.025L565.597 584.759H599.957L592.049 572.025H556.716Z" fill="#263238"/>
<path d="M556.716 572.025L548.982 584.759H463.177L470.789 572.025H556.716Z" fill="#263238"/>
<path opacity="0.4" d="M556.716 572.025L565.597 584.759H599.957L592.049 572.025H556.716Z" fill="white"/>
<path opacity="0.6" d="M556.716 572.025L548.982 584.759H463.177L470.789 572.025H556.716Z" fill="white"/>
<path d="M466.757 574.437H332.479V625.751H466.757V574.437Z" fill="#FEDE8A"/>
<path opacity="0.2" d="M332.479 625.767H430.537V574.452H332.479V625.767Z" fill="white"/>
<path d="M381.804 574.437H368.404V582.127H381.804V574.437Z" fill="#263238"/>
<path d="M381.804 619.951H368.404V625.751H381.804V619.951Z" fill="#263238"/>
<path d="M452.436 523.216H352.918V574.531H452.436V523.216Z" fill="#FEDE8A"/>
<path opacity="0.2" d="M452.436 523.216H352.918V574.531H452.436V523.216Z" fill="white"/>
<path opacity="0.2" d="M352.901 574.531H416.199V523.216H352.901V574.531Z" fill="white"/>
<path opacity="0.2" d="M437.803 523.216H431.024V529.772H437.803V523.216Z" fill="black"/>
<path opacity="0.2" d="M437.803 570.086H431.024V574.547H437.803V570.086Z" fill="black"/>
<path d="M111.406 625.767H218.38L218.38 517.448H111.406L111.406 625.767Z" fill="#FEDE8A"/>
<path opacity="0.2" d="M111.424 625.767H144.237L144.237 517.448H111.424L111.424 625.767Z" fill="black"/>
<path opacity="0.2" d="M151.554 543.216H213.062V522.239H151.554V543.216Z" fill="white"/>
<path opacity="0.2" d="M151.554 569.314H213.062V548.338H151.554V569.314Z" fill="white"/>
<path opacity="0.2" d="M151.554 619.81H213.062V574.468H151.554V619.81Z" fill="white"/>
<path opacity="0.2" d="M181.447 526.289C181.447 526.726 181.59 527.152 181.857 527.515C182.125 527.878 182.505 528.161 182.949 528.328C183.394 528.495 183.883 528.539 184.355 528.453C184.827 528.368 185.261 528.158 185.601 527.85C185.941 527.541 186.173 527.148 186.267 526.72C186.361 526.292 186.313 525.848 186.128 525.445C185.944 525.042 185.632 524.697 185.232 524.455C184.832 524.212 184.362 524.083 183.88 524.083C183.235 524.083 182.616 524.315 182.16 524.729C181.704 525.143 181.447 525.704 181.447 526.289Z" fill="black"/>
<path opacity="0.2" d="M183.88 553.68C185.224 553.68 186.314 552.693 186.314 551.474C186.314 550.255 185.224 549.268 183.88 549.268C182.537 549.268 181.447 550.255 181.447 551.474C181.447 552.693 182.537 553.68 183.88 553.68Z" fill="black"/>
<path opacity="0.2" d="M207.674 597.131C207.725 597.682 208.003 598.195 208.452 598.569C208.901 598.944 209.488 599.151 210.098 599.151C210.708 599.151 211.296 598.944 211.745 598.569C212.194 598.195 212.471 597.682 212.523 597.131C212.551 596.827 212.51 596.52 212.401 596.231C212.292 595.942 212.118 595.677 211.89 595.452C211.662 595.227 211.385 595.047 211.077 594.925C210.768 594.802 210.435 594.738 210.098 594.738C209.761 594.738 209.428 594.802 209.12 594.925C208.811 595.047 208.534 595.227 208.307 595.452C208.079 595.677 207.905 595.942 207.796 596.231C207.687 596.52 207.645 596.827 207.674 597.131Z" fill="black"/>
<path d="M102.142 559.906H96.7021V625.751H102.142V559.906Z" fill="#263238"/>
<path d="M70.3545 582.537H128.508L123.798 545.217H75.0645L70.3545 582.537Z" fill="#FEDE8A"/>
<g opacity="0.6">
<path opacity="0.6" d="M70.3545 582.537H128.508L123.798 545.217H75.0645L70.3545 582.537Z" fill="white"/>
</g>
<path opacity="0.2" d="M96.7021 597.556V625.767H102.142V594.467L96.7021 597.556Z" fill="white"/>
<path d="M108.955 622.867H89.8891L86.5 625.767H112.361L108.955 622.867Z" fill="#FEDE8A"/>
<path opacity="0.2" d="M108.955 622.867H89.8891L86.5 625.767H112.361L108.955 622.867Z" fill="white"/>
<path d="M627.227 353.497C627.227 353.497 625.733 355.499 623.438 358.493C620.988 361.724 617.564 366.105 614.14 370.297C609.395 376.113 604.581 381.55 602.113 383.079C596.187 386.798 567.162 393.559 565.911 393.417C564.659 393.275 562.695 387.523 562.695 387.523C562.695 387.523 589.217 379.47 593.006 377.09C596.795 374.71 610.786 344.892 620.136 341.236L627.227 353.497Z" fill="#E4897B"/>
<path opacity="0.2" d="M623.438 358.493C620.988 361.724 617.564 366.105 614.14 370.297C604.824 359.108 618.033 346.72 618.033 346.72C618.033 346.72 622.656 354.017 623.438 358.493Z" fill="black"/>
<path d="M638.35 472.5C640.245 477.071 641.983 481.704 643.564 486.243C651.594 509.253 655.73 536.675 655.73 536.675C677.195 575.996 692.228 635.065 692.228 635.065L684.286 637.476L632.146 532.325L616.66 496.077L638.35 472.5Z" fill="#E4897B"/>
<path d="M692.541 629.502C692.054 628.651 680.792 634.45 680.792 634.45C680.792 634.45 677.177 644.19 671.024 648.729C664.872 653.268 670.781 655.332 678.55 651.881L697.755 643.434C703.264 641.038 697.529 638.28 692.541 629.502Z" fill="#263238"/>
<path d="M676.081 639.856C675.726 640.032 675.317 640.099 674.917 640.045C674.675 639.981 674.461 639.852 674.302 639.675C674.144 639.497 674.049 639.28 674.031 639.052C673.993 638.88 673.995 638.703 674.037 638.533C674.079 638.362 674.16 638.2 674.274 638.059C674.938 637.394 675.792 636.908 676.742 636.657C675.543 636.657 674.43 636.42 674.083 635.884C673.735 635.349 673.978 635.128 674.378 634.655C674.555 634.45 674.779 634.282 675.034 634.162C675.288 634.043 675.569 633.974 675.856 633.962C677.75 633.867 680.027 635.869 680.148 635.979C680.157 636.015 680.157 636.053 680.148 636.089C680.156 636.12 680.156 636.153 680.148 636.184C680.157 636.215 680.157 636.247 680.148 636.278V636.389C679.02 637.746 677.645 638.918 676.081 639.856ZM676.081 637.571C675.6 637.76 675.172 638.046 674.83 638.406C674.711 638.556 674.661 638.743 674.691 638.926C674.795 639.383 675.004 639.43 675.073 639.446C675.838 639.62 677.663 638.091 679.019 636.688C678.009 636.884 677.025 637.175 676.081 637.555V637.571ZM675.386 634.702C675.204 634.785 675.043 634.904 674.917 635.049C674.795 635.191 674.604 635.443 674.691 635.585C674.969 636.042 677.072 636.137 679.106 635.963C678.227 635.207 677.108 634.722 675.908 634.576C675.745 634.586 675.586 634.623 675.438 634.687L675.386 634.702Z" fill="#FEDE8A"/>
<path d="M603.625 472.233C605.913 485.861 610.088 499.173 616.052 511.853C622.517 525.486 629.66 535.493 634.857 545.847C644.033 564.145 667.879 607.642 667.879 607.642L683.764 596.768C683.764 596.768 658.407 541.356 656.686 530.481C655.574 523.437 654.514 485.581 653.888 459.766C653.558 445.693 653.349 435.212 653.349 435.212L607.953 402.337C601.156 425.108 599.682 448.915 603.625 472.233Z" fill="#263238"/>
<path opacity="0.2" d="M616.051 511.853C622.516 525.486 629.659 535.493 634.856 545.848C644.033 564.145 667.878 607.643 667.878 607.643L683.763 596.768C683.763 596.768 658.406 541.356 656.685 530.482C655.573 523.437 654.513 485.582 653.887 459.767L640.452 434.172L623.072 440.476L628.756 460.318L616.051 511.853Z" fill="black"/>
<path d="M632.632 553.791C620.657 595.113 598.168 644.143 598.168 644.143L590.416 641.432L613.253 553.838L632.632 553.791Z" fill="#E4897B"/>
<path d="M602.321 640.108C602.547 639.178 589.808 637.114 589.808 637.114C589.808 637.114 580.162 642.519 572.237 642.456C564.311 642.393 567.388 647.405 575.713 649.265L596.447 653.867C602.46 655.19 599.992 649.769 602.321 640.108Z" fill="#263238"/>
<path d="M582.421 638.564C582.017 638.507 581.648 638.323 581.379 638.044C581.233 637.857 581.154 637.634 581.154 637.405C581.154 637.177 581.233 636.954 581.379 636.767C581.466 636.612 581.589 636.476 581.738 636.367C581.888 636.259 582.062 636.18 582.248 636.137C583.232 636.017 584.234 636.136 585.15 636.483C584.264 635.774 583.516 634.907 583.655 634.356C583.794 633.804 584.09 633.71 584.733 633.584C585.015 633.526 585.308 633.526 585.591 633.583C585.873 633.641 586.138 633.754 586.367 633.915C587.879 634.923 588.226 637.792 588.244 637.933C588.254 637.975 588.254 638.018 588.244 638.059C588.251 638.071 588.255 638.085 588.255 638.099C588.255 638.113 588.251 638.126 588.244 638.138V638.217H588.122C586.26 638.641 584.329 638.758 582.421 638.564ZM584.02 636.814C583.52 636.674 582.989 636.647 582.474 636.736C582.376 636.757 582.284 636.796 582.204 636.85C582.123 636.904 582.055 636.972 582.004 637.051C581.761 637.476 581.883 637.618 582.004 637.681C582.474 638.249 584.941 638.138 586.975 637.823C586.013 637.395 585.006 637.057 583.968 636.814H584.02ZM585.515 634.198C585.316 634.151 585.106 634.151 584.907 634.198C584.716 634.198 584.385 634.309 584.351 634.482C584.246 635.002 585.793 636.279 587.479 637.334C587.342 636.24 586.825 635.213 586.002 634.403C585.856 634.307 585.691 634.237 585.515 634.198Z" fill="#FEDE8A"/>
<path d="M655.886 397.924C655.886 397.924 673.475 431.588 667.253 463.344C661.031 495.1 642.243 535.84 637.185 545.753C632.128 555.666 613.201 614.199 613.201 614.199L596.829 609.376C596.829 609.376 611.463 551.253 616.051 531.002C618.224 521.435 636.803 453.336 636.803 453.336C636.803 453.336 604.963 431.871 607.257 398.303L655.886 397.924Z" fill="#263238"/>
<path d="M638.089 405.505L612.767 403.267L613.323 396.348L638.611 399.169L638.089 405.505Z" fill="black"/>
<path d="M611.098 396.096L610.542 403.078L607.987 402.841L608.161 395.765L611.098 396.096Z" fill="black"/>
<path d="M640.835 399.421L654.235 400.934L654.079 406.907L640.331 405.694L640.835 399.421Z" fill="black"/>
<path d="M618.307 404.235L628.152 405.234L628.988 398.468L619.143 397.469L618.307 404.235Z" fill="white"/>
<path d="M569.873 387.018C568.516 385.651 567.001 384.42 565.354 383.346C563.877 382.653 550.095 385.663 550.095 387.16C550.095 388.657 554.127 397.073 557.307 396.726C560.488 396.38 568.396 394.205 569.473 392.865C570.551 391.526 569.873 387.018 569.873 387.018Z" fill="#E4897B"/>
<path d="M659.744 395.813C658.988 397.904 658.498 400.066 658.284 402.258L609.134 395.293C609.7 383.857 611.363 372.488 614.104 361.314C615.512 355.357 616.972 350.282 618.032 346.752C619.093 343.222 619.77 341.188 619.77 341.188C647.822 337.579 677.368 350.408 677.368 350.408L675.803 363.473L675.108 369.462C665.775 381.187 661.587 390.234 659.744 395.813Z" fill="#FEDE8A"/>
<path opacity="0.2" d="M659.744 395.813C658.988 397.904 658.498 400.066 658.284 402.258L609.134 395.293C609.7 383.857 611.363 372.488 614.104 361.314C615.512 355.357 616.972 350.282 618.032 346.752C619.093 343.222 619.77 341.188 619.77 341.188C647.822 337.579 677.368 350.408 677.368 350.408L675.803 363.473L675.108 369.462C665.775 381.187 661.587 390.234 659.744 395.813Z" fill="black"/>
<path opacity="0.4" d="M643.651 372.22C640.714 378.208 633.814 381.25 628.235 378.996C622.656 376.743 620.536 370.076 623.473 364.088C626.41 358.099 633.293 355.057 638.871 357.295C644.45 359.533 646.536 366.215 643.651 372.22Z" fill="white"/>
<path opacity="0.2" d="M675.161 369.462C665.775 381.187 661.587 390.234 659.745 395.813C655.591 390.502 656.269 383.205 656.269 383.205L664.124 366.877L675.908 363.41L675.161 369.462Z" fill="black"/>
<path d="M677.42 350.408C666.245 347.445 658.128 375.277 654.357 381.014C650.585 386.751 608.543 392.976 608.543 392.976L610.142 400.446C610.142 400.446 651.124 395.624 656.79 392.566C662.456 389.509 676.898 368.485 679.505 362.622C683.364 354.112 677.42 350.408 677.42 350.408Z" fill="#E4897B"/>
<path d="M613.514 394.961C612.531 393.358 611.366 391.853 610.038 390.47C608.786 389.508 594.604 389.682 594.239 391.132C593.874 392.581 595.751 401.612 598.932 401.911C602.113 402.211 610.368 401.675 611.793 400.603C613.218 399.532 613.514 394.961 613.514 394.961Z" fill="#E4897B"/>
<path d="M641.843 349.305C653.314 350.676 657.903 347.162 657.903 347.162C654.427 342.213 656.999 336.681 659.206 333.387C659.887 332.345 660.66 331.354 661.518 330.424L647.509 329.495C647.331 331.253 647.006 332.997 646.536 334.711C646.216 335.98 645.726 337.208 645.076 338.367C643.112 341.772 640.818 341.283 640.818 341.283C637.307 344.687 641.843 349.305 641.843 349.305Z" fill="#E4897B"/>
<path opacity="0.2" d="M646.536 334.711C646.216 335.98 645.726 337.208 645.076 338.367C650.551 339.014 655.695 336.13 659.206 333.387C659.887 332.345 660.66 331.354 661.518 330.424L647.509 329.495C647.331 331.253 647.006 332.997 646.536 334.711Z" fill="black"/>
<path d="M681.052 307.209C681.052 307.209 690.872 302.324 698.433 312.442C705.993 322.56 693.792 334.269 690.542 341.22C689.597 343.08 689.428 345.189 690.068 347.154C690.707 349.119 692.111 350.807 694.018 351.905C694.018 351.905 681.852 358.351 677.559 344.923C673.266 331.496 679.992 315.357 679.992 315.357L681.052 307.209Z" fill="#263238"/>
<path d="M639.757 311.354C639.757 311.354 650.185 331.638 665.654 332.158C681.122 332.678 700.918 303.207 668.643 294.617C668.643 294.617 634.665 288.25 639.757 311.354Z" fill="#263238"/>
<path d="M665.654 300.796C654.861 295.973 648.552 299.661 642.295 309.385C634.37 321.504 632.632 331.874 647.579 335.2C667.861 339.707 683.486 308.786 665.654 300.796Z" fill="#E4897B"/>
<path d="M649.49 311.954C647.834 313.03 646.043 313.924 644.154 314.617C644.249 315.161 644.509 315.671 644.905 316.088C645.301 316.506 645.817 316.815 646.396 316.981L649.49 311.954Z" fill="#DE5753"/>
<path d="M658.702 313.309L657.189 311.733C657.189 311.733 657.224 313.624 658.702 313.309Z" fill="#263238"/>
<path d="M657.851 313.23C658.178 313.048 658.546 312.933 658.928 312.894C659.31 312.856 659.697 312.894 660.061 313.007C660.425 313.12 660.757 313.305 661.032 313.548C661.308 313.791 661.522 314.086 661.657 314.412C660.764 313.82 659.667 313.535 658.563 313.609C658.908 313.707 659.206 313.909 659.408 314.181C659.61 314.453 659.704 314.779 659.675 315.106C659.675 315.106 659.484 314.27 657.764 313.656L657.851 313.23Z" fill="#263238"/>
<path d="M664.176 311.512C664.039 311.515 663.904 311.474 663.796 311.396C663.688 311.318 663.614 311.209 663.586 311.087C663.3 310.361 662.84 309.701 662.239 309.156C661.638 308.611 660.91 308.194 660.11 307.935C660.031 307.914 659.958 307.878 659.896 307.83C659.833 307.782 659.783 307.723 659.747 307.656C659.711 307.59 659.69 307.517 659.687 307.443C659.684 307.369 659.697 307.295 659.727 307.226C659.779 307.088 659.888 306.975 660.031 306.91C660.174 306.845 660.34 306.834 660.492 306.879C661.495 307.199 662.403 307.724 663.147 308.412C663.892 309.101 664.452 309.935 664.785 310.85C664.803 310.922 664.805 310.996 664.791 311.068C664.777 311.14 664.747 311.209 664.703 311.27C664.66 311.332 664.603 311.385 664.536 311.427C664.47 311.468 664.395 311.497 664.316 311.512H664.176Z" fill="#263238"/>
<path d="M652.689 304.042C652.519 304.039 652.357 303.977 652.237 303.869C651.66 303.433 650.982 303.122 650.253 302.958C649.525 302.795 648.765 302.783 648.031 302.923C647.867 302.941 647.703 302.9 647.572 302.808C647.442 302.717 647.357 302.583 647.335 302.435C647.326 302.362 647.332 302.289 647.354 302.218C647.376 302.148 647.413 302.082 647.463 302.025C647.513 301.968 647.575 301.92 647.646 301.885C647.717 301.85 647.794 301.828 647.874 301.82C648.793 301.665 649.739 301.699 650.641 301.92C651.544 302.141 652.38 302.543 653.088 303.097C653.201 303.202 653.264 303.344 653.264 303.491C653.264 303.638 653.201 303.779 653.088 303.885C652.983 303.983 652.839 304.039 652.689 304.042Z" fill="#263238"/>
<path d="M668.417 322.528C668.417 322.528 667.739 312.253 671.893 306.39C671.893 306.39 654.809 288.928 643.077 308.124C643.077 308.124 650.481 289.732 669.234 297.612C687.987 305.492 674.552 330.062 660.996 333.119C660.979 333.119 668.817 328.943 668.417 322.528Z" fill="#263238"/>
<path d="M665.549 323.805C665.906 323.269 666.376 322.803 666.933 322.433C667.489 322.063 668.122 321.797 668.793 321.651C669.463 321.504 670.16 321.48 670.841 321.579C671.523 321.678 672.175 321.899 672.762 322.229C675.925 324.041 674.135 330.976 665.011 328.769C663.707 328.391 663.603 327.036 665.549 323.805Z" fill="#E4897B"/>
<path d="M679.662 301.41C679.662 301.41 676.064 294.554 670.816 292.269C665.567 289.984 662.247 291.907 662.247 291.907C661.678 290.92 660.855 290.072 659.847 289.436C658.84 288.799 657.678 288.393 656.46 288.25C652.097 287.589 644.085 291.056 638.923 298.684C633.761 306.311 639.758 311.292 639.758 311.292C639.758 311.292 644.103 296.115 658.024 299.141C658.024 299.141 663.742 299.298 664.281 303.869C664.819 308.439 657.954 316.792 669.495 319.471C681.035 322.15 683.034 308.407 679.662 301.41Z" fill="#263238"/>
<path d="M649.769 310.472C649.769 310.472 649.769 308.47 648.031 308.092L647.006 306.674C646.911 306.866 646.86 307.073 646.856 307.283C646.851 307.494 646.893 307.703 646.979 307.898C647.065 308.093 647.193 308.271 647.356 308.421C647.518 308.571 647.713 308.689 647.927 308.77L649.161 309.779C649.161 309.779 647.562 309.006 647.006 309.385C647.058 309.306 649.3 309.826 649.769 310.472Z" fill="#263238"/>
<path d="M653.123 323.301C652.098 323.789 651.663 321.614 649.16 321.473C647.857 321.398 646.568 321.75 645.528 322.466C645.327 322.583 645.14 322.721 644.972 322.875L645.51 320.7L645.719 320.527C646.685 319.711 647.94 319.234 649.259 319.182C650.578 319.13 651.874 319.506 652.914 320.243C653.108 320.691 653.271 321.149 653.401 321.615C653.488 322.308 653.61 323.08 653.123 323.301Z" fill="#263238"/>
<path d="M653.122 323.301C652.097 323.789 651.662 321.614 649.16 321.473C647.857 321.398 646.568 321.75 645.527 322.466L645.979 321.284C647.867 320.688 649.899 320.574 651.854 320.953C649.955 320.401 647.913 320.401 646.014 320.953L645.718 320.527C646.684 319.711 647.939 319.234 649.258 319.182C650.577 319.13 651.874 319.506 652.914 320.243C653.108 320.691 653.27 321.149 653.4 321.615L653.14 321.961L653.122 323.301Z" fill="white"/>
<path d="M294.382 413.748L292.21 459.341C294.109 460.164 296.188 460.591 298.293 460.591C300.398 460.591 302.476 460.164 304.376 459.341L315.03 412.266L294.382 413.748Z" fill="#FEDE8A"/>
<path opacity="0.4" d="M294.382 413.748L292.21 459.341C294.109 460.164 296.188 460.591 298.293 460.591C300.398 460.591 302.476 460.164 304.376 459.341L315.03 412.266L294.382 413.748Z" fill="white"/>
<path d="M528.352 381.565L544.254 424.858C542.679 426.119 540.813 427.045 538.792 427.569C536.772 428.092 534.647 428.2 532.575 427.884L508.069 385.332L528.352 381.565Z" fill="#FEDE8A"/>
<path opacity="0.4" d="M528.352 381.565L544.254 424.858C542.679 426.119 540.813 427.045 538.792 427.569C536.772 428.092 534.647 428.2 532.575 427.884L508.069 385.332L528.352 381.565Z" fill="white"/>
<path d="M352.484 419.626L350.312 465.22C352.211 466.042 354.289 466.469 356.395 466.469C358.5 466.469 360.578 466.042 362.478 465.22L373.131 418.16L352.484 419.626Z" fill="#FEDE8A"/>
<path opacity="0.6" d="M352.484 419.626L350.312 465.22C352.211 466.042 354.289 466.469 356.395 466.469C358.5 466.469 360.578 466.042 362.478 465.22L373.131 418.16L352.484 419.626Z" fill="white"/>
<path d="M586.505 387.46L602.408 430.753C600.832 432.014 598.966 432.94 596.945 433.463C594.925 433.987 592.801 434.095 590.728 433.779L566.223 391.227L586.505 387.46Z" fill="#FEDE8A"/>
<path opacity="0.6" d="M586.505 387.46L602.408 430.753C600.832 432.014 598.966 432.94 596.945 433.463C594.925 433.987 592.801 434.095 590.728 433.779L566.223 391.227L586.505 387.46Z" fill="white"/>
<path d="M534.47 298.242L539.858 299.219L593.197 288.581L527.049 279.125C526.611 279.07 526.166 279.07 525.728 279.125L257.502 319.628C256.141 319.837 254.926 320.526 254.125 321.546C253.323 322.565 253 323.831 253.227 325.066L271.302 423.55C271.457 424.395 271.862 425.186 272.475 425.838C273.087 426.49 273.883 426.98 274.778 427.254L274.43 427.411L341.17 436.867L338.684 418.223L545.506 386.987C546.868 386.778 548.082 386.089 548.884 385.07C549.685 384.05 550.008 382.784 549.782 381.55L534.47 298.242Z" fill="#FEDE8A"/>
<path opacity="0.2" d="M549.764 381.534C549.99 382.769 549.667 384.035 548.866 385.054C548.064 386.073 546.849 386.763 545.488 386.971L350.311 416.458L338.701 418.207L341.186 436.851L274.447 427.395L274.795 427.238C273.9 426.964 273.104 426.475 272.491 425.822C271.879 425.17 271.474 424.379 271.319 423.534L253.244 325.05C253.126 324.458 253.139 323.851 253.282 323.264C253.425 322.677 253.696 322.122 254.078 321.63C254.47 321.092 254.982 320.635 255.58 320.288C256.179 319.94 256.851 319.71 257.554 319.613L525.779 279.11C526.217 279.055 526.662 279.055 527.1 279.11L593.248 288.566L539.909 299.204L534.521 298.226L549.764 381.534Z" fill="black"/>
<path opacity="0.2" d="M338.701 418.208L341.186 436.852L274.447 427.396L274.795 427.238C273.9 426.964 273.104 426.475 272.491 425.823C271.879 425.17 271.474 424.379 271.319 423.535L253.244 325.05C253.126 324.459 253.139 323.852 253.282 323.264C253.425 322.677 253.696 322.122 254.078 321.63L327.074 333.293L350.328 416.411L338.701 418.208Z" fill="black"/>
<path d="M591.699 288.657L323.479 329.14C320.639 329.568 318.719 332.004 319.192 334.58L337.269 433.065C337.742 435.64 340.428 437.381 343.269 436.952L611.489 396.469C614.329 396.041 616.249 393.605 615.776 391.029L597.699 292.545C597.226 289.969 594.54 288.228 591.699 288.657Z" fill="#FEDE8A"/>
<path opacity="0.4" d="M608.643 390.45L591.137 295.074L326.345 335.039L343.852 430.415L608.643 390.45Z" fill="black"/>
<path d="M405.545 325.696L404.971 327.272C404.787 327.771 404.457 328.214 404.016 328.556C403.575 328.897 403.04 329.124 402.468 329.211L385.975 331.701C385.4 331.794 384.807 331.74 384.264 331.545C383.72 331.351 383.248 331.022 382.898 330.598L381.804 329.274L330.22 337.075L335.277 364.576L462.308 345.396L457.268 317.895L405.545 325.696Z" fill="#FEDE8A"/>
<path d="M411.402 357.642L410.846 359.218C410.66 359.715 410.329 360.158 409.888 360.499C409.448 360.841 408.914 361.068 408.343 361.156L391.832 363.662C391.258 363.747 390.669 363.688 390.13 363.49C389.591 363.293 389.121 362.965 388.773 362.543L387.661 361.219L336.042 369.099L346.765 427.522L473.761 408.357L463.038 349.872L411.402 357.642Z" fill="#FEDE8A"/>
<path d="M542.517 337.847L541.943 339.423C541.759 339.922 541.429 340.365 540.988 340.707C540.547 341.048 540.012 341.275 539.44 341.362L522.947 343.852C522.372 343.941 521.781 343.886 521.238 343.691C520.696 343.497 520.222 343.171 519.871 342.748L518.776 341.425L467.14 349.305L477.95 407.648L604.824 388.468L594.101 330.046L542.517 337.847Z" fill="#FEDE8A"/>
<path d="M536.642 305.902L536.086 307.478C535.903 307.981 535.571 308.43 535.127 308.774C534.683 309.119 534.143 309.346 533.566 309.432L517.072 311.922C516.5 312.01 515.911 311.954 515.372 311.76C514.832 311.565 514.362 311.24 514.013 310.819L512.901 309.495L461.282 317.296L466.322 344.797L593.336 325.617L588.278 298.116L536.642 305.902Z" fill="#FEDE8A"/>
<g opacity="0.4">
<path opacity="0.4" d="M405.545 325.696L404.971 327.272C404.787 327.771 404.457 328.214 404.016 328.556C403.575 328.897 403.04 329.124 402.468 329.211L385.975 331.701C385.4 331.794 384.807 331.74 384.264 331.545C383.72 331.351 383.248 331.022 382.898 330.598L381.804 329.274L330.22 337.075L335.277 364.576L462.308 345.396L457.268 317.895L405.545 325.696Z" fill="white"/>
<path opacity="0.4" d="M411.402 357.642L410.846 359.218C410.66 359.715 410.329 360.158 409.888 360.499C409.448 360.841 408.914 361.068 408.343 361.156L391.832 363.662C391.258 363.747 390.669 363.688 390.13 363.49C389.591 363.293 389.121 362.965 388.773 362.543L387.661 361.219L336.042 369.099L346.765 427.522L473.761 408.357L463.038 349.872L411.402 357.642Z" fill="white"/>
<path opacity="0.4" d="M542.517 337.847L541.943 339.423C541.759 339.922 541.429 340.365 540.988 340.707C540.547 341.048 540.012 341.275 539.44 341.362L522.947 343.852C522.372 343.941 521.781 343.886 521.238 343.691C520.695 343.497 520.222 343.171 519.871 342.748L518.776 341.425L467.14 349.305L477.95 407.648L604.824 388.468L594.1 330.046L542.517 337.847Z" fill="white"/>
<path opacity="0.4" d="M536.642 305.902L536.086 307.478C535.903 307.981 535.571 308.43 535.127 308.774C534.683 309.119 534.143 309.346 533.566 309.432L517.072 311.922C516.5 312.01 515.911 311.954 515.372 311.76C514.832 311.565 514.362 311.24 514.013 310.819L512.901 309.495L461.282 317.296L466.322 344.797L593.336 325.617L588.278 298.116L536.642 305.902Z" fill="white"/>
</g>
<path d="M341.03 627.894L331.941 635.995L313.101 617.95L322.173 609.849L341.03 627.894Z" fill="#EBB376"/>
<path opacity="0.2" d="M322.173 609.849L313.101 617.95L322.833 627.248L331.906 619.147L322.173 609.849Z" fill="black"/>
<path d="M327.335 633.552L338.215 624.317C338.393 624.166 338.623 624.075 338.866 624.058C339.109 624.04 339.351 624.099 339.553 624.222L348.799 629.959C349.001 630.077 349.174 630.232 349.306 630.414C349.439 630.596 349.528 630.8 349.569 631.015C349.61 631.23 349.601 631.45 349.544 631.662C349.486 631.873 349.38 632.072 349.234 632.244C349.161 632.344 349.074 632.435 348.973 632.512C345.393 635.459 342.63 637.429 338.215 641.18C335.486 643.497 327.544 650.731 323.79 653.914C320.035 657.098 316.055 654.166 317.272 652.543C322.764 645.325 325.962 639.021 326.362 635.349C326.427 634.661 326.774 634.02 327.335 633.552Z" fill="#263238"/>
<path d="M328.256 612.922L314.352 626.917C314.352 626.917 242.277 567.817 223.368 543.074C221.131 540.037 219.441 536.696 218.362 533.177C208.629 503.847 223.993 450.563 223.993 450.563L224.237 443.628L224.897 424.07L272.223 430.374C272.223 430.374 271.354 435.544 270.068 443.439C267.791 457.497 264.245 480.207 262.142 497.685C260.648 509.962 259.866 519.655 260.717 521.956C263.411 529.331 328.256 612.922 328.256 612.922Z" fill="#263238"/>
<path opacity="0.2" d="M269.998 443.423C267.721 457.481 264.176 480.192 262.073 497.669L218.293 533.177C208.56 503.847 223.924 450.563 223.924 450.563L224.167 443.628C233.031 440.776 241.182 438.601 241.182 438.601L266.87 433.952L269.998 443.423Z" fill="black"/>
<path d="M200.391 338.84C188.521 347.54 209.968 377.326 209.968 377.326L228.39 368.28C228.39 368.28 214.799 328.202 200.391 338.84Z" fill="#FEDE8A"/>
<path opacity="0.5" d="M200.391 338.84C188.521 347.54 209.968 377.326 209.968 377.326L228.39 368.28C228.39 368.28 214.799 328.202 200.391 338.84Z" fill="white"/>
<path d="M325.84 637.429C325.289 637.997 324.53 638.367 323.703 638.469C323.411 638.485 323.12 638.435 322.855 638.322C322.591 638.209 322.362 638.037 322.191 637.823C322.072 637.713 321.991 637.574 321.957 637.423C321.923 637.272 321.938 637.116 321.999 636.972C322.521 635.664 327.074 634.829 327.578 634.734C327.634 634.72 327.693 634.723 327.747 634.743C327.8 634.763 327.845 634.799 327.874 634.844C327.905 634.889 327.921 634.941 327.921 634.994C327.921 635.047 327.905 635.099 327.874 635.144C327.289 635.97 326.607 636.736 325.84 637.429ZM322.781 636.877C322.677 636.949 322.598 637.048 322.556 637.161C322.556 637.161 322.556 637.335 322.66 637.508C322.773 637.649 322.922 637.763 323.095 637.84C323.267 637.917 323.458 637.954 323.65 637.949C325.08 637.513 326.273 636.6 326.987 635.396C325.492 635.634 324.062 636.137 322.781 636.877Z" fill="#FEDE8A"/>
<path d="M327.839 635.128L327.735 635.222C326.344 635.553 322.712 635.222 322.017 634.261C321.899 634.095 321.849 633.896 321.878 633.699C321.907 633.503 322.011 633.322 322.173 633.189C322.312 633.033 322.487 632.906 322.685 632.817C322.882 632.727 323.099 632.677 323.32 632.669C325.145 632.543 327.787 634.702 327.909 634.813C327.933 634.851 327.946 634.895 327.946 634.939C327.946 634.983 327.933 635.026 327.909 635.065C327.891 635.091 327.868 635.112 327.839 635.128ZM322.625 633.363L322.521 633.457C322.243 633.678 322.364 633.851 322.417 633.914C322.851 634.529 325.371 634.923 326.953 634.765C325.929 633.913 324.644 633.364 323.268 633.189C323.035 633.198 322.813 633.282 322.643 633.426L322.625 633.363Z" fill="#FEDE8A"/>
<path d="M317.619 631.724L334.773 612.118L329.003 607.643L310.823 627.689L317.619 631.724Z" fill="#FEDE8A"/>
<path opacity="0.6" d="M317.619 631.724L334.773 612.118L329.003 607.643L310.823 627.689L317.619 631.724Z" fill="white"/>
<path d="M213.461 642.283L201.521 644.852L193.943 619.999L205.901 617.414L213.461 642.283Z" fill="#EBB376"/>
<path opacity="0.2" d="M205.901 617.43L193.961 620.014L197.871 632.827L209.811 630.243L205.901 617.43Z" fill="black"/>
<path d="M199.592 641.653H214.504C214.749 641.655 214.985 641.733 215.175 641.873C215.365 642.013 215.496 642.208 215.547 642.425L217.963 652.322C218.024 652.534 218.036 652.755 217.998 652.971C217.96 653.187 217.873 653.393 217.742 653.577C217.612 653.761 217.44 653.918 217.239 654.039C217.037 654.159 216.81 654.24 216.572 654.277H216.173C211.341 654.277 207.83 653.93 201.782 653.93C198.045 653.93 186.801 654.292 181.656 654.292C176.512 654.292 175.834 649.675 177.937 649.249C187.391 647.389 194.5 644.789 197.541 642.33C198.105 641.877 198.839 641.635 199.592 641.653Z" fill="#263238"/>
<path d="M195.542 643.607C194.706 643.667 193.872 643.467 193.178 643.039C192.953 642.869 192.779 642.649 192.673 642.401C192.566 642.153 192.531 641.885 192.57 641.621C192.57 641.469 192.617 641.321 192.707 641.193C192.796 641.064 192.923 640.962 193.074 640.896C194.43 640.25 198.392 642.472 198.827 642.724C198.877 642.747 198.917 642.784 198.942 642.83C198.967 642.875 198.976 642.926 198.966 642.976C198.958 643.028 198.934 643.075 198.897 643.115C198.86 643.154 198.812 643.182 198.757 643.197C197.706 643.443 196.627 643.58 195.542 643.607ZM193.717 641.306C193.592 641.274 193.46 641.274 193.335 641.306C193.335 641.306 193.161 641.416 193.144 641.621C193.124 641.796 193.149 641.973 193.219 642.137C193.288 642.302 193.399 642.449 193.543 642.567C194.916 643.136 196.476 643.209 197.906 642.772C196.63 642.037 195.206 641.539 193.717 641.306Z" fill="#FEDE8A"/>
<path d="M198.671 643.213H198.532C197.263 642.598 194.813 640.14 195.056 638.974C195.1 638.778 195.218 638.601 195.389 638.475C195.56 638.349 195.774 638.28 195.994 638.28C196.214 638.252 196.438 638.267 196.651 638.324C196.864 638.381 197.061 638.479 197.228 638.611C198.636 639.667 198.966 642.866 198.966 643.008C198.968 643.057 198.956 643.106 198.932 643.15C198.907 643.194 198.872 643.232 198.827 643.26L198.671 643.213ZM196.203 638.706H196.064C195.699 638.706 195.664 638.895 195.647 638.974C195.49 639.683 197.055 641.542 198.323 642.409C198.241 641.14 197.732 639.924 196.863 638.926C196.68 638.782 196.445 638.703 196.203 638.706Z" fill="#FEDE8A"/>
<path d="M288.16 406.435C288.16 406.435 296.85 419.043 294.382 442.588C291.428 469.774 204.25 513.744 202.164 517.732C200.078 521.719 211.775 625.278 211.775 625.278L190.294 626.854C190.294 626.854 150.441 534.091 162.364 504.935C174.287 475.779 241.182 438.538 241.182 438.538L224.828 424.007L288.16 406.435Z" fill="#263238"/>
<path d="M200.392 338.84C200.392 338.84 220.813 322.261 268.278 326.705C268.278 326.705 276.29 377.216 286.093 400.415L222.273 416.38C222.273 416.38 199.87 366.011 200.392 338.84Z" fill="#FEDE8A"/>
<path opacity="0.6" d="M286.093 400.304L222.273 416.38C222.273 416.38 199.87 366.011 200.392 338.84C200.392 338.84 220.813 322.261 268.278 326.705C268.278 326.705 269.773 336.161 272.258 348.643C273.996 357.626 276.308 368.201 278.915 378.114C280.793 385.64 283.191 393.051 286.093 400.304Z" fill="white"/>
<path d="M285.327 400.083L221.751 416.884L224.827 424.07L288.16 406.435L285.327 400.083Z" fill="black"/>
<path d="M236.02 415.528L237.445 418.869C237.72 419.521 238.255 420.055 238.945 420.364C239.634 420.674 240.426 420.737 241.164 420.54L247.143 418.964H247.387C248.1 418.709 248.687 418.227 249.038 417.609C249.226 417.26 249.333 416.88 249.351 416.492C249.369 416.104 249.297 415.717 249.142 415.355L247.717 412.014C247.442 411.359 246.904 410.822 246.21 410.512C245.517 410.203 244.72 410.142 243.98 410.343L238.019 411.919C237.61 412.028 237.231 412.213 236.905 412.462C236.579 412.711 236.314 413.018 236.126 413.365C235.938 413.712 235.832 414.09 235.813 414.476C235.795 414.862 235.866 415.247 236.02 415.607V415.528ZM238.922 418.349L238.453 417.246H238.54L240.191 416.789C240.458 416.713 240.682 416.545 240.815 416.321C240.948 416.098 240.98 415.836 240.904 415.591C240.82 415.35 240.634 415.148 240.386 415.03C240.139 414.912 239.85 414.887 239.583 414.961L237.932 415.418C237.852 415.44 237.776 415.472 237.706 415.513L237.497 415.008C237.411 414.838 237.367 414.652 237.367 414.464C237.367 414.277 237.411 414.091 237.497 413.921C237.656 413.618 237.936 413.382 238.279 413.259H238.418L244.38 411.683C244.728 411.599 245.098 411.634 245.419 411.783C245.739 411.931 245.988 412.182 246.118 412.487L247.543 415.828C247.629 415.998 247.673 416.184 247.673 416.371C247.673 416.559 247.629 416.745 247.543 416.915C247.453 417.086 247.325 417.237 247.166 417.359C247.007 417.481 246.822 417.572 246.622 417.624L240.643 419.2C240.291 419.274 239.922 419.228 239.605 419.071C239.288 418.914 239.045 418.657 238.922 418.349Z" fill="white"/>
<path opacity="0.2" d="M242.729 326.232C239.088 326.914 235.321 326.815 231.73 325.942C228.139 325.069 224.823 323.447 222.047 321.205C221.522 320.288 220.942 319.399 220.309 318.541L231.918 301.016C233.013 308.628 236.107 321.63 242.729 326.232Z" fill="black"/>
<path d="M242.677 279.394C242.677 279.394 249.716 293.578 242.816 301.458C235.916 309.338 227.452 281.852 227.452 281.852L242.677 279.394Z" fill="#263238"/>
<path d="M221.352 319.502C223.912 321.473 227.115 322.626 230.468 322.786C233.822 322.945 237.14 322.102 239.914 320.385C243.552 318.23 246.15 314.9 247.178 311.071C247.318 310.551 247.422 309.999 247.526 309.495C248.986 299.393 245.475 283.27 233.118 280.024C228.896 278.889 224.349 279.32 220.478 281.223C216.606 283.126 213.726 286.345 212.471 290.173C211.711 292.44 211.562 294.84 212.036 297.17C214 308.013 214.591 314.491 221.352 319.502Z" fill="#EBB376"/>
<path d="M230.737 298.463C230.737 299.361 231.432 300.039 232.075 300.039C232.718 300.039 233.153 299.204 233.066 298.321C232.979 297.439 232.353 296.745 231.71 296.745C231.067 296.745 230.633 297.565 230.737 298.463Z" fill="#263238"/>
<path d="M241.86 297.407C241.86 298.305 242.573 298.983 243.216 298.983C243.859 298.983 244.293 298.132 244.189 297.249C244.085 296.367 243.477 295.673 242.833 295.752C242.19 295.831 241.756 296.572 241.86 297.407Z" fill="#263238"/>
<path d="M238.366 298.179C239.856 300.799 241.733 303.222 243.945 305.382C243.317 305.881 242.577 306.252 241.776 306.466C240.975 306.681 240.132 306.736 239.305 306.627L238.366 298.179Z" fill="#D58745"/>
<path d="M226.896 295.516C227.003 295.526 227.111 295.507 227.206 295.462C227.302 295.418 227.381 295.349 227.435 295.264C227.795 294.694 228.297 294.208 228.9 293.844C229.504 293.481 230.192 293.249 230.911 293.168C231.048 293.146 231.172 293.081 231.262 292.985C231.351 292.888 231.401 292.766 231.401 292.64C231.401 292.514 231.351 292.391 231.262 292.295C231.172 292.198 231.048 292.133 230.911 292.112C229.993 292.188 229.109 292.464 228.334 292.917C227.559 293.37 226.917 293.986 226.461 294.712C226.419 294.769 226.389 294.833 226.374 294.9C226.359 294.968 226.358 295.037 226.373 295.104C226.388 295.172 226.417 295.236 226.459 295.293C226.501 295.35 226.555 295.399 226.618 295.437C226.704 295.48 226.798 295.507 226.896 295.516Z" fill="#263238"/>
<path d="M246.24 293.483C246.352 293.522 246.476 293.522 246.588 293.483C246.653 293.449 246.71 293.403 246.755 293.349C246.8 293.294 246.833 293.232 246.851 293.165C246.869 293.099 246.872 293.03 246.859 292.963C246.847 292.895 246.819 292.831 246.779 292.774C246.308 292.053 245.653 291.445 244.87 291.001C244.087 290.557 243.198 290.289 242.277 290.22C242.201 290.218 242.124 290.23 242.053 290.255C241.981 290.281 241.916 290.319 241.861 290.367C241.805 290.416 241.762 290.474 241.732 290.538C241.702 290.602 241.686 290.671 241.687 290.741C241.686 290.877 241.744 291.009 241.847 291.109C241.951 291.208 242.092 291.268 242.243 291.276C242.958 291.354 243.645 291.581 244.248 291.939C244.851 292.297 245.354 292.777 245.719 293.341C245.785 293.403 245.868 293.449 245.959 293.474C246.05 293.498 246.147 293.502 246.24 293.483Z" fill="#263238"/>
<path d="M219.336 282.624L220.796 287.352C219.978 287.859 219.398 288.625 219.17 289.5C218.942 290.374 219.081 291.294 219.562 292.08C221.943 295.894 220.483 302.497 217.476 305.476C217.476 305.476 217.076 303.742 215.529 304.373C213.983 305.003 215.947 314.065 219.857 317.974C219.857 317.974 214.382 314.711 210.072 305.508C206.075 297.013 204.511 289.748 205.953 285.981L219.336 282.624Z" fill="#263238"/>
<path d="M207.778 306.611C208.583 307.779 209.634 308.791 210.872 309.589C212.11 310.387 213.51 310.955 214.991 311.26C218.936 312.064 220.709 308.817 219.44 305.523C218.276 302.608 214.835 298.573 210.942 299.219C210.091 299.381 209.299 299.732 208.636 300.241C207.974 300.751 207.462 301.402 207.148 302.137C206.834 302.871 206.727 303.665 206.837 304.446C206.947 305.228 207.271 305.972 207.778 306.611Z" fill="#EBB376"/>
<path d="M220.726 287.336C220.726 287.336 226.809 289.685 228.512 288.014C230.215 286.344 227.834 284.673 227.834 284.673C227.834 284.673 236.194 287.541 239.566 286.58C242.938 285.619 239.097 281.852 239.097 281.852C239.097 281.852 245.492 287.762 247.526 285.414C248.517 284.279 247.404 276.052 235.256 273.389C223.107 270.725 212.245 275.706 209.881 279.835C207.878 280.489 206.177 281.735 205.051 283.374C203.925 285.012 203.441 286.947 203.676 288.865C204.789 297.864 220.726 287.336 220.726 287.336Z" fill="#263238"/>
<path d="M238.106 309.432C237.176 310.469 236.329 311.565 235.569 312.71L234.856 312.442C231.589 311.245 230.529 309.716 230.32 308.376C230.239 307.72 230.328 307.057 230.581 306.438C230.721 306.087 230.908 305.754 231.137 305.445C232.786 306.998 234.783 308.213 236.994 309.007C237.585 309.29 238.106 309.432 238.106 309.432Z" fill="#263238"/>
<path d="M236.906 309.007L236.142 309.952C233.065 308.817 231.084 307.635 230.493 306.438C230.633 306.087 230.82 305.754 231.049 305.445C232.698 306.998 234.696 308.213 236.906 309.007Z" fill="white"/>
<path d="M234.769 312.442C231.501 311.244 230.441 309.716 230.232 308.376C231.463 308.85 232.588 309.522 233.552 310.362C234.187 310.923 234.612 311.651 234.769 312.442Z" fill="#DE5753"/>
<path d="M189.216 632.496L214.956 626.948L213.131 619.967L186.296 625.278L189.216 632.496Z" fill="#FEDE8A"/>
<path opacity="0.6" d="M189.216 632.496L214.956 626.948L213.131 619.967L186.296 625.278L189.216 632.496Z" fill="white"/>
<path opacity="0.2" d="M278.914 378.051C269.112 367.602 263.029 347.934 263.15 344.782C263.15 344.782 266.956 346.2 272.257 348.58C274.03 357.563 276.342 368.138 278.914 378.051Z" fill="black"/>
<path d="M275.091 332.915L276.29 334.491C281.087 341.047 298.988 365.459 302.986 370.739C307.591 376.901 324.346 421.596 324.346 421.596L317.255 425.883C317.255 425.883 298.415 384.213 295.356 379.485C292.297 374.757 275.803 356.744 275.803 356.744" fill="#EBB376"/>
<path d="M270.484 326.673C278.34 329.51 293.27 352.031 293.27 352.031L282.025 366.735L271.51 361.503C266.272 355.673 263.152 348.517 262.577 341.015C261.36 328.044 270.484 326.673 270.484 326.673Z" fill="#FEDE8A"/>
<path opacity="0.6" d="M270.484 326.673C278.34 329.51 293.27 352.031 293.27 352.031L282.025 366.735L271.51 361.503C266.272 355.673 263.152 348.517 262.577 341.015C261.36 328.044 270.484 326.673 270.484 326.673Z" fill="white"/>
<path d="M321.878 420.65C323.688 420.301 325.559 420.301 327.37 420.65C330.359 421.281 338.562 435.417 338.562 435.417C338.562 435.417 327.978 441.721 324.346 439.562C320.713 437.403 313.674 428.325 316.403 424.07C319.132 419.815 321.878 420.65 321.878 420.65Z" fill="#EBB376"/>
<path d="M211.775 357.137L241.843 354.773L251.68 389.666L223.09 394L211.775 357.137Z" fill="#FEDE8A"/>
<path opacity="0.2" d="M220.083 363.804L246.101 362.149L254.687 392.692L229.068 396.38L220.083 363.804Z" fill="black"/>
</svg>
