<svg width="153" height="128" viewBox="0 0 153 128" fill="none" xmlns="http://www.w3.org/2000/svg">
<path d="M134.15 10.456H95.5498C95.5498 10.456 99.3757 0 105.268 0C111.16 0 112.999 7.21665 112.999 7.21665C112.999 7.21665 116.973 3.29612 120.239 3.29612C123.504 3.29612 126.343 8.47682 126.343 8.47682C126.343 8.47682 130.956 5.69158 134.15 10.456Z" fill="#EBEBEB"/>
<path opacity="0.5" d="M152.128 21.6126H134.1C134.1 21.6126 138.126 15.7734 141.309 15.7734C144.491 15.7734 145.422 19.6675 145.422 19.6675C145.422 19.6675 147.663 17.8472 149.74 18.1538C151.818 18.4603 152.128 21.6126 152.128 21.6126Z" fill="#EBEBEB"/>
<path opacity="0.5" d="M115.55 43.3372H97.5107C97.5107 43.3372 101.541 37.498 104.72 37.498C107.899 37.498 108.833 41.3883 108.833 41.3883C108.833 41.3883 111.074 39.5718 113.151 39.8973C115.229 40.2227 115.55 43.3372 115.55 43.3372Z" fill="#EBEBEB"/>
<path d="M35.1258 47.8255H0C0 47.8255 4.79848 37.0819 9.94513 36.397C15.0918 35.712 17.5553 44.378 17.5553 44.378C17.5553 44.378 20.878 41.3203 23.4891 41.3203C26.1003 41.3203 28.1135 45.3468 28.1135 45.3468C28.1135 45.3468 33.3359 42.6032 35.1258 47.8255Z" fill="#EBEBEB"/>
<path opacity="0.5" d="M51.1774 16.2529H27.4385C27.4385 16.2529 31.5179 8.46863 35.9531 8.35511C40.3883 8.24158 42.6892 14.2472 42.6892 14.2472C42.6892 14.2472 49.5766 8.72596 51.1774 16.2529Z" fill="#EBEBEB"/>
<path d="M89.31 53.2832H75.2021V127.243H89.31V53.2832Z" fill="#DBDBDB"/>
<path d="M80.144 55.6865H77.4004V58.5096H80.144V55.6865Z" fill="#EBEBEB"/>
<path d="M83.6469 55.6865H80.9033V58.5096H83.6469V55.6865Z" fill="#EBEBEB"/>
<path d="M80.144 60.4805H77.4004V63.3036H80.144V60.4805Z" fill="#EBEBEB"/>
<path d="M83.6469 60.4805H80.9033V63.3036H83.6469V60.4805Z" fill="#EBEBEB"/>
<path d="M80.144 65.2754H77.4004V68.0985H80.144V65.2754Z" fill="#EBEBEB"/>
<path d="M83.6469 65.2754H80.9033V68.0985H83.6469V65.2754Z" fill="#EBEBEB"/>
<path d="M80.144 70.0703H77.4004V72.8934H80.144V70.0703Z" fill="#EBEBEB"/>
<path d="M83.6469 70.0703H80.9033V72.8934H83.6469V70.0703Z" fill="#EBEBEB"/>
<path d="M80.144 74.8643H77.4004V77.6873H80.144V74.8643Z" fill="#EBEBEB"/>
<path d="M83.6469 74.8643H80.9033V77.6873H83.6469V74.8643Z" fill="#EBEBEB"/>
<path d="M80.144 79.6602H77.4004V82.4832H80.144V79.6602Z" fill="#EBEBEB"/>
<path d="M83.6469 79.6602H80.9033V82.4832H83.6469V79.6602Z" fill="#EBEBEB"/>
<path d="M80.144 84.4531H77.4004V87.2762H80.144V84.4531Z" fill="#EBEBEB"/>
<path d="M83.6469 84.4531H80.9033V87.2762H83.6469V84.4531Z" fill="#EBEBEB"/>
<path d="M80.144 89.248H77.4004V92.0711H80.144V89.248Z" fill="#EBEBEB"/>
<path d="M83.6469 89.248H80.9033V92.0711H83.6469V89.248Z" fill="#EBEBEB"/>
<path d="M80.144 94.043H77.4004V96.866H80.144V94.043Z" fill="#EBEBEB"/>
<path d="M83.6469 94.043H80.9033V96.866H83.6469V94.043Z" fill="#EBEBEB"/>
<path d="M80.144 98.8389H77.4004V101.662H80.144V98.8389Z" fill="#EBEBEB"/>
<path d="M83.6469 98.8389H80.9033V101.662H83.6469V98.8389Z" fill="#EBEBEB"/>
<path d="M80.144 103.634H77.4004V106.457H80.144V103.634Z" fill="#EBEBEB"/>
<path d="M83.6469 103.634H80.9033V106.457H83.6469V103.634Z" fill="#EBEBEB"/>
<path d="M80.144 108.429H77.4004V111.252H80.144V108.429Z" fill="#EBEBEB"/>
<path d="M83.6469 108.429H80.9033V111.252H83.6469V108.429Z" fill="#EBEBEB"/>
<path d="M80.144 113.223H77.4004V116.046H80.144V113.223Z" fill="#EBEBEB"/>
<path d="M83.6469 113.223H80.9033V116.046H83.6469V113.223Z" fill="#EBEBEB"/>
<path d="M80.144 118.018H77.4004V120.841H80.144V118.018Z" fill="#EBEBEB"/>
<path d="M84.3794 120.837H87.123V118.014H84.3794V120.837Z" fill="#EBEBEB"/>
<path d="M84.3794 116.041H87.123V113.218H84.3794V116.041Z" fill="#EBEBEB"/>
<path d="M84.3794 111.246H87.123V108.423H84.3794V111.246Z" fill="#EBEBEB"/>
<path d="M84.3794 106.456H87.123V103.633H84.3794V106.456Z" fill="#EBEBEB"/>
<path d="M84.3794 101.662H87.123V98.839H84.3794V101.662Z" fill="#EBEBEB"/>
<path d="M84.3794 96.8652H87.123V94.0421H84.3794V96.8652Z" fill="#EBEBEB"/>
<path d="M84.3794 92.0713H87.123V89.2482H84.3794V92.0713Z" fill="#EBEBEB"/>
<path d="M84.3794 87.2773H87.123V84.4542H84.3794V87.2773Z" fill="#EBEBEB"/>
<path d="M84.3794 82.4824H87.123V79.6593H84.3794V82.4824Z" fill="#EBEBEB"/>
<path d="M84.3794 77.6875H87.123V74.8644H84.3794V77.6875Z" fill="#EBEBEB"/>
<path d="M84.3794 72.8936H87.123V70.0705H84.3794V72.8936Z" fill="#EBEBEB"/>
<path d="M84.3794 68.0977H87.123V65.2746H84.3794V68.0977Z" fill="#EBEBEB"/>
<path d="M84.3794 63.3047H87.123V60.4816H84.3794V63.3047Z" fill="#EBEBEB"/>
<path d="M84.3794 58.5098H87.123V55.6867H84.3794V58.5098Z" fill="#EBEBEB"/>
<path d="M83.6469 118.018H80.9033V120.841H83.6469V118.018Z" fill="#EBEBEB"/>
<path d="M100.438 53.2832H89.3125V127.243H100.438V53.2832Z" fill="#A6A6A6"/>
<path d="M97.0223 120.837H99.2891V118.014H97.0223V120.837Z" fill="#C7C7C7"/>
<path d="M94.1305 120.837H96.3936V118.014H94.1305V120.837Z" fill="#C7C7C7"/>
<path d="M97.0223 116.041H99.2891V113.218H97.0223V116.041Z" fill="#C7C7C7"/>
<path d="M94.1305 116.041H96.3936V113.218H94.1305V116.041Z" fill="#C7C7C7"/>
<path d="M97.0223 111.246H99.2891V108.423H97.0223V111.246Z" fill="#C7C7C7"/>
<path d="M94.1305 111.246H96.3936V108.423H94.1305V111.246Z" fill="#C7C7C7"/>
<path d="M97.0223 106.456H99.2891V103.633H97.0223V106.456Z" fill="#C7C7C7"/>
<path d="M94.1305 106.456H96.3936V103.633H94.1305V106.456Z" fill="#C7C7C7"/>
<path d="M97.0223 101.662H99.2891V98.839H97.0223V101.662Z" fill="#C7C7C7"/>
<path d="M94.1305 101.662H96.3936V98.839H94.1305V101.662Z" fill="#C7C7C7"/>
<path d="M97.0223 96.8652H99.2891V94.0421H97.0223V96.8652Z" fill="#C7C7C7"/>
<path d="M94.1305 96.8652H96.3936V94.0421H94.1305V96.8652Z" fill="#C7C7C7"/>
<path d="M97.0223 92.0713H99.2891V89.2482H97.0223V92.0713Z" fill="#C7C7C7"/>
<path d="M94.1305 92.0713H96.3936V89.2482H94.1305V92.0713Z" fill="#C7C7C7"/>
<path d="M97.0223 87.2773H99.2891V84.4542H97.0223V87.2773Z" fill="#C7C7C7"/>
<path d="M94.1305 87.2773H96.3936V84.4542H94.1305V87.2773Z" fill="#C7C7C7"/>
<path d="M97.0223 82.4824H99.2891V79.6593H97.0223V82.4824Z" fill="#C7C7C7"/>
<path d="M94.1305 82.4824H96.3936V79.6593H94.1305V82.4824Z" fill="#C7C7C7"/>
<path d="M97.0223 77.6875H99.2891V74.8644H97.0223V77.6875Z" fill="#C7C7C7"/>
<path d="M94.1305 77.6875H96.3936V74.8644H94.1305V77.6875Z" fill="#C7C7C7"/>
<path d="M97.0223 72.8936H99.2891V70.0705H97.0223V72.8936Z" fill="#C7C7C7"/>
<path d="M94.1305 72.8936H96.3936V70.0705H94.1305V72.8936Z" fill="#C7C7C7"/>
<path d="M97.0223 68.0977H99.2891V65.2746H97.0223V68.0977Z" fill="#C7C7C7"/>
<path d="M94.1305 68.0977H96.3936V65.2746H94.1305V68.0977Z" fill="#C7C7C7"/>
<path d="M97.0223 63.3047H99.2891V60.4816H97.0223V63.3047Z" fill="#C7C7C7"/>
<path d="M94.1305 63.3047H96.3936V60.4816H94.1305V63.3047Z" fill="#C7C7C7"/>
<path d="M97.0223 58.5098H99.2891V55.6867H97.0223V58.5098Z" fill="#C7C7C7"/>
<path d="M93.5228 55.6865H91.2598V58.5096H93.5228V55.6865Z" fill="#C7C7C7"/>
<path d="M93.5228 60.4805H91.2598V63.3036H93.5228V60.4805Z" fill="#C7C7C7"/>
<path d="M93.5228 65.2754H91.2598V68.0985H93.5228V65.2754Z" fill="#C7C7C7"/>
<path d="M93.5228 70.0703H91.2598V72.8934H93.5228V70.0703Z" fill="#C7C7C7"/>
<path d="M93.5228 74.8643H91.2598V77.6873H93.5228V74.8643Z" fill="#C7C7C7"/>
<path d="M93.5228 79.6602H91.2598V82.4832H93.5228V79.6602Z" fill="#C7C7C7"/>
<path d="M93.5228 84.4531H91.2598V87.2762H93.5228V84.4531Z" fill="#C7C7C7"/>
<path d="M93.5228 89.248H91.2598V92.0711H93.5228V89.248Z" fill="#C7C7C7"/>
<path d="M93.5228 94.043H91.2598V96.866H93.5228V94.043Z" fill="#C7C7C7"/>
<path d="M93.5228 98.8389H91.2598V101.662H93.5228V98.8389Z" fill="#C7C7C7"/>
<path d="M93.5228 103.634H91.2598V106.457H93.5228V103.634Z" fill="#C7C7C7"/>
<path d="M93.5228 108.429H91.2598V111.252H93.5228V108.429Z" fill="#C7C7C7"/>
<path d="M93.5228 113.223H91.2598V116.046H93.5228V113.223Z" fill="#C7C7C7"/>
<path d="M93.5228 118.018H91.2598V120.841H93.5228V118.018Z" fill="#C7C7C7"/>
<path d="M94.1305 58.5098H96.3936V55.6867H94.1305V58.5098Z" fill="#C7C7C7"/>
<path d="M38.5902 51.6709H23.873V127.243H38.5902V51.6709Z" fill="#EBEBEB"/>
<path d="M38.5924 50.165H23.5195V51.6712H38.5924V50.165Z" fill="#C7C7C7"/>
<path d="M26.6912 53.8887H25.2002V127.243H26.6912V53.8887Z" fill="white"/>
<path d="M29.3318 53.8887H27.8408V127.243H29.3318V53.8887Z" fill="white"/>
<path d="M31.9725 53.8887H30.4814V127.243H31.9725V53.8887Z" fill="white"/>
<path d="M34.6131 53.8887H33.1221V127.243H34.6131V53.8887Z" fill="white"/>
<path d="M37.2576 53.8887H35.7666V127.243H37.2576V53.8887Z" fill="white"/>
<path d="M26.6912 55.7881H25.2002V58.7588H26.6912V55.7881Z" fill="#EBEBEB"/>
<path d="M29.3318 55.7881H27.8408V58.7588H29.3318V55.7881Z" fill="#EBEBEB"/>
<path d="M31.9725 55.7881H30.4814V58.7588H31.9725V55.7881Z" fill="#EBEBEB"/>
<path d="M34.6131 55.7881H33.1221V58.7588H34.6131V55.7881Z" fill="#EBEBEB"/>
<path d="M37.2576 55.7881H35.7666V58.7588H37.2576V55.7881Z" fill="#EBEBEB"/>
<path d="M26.6912 60.6162H25.2002V63.5869H26.6912V60.6162Z" fill="#EBEBEB"/>
<path d="M29.3318 60.6162H27.8408V63.5869H29.3318V60.6162Z" fill="#EBEBEB"/>
<path d="M31.9725 60.6162H30.4814V63.5869H31.9725V60.6162Z" fill="#EBEBEB"/>
<path d="M34.6131 60.6162H33.1221V63.5869H34.6131V60.6162Z" fill="#EBEBEB"/>
<path d="M37.2576 60.6162H35.7666V63.5869H37.2576V60.6162Z" fill="#EBEBEB"/>
<path d="M26.6912 65.4463H25.2002V68.417H26.6912V65.4463Z" fill="#EBEBEB"/>
<path d="M29.3318 65.4463H27.8408V68.417H29.3318V65.4463Z" fill="#EBEBEB"/>
<path d="M31.9725 65.4463H30.4814V68.417H31.9725V65.4463Z" fill="#EBEBEB"/>
<path d="M34.6131 65.4463H33.1221V68.417H34.6131V65.4463Z" fill="#EBEBEB"/>
<path d="M37.2576 65.4463H35.7666V68.417H37.2576V65.4463Z" fill="#EBEBEB"/>
<path d="M26.6912 70.2734H25.2002V73.2441H26.6912V70.2734Z" fill="#EBEBEB"/>
<path d="M29.3318 70.2734H27.8408V73.2441H29.3318V70.2734Z" fill="#EBEBEB"/>
<path d="M31.9725 70.2734H30.4814V73.2441H31.9725V70.2734Z" fill="#EBEBEB"/>
<path d="M34.6131 70.2734H33.1221V73.2441H34.6131V70.2734Z" fill="#EBEBEB"/>
<path d="M37.2576 70.2734H35.7666V73.2441H37.2576V70.2734Z" fill="#EBEBEB"/>
<path d="M26.6912 75.1025H25.2002V78.0732H26.6912V75.1025Z" fill="#EBEBEB"/>
<path d="M29.3318 75.1025H27.8408V78.0732H29.3318V75.1025Z" fill="#EBEBEB"/>
<path d="M31.9725 75.1025H30.4814V78.0732H31.9725V75.1025Z" fill="#EBEBEB"/>
<path d="M34.6131 75.1025H33.1221V78.0732H34.6131V75.1025Z" fill="#EBEBEB"/>
<path d="M37.2576 75.1025H35.7666V78.0732H37.2576V75.1025Z" fill="#EBEBEB"/>
<path d="M26.6912 79.9277H25.2002V82.8984H26.6912V79.9277Z" fill="#EBEBEB"/>
<path d="M29.3318 79.9277H27.8408V82.8984H29.3318V79.9277Z" fill="#EBEBEB"/>
<path d="M31.9725 79.9277H30.4814V82.8984H31.9725V79.9277Z" fill="#EBEBEB"/>
<path d="M34.6131 79.9277H33.1221V82.8984H34.6131V79.9277Z" fill="#EBEBEB"/>
<path d="M37.2576 79.9277H35.7666V82.8984H37.2576V79.9277Z" fill="#EBEBEB"/>
<path d="M26.6912 84.7568H25.2002V87.7275H26.6912V84.7568Z" fill="#EBEBEB"/>
<path d="M29.3318 84.7568H27.8408V87.7275H29.3318V84.7568Z" fill="#EBEBEB"/>
<path d="M31.9725 84.7568H30.4814V87.7275H31.9725V84.7568Z" fill="#EBEBEB"/>
<path d="M34.6131 84.7568H33.1221V87.7275H34.6131V84.7568Z" fill="#EBEBEB"/>
<path d="M37.2576 84.7568H35.7666V87.7275H37.2576V84.7568Z" fill="#EBEBEB"/>
<path d="M26.6912 89.585H25.2002V92.5556H26.6912V89.585Z" fill="#EBEBEB"/>
<path d="M29.3318 89.585H27.8408V92.5556H29.3318V89.585Z" fill="#EBEBEB"/>
<path d="M31.9725 89.585H30.4814V92.5556H31.9725V89.585Z" fill="#EBEBEB"/>
<path d="M34.6131 89.585H33.1221V92.5556H34.6131V89.585Z" fill="#EBEBEB"/>
<path d="M37.2576 89.585H35.7666V92.5556H37.2576V89.585Z" fill="#EBEBEB"/>
<path d="M26.6912 94.415H25.2002V97.3857H26.6912V94.415Z" fill="#EBEBEB"/>
<path d="M29.3318 94.415H27.8408V97.3857H29.3318V94.415Z" fill="#EBEBEB"/>
<path d="M31.9725 94.415H30.4814V97.3857H31.9725V94.415Z" fill="#EBEBEB"/>
<path d="M34.6131 94.415H33.1221V97.3857H34.6131V94.415Z" fill="#EBEBEB"/>
<path d="M37.2576 94.415H35.7666V97.3857H37.2576V94.415Z" fill="#EBEBEB"/>
<path d="M26.6912 99.2422H25.2002V102.213H26.6912V99.2422Z" fill="#EBEBEB"/>
<path d="M29.3318 99.2422H27.8408V102.213H29.3318V99.2422Z" fill="#EBEBEB"/>
<path d="M31.9725 99.2422H30.4814V102.213H31.9725V99.2422Z" fill="#EBEBEB"/>
<path d="M34.6131 99.2422H33.1221V102.213H34.6131V99.2422Z" fill="#EBEBEB"/>
<path d="M37.2576 99.2422H35.7666V102.213H37.2576V99.2422Z" fill="#EBEBEB"/>
<path d="M26.6912 104.072H25.2002V107.043H26.6912V104.072Z" fill="#EBEBEB"/>
<path d="M29.3318 104.072H27.8408V107.043H29.3318V104.072Z" fill="#EBEBEB"/>
<path d="M31.9725 104.072H30.4814V107.043H31.9725V104.072Z" fill="#EBEBEB"/>
<path d="M34.6131 104.072H33.1221V107.043H34.6131V104.072Z" fill="#EBEBEB"/>
<path d="M37.2576 104.072H35.7666V107.043H37.2576V104.072Z" fill="#EBEBEB"/>
<path d="M26.6912 108.896H25.2002V111.867H26.6912V108.896Z" fill="#EBEBEB"/>
<path d="M29.3318 108.896H27.8408V111.867H29.3318V108.896Z" fill="#EBEBEB"/>
<path d="M31.9725 108.896H30.4814V111.867H31.9725V108.896Z" fill="#EBEBEB"/>
<path d="M34.6131 108.896H33.1221V111.867H34.6131V108.896Z" fill="#EBEBEB"/>
<path d="M37.2576 108.896H35.7666V111.867H37.2576V108.896Z" fill="#EBEBEB"/>
<path d="M26.6912 113.726H25.2002V116.696H26.6912V113.726Z" fill="#EBEBEB"/>
<path d="M29.3318 113.726H27.8408V116.696H29.3318V113.726Z" fill="#EBEBEB"/>
<path d="M31.9725 113.726H30.4814V116.696H31.9725V113.726Z" fill="#EBEBEB"/>
<path d="M34.6131 113.726H33.1221V116.696H34.6131V113.726Z" fill="#EBEBEB"/>
<path d="M37.2576 113.726H35.7666V116.696H37.2576V113.726Z" fill="#EBEBEB"/>
<path d="M26.6912 118.555H25.2002V127.243H26.6912V118.555Z" fill="#EBEBEB"/>
<path d="M29.3318 118.555H27.8408V127.243H29.3318V118.555Z" fill="#EBEBEB"/>
<path d="M31.9725 118.555H30.4814V127.243H31.9725V118.555Z" fill="#EBEBEB"/>
<path d="M34.6131 118.555H33.1221V127.243H34.6131V118.555Z" fill="#EBEBEB"/>
<path d="M37.2576 118.555H35.7666V127.243H37.2576V118.555Z" fill="#EBEBEB"/>
<path d="M48.0402 51.6709H38.5908V127.243H48.0402V51.6709Z" fill="#DBDBDB"/>
<path d="M48.4489 50.165H38.5908V51.6712H48.4489V50.165Z" fill="#C7C7C7"/>
<path d="M41.409 53.8887H39.918V127.243H41.409V53.8887Z" fill="#C7C7C7"/>
<path d="M44.0447 53.8887H42.5537V127.243H44.0447V53.8887Z" fill="#C7C7C7"/>
<path d="M46.6941 53.8887H45.2031V127.243H46.6941V53.8887Z" fill="#C7C7C7"/>
<path d="M41.409 55.7881H39.918V58.7588H41.409V55.7881Z" fill="#DBDBDB"/>
<path d="M44.0447 55.7881H42.5537V58.7588H44.0447V55.7881Z" fill="#DBDBDB"/>
<path d="M46.6941 55.7881H45.2031V58.7588H46.6941V55.7881Z" fill="#DBDBDB"/>
<path d="M41.409 60.6162H39.918V63.5869H41.409V60.6162Z" fill="#DBDBDB"/>
<path d="M44.0447 60.6162H42.5537V63.5869H44.0447V60.6162Z" fill="#DBDBDB"/>
<path d="M46.6941 60.6162H45.2031V63.5869H46.6941V60.6162Z" fill="#DBDBDB"/>
<path d="M41.409 65.4463H39.918V68.417H41.409V65.4463Z" fill="#DBDBDB"/>
<path d="M44.0447 65.4463H42.5537V68.417H44.0447V65.4463Z" fill="#DBDBDB"/>
<path d="M46.6941 65.4463H45.2031V68.417H46.6941V65.4463Z" fill="#DBDBDB"/>
<path d="M41.409 70.2734H39.918V73.2441H41.409V70.2734Z" fill="#DBDBDB"/>
<path d="M44.0447 70.2734H42.5537V73.2441H44.0447V70.2734Z" fill="#DBDBDB"/>
<path d="M46.6941 70.2734H45.2031V73.2441H46.6941V70.2734Z" fill="#DBDBDB"/>
<path d="M41.409 75.1025H39.918V78.0732H41.409V75.1025Z" fill="#DBDBDB"/>
<path d="M44.0447 75.1025H42.5537V78.0732H44.0447V75.1025Z" fill="#DBDBDB"/>
<path d="M46.6941 75.1025H45.2031V78.0732H46.6941V75.1025Z" fill="#DBDBDB"/>
<path d="M41.409 79.9277H39.918V82.8984H41.409V79.9277Z" fill="#DBDBDB"/>
<path d="M44.0447 79.9277H42.5537V82.8984H44.0447V79.9277Z" fill="#DBDBDB"/>
<path d="M46.6941 79.9277H45.2031V82.8984H46.6941V79.9277Z" fill="#DBDBDB"/>
<path d="M41.409 84.7568H39.918V87.7275H41.409V84.7568Z" fill="#DBDBDB"/>
<path d="M44.0447 84.7568H42.5537V87.7275H44.0447V84.7568Z" fill="#DBDBDB"/>
<path d="M46.6941 84.7568H45.2031V87.7275H46.6941V84.7568Z" fill="#DBDBDB"/>
<path d="M41.409 89.585H39.918V92.5556H41.409V89.585Z" fill="#DBDBDB"/>
<path d="M44.0447 89.585H42.5537V92.5556H44.0447V89.585Z" fill="#DBDBDB"/>
<path d="M46.6941 89.585H45.2031V92.5556H46.6941V89.585Z" fill="#DBDBDB"/>
<path d="M41.409 94.415H39.918V97.3857H41.409V94.415Z" fill="#DBDBDB"/>
<path d="M44.0447 94.415H42.5537V97.3857H44.0447V94.415Z" fill="#DBDBDB"/>
<path d="M46.6941 94.415H45.2031V97.3857H46.6941V94.415Z" fill="#DBDBDB"/>
<path d="M41.409 99.2422H39.918V102.213H41.409V99.2422Z" fill="#DBDBDB"/>
<path d="M44.0447 99.2422H42.5537V102.213H44.0447V99.2422Z" fill="#DBDBDB"/>
<path d="M46.6941 99.2422H45.2031V102.213H46.6941V99.2422Z" fill="#DBDBDB"/>
<path d="M41.409 104.072H39.918V107.043H41.409V104.072Z" fill="#DBDBDB"/>
<path d="M44.0447 104.072H42.5537V107.043H44.0447V104.072Z" fill="#DBDBDB"/>
<path d="M46.6941 104.072H45.2031V107.043H46.6941V104.072Z" fill="#DBDBDB"/>
<path d="M41.409 108.896H39.918V111.867H41.409V108.896Z" fill="#DBDBDB"/>
<path d="M44.0447 108.896H42.5537V111.867H44.0447V108.896Z" fill="#DBDBDB"/>
<path d="M46.6941 108.896H45.2031V111.867H46.6941V108.896Z" fill="#DBDBDB"/>
<path d="M41.409 113.726H39.918V116.696H41.409V113.726Z" fill="#DBDBDB"/>
<path d="M44.0447 113.726H42.5537V116.696H44.0447V113.726Z" fill="#DBDBDB"/>
<path d="M46.6941 113.726H45.2031V116.696H46.6941V113.726Z" fill="#DBDBDB"/>
<path d="M41.409 118.555H39.918V127.243H41.409V118.555Z" fill="#DBDBDB"/>
<path d="M44.0447 118.555H42.5537V127.243H44.0447V118.555Z" fill="#DBDBDB"/>
<path d="M46.6941 118.555H45.2031V127.243H46.6941V118.555Z" fill="#DBDBDB"/>
<path d="M17.2308 74.3037H3.27051V127.242H17.2308V74.3037Z" fill="#EBEBEB"/>
<path d="M17.2323 70.793H5.25879V74.3048H17.2323V70.793Z" fill="#C7C7C7"/>
<path d="M15.6976 76.1357H4.79883V115.712H15.6976V76.1357Z" fill="#DBDBDB"/>
<path d="M15.6976 79.9131H4.79883V80.8478H15.6976V79.9131Z" fill="white"/>
<path d="M15.6976 83.7881H4.79883V84.7228H15.6976V83.7881Z" fill="white"/>
<path d="M15.6976 87.6592H4.79883V88.5939H15.6976V87.6592Z" fill="white"/>
<path d="M15.6976 91.5352H4.79883V92.4699H15.6976V91.5352Z" fill="white"/>
<path d="M15.6976 95.4092H4.79883V96.3439H15.6976V95.4092Z" fill="white"/>
<path d="M15.6976 99.2812H4.79883V100.216H15.6976V99.2812Z" fill="white"/>
<path d="M15.6976 103.155H4.79883V104.09H15.6976V103.155Z" fill="white"/>
<path d="M15.6976 107.031H4.79883V107.966H15.6976V107.031Z" fill="white"/>
<path d="M15.6976 110.903H4.79883V111.838H15.6976V110.903Z" fill="white"/>
<path d="M15.6976 114.778H4.79883V115.713H15.6976V114.778Z" fill="white"/>
<path d="M25.9702 74.3037H17.2285V127.242H25.9702V74.3037Z" fill="#DBDBDB"/>
<path d="M24.6609 70.793H17.2285V74.3048H24.6609V70.793Z" fill="#A6A6A6"/>
<path d="M25.1516 76.1357H18.4307V115.712H25.1516V76.1357Z" fill="#C7C7C7"/>
<path d="M25.1516 79.9131H18.4307V80.8478H25.1516V79.9131Z" fill="white"/>
<path d="M25.1516 83.7881H18.4307V84.7228H25.1516V83.7881Z" fill="white"/>
<path d="M25.1516 87.6592H18.4307V88.5939H25.1516V87.6592Z" fill="white"/>
<path d="M25.1516 91.5352H18.4307V92.4699H25.1516V91.5352Z" fill="white"/>
<path d="M25.1516 95.4092H18.4307V96.3439H25.1516V95.4092Z" fill="white"/>
<path d="M25.1516 99.2812H18.4307V100.216H25.1516V99.2812Z" fill="white"/>
<path d="M25.1516 103.155H18.4307V104.09H25.1516V103.155Z" fill="white"/>
<path d="M25.1516 107.031H18.4307V107.966H25.1516V107.031Z" fill="white"/>
<path d="M25.1516 110.903H18.4307V111.838H25.1516V110.903Z" fill="white"/>
<path d="M25.1516 114.778H18.4307V115.713H25.1516V114.778Z" fill="white"/>
<path d="M135.456 75.1963H128.001V84.0023H135.456V75.1963Z" fill="#DBDBDB"/>
<path d="M140.181 75.1963H135.454V84.3278H140.181V75.1963Z" fill="#C7C7C7"/>
<path d="M140.499 79.084H135.807V84.3252H140.499V79.084Z" fill="#DBDBDB"/>
<path d="M143.419 79.084H140.494V84.3252H143.419V79.084Z" fill="#C7C7C7"/>
<path d="M137.198 83.4326H125.142V127.247H137.198V83.4326Z" fill="#EBEBEB"/>
<path d="M130.309 85.3135H126.518V86.8612H130.309V85.3135Z" fill="white"/>
<path d="M135.157 85.3135H131.365V86.8612H135.157V85.3135Z" fill="white"/>
<path d="M130.309 87.9424H126.518V89.4902H130.309V87.9424Z" fill="white"/>
<path d="M135.157 87.9424H131.365V89.4902H135.157V87.9424Z" fill="white"/>
<path d="M130.309 90.5732H126.518V92.121H130.309V90.5732Z" fill="white"/>
<path d="M135.157 90.5732H131.365V92.121H135.157V90.5732Z" fill="white"/>
<path d="M130.309 93.2041H126.518V94.7519H130.309V93.2041Z" fill="white"/>
<path d="M135.157 93.2041H131.365V94.7519H135.157V93.2041Z" fill="white"/>
<path d="M130.309 95.833H126.518V97.3808H130.309V95.833Z" fill="white"/>
<path d="M135.157 95.833H131.365V97.3808H135.157V95.833Z" fill="white"/>
<path d="M130.309 98.4639H126.518V100.012H130.309V98.4639Z" fill="white"/>
<path d="M135.157 98.4639H131.365V100.012H135.157V98.4639Z" fill="white"/>
<path d="M130.309 101.094H126.518V102.642H130.309V101.094Z" fill="white"/>
<path d="M135.157 101.094H131.365V102.642H135.157V101.094Z" fill="white"/>
<path d="M130.309 103.724H126.518V105.271H130.309V103.724Z" fill="white"/>
<path d="M135.157 103.724H131.365V105.271H135.157V103.724Z" fill="white"/>
<path d="M130.309 106.354H126.518V107.901H130.309V106.354Z" fill="white"/>
<path d="M135.157 106.354H131.365V107.901H135.157V106.354Z" fill="white"/>
<path d="M130.309 108.984H126.518V110.532H130.309V108.984Z" fill="white"/>
<path d="M135.157 108.984H131.365V110.532H135.157V108.984Z" fill="white"/>
<path d="M130.309 111.61H126.518V113.158H130.309V111.61Z" fill="white"/>
<path d="M135.157 111.61H131.365V113.158H135.157V111.61Z" fill="white"/>
<path d="M130.309 114.24H126.518V115.788H130.309V114.24Z" fill="white"/>
<path d="M135.157 114.24H131.365V115.788H135.157V114.24Z" fill="white"/>
<path d="M130.309 116.87H126.518V118.418H130.309V116.87Z" fill="white"/>
<path d="M135.157 116.87H131.365V118.418H135.157V116.87Z" fill="white"/>
<path d="M130.309 119.501H126.518V121.049H130.309V119.501Z" fill="white"/>
<path d="M135.157 119.501H131.365V121.049H135.157V119.501Z" fill="white"/>
<path d="M146.964 83.4326H137.196V127.247H146.964V83.4326Z" fill="#C7C7C7"/>
<path d="M142.87 121.052H145.98V119.504H142.87V121.052Z" fill="#EBEBEB"/>
<path d="M138.889 121.052H142V119.504H138.889V121.052Z" fill="#EBEBEB"/>
<path d="M142.87 118.423H145.98V116.875H142.87V118.423Z" fill="#EBEBEB"/>
<path d="M138.889 118.423H142V116.875H138.889V118.423Z" fill="#EBEBEB"/>
<path d="M142.87 115.791H145.98V114.243H142.87V115.791Z" fill="#EBEBEB"/>
<path d="M138.889 115.791H142V114.243H138.889V115.791Z" fill="#EBEBEB"/>
<path d="M142.87 113.161H145.98V111.613H142.87V113.161Z" fill="#EBEBEB"/>
<path d="M138.889 113.161H142V111.613H138.889V113.161Z" fill="#EBEBEB"/>
<path d="M142.87 110.527H145.98V108.98H142.87V110.527Z" fill="#EBEBEB"/>
<path d="M138.889 110.527H142V108.98H138.889V110.527Z" fill="#EBEBEB"/>
<path d="M142.87 107.901H145.98V106.354H142.87V107.901Z" fill="#EBEBEB"/>
<path d="M138.889 107.901H142V106.354H138.889V107.901Z" fill="#EBEBEB"/>
<path d="M142.87 105.272H145.98V103.725H142.87V105.272Z" fill="#EBEBEB"/>
<path d="M138.889 105.272H142V103.725H138.889V105.272Z" fill="#EBEBEB"/>
<path d="M142.87 102.643H145.98V101.095H142.87V102.643Z" fill="#EBEBEB"/>
<path d="M138.889 102.643H142V101.095H138.889V102.643Z" fill="#EBEBEB"/>
<path d="M142.87 100.011H145.98V98.463H142.87V100.011Z" fill="#EBEBEB"/>
<path d="M138.889 100.011H142V98.463H138.889V100.011Z" fill="#EBEBEB"/>
<path d="M142.87 97.3799H145.98V95.8321H142.87V97.3799Z" fill="#EBEBEB"/>
<path d="M138.889 97.3799H142V95.8321H138.889V97.3799Z" fill="#EBEBEB"/>
<path d="M142.87 94.752H145.98V93.2042H142.87V94.752Z" fill="#EBEBEB"/>
<path d="M138.889 94.752H142V93.2042H138.889V94.752Z" fill="#EBEBEB"/>
<path d="M142.87 92.125H145.98V90.5772H142.87V92.125Z" fill="#EBEBEB"/>
<path d="M138.889 92.125H142V90.5772H138.889V92.125Z" fill="#EBEBEB"/>
<path d="M142.87 89.4951H145.98V87.9474H142.87V89.4951Z" fill="#EBEBEB"/>
<path d="M138.889 89.4951H142V87.9474H138.889V89.4951Z" fill="#EBEBEB"/>
<path d="M142.87 86.8633H145.98V85.3155H142.87V86.8633Z" fill="#EBEBEB"/>
<path d="M138.889 86.8633H142V85.3155H138.889V86.8633Z" fill="#EBEBEB"/>
<path d="M54.8525 75.1963H47.3975V84.0023H54.8525V75.1963Z" fill="#DBDBDB"/>
<path d="M59.5811 75.1963H54.8545V84.3278H59.5811V75.1963Z" fill="#C7C7C7"/>
<path d="M59.8956 79.084H55.2031V84.3252H59.8956V79.084Z" fill="#DBDBDB"/>
<path d="M62.8198 79.084H59.8945V84.3252H62.8198V79.084Z" fill="#C7C7C7"/>
<path d="M56.5948 83.4326H44.5381V127.247H56.5948V83.4326Z" fill="#EBEBEB"/>
<path d="M49.7059 85.3135H45.9141V86.8612H49.7059V85.3135Z" fill="white"/>
<path d="M54.5585 85.3135H50.7666V86.8612H54.5585V85.3135Z" fill="white"/>
<path d="M49.7059 87.9424H45.9141V89.4902H49.7059V87.9424Z" fill="white"/>
<path d="M54.5585 87.9424H50.7666V89.4902H54.5585V87.9424Z" fill="white"/>
<path d="M49.7059 90.5732H45.9141V92.121H49.7059V90.5732Z" fill="white"/>
<path d="M54.5585 90.5732H50.7666V92.121H54.5585V90.5732Z" fill="white"/>
<path d="M49.7059 93.2041H45.9141V94.7519H49.7059V93.2041Z" fill="white"/>
<path d="M54.5585 93.2041H50.7666V94.7519H54.5585V93.2041Z" fill="white"/>
<path d="M49.7059 95.833H45.9141V97.3808H49.7059V95.833Z" fill="white"/>
<path d="M54.5585 95.833H50.7666V97.3808H54.5585V95.833Z" fill="white"/>
<path d="M49.7059 98.4639H45.9141V100.012H49.7059V98.4639Z" fill="white"/>
<path d="M54.5585 98.4639H50.7666V100.012H54.5585V98.4639Z" fill="white"/>
<path d="M49.7059 101.094H45.9141V102.642H49.7059V101.094Z" fill="white"/>
<path d="M54.5585 101.094H50.7666V102.642H54.5585V101.094Z" fill="white"/>
<path d="M49.7059 103.724H45.9141V105.271H49.7059V103.724Z" fill="white"/>
<path d="M54.5585 103.724H50.7666V105.271H54.5585V103.724Z" fill="white"/>
<path d="M49.7059 106.354H45.9141V107.901H49.7059V106.354Z" fill="white"/>
<path d="M54.5585 106.354H50.7666V107.901H54.5585V106.354Z" fill="white"/>
<path d="M49.7059 108.984H45.9141V110.532H49.7059V108.984Z" fill="white"/>
<path d="M54.5585 108.984H50.7666V110.532H54.5585V108.984Z" fill="white"/>
<path d="M49.7059 111.61H45.9141V113.158H49.7059V111.61Z" fill="white"/>
<path d="M54.5585 111.61H50.7666V113.158H54.5585V111.61Z" fill="white"/>
<path d="M49.7059 114.24H45.9141V115.788H49.7059V114.24Z" fill="white"/>
<path d="M54.5585 114.24H50.7666V115.788H54.5585V114.24Z" fill="white"/>
<path d="M49.7059 116.87H45.9141V118.418H49.7059V116.87Z" fill="white"/>
<path d="M54.5585 116.87H50.7666V118.418H54.5585V116.87Z" fill="white"/>
<path d="M49.7059 119.501H45.9141V121.049H49.7059V119.501Z" fill="white"/>
<path d="M54.5585 119.501H50.7666V121.049H54.5585V119.501Z" fill="white"/>
<path d="M66.3639 83.4326H56.5967V127.247H66.3639V83.4326Z" fill="#C7C7C7"/>
<path d="M62.2663 121.052H65.377V119.504H62.2663V121.052Z" fill="#EBEBEB"/>
<path d="M58.2897 121.052H61.4004V119.504H58.2897V121.052Z" fill="#EBEBEB"/>
<path d="M62.2663 118.423H65.377V116.875H62.2663V118.423Z" fill="#EBEBEB"/>
<path d="M58.2897 118.423H61.4004V116.875H58.2897V118.423Z" fill="#EBEBEB"/>
<path d="M62.2663 115.791H65.377V114.243H62.2663V115.791Z" fill="#EBEBEB"/>
<path d="M58.2897 115.791H61.4004V114.243H58.2897V115.791Z" fill="#EBEBEB"/>
<path d="M62.2663 113.161H65.377V111.613H62.2663V113.161Z" fill="#EBEBEB"/>
<path d="M58.2897 113.161H61.4004V111.613H58.2897V113.161Z" fill="#EBEBEB"/>
<path d="M62.2663 110.527H65.377V108.98H62.2663V110.527Z" fill="#EBEBEB"/>
<path d="M58.2897 110.527H61.4004V108.98H58.2897V110.527Z" fill="#EBEBEB"/>
<path d="M62.2663 107.901H65.377V106.354H62.2663V107.901Z" fill="#EBEBEB"/>
<path d="M58.2897 107.901H61.4004V106.354H58.2897V107.901Z" fill="#EBEBEB"/>
<path d="M62.2663 105.272H65.377V103.725H62.2663V105.272Z" fill="#EBEBEB"/>
<path d="M58.2897 105.272H61.4004V103.725H58.2897V105.272Z" fill="#EBEBEB"/>
<path d="M62.2663 102.643H65.377V101.095H62.2663V102.643Z" fill="#EBEBEB"/>
<path d="M58.2897 102.643H61.4004V101.095H58.2897V102.643Z" fill="#EBEBEB"/>
<path d="M62.2663 100.011H65.377V98.463H62.2663V100.011Z" fill="#EBEBEB"/>
<path d="M58.2897 100.011H61.4004V98.463H58.2897V100.011Z" fill="#EBEBEB"/>
<path d="M62.2663 97.3799H65.377V95.8321H62.2663V97.3799Z" fill="#EBEBEB"/>
<path d="M58.2897 97.3799H61.4004V95.8321H58.2897V97.3799Z" fill="#EBEBEB"/>
<path d="M62.2663 94.752H65.377V93.2042H62.2663V94.752Z" fill="#EBEBEB"/>
<path d="M58.2897 94.752H61.4004V93.2042H58.2897V94.752Z" fill="#EBEBEB"/>
<path d="M62.2663 92.125H65.377V90.5772H62.2663V92.125Z" fill="#EBEBEB"/>
<path d="M58.2897 92.125H61.4004V90.5772H58.2897V92.125Z" fill="#EBEBEB"/>
<path d="M62.2663 89.4951H65.377V87.9474H62.2663V89.4951Z" fill="#EBEBEB"/>
<path d="M58.2897 89.4951H61.4004V87.9474H58.2897V89.4951Z" fill="#EBEBEB"/>
<path d="M62.2663 86.8633H65.377V85.3155H62.2663V86.8633Z" fill="#EBEBEB"/>
<path d="M58.2897 86.8633H61.4004V85.3155H58.2897V86.8633Z" fill="#EBEBEB"/>
<path d="M112.818 98.6943H98.6006V127.243H112.818V98.6943Z" fill="#37474F"/>
<path d="M103.352 101.165H100.835V102.913H103.352V101.165Z" fill="#455A64"/>
<path d="M103.352 104.9H100.835V106.649H103.352V104.9Z" fill="#455A64"/>
<path d="M103.352 108.635H100.835V110.383H103.352V108.635Z" fill="#455A64"/>
<path d="M103.352 112.375H100.835V114.123H103.352V112.375Z" fill="#455A64"/>
<path d="M103.352 116.11H100.835V117.859H103.352V116.11Z" fill="#455A64"/>
<path d="M103.352 119.844H100.835V121.592H103.352V119.844Z" fill="#455A64"/>
<path d="M103.352 123.579H100.835V125.327H103.352V123.579Z" fill="#455A64"/>
<path d="M106.971 101.165H104.454V102.913H106.971V101.165Z" fill="#455A64"/>
<path d="M106.971 104.9H104.454V106.649H106.971V104.9Z" fill="#455A64"/>
<path d="M106.971 108.635H104.454V110.383H106.971V108.635Z" fill="#455A64"/>
<path d="M106.971 112.375H104.454V114.123H106.971V112.375Z" fill="#455A64"/>
<path d="M106.971 116.11H104.454V117.859H106.971V116.11Z" fill="#455A64"/>
<path d="M106.971 119.844H104.454V121.592H106.971V119.844Z" fill="#455A64"/>
<path d="M106.971 123.579H104.454V125.327H106.971V123.579Z" fill="#455A64"/>
<path d="M110.585 101.165H108.068V102.913H110.585V101.165Z" fill="#455A64"/>
<path d="M110.585 104.9H108.068V106.649H110.585V104.9Z" fill="#455A64"/>
<path d="M110.585 108.635H108.068V110.383H110.585V108.635Z" fill="#455A64"/>
<path d="M110.585 112.375H108.068V114.123H110.585V112.375Z" fill="#455A64"/>
<path d="M110.585 116.11H108.068V117.859H110.585V116.11Z" fill="#455A64"/>
<path d="M110.585 119.844H108.068V121.592H110.585V119.844Z" fill="#455A64"/>
<path d="M110.585 123.579H108.068V125.327H110.585V123.579Z" fill="#455A64"/>
<path d="M112.823 95.7188H103.354V98.6932H112.823V95.7188Z" fill="#455A64"/>
<path d="M112.819 93.877H106.817V95.7199H112.819V93.877Z" fill="#37474F"/>
<path d="M122.794 98.6943H112.818V127.243H122.794V98.6943Z" fill="#263238"/>
<path d="M119.724 125.047H121.771V123.299H119.724V125.047Z" fill="#37474F"/>
<path d="M119.724 121.317H121.771V119.569H119.724V121.317Z" fill="#37474F"/>
<path d="M119.724 117.581H121.771V115.833H119.724V117.581Z" fill="#37474F"/>
<path d="M119.724 113.844H121.771V112.095H119.724V113.844Z" fill="#37474F"/>
<path d="M119.724 110.107H121.771V108.359H119.724V110.107Z" fill="#37474F"/>
<path d="M119.724 106.368H121.771V104.62H119.724V106.368Z" fill="#37474F"/>
<path d="M119.724 102.639H121.771V100.89H119.724V102.639Z" fill="#37474F"/>
<path d="M116.78 125.047H118.827V123.299H116.78V125.047Z" fill="#37474F"/>
<path d="M116.78 121.317H118.827V119.569H116.78V121.317Z" fill="#37474F"/>
<path d="M116.78 117.581H118.827V115.833H116.78V117.581Z" fill="#37474F"/>
<path d="M116.78 113.844H118.827V112.095H116.78V113.844Z" fill="#37474F"/>
<path d="M116.78 110.107H118.827V108.359H116.78V110.107Z" fill="#37474F"/>
<path d="M116.78 106.368H118.827V104.62H116.78V106.368Z" fill="#37474F"/>
<path d="M116.78 102.639H118.827V100.89H116.78V102.639Z" fill="#37474F"/>
<path d="M113.84 125.047H115.888V123.299H113.84V125.047Z" fill="#37474F"/>
<path d="M113.84 121.317H115.888V119.569H113.84V121.317Z" fill="#37474F"/>
<path d="M113.84 117.581H115.888V115.833H113.84V117.581Z" fill="#37474F"/>
<path d="M113.84 113.844H115.888V112.095H113.84V113.844Z" fill="#37474F"/>
<path d="M113.84 110.107H115.888V108.359H113.84V110.107Z" fill="#37474F"/>
<path d="M113.84 106.368H115.888V104.62H113.84V106.368Z" fill="#37474F"/>
<path d="M113.84 102.639H115.888V100.89H113.84V102.639Z" fill="#37474F"/>
<path d="M121.284 95.7188H112.818V98.6932H121.284V95.7188Z" fill="#37474F"/>
<path d="M117.405 93.877H112.818V95.7199H117.405V93.877Z" fill="#263238"/>
<path d="M108.949 24.6436H112.771C104.358 24.6436 97.5428 30.8479 97.5428 38.5007C97.5428 46.1535 104.355 52.3647 112.771 52.3647H108.949C100.536 52.3647 93.7207 46.1603 93.7207 38.5007C93.7207 30.8411 100.536 24.6436 108.949 24.6436Z" fill="#FEDE8A"/>
<g opacity="0.1">
<path opacity="0.1" d="M108.949 24.6436H112.771C104.358 24.6436 97.5428 30.8479 97.5428 38.5007C97.5428 46.1535 104.355 52.3647 112.771 52.3647H108.949C100.536 52.3647 93.7207 46.1603 93.7207 38.5007C93.7207 30.8411 100.536 24.6436 108.949 24.6436Z" fill="#FEDE8A"/>
</g>
<path d="M112.775 91.6904H108.953C124.412 75.5469 138.891 57.8497 136.764 38.3106C135.379 25.6543 125.789 13.0488 108.953 13.0488H112.775C129.615 13.0488 139.201 25.6543 140.582 38.3106C142.728 57.8497 128.249 75.5469 112.775 91.6904Z" fill="#FEDE8A"/>
<g opacity="0.1">
<path opacity="0.1" d="M112.775 91.6904H108.953C124.412 75.5469 138.891 57.8497 136.764 38.3106C135.379 25.6543 125.789 13.0488 108.953 13.0488H112.775C129.615 13.0488 139.201 25.6543 140.582 38.3106C142.728 57.8497 128.249 75.5469 112.775 91.6904Z" fill="#FEDE8A"/>
</g>
<path d="M136.76 38.3092C138.89 57.8483 124.411 75.5454 108.953 91.6923C93.5127 75.5454 79.034 57.8483 81.1607 38.3092C82.5458 25.6528 92.1352 13.0508 108.953 13.0508C125.77 13.0508 135.378 25.6528 136.76 38.3092ZM108.953 52.3631C117.384 52.3631 124.2 46.1587 124.2 38.4991C124.2 30.8395 117.388 24.642 108.953 24.642C100.517 24.642 93.7246 30.8463 93.7246 38.4991C93.7246 46.1519 100.536 52.3631 108.953 52.3631Z" fill="#FEDE8A"/>
</svg>
