<svg width="136" height="165" viewBox="0 0 136 165" fill="none" xmlns="http://www.w3.org/2000/svg">
<path d="M92.6261 38.222C92.6383 38.0808 92.6883 37.9455 92.7711 37.8305C92.8538 37.7154 92.9662 37.6248 93.0962 37.5684C93.447 37.3874 93.8361 37.293 94.2309 37.293C94.6257 37.293 95.0147 37.3874 95.3656 37.5684C95.4951 37.6255 95.607 37.7162 95.6897 37.8312C95.7723 37.9461 95.8227 38.0811 95.8356 38.222L83.7836 88.237C83.773 88.3351 83.7369 88.4288 83.6789 88.5087C83.621 88.5886 83.5431 88.6519 83.453 88.6923C83.2053 88.8193 82.9309 88.8855 82.6525 88.8855C82.3741 88.8855 82.0997 88.8193 81.852 88.6923C81.7611 88.6531 81.6824 88.5902 81.6242 88.51C81.5661 88.4299 81.5306 88.3356 81.5215 88.237L92.6261 38.222Z" fill="#455A64"/>
<path d="M120.39 38.222C120.378 38.0808 120.328 37.9455 120.245 37.8305C120.162 37.7154 120.05 37.6248 119.92 37.5684C119.569 37.3874 119.18 37.293 118.785 37.293C118.391 37.293 118.002 37.3874 117.651 37.5684C117.521 37.6255 117.409 37.7162 117.327 37.8312C117.244 37.9461 117.194 38.0811 117.181 38.222L129.225 88.237C129.234 88.3356 129.27 88.4299 129.328 88.51C129.386 88.5902 129.465 88.6531 129.556 88.6923C129.804 88.8193 130.078 88.8855 130.356 88.8855C130.635 88.8855 130.909 88.8193 131.157 88.6923C131.246 88.6507 131.323 88.587 131.381 88.5074C131.439 88.4277 131.475 88.3347 131.487 88.237L120.39 38.222Z" fill="#455A64"/>
<path d="M108.304 39.8949C108.292 39.7528 108.242 39.6167 108.159 39.5005C108.076 39.3843 107.964 39.2922 107.834 39.2339C107.482 39.0564 107.094 38.9639 106.699 38.9639C106.305 38.9639 105.917 39.0564 105.565 39.2339C105.435 39.291 105.323 39.3817 105.241 39.4966C105.158 39.6116 105.108 39.7466 105.095 39.8875L105.565 96.2994C105.577 96.3971 105.613 96.4901 105.671 96.5698C105.729 96.6495 105.806 96.7131 105.895 96.7547C106.144 96.8812 106.42 96.9471 106.699 96.9471C106.979 96.9471 107.254 96.8812 107.504 96.7547C107.593 96.7131 107.67 96.6495 107.728 96.5698C107.786 96.4901 107.822 96.3971 107.834 96.2994L108.304 39.8949Z" fill="#455A64"/>
<path d="M135.446 26.2352C135.446 21.9902 132.67 17.7451 127.059 14.4843C115.829 8.00655 97.6373 8.00655 86.4078 14.4843C80.7967 17.7231 78.0132 21.9755 78.0205 26.2352V28.5119C78.0866 32.7056 80.8995 36.8845 86.4371 40.0793C97.6666 46.5643 115.859 46.5643 127.088 40.0793C132.626 36.8845 135.439 32.7349 135.505 28.5119L135.446 26.2352Z" fill="#FEDE8A"/>
<path d="M86.399 14.4988C75.1769 20.9839 75.1769 31.4863 86.399 38.0007C97.6212 44.5151 115.82 44.4858 127.05 38.0007C138.279 31.5157 138.272 21.0206 127.05 14.4988C115.828 7.97707 97.6065 8.02114 86.399 14.4988Z" fill="#FEDE8A"/>
<path opacity="0.45" d="M86.399 14.4988C75.1769 20.9839 75.1769 31.4863 86.399 38.0007C97.6212 44.5151 115.82 44.4858 127.05 38.0007C138.279 31.5157 138.272 21.0206 127.05 14.4988C115.828 7.97707 97.6065 8.02114 86.399 14.4988Z" fill="white"/>
<g opacity="0.05">
<path opacity="0.05" d="M113.004 20.7488C116.581 22.8199 116.581 26.1689 113.004 28.2327C109.427 30.2964 103.618 30.3038 100.034 28.2327C96.4499 26.1616 96.4572 22.8199 100.034 20.7488C103.611 18.6777 109.42 18.6851 113.004 20.7488Z" fill="black"/>
</g>
<path d="M100.82 24.9549C97.6982 21.7748 95.8695 13.8282 98.91 11.3018H114.385C117.425 13.8282 115.596 21.7674 112.475 24.9475L112.394 25.0357L112.284 25.1458L112.005 25.3955C111.977 25.4109 111.953 25.4308 111.932 25.4543L111.689 25.6306C111.562 25.7239 111.43 25.8098 111.293 25.8876C109.853 26.6168 108.261 26.9968 106.647 26.9968C105.033 26.9968 103.442 26.6168 102.002 25.8876C101.861 25.8115 101.726 25.7256 101.598 25.6306L101.378 25.4616L101.282 25.3882L101.011 25.1458L100.886 25.0283L100.82 24.9549Z" fill="#EBEBEB"/>
<path d="M113.04 10.3103C116.566 12.3446 116.566 15.6496 113.04 17.6913C109.515 19.733 103.787 19.733 100.254 17.6913C96.7213 15.6496 96.7213 12.3446 100.254 10.3103C103.787 8.27588 109.508 8.2465 113.04 10.3103Z" fill="#FAFAFA"/>
<path d="M110.531 11.7359C112.676 12.9771 112.676 14.9821 110.531 16.2233C109.326 16.8355 107.994 17.1545 106.642 17.1545C105.291 17.1545 103.958 16.8355 102.754 16.2233C100.602 14.9821 100.602 12.9771 102.754 11.7359C103.958 11.1238 105.291 10.8047 106.642 10.8047C107.994 10.8047 109.326 11.1238 110.531 11.7359Z" fill="#EBEBEB"/>
<path d="M102.758 13.8668C103.963 13.2546 105.295 12.9355 106.647 12.9355C107.998 12.9355 109.331 13.2546 110.536 13.8668C111.056 14.1479 111.497 14.5543 111.821 15.0492C111.495 15.54 111.054 15.9435 110.536 16.2243C109.331 16.8365 107.998 17.1555 106.647 17.1555C105.295 17.1555 103.963 16.8365 102.758 16.2243C102.24 15.9435 101.799 15.54 101.473 15.0492C101.796 14.5543 102.238 14.1479 102.758 13.8668Z" fill="#E0E0E0"/>
<path d="M110.065 15.0485C111.167 13.9317 112.113 12.6719 112.878 11.3028C114.178 9.01142 114.42 5.9268 113.752 5.55224C113.084 5.17767 110.344 8.24025 110.344 8.24025C110.596 6.94906 110.692 5.63242 110.631 4.31838C110.513 2.26931 110.021 0.411194 109.434 0.0366325C108.846 -0.337929 107.531 2.23994 106.973 4.11274C106.415 5.98555 106.077 7.52051 106.077 7.52051C105.848 6.06244 105.51 4.62375 105.064 3.21673C104.381 1.27783 103.764 0.837166 103.286 1.01343C102.809 1.18969 102.493 2.11508 102.346 4.6856C102.299 5.91089 102.338 7.13802 102.464 8.35777C102.464 8.35777 101.502 7.30018 100.43 6.27198C99.3572 5.24377 98.755 4.98671 98.4172 5.1997C98.0793 5.41268 97.9912 7.17533 99.8052 10.4656C100.712 12.1411 101.871 13.667 103.242 14.9897C103.242 14.9897 105.762 16.6716 110.065 15.0485Z" fill="#FEDE8A"/>
<path opacity="0.3" d="M110.065 15.0485C111.167 13.9317 112.113 12.6719 112.878 11.3028C114.178 9.01142 114.42 5.9268 113.752 5.55224C113.084 5.17767 110.344 8.24025 110.344 8.24025C110.596 6.94906 110.692 5.63242 110.631 4.31838C110.513 2.26931 110.021 0.411194 109.434 0.0366325C108.846 -0.337929 107.531 2.23994 106.973 4.11274C106.415 5.98555 106.077 7.52051 106.077 7.52051C105.848 6.06244 105.51 4.62375 105.064 3.21673C104.381 1.27783 103.764 0.837166 103.286 1.01343C102.809 1.18969 102.493 2.11508 102.346 4.6856C102.299 5.91089 102.338 7.13802 102.464 8.35777C102.464 8.35777 101.502 7.30018 100.43 6.27198C99.3572 5.24377 98.755 4.98671 98.4172 5.1997C98.0793 5.41268 97.9912 7.17533 99.8052 10.4656C100.712 12.1411 101.871 13.667 103.242 14.9897C103.242 14.9897 105.762 16.6716 110.065 15.0485Z" fill="black"/>
<path d="M107.737 86.2166L59.3668 58.2861L10.9971 86.2166L59.3668 114.14L107.737 86.2166Z" fill="#FEDE8A"/>
<path opacity="0.2" d="M107.737 86.2166L59.3668 58.2861L10.9971 86.2166L59.3668 114.14L107.737 86.2166Z" fill="white"/>
<path opacity="0.1" d="M59.3669 108.896V58.2861L10.9971 86.2166V136.826L59.3669 108.896Z" fill="black"/>
<path opacity="0.2" d="M59.3668 108.896L10.9971 136.826L59.3668 164.749L107.737 136.826L59.3668 108.896Z" fill="black"/>
<path d="M69.0608 67.113C68.7171 66.9686 68.4057 66.7572 68.1447 66.4911C67.8837 66.2251 67.6783 65.9097 67.5405 65.5633C65.8513 60.9878 60.4018 57.5286 57.846 54.5468C56.0099 52.4023 55.8777 50.3018 58.6612 49.1193C63.9344 46.916 75.7735 58.9755 74.9142 67.9723C72.9212 68.3062 70.8737 68.0056 69.0608 67.113Z" fill="#E6E6E6"/>
<path d="M70.1598 67.5983C71.0573 67.9112 71.9943 68.0966 72.9433 68.1491C72.8625 63.6103 68.0666 55.5536 63.9098 53.5633C61.4861 52.4102 59.7015 53.3429 60.972 55.1056C62.1471 56.6993 62.8815 56.6406 65.3786 59.5122C67.3958 61.9337 69.0101 64.6639 70.1598 67.5983Z" fill="#FFA8A7"/>
<path d="M63.1921 111.73C62.3181 113.602 55.5246 118.104 53.7326 119C52.4389 119.662 51.0302 120.068 49.583 120.198C46.3368 120.198 44.5007 118.442 43.0245 114.594C42.0477 112.053 41.2766 105.693 45.0516 104.246C49.2893 102.645 52.3518 106.86 52.3518 106.86C52.3518 106.86 56.8246 105.061 59.8871 105.553C62.9497 106.045 64.0514 109.842 63.1921 111.73Z" fill="#F0F0F0"/>
<path d="M50.1077 109.622C48.9913 107.353 47.4564 106.089 46.0095 105.619C45.2806 105.433 44.5079 105.533 43.8506 105.899C43.1934 106.265 42.7017 106.869 42.4769 107.588C42.0362 109.931 42.2263 112.349 43.0277 114.594C44.4011 118.171 46.0903 119.919 48.9032 120.161C52.6268 119.742 51.8262 113.133 50.1077 109.622Z" fill="#E0E0E0"/>
<path d="M49.4189 116.18C49.4189 118.009 48.3026 118.854 46.9292 118.06C46.17 117.518 45.5491 116.805 45.1166 115.978C44.6841 115.151 44.4522 114.234 44.4395 113.301C44.4395 111.473 45.5484 110.628 46.9292 111.421C47.6875 111.964 48.3077 112.678 48.7402 113.505C49.1726 114.331 49.405 115.248 49.4189 116.18Z" fill="#F28F8F"/>
<path d="M46.6819 109.344C46.6819 110.034 46.2633 110.357 45.7418 110.078C45.4554 109.873 45.2211 109.603 45.0578 109.29C44.8946 108.978 44.8069 108.631 44.8018 108.279C44.8018 107.581 45.2204 107.265 45.7418 107.544C46.0287 107.75 46.2633 108.019 46.4266 108.332C46.5899 108.645 46.6774 108.991 46.6819 109.344Z" fill="#F28F8F"/>
<path d="M49.6863 111.362C49.6863 112.097 49.2603 112.376 48.7389 112.097C48.4494 111.894 48.2129 111.625 48.0493 111.312C47.8857 110.999 47.7998 110.651 47.7988 110.297C47.7988 109.607 48.2175 109.284 48.7389 109.563C49.0263 109.768 49.2617 110.038 49.4262 110.35C49.5907 110.663 49.6798 111.009 49.6863 111.362Z" fill="#F28F8F"/>
<path d="M44.491 110.628C44.491 111.362 44.0651 111.642 43.5436 111.362C43.2567 111.157 43.0221 110.888 42.8588 110.575C42.6955 110.262 42.608 109.916 42.6035 109.563C42.6035 108.873 43.0222 108.55 43.5436 108.829C43.831 109.034 44.0664 109.303 44.2309 109.616C44.3954 109.928 44.4845 110.275 44.491 110.628Z" fill="#F28F8F"/>
<path opacity="0.1" d="M54.428 110.819C54.582 109.303 54.3018 107.775 53.6202 106.412C52.849 106.662 52.3496 106.86 52.3496 106.86C53.2296 108.073 53.9297 109.406 54.428 110.819Z" fill="black"/>
<path d="M66.6904 88.1627C63.268 87.2153 55.0203 94.6992 54.2418 96.0946C53.4633 97.49 54.4181 101.911 58.0388 101.889C60.2054 101.889 67.5865 94.3907 68.6734 92.5473C69.7604 90.7038 66.6904 88.1627 66.6904 88.1627Z" fill="#F0F0F0"/>
<path d="M87.2887 106.7C86.2384 113.898 81.303 116.557 76.7862 117.394C74.8141 117.751 72.8015 117.827 70.808 117.621C66.5336 117.203 58.8294 115.58 56.9345 107.714C56.8195 107.229 56.7288 106.739 56.6628 106.245C55.4363 97.0867 63.6619 94.1637 63.6619 94.1637C64.3964 87.6933 69.6916 83.8816 73.2683 84.2782C81.2663 85.1081 88.875 95.8969 87.2887 106.7Z" fill="#F5F5F5"/>
<path d="M73.2672 84.2547C69.8888 83.8948 64.9461 87.2659 63.8224 93.0679C65.3996 92.9295 66.9318 92.4696 68.3245 91.7165C68.5178 92.1428 68.8267 92.5064 69.2162 92.766C69.6056 93.0256 70.06 93.1709 70.5278 93.1854C72.2611 93.325 72.8853 92.5979 72.8853 92.5979C72.8853 92.5979 75.3531 95.778 77.0496 96.6446C78.1537 97.1584 79.4007 97.2777 80.5822 96.9824L81.985 103.592C82.4728 105.818 82.0912 108.147 80.9184 110.1C79.7455 112.054 77.8701 113.486 75.6762 114.102L75.2135 114.22C67.6562 116.004 59.9887 114.462 57.3447 109.123C59.7684 115.784 66.7895 117.201 70.7996 117.627C72.7931 117.833 74.8057 117.756 76.7779 117.4C81.2946 116.562 86.23 113.904 87.2802 106.706C88.874 95.8955 81.2652 85.1066 73.2672 84.2547Z" fill="#E0E0E0"/>
<path d="M82.8572 89.3013C80.8008 90.1459 81.168 93.1938 82.3138 97.9015C83.6578 103.373 87.8514 115.388 87.8514 115.388C87.8514 115.388 89.3203 117.863 93.7269 115.014C98.1335 112.164 96.5765 109.542 96.5765 109.542C96.5765 109.542 87.0949 87.5607 82.8572 89.3013Z" fill="#F0F0F0"/>
<path d="M63.5523 78.4759C62.9501 75.7444 63.3162 72.8884 64.5879 70.3971C65.9458 67.7923 68.1105 65.6971 70.7582 64.4249C73.4059 63.1526 76.3944 62.7718 79.2765 63.3392C85.4238 64.507 90.1608 69.5158 90.7631 75.4574C91.4975 82.978 86.3565 88.0088 78.4246 88.7286C75.4319 89.0064 72.4249 88.3769 69.795 86.9219C68.2167 86.0352 66.8442 84.824 65.7682 83.3681C64.6921 81.9123 63.9369 80.2449 63.5523 78.4759Z" fill="#F5F5F5"/>
<path opacity="0.1" d="M77.2383 88.7658C77.6349 88.7658 78.0388 88.7658 78.4428 88.707C86.3453 87.9726 91.5377 82.9564 90.7812 75.4358C90.5473 73.2242 89.7591 71.1074 88.4898 69.2812C88.7542 69.6778 87.8582 71.0659 87.8582 71.0659C88.8277 72.9681 89.6869 75.6341 88.9231 78.2854C87.748 82.3542 84.5459 86.6947 77.2383 88.7658Z" fill="black"/>
<path d="M69.7021 90.322C69.7021 90.322 71.2958 88.743 70.7597 87.6707C68.2332 85.4674 63.7532 83.2274 62.6809 83.5652C60.7053 84.1675 60.0737 90.9096 62.042 91.5999C64.0102 92.2903 69.7021 90.322 69.7021 90.322Z" fill="#FEDE8A"/>
<path opacity="0.2" d="M69.7021 90.322C69.7021 90.322 71.2958 88.743 70.7597 87.6707C68.2332 85.4674 63.7532 83.2274 62.6809 83.5652C60.7053 84.1675 60.0737 90.9096 62.042 91.5999C64.0102 92.2903 69.7021 90.322 69.7021 90.322Z" fill="black"/>
<path opacity="0.1" d="M69.334 88.6246C68.5114 88.1693 65.133 86.0321 64.8466 86.7371C64.4867 87.6258 68.5188 88.8743 68.5188 88.8743C68.5188 88.8743 64.3839 88.7715 64.5602 89.785C64.685 90.468 68.9668 89.3884 68.9668 89.3884L69.334 88.6246Z" fill="black"/>
<path d="M69.689 88.0317L69.6156 88.1052C69.2869 88.4646 69.0677 88.9106 68.984 89.3904C68.8842 89.7633 68.8842 90.1559 68.984 90.5288C69.432 92.0711 71.7528 92.3282 72.9573 91.5937C73.3165 91.361 73.6001 91.0287 73.7736 90.6375C73.9471 90.2462 74.0028 89.8129 73.934 89.3904C73.8445 88.9354 73.6033 88.5242 73.2497 88.224C72.8962 87.9238 72.4513 87.7525 71.9878 87.738C71.5692 87.738 71.1726 87.7379 70.7686 87.6792C70.5741 87.6608 70.3779 87.6826 70.1922 87.7432C70.0065 87.8039 69.8352 87.9021 69.689 88.0317Z" fill="#FEDE8A"/>
<path opacity="0.35" d="M69.689 88.0317L69.6156 88.1052C69.2869 88.4646 69.0677 88.9106 68.984 89.3904C68.8842 89.7633 68.8842 90.1559 68.984 90.5288C69.432 92.0711 71.7528 92.3282 72.9573 91.5937C73.3165 91.361 73.6001 91.0287 73.7736 90.6375C73.9471 90.2462 74.0028 89.8129 73.934 89.3904C73.8445 88.9354 73.6033 88.5242 73.2497 88.224C72.8962 87.9238 72.4513 87.7525 71.9878 87.738C71.5692 87.738 71.1726 87.7379 70.7686 87.6792C70.5741 87.6608 70.3779 87.6826 70.1922 87.7432C70.0065 87.8039 69.8352 87.9021 69.689 88.0317Z" fill="black"/>
<path d="M72.0944 77.7838C68.3488 76.5353 65.5653 76.9392 64.4563 79.6786C63.406 82.2859 65.7489 86.4575 70.5741 87.1992C71.6676 87.4053 72.7887 87.4177 73.8864 87.2359C74.4483 87.1413 74.9829 86.926 75.4536 86.6049C75.9243 86.2838 76.3198 85.8646 76.613 85.376C76.9061 84.8874 77.0899 84.3411 77.1517 83.7747C77.2136 83.2083 77.1519 82.6352 76.971 82.0949C76.2733 80.0826 74.4666 78.6137 72.0944 77.7838Z" fill="#FFA8A7"/>
<path d="M68.5585 84.0275H68.5071C68.4616 84.0212 68.4177 84.0059 68.3782 83.9825C68.3386 83.959 68.3042 83.9279 68.2768 83.891C68.2494 83.854 68.2297 83.812 68.2188 83.7673C68.2079 83.7227 68.2061 83.6763 68.2133 83.6309L68.5512 81.2807C68.5648 81.1882 68.6146 81.1049 68.6897 81.0491C68.7648 80.9933 68.8589 80.9696 68.9514 80.9833C69.044 80.9969 69.1273 81.0467 69.1831 81.1218C69.2388 81.1969 69.2625 81.291 69.2489 81.3835L68.911 83.7337C68.897 83.8167 68.8538 83.8919 68.7891 83.9458C68.7245 83.9997 68.6427 84.0287 68.5585 84.0275Z" fill="#455A64"/>
<path d="M67.0971 78.6151C68.4485 77.3225 71.7388 78.549 72.0399 79.6213C72.4365 81.0094 70.1083 82.6986 68.3677 82.0596C67.3101 81.6484 65.9074 79.7241 67.0971 78.6151Z" fill="#455A64"/>
<path d="M72.9883 89.1024C72.9883 89.1024 80.3326 85.4302 82.9325 87.516C84.3353 88.6323 82.7783 94.7502 81.0157 95.279C78.4672 96.0134 74.6261 93.3621 72.768 91.1735C72.6554 90.8324 72.6168 90.4713 72.6548 90.1142C72.6928 89.757 72.8065 89.4121 72.9883 89.1024Z" fill="#FEDE8A"/>
<path opacity="0.2" d="M72.9883 89.1024C72.9883 89.1024 80.3326 85.4302 82.9325 87.516C84.3353 88.6323 82.7783 94.7502 81.0157 95.279C78.4672 96.0134 74.6261 93.3621 72.768 91.1735C72.6554 90.8324 72.6168 90.4713 72.6548 90.1142C72.6928 89.757 72.8065 89.4121 72.9883 89.1024Z" fill="black"/>
<path d="M84.5413 68.8395C84.3954 68.4905 84.3203 68.1161 84.3203 67.7378C84.3203 67.3596 84.3954 66.9852 84.5413 66.6362C86.5242 62.1855 85.0333 55.9061 85.2757 51.9475C85.4593 49.1273 86.8327 47.5409 89.6823 48.6279C95.0216 50.7063 95.0657 67.6277 88.1767 73.4738C86.5099 72.3474 85.2384 70.7266 84.5413 68.8395Z" fill="#E6E6E6"/>
<path d="M85.0166 69.9268C85.4431 70.7772 85.987 71.5634 86.6324 72.2623C89.739 68.95 91.9203 59.8357 90.3045 55.5172C89.3791 52.9908 87.4476 52.4179 87.1465 54.5845C86.8747 56.5528 87.4403 57.0228 87.242 60.7905C86.9976 63.936 86.2461 67.0213 85.0166 69.9268Z" fill="#FFA8A7"/>
<path d="M69.133 96.453C63.3898 94.9034 58.19 98.5608 57.7787 103.944C57.3674 109.328 64.9688 113.815 71.6668 111.289C78.3649 108.762 75.9412 98.2891 69.133 96.453Z" fill="#FFA8A7"/>
<path d="M78.9496 118.774C78.5384 121.285 76.4599 128.189 73.5222 130.693C72.9488 131.173 72.2602 131.494 71.5245 131.626C68.932 131.986 66.971 131.083 65.179 129.092C64.4688 128.208 63.9036 127.216 63.5045 126.155C62.961 124.84 61.2204 117.341 63.9011 115.417C66.5818 113.493 69.3726 114.448 70.2833 115.322C71.2073 114.418 72.2074 113.594 73.2725 112.861C75.2408 111.657 77.165 112.693 78.2666 114.257C78.6926 114.837 79.3389 116.372 78.9496 118.774Z" fill="#F0F0F0"/>
<path d="M65.0635 116.32C64.4262 116.327 63.8138 116.568 63.3426 116.997C62.8714 117.427 62.5743 118.014 62.5077 118.648C62.3769 121.19 62.718 123.735 63.5139 126.154C63.9129 127.215 64.4781 128.207 65.1884 129.091C65.9567 129.991 66.9115 130.713 67.9866 131.207C69.0515 131.581 71.3136 131.486 72.0774 129.569C72.9146 127.483 72.1214 121.813 69.7566 118.662C69.2153 117.929 68.5077 117.334 67.6919 116.926C66.8761 116.519 65.9753 116.311 65.0635 116.32Z" fill="#E0E0E0"/>
<path d="M70.0816 127.088C70.0816 129.064 68.8771 129.974 67.3936 129.115C65.91 128.256 64.7129 125.964 64.7129 123.974C64.7129 121.984 65.9174 121.088 67.3936 121.947C68.8698 122.806 70.0816 125.098 70.0816 127.088Z" fill="#F28F8F"/>
<path d="M67.1398 119.743C67.1398 120.477 66.6845 120.83 66.119 120.477C65.8103 120.256 65.5578 119.965 65.3818 119.628C65.2058 119.292 65.1111 118.918 65.1055 118.538C65.1055 117.804 65.5608 117.444 66.119 117.804C66.4299 118.024 66.6844 118.314 66.8619 118.651C67.0393 118.988 67.1345 119.362 67.1398 119.743Z" fill="#F28F8F"/>
<path d="M70.3293 121.895C70.3293 122.629 69.874 122.982 69.3158 122.629C69.0049 122.409 68.7503 122.119 68.5729 121.782C68.3955 121.445 68.3003 121.071 68.2949 120.69C68.2949 119.956 68.7503 119.596 69.3158 119.919C69.6286 120.145 69.8835 120.442 70.0597 120.785C70.2358 121.128 70.3282 121.509 70.3293 121.895Z" fill="#F28F8F"/>
<path d="M64.776 121.101C64.776 121.836 64.3207 122.188 63.7625 121.836C63.4526 121.615 63.1991 121.325 63.023 120.988C62.8468 120.651 62.7529 120.277 62.749 119.897C62.749 119.162 63.197 118.803 63.7625 119.162C64.0713 119.384 64.3237 119.675 64.4997 120.011C64.6757 120.348 64.7704 120.721 64.776 121.101Z" fill="#F28F8F"/>
<path opacity="0.1" d="M70.835 114.814L70.2842 115.321C71.2124 116.226 71.9296 117.324 72.3847 118.538C72.3907 117.845 72.2565 117.158 71.9902 116.518C71.7239 115.878 71.331 115.299 70.835 114.814Z" fill="black"/>
<path opacity="0.1" d="M72.7449 89.6681C72.7018 89.8322 72.6699 89.9991 72.6494 90.1675C72.9579 90.5421 76.9018 92.503 77.056 91.82C77.2102 91.137 73.472 89.9251 73.472 89.9251C73.472 89.9251 77.9741 89.5873 77.7978 88.7721C77.6803 88.2359 73.281 89.3009 72.7449 89.6681Z" fill="black"/>
<path d="M67.7573 74.1335C67.7573 74.3979 67.6789 74.6563 67.5321 74.8762C67.3852 75.096 67.1764 75.2673 66.9322 75.3685C66.6879 75.4696 66.4192 75.4961 66.1599 75.4445C65.9006 75.393 65.6624 75.2656 65.4755 75.0787C65.2886 74.8918 65.1612 74.6536 65.1097 74.3943C65.0581 74.135 65.0846 73.8663 65.1857 73.622C65.2869 73.3778 65.4582 73.169 65.678 73.0221C65.8979 72.8753 66.1563 72.7969 66.4207 72.7969C66.7752 72.7969 67.1151 72.9377 67.3658 73.1884C67.6165 73.4391 67.7573 73.779 67.7573 74.1335Z" fill="#37474F"/>
<path d="M79.271 76.3464C79.271 76.6108 79.1926 76.8692 79.0457 77.0891C78.8989 77.3089 78.6901 77.4802 78.4459 77.5814C78.2016 77.6825 77.9329 77.709 77.6736 77.6574C77.4143 77.6059 77.1761 77.4785 76.9892 77.2916C76.8022 77.1047 76.6749 76.8665 76.6233 76.6072C76.5718 76.3479 76.5982 76.0791 76.6994 75.8349C76.8006 75.5907 76.9719 75.3819 77.1917 75.235C77.4115 75.0882 77.67 75.0098 77.9343 75.0098C78.2888 75.0098 78.6288 75.1506 78.8795 75.4013C79.1302 75.652 79.271 75.9919 79.271 76.3464Z" fill="#37474F"/>
<path d="M43.0704 104.188L40.2275 103.786L38.7551 114.198L41.598 114.6L43.0704 104.188Z" fill="#FFA8A7"/>
<path d="M41.5894 114.611L38.7461 114.209L38.2206 117.925L41.0639 118.327L41.5894 114.611Z" fill="#37474F"/>
<path d="M37.8451 116.524C38.1456 116.567 38.4346 116.669 38.6954 116.825C38.9562 116.98 39.1837 117.186 39.3646 117.43C39.5456 117.673 39.6765 117.951 39.7497 118.245C39.8229 118.54 39.8371 118.846 39.7913 119.146V119.286L35.2158 118.617V118.478C35.2598 118.177 35.3628 117.887 35.5189 117.626C35.6749 117.365 35.881 117.137 36.1252 116.956C36.3694 116.774 36.647 116.643 36.9422 116.569C37.2373 116.495 37.5441 116.479 37.8451 116.524Z" fill="#455A64"/>
<path d="M40.3961 114.996L37.5547 114.58L37.4707 115.154L40.3121 115.57L40.3961 114.996Z" fill="#FAFAFA"/>
<path d="M43.5287 115.623L46.3965 115.474L45.8497 104.971L42.982 105.12L43.5287 115.623Z" fill="#FFA8A7"/>
<path d="M43.7289 119.372L46.5967 119.223L46.4016 115.475L43.5338 115.624L43.7289 119.372Z" fill="#37474F"/>
<path d="M45.917 116.804C45.6131 116.818 45.3149 116.892 45.0396 117.022C44.7643 117.151 44.5172 117.334 44.3126 117.559C44.1079 117.784 43.9497 118.047 43.8469 118.334C43.7441 118.62 43.6989 118.924 43.7137 119.228V119.375L48.3259 119.132V119.007C48.3127 118.705 48.2399 118.407 48.1116 118.132C47.9834 117.858 47.8022 117.611 47.5784 117.406C47.3546 117.202 47.0927 117.043 46.8077 116.94C46.5226 116.836 46.2199 116.79 45.917 116.804Z" fill="#455A64"/>
<path d="M43.5287 115.627L46.3965 115.478L46.3663 114.898L43.4986 115.047L43.5287 115.627Z" fill="#FAFAFA"/>
<path d="M35.6719 106.227L39.0797 96.4668L46.2257 96.6431L48.8843 106.734C46.8133 107.754 44.5208 108.242 42.214 108.153C39.9072 108.065 37.6588 107.403 35.6719 106.227Z" fill="#455A64"/>
<path d="M36.5919 81.1086C36.5815 81.5596 36.4373 81.9974 36.1777 82.3664C35.918 82.7353 35.5546 83.0188 35.1335 83.1809C34.7125 83.3429 34.2528 83.3762 33.8128 83.2765C33.3728 83.1768 32.9723 82.9487 32.6622 82.621C32.3521 82.2933 32.1463 81.8809 32.071 81.436C31.9957 80.9912 32.0543 80.534 32.2392 80.1225C32.4242 79.711 32.7273 79.3638 33.11 79.1248C33.4926 78.8859 33.9377 78.766 34.3886 78.7805C34.9886 78.7997 35.5568 79.0551 35.9694 79.4911C36.3821 79.9271 36.6058 80.5084 36.5919 81.1086Z" fill="#F28F8F"/>
<path d="M49.0949 81.4178C49.0805 81.8684 49.2003 82.3131 49.4389 82.6956C49.6776 83.0781 50.0244 83.3811 50.4355 83.5663C50.8465 83.7515 51.3033 83.8104 51.7479 83.7357C52.1925 83.6609 52.6049 83.4559 52.9328 83.1465C53.2608 82.8372 53.4895 82.4374 53.59 81.9979C53.6905 81.5584 53.6582 81.0989 53.4973 80.6778C53.3364 80.2566 53.054 79.8927 52.6861 79.6322C52.3181 79.3717 51.8811 79.2263 51.4304 79.2145C50.8295 79.2006 50.2474 79.4241 49.8102 79.8365C49.373 80.249 49.116 80.8171 49.0949 81.4178Z" fill="#F28F8F"/>
<path d="M27.1011 91.2157C27.331 91.2564 27.5672 91.2438 27.7914 91.179C27.2333 90.9733 27.0937 90.5547 27.2773 90.4445C27.4609 90.3344 27.7474 90.3711 28.0779 90.4813C28.2527 90.5506 28.4413 90.5782 28.6287 90.5621C28.5495 90.3256 28.5318 90.0728 28.5773 89.8276C28.599 89.7754 28.6357 89.7308 28.6828 89.6995C28.7298 89.6681 28.7851 89.6514 28.8417 89.6514C28.8982 89.6514 28.9535 89.6681 29.0006 89.6995C29.0476 89.7308 29.0843 89.7754 29.1061 89.8276C29.2611 90.1482 29.5199 90.4071 29.8405 90.5621C30.0399 90.6426 30.2022 90.7945 30.2958 90.988C33.2108 91.4067 36.1836 91.1272 38.9695 90.1728L39.5864 91.7592C38.1198 92.3006 36.5847 92.6343 35.0256 92.7507C33.3773 92.8924 31.7189 92.8678 30.0755 92.6772C29.6674 92.6745 29.2605 92.7214 28.8637 92.8168C28.3943 92.9235 27.9106 92.9533 27.4316 92.9049C26.9982 92.8094 27.057 92.3688 27.2994 92.31C27.4624 92.2764 27.6156 92.2061 27.7474 92.1044C27.4712 92.1217 27.1965 92.0524 26.9615 91.9061C26.6678 91.6343 26.7559 91.179 27.1011 91.2157Z" fill="#FFA8A7"/>
<path d="M58.0768 91.9797C57.844 92.0038 57.6089 91.9787 57.3864 91.9063C57.9593 91.73 58.1208 91.3114 57.9446 91.1719C57.7683 91.0323 57.4819 91.0764 57.1367 91.1719C56.96 91.2335 56.7716 91.2535 56.5859 91.2306C56.5859 91.2306 56.7695 90.7092 56.674 90.4962C56.6579 90.4414 56.6257 90.3927 56.5817 90.3563C56.5377 90.3199 56.4838 90.2975 56.427 90.292C56.3701 90.2865 56.3129 90.2981 56.2627 90.3253C56.2125 90.3525 56.1716 90.3941 56.1452 90.4448C55.9677 90.7556 55.6871 90.9946 55.352 91.1204C55.1475 91.193 54.9756 91.3363 54.8673 91.5244C51.9379 91.7983 48.9853 91.3729 46.2524 90.2832L45.5547 91.8402C46.9941 92.4521 48.5119 92.86 50.0641 93.052C51.7014 93.2796 53.3579 93.3362 55.0068 93.2209C55.4152 93.2348 55.82 93.3015 56.2113 93.4192C56.6879 93.5575 57.1849 93.6122 57.6802 93.5808C58.1135 93.5074 58.0768 93.0593 57.8417 92.9932C57.6793 92.9523 57.5285 92.8744 57.4011 92.7656C57.6757 92.7926 57.9521 92.7363 58.1943 92.604C58.4881 92.4204 58.422 91.9577 58.0768 91.9797Z" fill="#FFA8A7"/>
<path d="M44.0139 89.424L41.6931 89.3652L38.2119 90.2319L39.0565 96.5627C41.3479 97.5037 43.9125 97.5326 46.2246 96.6435L47.1206 90.3714L44.0139 89.424Z" fill="#FEDE8A"/>
<path opacity="0.6" d="M44.0139 89.424L41.6931 89.3652L38.2119 90.2319L39.0565 96.5627C41.3479 97.5037 43.9125 97.5326 46.2246 96.6435L47.1206 90.3714L44.0139 89.424Z" fill="white"/>
<path d="M41.3838 88.0215V90.0191C41.5527 90.9519 43.6752 90.9372 43.9102 90.0632L43.9543 88.1096L41.3838 88.0215Z" fill="#F28F8F"/>
<path d="M51.9784 79.1903C52.1075 73.9067 48.1394 69.524 43.1153 69.4012C38.0912 69.2784 33.9137 73.4621 33.7846 78.7457C33.6555 84.0293 37.6236 88.412 42.6477 88.5348C47.6718 88.6576 51.8493 84.4739 51.9784 79.1903Z" fill="#FFA8A7"/>
<path d="M39.1428 79.5295C39.1369 79.7633 39.0619 79.9901 38.9271 80.1812C38.7924 80.3723 38.604 80.5191 38.3858 80.6032C38.1676 80.6873 37.9294 80.7048 37.7012 80.6534C37.4731 80.6021 37.2653 80.4843 37.1041 80.3149C36.9429 80.1455 36.8356 79.9321 36.7957 79.7017C36.7558 79.4713 36.785 79.2342 36.8798 79.0205C36.9746 78.8067 37.1307 78.6259 37.3282 78.5008C37.5258 78.3757 37.756 78.312 37.9897 78.3177C38.145 78.3215 38.2981 78.3559 38.4401 78.4189C38.5821 78.4819 38.7103 78.5722 38.8174 78.6847C38.9245 78.7973 39.0083 78.9298 39.0641 79.0748C39.12 79.2197 39.1467 79.3743 39.1428 79.5295Z" fill="#37474F"/>
<path d="M37.9229 81.552C37.9695 81.8603 37.9202 82.1756 37.7816 82.455C37.643 82.7343 37.4218 82.9643 37.148 83.1137C36.8743 83.2631 36.5612 83.3247 36.2512 83.2902C35.9413 83.2556 35.6495 83.1266 35.4153 82.9206C35.1812 82.7145 35.0161 82.4415 34.9425 82.1384C34.8688 81.8354 34.8901 81.517 35.0035 81.2265C35.1169 80.936 35.3169 80.6874 35.5763 80.5144C35.8358 80.3414 36.1422 80.2523 36.454 80.2594C36.8199 80.2372 37.1797 80.3607 37.4549 80.6029C37.7301 80.845 37.8983 81.1862 37.9229 81.552Z" fill="#F28F8F"/>
<path d="M46.6273 79.714C46.6216 79.9477 46.6853 80.178 46.8104 80.3755C46.9354 80.5731 47.1163 80.7291 47.3301 80.8239C47.5438 80.9187 47.7809 80.948 48.0113 80.9081C48.2417 80.8681 48.4551 80.7608 48.6245 80.5996C48.7939 80.4384 48.9117 80.2306 48.963 80.0025C49.0143 79.7744 48.9968 79.5361 48.9128 79.3179C48.8287 79.0997 48.6819 78.9113 48.4908 78.7766C48.2997 78.6419 48.0729 78.5668 47.8391 78.5609C47.6838 78.557 47.5293 78.5837 47.3843 78.6396C47.2394 78.6954 47.1068 78.7793 46.9943 78.8864C46.8818 78.9935 46.7914 79.1217 46.7285 79.2637C46.6655 79.4057 46.6311 79.5587 46.6273 79.714Z" fill="#37474F"/>
<path d="M47.7638 81.7783C47.7005 82.0855 47.7334 82.4048 47.858 82.6927C47.9825 82.9806 48.1927 83.2232 48.4599 83.3876C48.7271 83.5519 49.0385 83.6299 49.3516 83.6111C49.6647 83.5923 49.9645 83.4776 50.2101 83.2825C50.4558 83.0873 50.6354 82.8213 50.7246 82.5206C50.8138 82.2198 50.8083 81.8989 50.7087 81.6014C50.6091 81.3039 50.4204 81.0443 50.1682 80.8578C49.9159 80.6714 49.6124 80.5671 49.2988 80.5591C48.9344 80.5217 48.5698 80.6283 48.283 80.8561C47.9961 81.0839 47.8098 81.4149 47.7638 81.7783Z" fill="#F28F8F"/>
<path d="M42.3339 85.362C41.7333 85.3044 41.1601 85.0828 40.677 84.7214C40.1938 84.36 39.8193 83.8728 39.5945 83.3129C39.5748 83.2165 39.5938 83.1163 39.6474 83.0339C39.701 82.9514 39.7849 82.8934 39.8809 82.8722C39.9287 82.8615 39.9781 82.8604 40.0263 82.8691C40.0745 82.8777 40.1205 82.8959 40.1616 82.9226C40.2026 82.9493 40.238 82.9839 40.2654 83.0245C40.2929 83.065 40.312 83.1106 40.3216 83.1587C40.5648 83.6024 40.9204 83.9744 41.3527 84.2374C41.785 84.5004 42.2789 84.6451 42.7848 84.657C43.2907 84.6689 43.7908 84.5476 44.235 84.3052C44.6792 84.0629 45.0519 83.708 45.3157 83.2762C45.342 83.1788 45.4059 83.0958 45.4934 83.0455C45.5808 82.9953 45.6847 82.9818 45.7821 83.0081C45.8795 83.0344 45.9624 83.0983 46.0127 83.1858C46.063 83.2732 46.0764 83.3771 46.0501 83.4745C45.7586 84.0834 45.2917 84.5913 44.7093 84.9329C44.1269 85.2744 43.4557 85.4341 42.7819 85.3913C42.6322 85.3896 42.4826 85.3798 42.3339 85.362Z" fill="#37474F"/>
<path d="M43.0687 72.3546C43.8619 78.1933 52.0067 79.2803 52.0067 79.2803C53.0717 73.2506 49.5243 68.1316 42.9512 67.97C36.378 67.8085 32.2064 73.7427 33.8075 78.7662C33.8001 78.7662 41.8789 78.2227 43.0687 72.3546Z" fill="#37474F"/>
<path d="M31.5972 73.905C30.6827 73.1463 30.107 72.0555 29.9969 70.8723C29.8867 69.6892 30.251 68.5108 31.0097 67.5962C31.7683 66.6817 32.8593 66.1061 34.0424 65.9959C35.2255 65.8857 36.404 66.25 37.3185 67.0087C39.2206 68.5951 37.9868 70.1668 36.4004 72.0763C34.814 73.9858 33.5214 75.4841 31.5972 73.905Z" fill="#37474F"/>
<path d="M54.4412 74.4696C55.3917 73.7557 56.0198 72.6935 56.1871 71.5166C56.3544 70.3396 56.0474 69.1444 55.3335 68.1939C54.6196 67.2433 53.5574 66.6153 52.3805 66.448C51.2036 66.2806 50.0083 66.5877 49.0578 67.3016C47.0822 68.7704 48.2426 70.4229 49.7261 72.3985C51.2097 74.3742 52.4582 75.9532 54.4412 74.4696Z" fill="#37474F"/>
<path d="M59.3604 164.749L107.73 136.826V86.2158L59.3604 114.139V164.749Z" fill="#FEDE8A"/>
<path opacity="0.1" d="M59.3604 164.749L107.73 136.826V86.2158L59.3604 114.139V164.749Z" fill="black"/>
<path d="M102.775 133.403L67.8604 148.79L68.6682 137.876L103.576 122.497L102.775 133.403Z" fill="#FAFAFA"/>
<path d="M105.186 125.103L104.15 127.042L99.8096 123.649L100.838 121.71L105.186 125.103Z" fill="#FEDE8A"/>
<path opacity="0.8" d="M105.186 125.103L104.15 127.042L99.8096 123.649L100.838 121.71L105.186 125.103Z" fill="white"/>
<path d="M71.816 147.395L70.7878 149.341L66.4473 145.948L67.4755 144.002L71.816 147.395Z" fill="#FEDE8A"/>
<path opacity="0.8" d="M71.816 147.395L70.7878 149.341L66.4473 145.948L67.4755 144.002L71.816 147.395Z" fill="white"/>
<path opacity="0.1" d="M59.3604 114.139L68.1148 131.883L107.73 109.064V86.2158L59.3604 114.139Z" fill="black"/>
<path d="M59.3669 164.749L10.9971 136.826V86.2158L59.3669 114.139V164.749Z" fill="#FEDE8A"/>
<path opacity="0.1" d="M59.3669 114.139L50.6124 131.883L10.9971 109.064V86.2158L59.3669 114.139Z" fill="black"/>
<path d="M10.9945 86.2158L0 100.177L48.4065 128.079L59.3643 114.139L10.9945 86.2158Z" fill="#FEDE8A"/>
<path opacity="0.2" d="M10.9945 86.2158L0 100.177L48.4065 128.079L59.3643 114.139L10.9945 86.2158Z" fill="white"/>
<path d="M107.73 86.2158L118.725 100.177L70.3181 128.079L59.3604 114.139L107.73 86.2158Z" fill="#FEDE8A"/>
<path opacity="0.3" d="M107.73 86.2158L118.725 100.177L70.3181 128.079L59.3604 114.139L107.73 86.2158Z" fill="white"/>
</svg>
