<svg width="727" height="534" viewBox="0 0 727 534" fill="none" xmlns="http://www.w3.org/2000/svg">
<path d="M281.574 98.2913L213.739 62.5161H161.478L92.5312 96.605V328.513H281.574V98.2913Z" fill="#E0E0E0"/>
<path d="M190.832 318.411H181.325V241.439H100.855V232.834H181.325V154.113H100.855V145.492H181.325V72.5078H190.832V145.492H271.301V154.113H190.832V232.834H271.301V241.439H190.832V318.411Z" fill="#F0F0F0"/>
<path d="M84.3271 96.0374L86.0651 94.2723C112.601 70.2616 148.557 56.7769 186.044 56.7769C223.53 56.7769 259.486 70.2616 286.022 94.2723L287.882 95.9586V334.266H84.3271V96.0374ZM275.333 100.765C251.344 79.9126 219.397 68.2704 186.165 68.2704C152.934 68.2704 120.987 79.9126 96.9972 100.765V322.777H275.246L275.333 100.765Z" fill="#F0F0F0"/>
<path d="M637.706 98.2913L569.872 62.5161H517.611L448.664 96.605V328.513H637.706V98.2913Z" fill="#E0E0E0"/>
<path d="M546.965 318.411H537.459V241.439H456.989V232.834H537.459V154.113H456.989V145.492H537.459V72.5078H546.965V145.492H627.435V154.113H546.965V232.834H627.435V241.439H546.965V318.411Z" fill="#F0F0F0"/>
<path d="M440.374 96.0372L442.234 94.3509C468.769 70.3402 504.725 56.8555 542.212 56.8555C579.699 56.8555 615.655 70.3402 642.191 94.3509L644.05 96.0372V334.265H440.374V96.0372ZM631.38 100.765C607.391 79.9124 575.444 68.2702 542.212 68.2702C508.981 68.2702 477.034 79.9124 453.044 100.765V322.776H631.38V100.765Z" fill="#F0F0F0"/>
<path d="M393.058 40.2357C396.987 25.1399 386.676 10.0141 370.029 6.45113C353.381 2.8882 336.701 12.2374 332.772 27.3332C328.842 42.429 339.153 57.5548 355.8 61.1178C372.448 64.6807 389.128 55.3315 393.058 40.2357Z" fill="#F0F0F0"/>
<path d="M388.948 37.636C391.278 24.6198 381.531 12.3553 367.176 10.2425C352.822 8.12964 339.297 16.9686 336.967 29.9848C334.637 43.001 344.384 55.2655 358.739 57.3783C373.093 59.4912 386.618 50.6522 388.948 37.636Z" fill="#FAFAFA"/>
<path d="M361.695 35.6767C361.396 35.6759 361.103 35.6053 360.843 35.4719L348.677 29.1678C348.477 29.0662 348.3 28.9295 348.158 28.7657C348.016 28.6018 347.912 28.414 347.85 28.2133C347.789 28.0125 347.772 27.8026 347.801 27.5959C347.829 27.3891 347.903 27.1895 348.017 27.0087C348.246 26.6482 348.623 26.3846 349.066 26.2754C349.509 26.1661 349.982 26.2201 350.381 26.4256L359.992 31.3427V17.3636C359.992 16.9456 360.175 16.5448 360.501 16.2492C360.827 15.9536 361.269 15.7876 361.73 15.7876C362.191 15.7876 362.633 15.9536 362.959 16.2492C363.285 16.5448 363.468 16.9456 363.468 17.3636V34.1007C363.468 34.5187 363.285 34.9196 362.959 35.2151C362.633 35.5107 362.191 35.6767 361.73 35.6767H361.695Z" fill="#E0E0E0"/>
<path d="M364.146 533.472C550.255 533.472 701.127 525.485 701.127 515.632C701.127 505.779 550.255 497.792 364.146 497.792C178.036 497.792 27.165 505.779 27.165 515.632C27.165 525.485 178.036 533.472 364.146 533.472Z" fill="#F5F5F5"/>
<path d="M662.508 368.322C662.873 370.639 655.938 372.168 650.342 373.05C650.811 377.258 653.818 381.514 658.163 385.469C663.516 382.743 671.18 379.165 672.588 380.001C673.996 380.836 666.279 385.564 661.378 388.259C664.88 391.032 668.591 393.581 672.484 395.887C674.882 393.854 677.698 392.073 679.436 393.034C681.174 393.995 680.705 397.195 679.853 400C685.675 403.152 690.055 404.964 690.055 404.964C691.742 400.048 693.043 395.029 693.948 389.945C693.653 389.409 693.357 388.889 693.096 388.369C692.141 386.399 693.097 385.564 694.609 385.217C695.06 381.621 695.095 377.992 694.713 374.39C688.108 373.145 680.079 370.813 683.086 367.235C684.911 365.06 688.3 364.824 691.671 365.36C691.208 364.64 690.667 363.964 690.055 363.342C678.028 351.333 669.651 363.342 669.651 363.342C662.699 358.063 652.862 359.497 650.742 367.739C654.548 366.809 662.056 365.533 662.508 368.322Z" fill="#154122"/>
<path opacity="0.3" d="M662.508 368.322C662.873 370.639 655.938 372.168 650.342 373.05C650.811 377.258 653.818 381.514 658.163 385.469C663.516 382.743 671.18 379.165 672.588 380.001C673.996 380.836 666.279 385.564 661.378 388.259C664.88 391.032 668.591 393.581 672.484 395.887C674.882 393.854 677.698 392.073 679.436 393.034C681.174 393.995 680.705 397.195 679.853 400C685.675 403.152 690.055 404.964 690.055 404.964C691.742 400.048 693.043 395.029 693.948 389.945C693.653 389.409 693.357 388.889 693.096 388.369C692.141 386.399 693.097 385.564 694.609 385.217C695.06 381.621 695.095 377.992 694.713 374.39C688.108 373.145 680.079 370.813 683.086 367.235C684.911 365.06 688.3 364.824 691.671 365.36C691.208 364.64 690.667 363.964 690.055 363.342C678.028 351.333 669.651 363.342 669.651 363.342C662.699 358.063 652.862 359.497 650.742 367.739C654.548 366.809 662.056 365.533 662.508 368.322Z" fill="white"/>
<path d="M677.507 456.563L675.769 456.421C675.769 455.617 682.878 375.225 662.995 367.645C662.048 367.239 661.008 367.04 659.961 367.065C658.913 367.089 657.887 367.337 656.964 367.787C649.769 371.175 646.327 385.249 646.293 385.391L644.555 385.06C644.694 384.445 648.204 370.119 656.112 366.384C657.264 365.833 658.54 365.529 659.842 365.497C661.144 365.464 662.437 365.703 663.621 366.195C684.703 374.201 677.803 453.19 677.507 456.563Z" fill="#154122"/>
<path d="M680.01 454.813C679.662 451.189 671.528 366.132 686.718 357.101C690.368 354.942 693.67 354.485 696.364 355.746C703.542 359.024 704.481 372.94 704.515 373.523L702.777 373.618C702.777 373.476 701.874 360.017 695.582 357.149C693.427 356.172 690.75 356.581 687.674 358.425C673.353 366.936 681.661 453.805 681.748 454.672L680.01 454.813Z" fill="#154122"/>
<path d="M682.286 461.669C682.182 458.911 679.679 393.791 693.514 388.101C694.8 387.552 696.203 387.268 697.624 387.268C699.045 387.268 700.449 387.552 701.735 388.101C711.224 391.884 717.081 407.912 717.377 408.589L715.726 409.078C715.726 408.92 709.868 393.019 701.074 389.52C700.012 389.065 698.851 388.829 697.676 388.829C696.501 388.829 695.341 389.065 694.279 389.52C683.677 393.885 683.329 443.025 684.077 461.606L682.286 461.669Z" fill="#154122"/>
<path d="M678.723 458.706L676.985 458.533C679.418 439.148 684.076 387.518 676.463 381.309C676.093 380.907 675.602 380.611 675.049 380.458C674.497 380.304 673.908 380.298 673.352 380.442C668.243 382.207 665.149 399.007 664.367 405.327L662.629 405.153C662.924 402.726 665.705 381.403 672.709 378.96C673.56 378.704 674.475 378.678 675.342 378.885C676.21 379.092 676.992 379.524 677.593 380.127C687.517 388.148 679.14 455.838 678.723 458.706Z" fill="#154122"/>
<path d="M649.769 421.97H712.215L707.001 485.404H654.983L649.769 421.97Z" fill="#263238"/>
<path d="M658.267 398.708C657.624 400.284 652.775 399.023 648.969 397.794C647.665 400.536 647.961 404.098 649.09 407.896C653.435 407.896 659.518 408.022 660.057 408.999C660.596 409.976 654.061 410.465 650.029 410.575C651.139 413.371 652.463 416.094 653.991 418.723C656.233 418.219 658.649 417.982 659.31 419.101C659.97 420.22 658.528 422.064 656.929 423.53C659.362 427.249 661.361 429.755 661.361 429.755C664.264 427.25 666.965 424.558 669.442 421.702C669.442 421.292 669.442 420.866 669.442 420.441C669.599 418.865 670.485 418.707 671.545 419.007C673.174 416.928 674.566 414.705 675.699 412.372C672.101 409.551 668.017 405.611 671.232 404.334C673.179 403.562 675.317 404.445 677.246 405.91C677.217 405.322 677.136 404.737 677.003 404.161C674.118 393.019 664.419 397.857 664.419 397.857C662.108 392.435 655.521 390.261 651.089 394.705C653.939 395.304 659.084 396.801 658.267 398.708Z" fill="#154122"/>
<path opacity="0.3" d="M658.267 398.708C657.624 400.284 652.775 399.023 648.969 397.794C647.665 400.536 647.961 404.098 649.09 407.896C653.435 407.896 659.518 408.022 660.057 408.999C660.596 409.976 654.061 410.465 650.029 410.575C651.139 413.371 652.463 416.094 653.991 418.723C656.233 418.219 658.649 417.982 659.31 419.101C659.97 420.22 658.528 422.064 656.929 423.53C659.362 427.249 661.361 429.755 661.361 429.755C664.264 427.25 666.965 424.558 669.442 421.702C669.442 421.292 669.442 420.866 669.442 420.441C669.599 418.865 670.485 418.707 671.545 419.007C673.174 416.928 674.566 414.705 675.699 412.372C672.101 409.551 668.017 405.611 671.232 404.334C673.179 403.562 675.317 404.445 677.246 405.91C677.217 405.322 677.136 404.737 677.003 404.161C674.118 393.019 664.419 397.857 664.419 397.857C662.108 392.435 655.521 390.261 651.089 394.705C653.939 395.304 659.084 396.801 658.267 398.708Z" fill="white"/>
<path d="M704.637 406.226C702.697 406.387 700.784 406.752 698.937 407.313C698.434 406.117 698.147 404.856 698.085 403.578C697.703 392.152 706.775 396.974 711.468 393.618C712.548 392.754 713.816 392.106 715.191 391.715C716.565 391.324 718.014 391.199 719.445 391.348C719.041 391.978 718.681 392.631 718.367 393.302C718.253 393.553 718.203 393.823 718.222 394.094C718.241 394.364 718.327 394.627 718.474 394.862C718.622 395.098 718.826 395.3 719.073 395.453C719.32 395.606 719.601 395.706 719.897 395.745C721.07 395.958 722.288 395.826 723.373 395.367C723.688 395.196 723.989 395.006 724.277 394.8C725.048 395.992 725.633 397.275 726.015 398.613C726.487 400.209 726.761 401.848 726.831 403.499C726.119 403.639 725.417 403.818 724.728 404.035C724.454 404.141 724.21 404.302 724.014 404.506C723.819 404.71 723.677 404.952 723.6 405.213C723.523 405.475 723.513 405.748 723.57 406.014C723.627 406.279 723.749 406.53 723.929 406.746C724.678 407.438 725.562 407.999 726.536 408.4C726.217 410.232 725.687 412.028 724.954 413.759H724.311C723.842 413.853 723.39 413.948 722.938 414.074C722.681 414.137 722.431 414.221 722.191 414.326C721.881 414.448 721.61 414.639 721.403 414.881C721.196 415.124 721.061 415.41 721.009 415.713C720.977 416.012 721.029 416.313 721.16 416.588C721.29 416.864 721.496 417.105 721.756 417.289C722.052 417.486 722.366 417.66 722.695 417.809C721.496 419.698 719.777 421.273 717.707 422.38C715.919 421.621 714.178 420.774 712.493 419.842C712.858 419.385 713.24 418.928 713.588 418.455C713.993 417.932 714.184 417.296 714.127 416.659C714.031 416.02 713.662 415.442 713.099 415.049C712.536 414.657 711.825 414.482 711.12 414.563C710.43 414.658 709.808 414.991 709.382 415.492C708.965 416.044 708.513 416.58 708.044 417.068C705.639 415.466 703.487 413.573 701.648 411.442H701.839C703.005 411.162 704.198 410.983 705.402 410.906C705.751 410.865 706.088 410.761 706.393 410.602C706.698 410.443 706.966 410.23 707.18 409.977C707.395 409.724 707.553 409.435 707.644 409.127C707.736 408.818 707.759 408.496 707.713 408.18C707.668 407.863 707.554 407.558 707.378 407.281C707.202 407.004 706.968 406.762 706.689 406.567C706.41 406.372 706.091 406.23 705.751 406.147C705.411 406.064 705.056 406.042 704.707 406.084L704.637 406.226Z" fill="#154122"/>
<path opacity="0.5" d="M704.637 406.226C702.697 406.387 700.784 406.752 698.937 407.313C698.434 406.117 698.147 404.856 698.085 403.578C697.703 392.152 706.775 396.974 711.468 393.618C712.548 392.754 713.816 392.106 715.191 391.715C716.565 391.324 718.014 391.199 719.445 391.348C719.041 391.978 718.681 392.631 718.367 393.302C718.253 393.553 718.203 393.823 718.222 394.094C718.241 394.364 718.327 394.627 718.474 394.862C718.622 395.098 718.826 395.3 719.073 395.453C719.32 395.606 719.601 395.706 719.897 395.745C721.07 395.958 722.288 395.826 723.373 395.367C723.688 395.196 723.989 395.006 724.277 394.8C725.048 395.992 725.633 397.275 726.015 398.613C726.487 400.209 726.761 401.848 726.831 403.499C726.119 403.639 725.417 403.818 724.728 404.035C724.454 404.141 724.21 404.302 724.014 404.506C723.819 404.71 723.677 404.952 723.6 405.213C723.523 405.475 723.513 405.748 723.57 406.014C723.627 406.279 723.749 406.53 723.929 406.746C724.678 407.438 725.562 407.999 726.536 408.4C726.217 410.232 725.687 412.028 724.954 413.759H724.311C723.842 413.853 723.39 413.948 722.938 414.074C722.681 414.137 722.431 414.221 722.191 414.326C721.881 414.448 721.61 414.639 721.403 414.881C721.196 415.124 721.061 415.41 721.009 415.713C720.977 416.012 721.029 416.313 721.16 416.588C721.29 416.864 721.496 417.105 721.756 417.289C722.052 417.486 722.366 417.66 722.695 417.809C721.496 419.698 719.777 421.273 717.707 422.38C715.919 421.621 714.178 420.774 712.493 419.842C712.858 419.385 713.24 418.928 713.588 418.455C713.993 417.932 714.184 417.296 714.127 416.659C714.031 416.02 713.662 415.442 713.099 415.049C712.536 414.657 711.825 414.482 711.12 414.563C710.43 414.658 709.808 414.991 709.382 415.492C708.965 416.044 708.513 416.58 708.044 417.068C705.639 415.466 703.487 413.573 701.648 411.442H701.839C703.005 411.162 704.198 410.983 705.402 410.906C705.751 410.865 706.088 410.761 706.393 410.602C706.698 410.443 706.966 410.23 707.18 409.977C707.395 409.724 707.553 409.435 707.644 409.127C707.736 408.818 707.759 408.496 707.713 408.18C707.668 407.863 707.554 407.558 707.378 407.281C707.202 407.004 706.968 406.762 706.689 406.567C706.41 406.372 706.091 406.23 705.751 406.147C705.411 406.064 705.056 406.042 704.707 406.084L704.637 406.226Z" fill="white"/>
<path d="M708.27 366.857C709.354 366.173 710.52 365.602 711.746 365.155C711.424 364.327 710.96 363.551 710.373 362.854C705.054 356.707 702.656 362.854 698.519 362.948C697.545 362.93 696.578 363.097 695.68 363.439C694.781 363.781 693.972 364.29 693.305 364.934C693.824 365.101 694.33 365.301 694.817 365.533C695 365.618 695.158 365.74 695.28 365.889C695.402 366.038 695.485 366.211 695.522 366.393C695.559 366.576 695.549 366.764 695.493 366.943C695.437 367.121 695.337 367.286 695.2 367.424C694.688 368.017 693.972 368.439 693.166 368.622C692.918 368.645 692.667 368.645 692.419 368.622C692.594 369.555 692.909 370.462 693.357 371.317C693.872 372.349 694.52 373.323 695.287 374.217C695.733 374.006 696.191 373.816 696.66 373.649C696.857 373.597 697.064 373.585 697.266 373.616C697.469 373.646 697.661 373.718 697.828 373.826C697.996 373.934 698.134 374.075 698.233 374.238C698.331 374.401 698.388 374.582 698.398 374.768C698.33 375.427 698.142 376.072 697.842 376.675C698.911 377.512 700.076 378.241 701.318 378.85L701.682 378.645C701.978 378.503 702.256 378.377 702.551 378.267C702.719 378.196 702.894 378.138 703.073 378.094C703.294 378.036 703.527 378.029 703.751 378.073C703.975 378.117 704.184 378.211 704.359 378.346C704.531 378.493 704.657 378.677 704.727 378.881C704.797 379.086 704.808 379.303 704.759 379.512C704.702 379.732 704.626 379.948 704.533 380.158C706.075 380.679 707.742 380.82 709.364 380.568C709.954 379.451 710.471 378.304 710.911 377.132L709.66 376.833C709.194 376.724 708.787 376.467 708.513 376.108C708.253 375.738 708.166 375.291 708.27 374.863C708.378 374.431 708.664 374.054 709.069 373.807C709.486 373.58 709.982 373.501 710.459 373.586C710.951 373.721 711.45 373.831 711.954 373.917C712.436 372.118 712.646 370.268 712.58 368.417H712.458C711.711 368.73 711.001 369.11 710.338 369.552C709.929 369.751 709.452 369.803 709.003 369.697C708.554 369.591 708.165 369.335 707.915 368.981C707.664 368.627 707.571 368.2 707.653 367.785C707.735 367.371 707.986 367 708.356 366.746L708.27 366.857Z" fill="#154122"/>
<path opacity="0.3" d="M708.27 366.857C709.354 366.173 710.52 365.602 711.746 365.155C711.424 364.327 710.96 363.551 710.373 362.854C705.054 356.707 702.656 362.854 698.519 362.948C697.545 362.93 696.578 363.097 695.68 363.439C694.781 363.781 693.972 364.29 693.305 364.934C693.824 365.101 694.33 365.301 694.817 365.533C695 365.618 695.158 365.74 695.28 365.889C695.402 366.038 695.485 366.211 695.522 366.393C695.559 366.576 695.549 366.764 695.493 366.943C695.437 367.121 695.337 367.286 695.2 367.424C694.688 368.017 693.972 368.439 693.166 368.622C692.918 368.645 692.667 368.645 692.419 368.622C692.594 369.555 692.909 370.462 693.357 371.317C693.872 372.349 694.52 373.323 695.287 374.217C695.733 374.006 696.191 373.816 696.66 373.649C696.857 373.597 697.064 373.585 697.266 373.616C697.469 373.646 697.661 373.718 697.828 373.826C697.996 373.934 698.134 374.075 698.233 374.238C698.331 374.401 698.388 374.582 698.398 374.768C698.33 375.427 698.142 376.072 697.842 376.675C698.911 377.512 700.076 378.241 701.318 378.85L701.682 378.645C701.978 378.503 702.256 378.377 702.551 378.267C702.719 378.196 702.894 378.138 703.073 378.094C703.294 378.036 703.527 378.029 703.751 378.073C703.975 378.117 704.184 378.211 704.359 378.346C704.531 378.493 704.657 378.677 704.727 378.881C704.797 379.086 704.808 379.303 704.759 379.512C704.702 379.732 704.626 379.948 704.533 380.158C706.075 380.679 707.742 380.82 709.364 380.568C709.954 379.451 710.471 378.304 710.911 377.132L709.66 376.833C709.194 376.724 708.787 376.467 708.513 376.108C708.253 375.738 708.166 375.291 708.27 374.863C708.378 374.431 708.664 374.054 709.069 373.807C709.486 373.58 709.982 373.501 710.459 373.586C710.951 373.721 711.45 373.831 711.954 373.917C712.436 372.118 712.646 370.268 712.58 368.417H712.458C711.711 368.73 711.001 369.11 710.338 369.552C709.929 369.751 709.452 369.803 709.003 369.697C708.554 369.591 708.165 369.335 707.915 368.981C707.664 368.627 707.571 368.2 707.653 367.785C707.735 367.371 707.986 367 708.356 366.746L708.27 366.857Z" fill="white"/>
<path d="M657.363 378.283C656.998 380.599 663.933 382.128 669.529 383.011C669.06 387.219 666.053 391.474 661.726 395.445C656.355 392.703 648.708 389.141 647.283 389.961C645.858 390.78 653.592 395.524 658.493 398.235C654.986 401.003 651.275 403.551 647.387 405.863C644.989 403.83 642.173 402.033 640.435 403.01C638.697 403.987 639.166 407.155 640.035 409.976C634.196 413.049 629.833 414.925 629.833 414.925C628.135 410.009 626.828 404.99 625.923 399.905C626.218 399.385 626.514 398.849 626.792 398.329C627.73 396.359 626.792 395.524 625.262 395.256C624.82 391.66 624.785 388.032 625.158 384.429C631.763 383.168 639.792 380.852 636.785 377.258C635.047 375.099 631.658 374.847 628.2 375.383C628.669 374.668 629.216 373.997 629.833 373.381C641.843 361.372 650.22 373.381 650.22 373.381C657.172 368.102 667.026 369.52 669.147 377.778C665.323 376.785 657.867 375.43 657.363 378.283Z" fill="#154122"/>
<path opacity="0.5" d="M657.363 378.283C656.998 380.599 663.933 382.128 669.529 383.011C669.06 387.219 666.053 391.474 661.726 395.445C656.355 392.703 648.708 389.141 647.283 389.961C645.858 390.78 653.592 395.524 658.493 398.235C654.986 401.003 651.275 403.551 647.387 405.863C644.989 403.83 642.173 402.033 640.435 403.01C638.697 403.987 639.166 407.155 640.035 409.976C634.196 413.049 629.833 414.925 629.833 414.925C628.135 410.009 626.828 404.99 625.923 399.905C626.218 399.385 626.514 398.849 626.792 398.329C627.73 396.359 626.792 395.524 625.262 395.256C624.82 391.66 624.785 388.032 625.158 384.429C631.763 383.168 639.792 380.852 636.785 377.258C635.047 375.099 631.658 374.847 628.2 375.383C628.669 374.668 629.216 373.997 629.833 373.381C641.843 361.372 650.22 373.381 650.22 373.381C657.172 368.102 667.026 369.52 669.147 377.778C665.323 376.785 657.867 375.43 657.363 378.283Z" fill="white"/>
<path d="M446.37 444.79L451.045 404.555L491.958 403.53C491.958 403.53 498.11 440.472 496.929 440.314C495.747 440.157 446.37 444.79 446.37 444.79Z" fill="#FEDE8A"/>
<path opacity="0.2" d="M446.37 444.79L451.045 404.555L491.958 403.53C491.958 403.53 498.11 440.472 496.929 440.314C495.747 440.157 446.37 444.79 446.37 444.79Z" fill="black"/>
<path d="M480.592 437.667L497.068 416.217C497.068 416.217 515.352 423.026 515.352 423.719C515.352 424.413 516.151 439.842 516.151 439.842L480.592 437.667Z" fill="#263238"/>
<path opacity="0.2" d="M480.592 437.667L497.068 416.217C497.068 416.217 515.352 423.026 515.352 423.719C515.352 424.413 516.151 439.842 516.151 439.842L480.592 437.667Z" fill="white"/>
<path d="M441.519 431.403C443.079 422.692 436.555 414.483 426.947 413.069C417.34 411.655 408.288 417.571 406.728 426.282C405.169 434.994 411.693 443.203 421.3 444.617C430.907 446.031 439.96 440.115 441.519 431.403Z" fill="#FEDE8A"/>
<path d="M429.946 432.687L418.962 397.053L424.454 394.09L435.456 395.335L439.662 402.033L448.352 405.311L454.521 430.149L449.69 435.129C449.69 435.129 450.715 440.362 450.037 440.362C449.36 440.362 432.657 441.591 432.657 441.591L429.946 432.687Z" fill="#FEDE8A"/>
<path opacity="0.2" d="M449.724 435.192C449.724 435.192 450.75 440.425 450.055 440.425C449.655 440.425 443.589 440.85 438.74 441.213L432.709 441.638L429.946 432.687L418.944 397.053L424.454 394.09L425.253 394.185L435.455 395.351L439.661 402.049L448.351 405.311L454.521 430.149L449.724 435.192Z" fill="white"/>
<path d="M427.201 407.045C427.201 408.034 426.877 409 426.271 409.822C425.665 410.644 424.803 411.284 423.795 411.662C422.788 412.04 421.679 412.138 420.61 411.943C419.541 411.749 418.559 411.272 417.789 410.572C417.019 409.872 416.496 408.98 416.285 408.01C416.075 407.04 416.186 406.035 416.606 405.122C417.026 404.209 417.735 403.43 418.643 402.883C419.551 402.336 420.618 402.046 421.708 402.049C422.432 402.047 423.148 402.175 423.817 402.425C424.485 402.676 425.093 403.044 425.603 403.508C426.114 403.973 426.518 404.525 426.792 405.132C427.066 405.739 427.205 406.389 427.201 407.045Z" fill="#263238"/>
<path d="M421.708 409.535C423.225 409.535 424.454 408.421 424.454 407.045C424.454 405.67 423.225 404.555 421.708 404.555C420.191 404.555 418.962 405.67 418.962 407.045C418.962 408.421 420.191 409.535 421.708 409.535Z" fill="white"/>
<path d="M435.404 432.686C435.404 433.674 435.081 434.64 434.475 435.462C433.87 436.283 433.009 436.924 432.003 437.302C430.996 437.68 429.888 437.779 428.819 437.586C427.751 437.393 426.769 436.918 425.998 436.219C425.228 435.52 424.703 434.63 424.491 433.661C424.278 432.692 424.387 431.687 424.804 430.774C425.221 429.862 425.927 429.081 426.833 428.532C427.739 427.983 428.805 427.69 429.894 427.69C430.618 427.688 431.336 427.816 432.005 428.067C432.675 428.317 433.283 428.685 433.795 429.149C434.307 429.613 434.713 430.165 434.989 430.772C435.265 431.379 435.406 432.03 435.404 432.686Z" fill="#263238"/>
<path d="M432.709 432.686C432.713 433.183 432.554 433.669 432.252 434.083C431.951 434.497 431.52 434.821 431.016 435.013C430.511 435.205 429.955 435.257 429.418 435.162C428.88 435.067 428.386 434.829 427.998 434.48C427.61 434.13 427.345 433.683 427.237 433.197C427.129 432.71 427.183 432.206 427.391 431.747C427.6 431.288 427.954 430.896 428.409 430.62C428.864 430.344 429.399 430.196 429.946 430.196C430.676 430.196 431.376 430.458 431.894 430.925C432.412 431.391 432.705 432.025 432.709 432.686Z" fill="white"/>
<path opacity="0.2" d="M449.725 435.192C449.725 435.192 450.75 440.425 450.055 440.425C449.655 440.425 443.59 440.85 438.741 441.213C438.509 439.213 438.417 437.202 438.463 435.192L443.399 429.125L438.636 405.879L429.946 403.389L425.254 394.201L435.456 395.367L439.662 402.065L448.352 405.327L454.522 430.149L449.725 435.192Z" fill="white"/>
<path d="M468.703 420.488C468.703 420.488 456.954 421.828 458.067 413.507C458.598 408.741 460.832 404.264 464.428 400.757L459.492 400.205C459.492 400.205 439.453 421.702 466.774 425.421L468.703 420.488Z" fill="#263238"/>
<path d="M468.965 395.067C469.571 396.024 469.834 397.127 469.719 398.226C469.604 399.324 469.116 400.362 468.322 401.198C465.558 404.35 456.156 401.498 456.469 398.219C456.781 394.941 462.204 392.089 462.204 392.089L463.334 392.83C463.334 392.83 456.92 396.612 462.187 398.235C467.453 399.859 467.783 395.745 467.783 395.745L468.965 395.067Z" fill="#FEDE8A"/>
<path d="M487.387 426.603C487.387 426.603 496.077 433.932 500.527 426.603C503.171 422.458 504.257 417.646 503.62 412.892L507.983 415.067C507.983 415.067 510.329 443.136 485.806 431.725L487.387 426.603Z" fill="#263238"/>
<path d="M459.962 435.177L468.895 417.242C468.895 417.242 488.917 420.52 488.274 421.15C487.631 421.781 486.362 443.435 486.362 443.435L459.962 435.177Z" fill="#FEDE8A"/>
<path d="M483.737 396.202L479.896 407.045H481.495L483.737 396.202Z" fill="#263238"/>
<path d="M484.694 396.628C484.697 396.804 484.642 396.976 484.537 397.124C484.431 397.271 484.279 397.387 484.101 397.456C483.922 397.524 483.725 397.543 483.535 397.51C483.344 397.476 483.169 397.392 483.032 397.267C482.895 397.143 482.802 396.984 482.765 396.812C482.728 396.639 482.749 396.46 482.825 396.298C482.9 396.136 483.028 395.999 483.19 395.903C483.353 395.807 483.544 395.758 483.738 395.761C483.991 395.761 484.234 395.852 484.414 396.015C484.593 396.177 484.694 396.398 484.694 396.628Z" fill="#263238"/>
<path d="M467.557 402.049L463.733 416.942C463.733 416.942 493.14 424.57 493.14 423.64C493.14 422.71 496.06 409.535 496.06 409.535L467.557 402.049Z" fill="#FEDE8A"/>
<path opacity="0.4" d="M467.557 402.049L463.733 416.942C463.733 416.942 493.14 424.57 493.14 423.64C493.14 422.71 496.06 409.535 496.06 409.535L467.557 402.049Z" fill="white"/>
<path d="M475.83 408.778C475.833 409.125 475.723 409.465 475.513 409.755C475.303 410.044 475.003 410.271 474.651 410.406C474.299 410.541 473.911 410.578 473.535 410.512C473.16 410.446 472.814 410.281 472.543 410.037C472.271 409.793 472.086 409.481 472.01 409.141C471.934 408.802 471.971 408.449 472.117 408.128C472.262 407.808 472.51 407.534 472.827 407.341C473.145 407.148 473.518 407.045 473.901 407.045C474.409 407.045 474.898 407.227 475.259 407.552C475.62 407.876 475.825 408.317 475.83 408.778Z" fill="white"/>
<path d="M490.185 412.025C490.185 412.368 490.073 412.703 489.863 412.988C489.653 413.273 489.354 413.496 489.005 413.627C488.655 413.758 488.271 413.792 487.9 413.725C487.529 413.659 487.189 413.494 486.921 413.251C486.654 413.009 486.472 412.7 486.398 412.363C486.324 412.027 486.362 411.678 486.507 411.362C486.652 411.045 486.897 410.774 487.211 410.584C487.525 410.393 487.895 410.292 488.273 410.292C488.779 410.296 489.262 410.48 489.62 410.804C489.978 411.128 490.18 411.567 490.185 412.025Z" fill="white"/>
<path d="M475.395 415.067L482.99 417.872V419.432L473.9 416.47L475.395 415.067Z" fill="white"/>
<path opacity="0.4" d="M487.388 428.479C486.866 434.972 486.362 443.435 486.362 443.435L459.962 435.193L466.688 421.702L487.388 428.479Z" fill="white"/>
<path d="M503.62 405.863C502.506 406.313 501.573 407.066 500.95 408.017C500.327 408.969 500.046 410.072 500.144 411.174C500.318 415.225 509.773 417.857 511.667 415.067C513.562 412.278 510.989 407.045 510.989 407.045H509.599C509.599 407.045 512.345 413.507 507.027 412.025C501.708 410.544 504.107 407.045 504.107 407.045L503.62 405.863Z" fill="#FEDE8A"/>
<path d="M400.418 485.404H521.695V431.678H400.418V485.404Z" fill="#263238"/>
<path opacity="0.6" d="M400.418 485.404H521.695V431.678H400.418V485.404Z" fill="white"/>
<path opacity="0.3" d="M400.435 485.404H486.361V431.678H400.435V485.404Z" fill="white"/>
<path d="M486.361 431.662L495.242 444.396H529.603L521.695 431.662H486.361Z" fill="#263238"/>
<path d="M486.361 431.662L478.627 444.396H392.822L400.435 431.662H486.361Z" fill="#263238"/>
<path opacity="0.4" d="M486.361 431.662L495.242 444.396H529.603L521.695 431.662H486.361Z" fill="white"/>
<path opacity="0.6" d="M486.361 431.662L478.627 444.396H392.822L400.435 431.662H486.361Z" fill="white"/>
<path d="M396.403 434.073H262.125V485.388H396.403V434.073Z" fill="#FEDE8A"/>
<path opacity="0.2" d="M262.125 485.404H360.183V434.089H262.125V485.404Z" fill="white"/>
<path d="M311.45 434.073H298.05V441.764H311.45V434.073Z" fill="#263238"/>
<path d="M311.45 479.588H298.05V485.388H311.45V479.588Z" fill="#263238"/>
<path d="M382.081 382.854H282.563V434.168H382.081V382.854Z" fill="#FEDE8A"/>
<path opacity="0.2" d="M382.081 382.854H282.563V434.168H382.081V382.854Z" fill="white"/>
<path opacity="0.2" d="M282.547 434.168H345.845V382.853H282.547V434.168Z" fill="white"/>
<path opacity="0.2" d="M367.448 382.854H360.67V389.41H367.448V382.854Z" fill="black"/>
<path opacity="0.2" d="M367.448 429.724H360.67V434.184H367.448V429.724Z" fill="black"/>
<path d="M41.0515 485.404H148.025L148.025 377.085H41.0515L41.0515 485.404Z" fill="#FEDE8A"/>
<path opacity="0.2" d="M41.0694 485.404H73.8828L73.8828 377.085H41.0694L41.0694 485.404Z" fill="black"/>
<path opacity="0.2" d="M81.1992 402.853H142.707V381.876H81.1992V402.853Z" fill="white"/>
<path opacity="0.2" d="M81.1992 428.952H142.707V407.975H81.1992V428.952Z" fill="white"/>
<path opacity="0.2" d="M81.1992 479.447H142.707V434.105H81.1992V479.447Z" fill="white"/>
<path opacity="0.2" d="M111.093 385.927C111.093 386.364 111.235 386.79 111.503 387.153C111.77 387.516 112.15 387.799 112.595 387.966C113.039 388.133 113.529 388.176 114.001 388.091C114.473 388.006 114.906 387.796 115.246 387.487C115.587 387.179 115.819 386.786 115.912 386.358C116.006 385.93 115.958 385.486 115.774 385.083C115.59 384.68 115.278 384.335 114.878 384.093C114.478 383.85 114.007 383.721 113.526 383.721C112.881 383.721 112.262 383.953 111.805 384.367C111.349 384.781 111.093 385.342 111.093 385.927Z" fill="black"/>
<path opacity="0.2" d="M113.526 413.318C114.87 413.318 115.959 412.33 115.959 411.111C115.959 409.893 114.87 408.905 113.526 408.905C112.182 408.905 111.093 409.893 111.093 411.111C111.093 412.33 112.182 413.318 113.526 413.318Z" fill="black"/>
<path opacity="0.2" d="M137.319 456.768C137.371 457.319 137.648 457.832 138.097 458.207C138.546 458.581 139.134 458.788 139.744 458.788C140.354 458.788 140.941 458.581 141.39 458.207C141.839 457.832 142.117 457.319 142.168 456.768C142.197 456.464 142.155 456.157 142.046 455.868C141.937 455.579 141.763 455.314 141.535 455.089C141.308 454.864 141.031 454.685 140.722 454.562C140.414 454.439 140.081 454.375 139.744 454.375C139.407 454.375 139.074 454.439 138.765 454.562C138.457 454.685 138.18 454.864 137.952 455.089C137.724 455.314 137.55 455.579 137.441 455.868C137.332 456.157 137.291 456.464 137.319 456.768Z" fill="black"/>
<path d="M31.7876 419.543H26.3477V485.388H31.7876V419.543Z" fill="#263238"/>
<path d="M0 442.174H58.1535L53.4435 404.854H4.70998L0 442.174Z" fill="#FEDE8A"/>
<g opacity="0.6">
<path opacity="0.6" d="M0 442.174H58.1535L53.4435 404.854H4.70998L0 442.174Z" fill="white"/>
</g>
<path opacity="0.2" d="M26.3477 457.193V485.404H31.7876V454.104L26.3477 457.193Z" fill="white"/>
<path d="M38.6005 482.504H19.5346L16.1455 485.404H42.0069L38.6005 482.504Z" fill="#FEDE8A"/>
<path opacity="0.2" d="M38.6005 482.504H19.5346L16.1455 485.404H42.0069L38.6005 482.504Z" fill="white"/>
<path d="M556.872 213.134C556.872 213.134 555.377 215.136 553.083 218.13C550.632 221.361 547.208 225.742 543.785 229.934C539.04 235.75 534.226 241.187 531.758 242.716C525.831 246.435 496.806 253.196 495.555 253.054C494.304 252.913 492.34 247.16 492.34 247.16C492.34 247.16 518.862 239.107 522.651 236.727C526.439 234.347 540.43 204.529 549.781 200.873L556.872 213.134Z" fill="#E4897B"/>
<path opacity="0.2" d="M553.084 218.13C550.633 221.361 547.209 225.742 543.785 229.934C534.47 218.745 547.678 206.357 547.678 206.357C547.678 206.357 552.302 213.654 553.084 218.13Z" fill="black"/>
<path d="M567.996 332.138C569.89 336.708 571.628 341.342 573.21 345.88C581.239 368.89 585.376 396.312 585.376 396.312C606.84 435.634 621.874 494.702 621.874 494.702L613.931 497.113L561.791 391.963L546.306 355.715L567.996 332.138Z" fill="#E4897B"/>
<path d="M622.186 489.139C621.699 488.288 610.437 494.088 610.437 494.088C610.437 494.088 606.822 503.827 600.67 508.366C594.517 512.905 600.426 514.97 608.195 511.518L627.4 503.071C632.91 500.675 627.174 497.917 622.186 489.139Z" fill="#263238"/>
<path d="M605.727 499.493C605.372 499.67 604.963 499.736 604.562 499.682C604.321 499.619 604.106 499.489 603.948 499.312C603.789 499.134 603.694 498.917 603.676 498.689C603.638 498.518 603.641 498.341 603.682 498.17C603.724 497.999 603.805 497.838 603.919 497.697C604.583 497.031 605.438 496.546 606.387 496.294C605.188 496.294 604.076 496.058 603.728 495.522C603.381 494.986 603.624 494.765 604.024 494.292C604.201 494.087 604.424 493.919 604.679 493.8C604.934 493.68 605.214 493.612 605.501 493.599C607.395 493.504 609.672 495.506 609.794 495.616C609.803 495.653 609.803 495.69 609.794 495.727C609.801 495.758 609.801 495.79 609.794 495.821C609.802 495.852 609.802 495.885 609.794 495.916V496.026C608.666 497.383 607.29 498.556 605.727 499.493ZM605.727 497.208C605.246 497.397 604.818 497.683 604.476 498.043C604.356 498.194 604.306 498.38 604.337 498.563C604.441 499.02 604.649 499.068 604.719 499.083C605.484 499.257 607.309 497.728 608.664 496.325C607.655 496.521 606.67 496.812 605.727 497.192V497.208ZM605.032 494.34C604.849 494.423 604.689 494.541 604.562 494.686C604.441 494.828 604.25 495.08 604.337 495.222C604.615 495.679 606.718 495.774 608.751 495.6C607.873 494.844 606.754 494.359 605.553 494.214C605.39 494.223 605.231 494.26 605.084 494.324L605.032 494.34Z" fill="#FEDE8A"/>
<path d="M533.27 331.87C535.559 345.498 539.734 358.81 545.697 371.49C552.162 385.123 559.306 395.13 564.502 405.485C573.679 423.782 597.524 467.28 597.524 467.28L613.41 456.405C613.41 456.405 588.052 400.993 586.332 390.119C585.219 383.074 584.159 345.218 583.533 319.404C583.203 305.33 582.995 294.849 582.995 294.849L537.598 261.974C530.801 284.745 529.327 308.552 533.27 331.87Z" fill="#263238"/>
<path opacity="0.2" d="M545.697 371.491C552.163 385.123 559.306 395.131 564.502 405.485C573.679 423.782 597.524 467.28 597.524 467.28L613.41 456.406C613.41 456.406 588.052 400.993 586.332 390.119C585.219 383.074 584.159 345.219 583.534 319.404L570.099 293.81L552.719 300.114L558.402 319.955L545.697 371.491Z" fill="black"/>
<path d="M562.277 413.428C550.303 454.75 527.813 503.78 527.813 503.78L520.062 501.069L542.899 413.475L562.277 413.428Z" fill="#E4897B"/>
<path d="M531.967 499.745C532.193 498.816 519.453 496.751 519.453 496.751C519.453 496.751 509.807 502.157 501.882 502.094C493.957 502.031 497.033 507.042 505.358 508.902L526.092 513.504C532.106 514.828 529.638 509.406 531.967 499.745Z" fill="#263238"/>
<path d="M512.067 498.201C511.663 498.144 511.293 497.96 511.024 497.681C510.878 497.494 510.8 497.271 510.8 497.043C510.8 496.814 510.878 496.591 511.024 496.404C511.112 496.25 511.234 496.113 511.384 496.005C511.534 495.896 511.707 495.817 511.893 495.774C512.877 495.654 513.879 495.774 514.796 496.121C513.909 495.411 513.162 494.545 513.301 493.993C513.44 493.442 513.735 493.347 514.378 493.221C514.661 493.163 514.954 493.163 515.236 493.221C515.519 493.278 515.784 493.391 516.012 493.552C517.524 494.56 517.872 497.429 517.889 497.571C517.899 497.612 517.899 497.655 517.889 497.697C517.897 497.709 517.901 497.722 517.901 497.736C517.901 497.75 517.897 497.763 517.889 497.775V497.854H517.768C515.905 498.278 513.975 498.395 512.067 498.201ZM513.666 496.452C513.165 496.311 512.634 496.284 512.119 496.373C512.022 496.394 511.93 496.433 511.849 496.487C511.768 496.541 511.701 496.61 511.65 496.688C511.406 497.114 511.528 497.255 511.65 497.318C512.119 497.886 514.587 497.775 516.62 497.46C515.659 497.032 514.651 496.695 513.614 496.452H513.666ZM515.161 493.835C514.961 493.788 514.752 493.788 514.552 493.835C514.361 493.835 514.031 493.946 513.996 494.119C513.892 494.639 515.439 495.916 517.124 496.972C516.988 495.877 516.471 494.85 515.647 494.04C515.501 493.944 515.336 493.874 515.161 493.835Z" fill="#FEDE8A"/>
<path d="M585.532 257.562C585.532 257.562 603.12 291.225 596.898 322.981C590.676 354.738 571.889 395.477 566.831 405.39C561.773 415.303 542.847 473.836 542.847 473.836L526.475 469.013C526.475 469.013 541.109 410.891 545.697 390.639C547.869 381.073 566.449 312.974 566.449 312.974C566.449 312.974 534.608 291.509 536.903 257.94L585.532 257.562Z" fill="#263238"/>
<path d="M567.735 265.142L542.412 262.904L542.968 255.985L568.256 258.806L567.735 265.142Z" fill="black"/>
<path d="M540.744 255.733L540.188 262.715L537.633 262.479L537.807 255.402L540.744 255.733Z" fill="black"/>
<path d="M570.481 259.059L583.881 260.572L583.724 266.545L569.977 265.331L570.481 259.059Z" fill="black"/>
<path d="M547.953 263.872L557.798 264.872L558.633 258.106L548.788 257.106L547.953 263.872Z" fill="white"/>
<path d="M499.519 246.656C498.162 245.288 496.647 244.057 495 242.983C493.523 242.29 479.74 245.3 479.74 246.797C479.74 248.295 483.772 256.71 486.953 256.364C490.133 256.017 498.041 253.842 499.119 252.503C500.196 251.163 499.519 246.656 499.519 246.656Z" fill="#E4897B"/>
<path d="M589.39 255.45C588.634 257.541 588.144 259.704 587.93 261.896L538.779 254.93C539.345 243.494 541.008 232.125 543.75 220.951C545.158 214.994 546.618 209.919 547.678 206.389C548.738 202.859 549.416 200.826 549.416 200.826C577.467 197.217 607.013 210.045 607.013 210.045L605.449 223.11L604.754 229.099C595.421 240.825 591.232 249.871 589.39 255.45Z" fill="#FEDE8A"/>
<path opacity="0.2" d="M589.39 255.45C588.634 257.541 588.144 259.704 587.93 261.896L538.779 254.93C539.345 243.494 541.008 232.125 543.75 220.951C545.158 214.994 546.618 209.919 547.678 206.389C548.738 202.859 549.416 200.826 549.416 200.826C577.467 197.217 607.013 210.045 607.013 210.045L605.449 223.11L604.754 229.099C595.421 240.825 591.232 249.871 589.39 255.45Z" fill="black"/>
<path opacity="0.4" d="M573.296 231.857C570.359 237.846 563.459 240.887 557.88 238.634C552.301 236.38 550.181 229.714 553.118 223.725C556.056 217.736 562.938 214.694 568.517 216.932C574.096 219.17 576.182 225.852 573.296 231.857Z" fill="white"/>
<path opacity="0.2" d="M604.806 229.099C595.421 240.825 591.232 249.871 589.39 255.45C585.236 250.139 585.914 242.842 585.914 242.842L593.77 226.515L605.553 223.047L604.806 229.099Z" fill="black"/>
<path d="M607.065 210.045C595.89 207.082 587.774 234.915 584.002 240.651C580.231 246.388 538.188 252.613 538.188 252.613L539.787 260.083C539.787 260.083 580.769 255.261 586.435 252.203C592.101 249.146 606.544 228.122 609.151 222.259C613.009 213.749 607.065 210.045 607.065 210.045Z" fill="#E4897B"/>
<path d="M543.159 254.598C542.176 252.996 541.011 251.49 539.683 250.107C538.432 249.145 524.25 249.319 523.885 250.769C523.52 252.219 525.397 261.249 528.577 261.549C531.758 261.848 540.014 261.312 541.439 260.241C542.864 259.169 543.159 254.598 543.159 254.598Z" fill="#E4897B"/>
<path d="M571.489 208.942C582.96 210.313 587.548 206.799 587.548 206.799C584.072 201.85 586.644 196.318 588.852 193.025C589.532 191.982 590.306 190.991 591.163 190.062L577.155 189.132C576.976 190.891 576.651 192.634 576.182 194.348C575.862 195.617 575.372 196.845 574.722 198.005C572.758 201.409 570.463 200.92 570.463 200.92C566.953 204.324 571.489 208.942 571.489 208.942Z" fill="#E4897B"/>
<path opacity="0.2" d="M576.182 194.348C575.862 195.617 575.372 196.845 574.722 198.005C580.196 198.651 585.341 195.767 588.852 193.025C589.533 191.982 590.306 190.991 591.163 190.062L577.155 189.132C576.977 190.891 576.651 192.634 576.182 194.348Z" fill="black"/>
<path d="M610.698 166.847C610.698 166.847 620.518 161.961 628.078 172.079C635.638 182.197 623.438 193.907 620.188 200.857C619.243 202.718 619.074 204.826 619.713 206.791C620.352 208.756 621.756 210.444 623.664 211.542C623.664 211.542 611.498 217.988 607.205 204.56C602.912 191.133 609.638 174.995 609.638 174.995L610.698 166.847Z" fill="#263238"/>
<path d="M569.403 170.992C569.403 170.992 579.831 191.275 595.299 191.795C610.767 192.315 630.563 162.844 598.288 154.255C598.288 154.255 564.311 147.887 569.403 170.992Z" fill="#263238"/>
<path d="M595.299 160.433C584.506 155.61 578.197 159.298 571.941 169.022C564.015 181.142 562.277 191.512 577.224 194.837C597.507 199.344 613.131 168.423 595.299 160.433Z" fill="#E4897B"/>
<path d="M579.136 171.591C577.481 172.667 575.69 173.562 573.801 174.254C573.895 174.798 574.155 175.308 574.551 175.725C574.947 176.143 575.464 176.452 576.043 176.618L579.136 171.591Z" fill="#DE5753"/>
<path d="M588.347 172.946L586.835 171.37C586.835 171.37 586.87 173.261 588.347 172.946Z" fill="#263238"/>
<path d="M587.496 172.867C587.824 172.685 588.192 172.57 588.574 172.532C588.956 172.493 589.343 172.532 589.707 172.645C590.07 172.758 590.402 172.942 590.678 173.185C590.954 173.428 591.167 173.723 591.302 174.049C590.409 173.457 589.312 173.172 588.209 173.246C588.553 173.344 588.851 173.546 589.053 173.818C589.255 174.09 589.35 174.416 589.321 174.743C589.321 174.743 589.13 173.908 587.409 173.293L587.496 172.867Z" fill="#263238"/>
<path d="M593.822 171.149C593.684 171.152 593.55 171.111 593.442 171.033C593.334 170.956 593.259 170.846 593.231 170.724C592.946 169.998 592.486 169.338 591.884 168.793C591.283 168.248 590.556 167.831 589.755 167.572C589.677 167.551 589.604 167.515 589.541 167.467C589.479 167.419 589.428 167.36 589.392 167.294C589.356 167.227 589.336 167.154 589.333 167.08C589.329 167.006 589.343 166.932 589.373 166.863C589.424 166.725 589.533 166.612 589.677 166.547C589.82 166.482 589.985 166.471 590.137 166.516C591.14 166.836 592.049 167.361 592.793 168.049C593.537 168.738 594.097 169.572 594.43 170.488C594.448 170.559 594.45 170.633 594.436 170.705C594.422 170.777 594.392 170.846 594.349 170.908C594.305 170.969 594.248 171.022 594.182 171.064C594.115 171.105 594.04 171.135 593.961 171.149H593.822Z" fill="#263238"/>
<path d="M582.334 163.679C582.164 163.676 582.003 163.614 581.882 163.506C581.305 163.071 580.627 162.759 579.899 162.596C579.17 162.432 578.41 162.42 577.676 162.56C577.513 162.578 577.348 162.537 577.218 162.446C577.088 162.354 577.003 162.22 576.981 162.072C576.971 161.999 576.978 161.926 577 161.855C577.021 161.785 577.059 161.72 577.109 161.662C577.159 161.605 577.221 161.558 577.292 161.522C577.362 161.487 577.44 161.465 577.52 161.457C578.439 161.302 579.384 161.336 580.287 161.557C581.189 161.778 582.026 162.18 582.734 162.734C582.846 162.84 582.909 162.981 582.909 163.128C582.909 163.275 582.846 163.416 582.734 163.522C582.629 163.62 582.485 163.677 582.334 163.679Z" fill="#263238"/>
<path d="M598.063 182.165C598.063 182.165 597.385 171.89 601.539 166.027C601.539 166.027 584.454 148.565 572.723 167.761C572.723 167.761 580.127 149.369 598.88 157.249C617.633 165.129 604.198 189.699 590.641 192.756C590.624 192.756 598.462 188.58 598.063 182.165Z" fill="#263238"/>
<path d="M595.195 183.442C595.551 182.906 596.022 182.44 596.578 182.07C597.135 181.7 597.767 181.434 598.438 181.288C599.109 181.141 599.805 181.117 600.487 181.216C601.168 181.315 601.821 181.536 602.407 181.866C605.571 183.679 603.781 190.613 594.656 188.407C593.353 188.028 593.248 186.673 595.195 183.442Z" fill="#E4897B"/>
<path d="M609.308 161.047C609.308 161.047 605.71 154.192 600.461 151.906C595.212 149.621 591.893 151.544 591.893 151.544C591.324 150.557 590.501 149.71 589.493 149.073C588.485 148.436 587.323 148.03 586.105 147.888C581.743 147.226 573.731 150.693 568.569 158.321C563.407 165.949 569.403 170.929 569.403 170.929C569.403 170.929 573.748 155.752 587.669 158.778C587.669 158.778 593.387 158.935 593.926 163.506C594.465 168.076 587.6 176.429 599.14 179.108C610.681 181.787 612.679 168.045 609.308 161.047Z" fill="#263238"/>
<path d="M579.414 170.109C579.414 170.109 579.414 168.108 577.676 167.729L576.651 166.311C576.557 166.503 576.506 166.71 576.501 166.921C576.497 167.131 576.539 167.34 576.624 167.535C576.71 167.73 576.838 167.908 577.001 168.058C577.164 168.208 577.358 168.326 577.572 168.407L578.806 169.416C578.806 169.416 577.207 168.644 576.651 169.022C576.703 168.943 578.945 169.463 579.414 170.109Z" fill="#263238"/>
<path d="M582.768 182.938C581.743 183.427 581.309 181.252 578.806 181.11C577.503 181.035 576.214 181.387 575.173 182.103C574.972 182.221 574.786 182.358 574.617 182.513L575.156 180.338L575.365 180.164C576.33 179.348 577.585 178.871 578.905 178.819C580.224 178.767 581.52 179.143 582.56 179.881C582.754 180.328 582.917 180.786 583.047 181.252C583.133 181.945 583.255 182.717 582.768 182.938Z" fill="#263238"/>
<path d="M582.768 182.938C581.742 183.427 581.308 181.252 578.805 181.11C577.502 181.035 576.213 181.387 575.173 182.103L575.625 180.921C577.513 180.326 579.544 180.211 581.499 180.59C579.6 180.038 577.559 180.038 575.659 180.59L575.364 180.164C576.33 179.348 577.585 178.871 578.904 178.819C580.223 178.767 581.519 179.143 582.559 179.881C582.753 180.328 582.916 180.786 583.046 181.252L582.785 181.598L582.768 182.938Z" fill="white"/>
<path d="M224.028 273.385L221.855 318.978C223.755 319.801 225.833 320.228 227.938 320.228C230.044 320.228 232.122 319.801 234.021 318.978L244.675 271.903L224.028 273.385Z" fill="#FEDE8A"/>
<path opacity="0.4" d="M224.028 273.385L221.855 318.978C223.755 319.801 225.833 320.228 227.938 320.228C230.044 320.228 232.122 319.801 234.021 318.978L244.675 271.903L224.028 273.385Z" fill="white"/>
<path d="M457.997 241.203L473.9 284.495C472.324 285.756 470.458 286.682 468.438 287.206C466.417 287.729 464.293 287.837 462.221 287.521L437.715 244.969L457.997 241.203Z" fill="#FEDE8A"/>
<path opacity="0.4" d="M457.997 241.203L473.9 284.495C472.324 285.756 470.458 286.682 468.438 287.206C466.417 287.729 464.293 287.837 462.221 287.521L437.715 244.969L457.997 241.203Z" fill="white"/>
<path d="M282.13 279.263L279.957 324.857C281.857 325.68 283.935 326.107 286.04 326.107C288.145 326.107 290.224 325.68 292.123 324.857L302.777 277.797L282.13 279.263Z" fill="#FEDE8A"/>
<path opacity="0.6" d="M282.13 279.263L279.957 324.857C281.857 325.68 283.935 326.107 286.04 326.107C288.145 326.107 290.224 325.68 292.123 324.857L302.777 277.797L282.13 279.263Z" fill="white"/>
<path d="M516.151 247.097L532.053 290.39C530.478 291.651 528.612 292.577 526.591 293.101C524.57 293.624 522.446 293.732 520.374 293.416L495.868 250.864L516.151 247.097Z" fill="#FEDE8A"/>
<path opacity="0.6" d="M516.151 247.097L532.053 290.39C530.478 291.651 528.612 292.577 526.591 293.101C524.57 293.624 522.446 293.732 520.374 293.416L495.868 250.864L516.151 247.097Z" fill="white"/>
<path d="M464.116 157.879L469.503 158.856L522.843 148.218L456.694 138.762C456.256 138.707 455.812 138.707 455.373 138.762L187.148 179.266C185.787 179.474 184.572 180.163 183.77 181.183C182.969 182.202 182.646 183.468 182.872 184.703L200.948 283.187C201.103 284.032 201.508 284.823 202.12 285.475C202.732 286.128 203.529 286.617 204.424 286.891L204.076 287.048L270.815 296.504L268.33 277.86L475.152 246.624C476.513 246.416 477.728 245.726 478.529 244.707C479.331 243.688 479.654 242.422 479.427 241.187L464.116 157.879Z" fill="#FEDE8A"/>
<path opacity="0.2" d="M479.409 241.171C479.636 242.406 479.313 243.672 478.511 244.691C477.71 245.71 476.495 246.4 475.134 246.608L279.956 276.095L268.346 277.845L270.832 296.489L204.093 287.033L204.44 286.875C203.545 286.601 202.749 286.112 202.137 285.46C201.525 284.807 201.119 284.016 200.964 283.171L182.889 184.687C182.771 184.095 182.784 183.488 182.928 182.901C183.071 182.314 183.341 181.759 183.723 181.267C184.115 180.73 184.627 180.272 185.226 179.925C185.824 179.578 186.497 179.348 187.199 179.25L455.425 138.747C455.863 138.692 456.307 138.692 456.746 138.747L522.894 148.203L469.555 158.841L464.167 157.864L479.409 241.171Z" fill="black"/>
<path opacity="0.2" d="M268.346 277.845L270.832 296.489L204.093 287.033L204.44 286.875C203.545 286.601 202.749 286.112 202.137 285.46C201.525 284.808 201.119 284.017 200.964 283.172L182.889 184.687C182.771 184.096 182.784 183.489 182.928 182.902C183.071 182.315 183.341 181.759 183.723 181.268L256.719 192.93L279.974 276.048L268.346 277.845Z" fill="black"/>
<path d="M521.345 148.294L253.125 188.777C250.284 189.206 248.365 191.641 248.838 194.217L266.915 292.702C267.388 295.278 270.074 297.018 272.914 296.589L541.134 256.107C543.975 255.678 545.894 253.242 545.421 250.666L527.344 152.182C526.871 149.606 524.185 147.865 521.345 148.294Z" fill="#FEDE8A"/>
<path opacity="0.4" d="M538.289 250.087L520.782 154.711L255.991 194.677L273.498 290.052L538.289 250.087Z" fill="black"/>
<path d="M335.19 185.333L334.617 186.909C334.432 187.408 334.102 187.852 333.661 188.193C333.221 188.535 332.686 188.761 332.114 188.848L315.62 191.338C315.045 191.431 314.453 191.378 313.909 191.183C313.366 190.988 312.893 190.66 312.544 190.235L311.449 188.911L259.865 196.712L264.923 224.213L391.953 205.033L386.913 177.532L335.19 185.333Z" fill="#FEDE8A"/>
<path d="M341.047 217.279L340.491 218.855C340.305 219.353 339.975 219.795 339.534 220.137C339.093 220.478 338.559 220.705 337.988 220.793L321.477 223.299C320.903 223.384 320.315 223.325 319.775 223.127C319.236 222.93 318.767 222.603 318.418 222.18L317.306 220.856L265.688 228.736L276.411 287.159L403.407 267.995L392.683 209.509L341.047 217.279Z" fill="#FEDE8A"/>
<path d="M472.162 197.484L471.589 199.06C471.405 199.559 471.074 200.002 470.633 200.344C470.193 200.685 469.658 200.912 469.086 200.999L452.592 203.489C452.017 203.579 451.426 203.523 450.884 203.328C450.341 203.134 449.868 202.808 449.516 202.386L448.421 201.062L396.785 208.942L407.596 267.285L534.47 248.105L523.746 189.683L472.162 197.484Z" fill="#FEDE8A"/>
<path d="M466.287 165.539L465.731 167.115C465.548 167.618 465.217 168.067 464.772 168.411C464.328 168.756 463.788 168.983 463.211 169.069L446.718 171.559C446.145 171.648 445.557 171.591 445.017 171.397C444.478 171.202 444.008 170.877 443.659 170.456L442.546 169.132L390.928 176.933L395.968 204.435L522.981 185.255L517.923 157.753L466.287 165.539Z" fill="#FEDE8A"/>
<g opacity="0.4">
<path opacity="0.4" d="M335.19 185.333L334.617 186.909C334.432 187.408 334.102 187.852 333.661 188.193C333.221 188.535 332.686 188.761 332.114 188.848L315.62 191.338C315.045 191.431 314.453 191.378 313.909 191.183C313.366 190.988 312.893 190.66 312.544 190.235L311.449 188.911L259.865 196.712L264.923 224.213L391.953 205.033L386.913 177.532L335.19 185.333Z" fill="white"/>
<path opacity="0.4" d="M341.047 217.279L340.491 218.855C340.305 219.353 339.975 219.795 339.534 220.137C339.093 220.478 338.559 220.705 337.988 220.793L321.477 223.299C320.903 223.384 320.315 223.325 319.775 223.127C319.236 222.93 318.767 222.603 318.418 222.18L317.306 220.856L265.688 228.736L276.411 287.159L403.407 267.995L392.683 209.509L341.047 217.279Z" fill="white"/>
<path opacity="0.4" d="M472.162 197.484L471.589 199.06C471.404 199.559 471.074 200.002 470.633 200.344C470.193 200.685 469.658 200.912 469.086 200.999L452.592 203.489C452.017 203.579 451.426 203.523 450.884 203.328C450.341 203.134 449.868 202.808 449.516 202.386L448.421 201.062L396.785 208.942L407.596 267.285L534.469 248.105L523.746 189.683L472.162 197.484Z" fill="white"/>
<path opacity="0.4" d="M466.287 165.539L465.731 167.115C465.548 167.618 465.217 168.067 464.772 168.411C464.328 168.756 463.788 168.983 463.211 169.069L446.718 171.559C446.145 171.648 445.557 171.591 445.017 171.397C444.478 171.202 444.008 170.877 443.659 170.456L442.546 169.132L390.928 176.933L395.968 204.435L522.981 185.255L517.923 157.753L466.287 165.539Z" fill="white"/>
</g>
<path d="M270.676 487.531L261.586 495.632L242.746 477.587L251.818 469.486L270.676 487.531Z" fill="#EBB376"/>
<path opacity="0.2" d="M251.818 469.486L242.746 477.587L252.479 486.885L261.551 478.785L251.818 469.486Z" fill="black"/>
<path d="M256.981 493.189L267.86 483.954C268.039 483.803 268.268 483.712 268.511 483.694C268.754 483.677 268.997 483.735 269.199 483.859L278.445 489.596C278.647 489.714 278.819 489.869 278.952 490.051C279.084 490.232 279.174 490.437 279.215 490.652C279.256 490.867 279.247 491.087 279.189 491.298C279.131 491.51 279.026 491.708 278.879 491.881C278.807 491.981 278.719 492.071 278.619 492.149C275.038 495.096 272.275 497.066 267.86 500.817C265.132 503.134 257.189 510.368 253.435 513.551C249.681 516.735 245.701 513.803 246.918 512.18C252.41 504.962 255.608 498.658 256.007 494.986C256.072 494.297 256.419 493.656 256.981 493.189Z" fill="#263238"/>
<path d="M257.901 472.56L243.997 486.555C243.997 486.555 171.922 427.455 153.013 402.711C150.776 399.674 149.087 396.333 148.008 392.814C138.275 363.485 153.639 310.2 153.639 310.2L153.882 303.266L154.542 283.708L201.868 290.012C201.868 290.012 200.999 295.181 199.713 303.077C197.436 317.135 193.891 339.845 191.788 357.323C190.293 369.6 189.511 379.292 190.363 381.593C193.057 388.969 257.901 472.56 257.901 472.56Z" fill="#263238"/>
<path opacity="0.2" d="M199.644 303.061C197.367 317.119 193.821 339.829 191.718 357.307L147.938 392.814C138.205 363.484 153.569 310.2 153.569 310.2L153.813 303.265C162.676 300.413 170.828 298.238 170.828 298.238L196.515 293.589L199.644 303.061Z" fill="black"/>
<path d="M130.037 198.477C118.166 207.177 139.613 236.963 139.613 236.963L158.036 227.917C158.036 227.917 144.445 187.839 130.037 198.477Z" fill="#FEDE8A"/>
<path opacity="0.5" d="M130.037 198.477C118.166 207.177 139.613 236.963 139.613 236.963L158.036 227.917C158.036 227.917 144.445 187.839 130.037 198.477Z" fill="white"/>
<path d="M255.486 497.066C254.934 497.635 254.175 498.004 253.348 498.106C253.057 498.123 252.765 498.072 252.501 497.959C252.236 497.846 252.008 497.675 251.836 497.46C251.718 497.35 251.637 497.211 251.603 497.06C251.569 496.909 251.584 496.753 251.645 496.609C252.166 495.301 256.72 494.466 257.224 494.371C257.28 494.357 257.339 494.361 257.392 494.381C257.446 494.401 257.491 494.436 257.519 494.482C257.55 494.527 257.566 494.578 257.566 494.631C257.566 494.684 257.55 494.736 257.519 494.781C256.935 495.607 256.253 496.374 255.486 497.066ZM252.427 496.515C252.322 496.587 252.244 496.686 252.201 496.798C252.201 496.798 252.201 496.972 252.305 497.145C252.418 497.286 252.568 497.4 252.74 497.477C252.913 497.554 253.104 497.591 253.296 497.586C254.725 497.15 255.918 496.237 256.633 495.033C255.137 495.271 253.708 495.775 252.427 496.515Z" fill="#FEDE8A"/>
<path d="M257.485 494.765L257.38 494.86C255.99 495.191 252.358 494.86 251.662 493.898C251.544 493.732 251.495 493.533 251.524 493.336C251.552 493.14 251.657 492.959 251.819 492.827C251.958 492.671 252.132 492.543 252.33 492.454C252.528 492.364 252.745 492.314 252.966 492.307C254.791 492.181 257.432 494.34 257.554 494.45C257.579 494.488 257.591 494.532 257.591 494.576C257.591 494.62 257.579 494.664 257.554 494.702C257.537 494.728 257.513 494.749 257.485 494.765ZM252.271 493L252.166 493.095C251.888 493.315 252.01 493.489 252.062 493.552C252.497 494.166 255.017 494.56 256.598 494.403C255.575 493.55 254.29 493.001 252.914 492.827C252.681 492.835 252.459 492.919 252.288 493.063L252.271 493Z" fill="#FEDE8A"/>
<path d="M247.264 491.361L264.418 471.756L258.648 467.28L240.469 487.326L247.264 491.361Z" fill="#FEDE8A"/>
<path opacity="0.6" d="M247.264 491.361L264.418 471.756L258.648 467.28L240.469 487.326L247.264 491.361Z" fill="white"/>
<path d="M143.107 501.921L131.167 504.489L123.589 479.636L135.546 477.051L143.107 501.921Z" fill="#EBB376"/>
<path opacity="0.2" d="M135.546 477.067L123.606 479.652L127.517 492.464L139.457 489.88L135.546 477.067Z" fill="black"/>
<path d="M129.238 501.29H144.15C144.394 501.292 144.631 501.37 144.821 501.51C145.01 501.651 145.141 501.845 145.193 502.062L147.608 511.96C147.67 512.171 147.682 512.392 147.644 512.608C147.606 512.824 147.519 513.031 147.388 513.214C147.257 513.398 147.085 513.555 146.884 513.676C146.683 513.796 146.456 513.877 146.218 513.914H145.818C140.987 513.914 137.476 513.567 131.428 513.567C127.691 513.567 116.446 513.93 111.302 513.93C106.157 513.93 105.479 509.312 107.582 508.886C117.037 507.027 124.145 504.426 127.187 501.968C127.751 501.514 128.484 501.272 129.238 501.29Z" fill="#263238"/>
<path d="M125.188 503.244C124.351 503.304 123.518 503.104 122.824 502.677C122.599 502.506 122.425 502.286 122.318 502.038C122.212 501.79 122.177 501.522 122.216 501.258C122.216 501.107 122.263 500.958 122.352 500.83C122.441 500.702 122.569 500.599 122.72 500.533C124.075 499.887 128.038 502.109 128.472 502.361C128.522 502.384 128.563 502.421 128.588 502.467C128.613 502.512 128.621 502.564 128.611 502.614C128.604 502.665 128.58 502.713 128.543 502.752C128.506 502.791 128.457 502.82 128.403 502.834C127.351 503.08 126.273 503.217 125.188 503.244ZM123.363 500.943C123.238 500.912 123.105 500.912 122.98 500.943C122.98 500.943 122.806 501.053 122.789 501.258C122.769 501.433 122.795 501.61 122.864 501.774C122.934 501.939 123.045 502.086 123.189 502.204C124.561 502.773 126.121 502.847 127.551 502.409C126.276 501.674 124.852 501.176 123.363 500.943Z" fill="#FEDE8A"/>
<path d="M128.316 502.85H128.177C126.909 502.236 124.458 499.777 124.701 498.611C124.746 498.415 124.863 498.239 125.034 498.112C125.205 497.986 125.419 497.917 125.64 497.917C125.86 497.889 126.084 497.904 126.297 497.961C126.51 498.018 126.706 498.116 126.874 498.248C128.282 499.304 128.612 502.504 128.612 502.645C128.613 502.695 128.601 502.743 128.577 502.787C128.553 502.831 128.517 502.869 128.473 502.898L128.316 502.85ZM125.848 498.343H125.709C125.344 498.343 125.31 498.532 125.292 498.611C125.136 499.32 126.7 501.18 127.969 502.046C127.887 500.777 127.377 499.562 126.509 498.563C126.326 498.419 126.091 498.341 125.848 498.343Z" fill="#FEDE8A"/>
<path d="M217.806 266.072C217.806 266.072 226.496 278.68 224.028 302.225C221.073 329.411 133.895 373.382 131.81 377.369C129.724 381.356 141.421 484.915 141.421 484.915L119.939 486.491C119.939 486.491 80.0867 393.728 92.0094 364.572C103.932 335.416 170.828 298.175 170.828 298.175L154.473 283.644L217.806 266.072Z" fill="#263238"/>
<path d="M130.037 198.478C130.037 198.478 150.459 181.898 197.924 186.342C197.924 186.342 205.936 236.853 215.738 260.052L151.919 276.017C151.919 276.017 129.516 225.648 130.037 198.478Z" fill="#FEDE8A"/>
<path opacity="0.6" d="M215.738 259.942L151.919 276.017C151.919 276.017 129.516 225.648 130.037 198.478C130.037 198.478 150.459 181.898 197.924 186.342C197.924 186.342 199.418 195.798 201.904 208.28C203.642 217.263 205.953 227.838 208.56 237.751C210.439 245.277 212.836 252.688 215.738 259.942Z" fill="white"/>
<path d="M214.973 259.721L151.396 276.521L154.473 283.707L217.805 266.072L214.973 259.721Z" fill="black"/>
<path d="M165.666 275.166L167.091 278.507C167.365 279.158 167.901 279.692 168.59 280.001C169.279 280.311 170.072 280.374 170.81 280.177L176.789 278.601H177.032C177.745 278.346 178.332 277.864 178.683 277.246C178.872 276.897 178.978 276.517 178.996 276.129C179.014 275.741 178.943 275.354 178.787 274.992L177.362 271.651C177.087 270.996 176.549 270.46 175.856 270.15C175.163 269.84 174.366 269.779 173.626 269.98L167.664 271.556C167.256 271.665 166.876 271.85 166.55 272.099C166.225 272.348 165.959 272.656 165.771 273.002C165.584 273.349 165.477 273.727 165.459 274.113C165.441 274.499 165.511 274.884 165.666 275.244V275.166ZM168.568 277.987L168.099 276.883H168.186L169.837 276.426C170.104 276.35 170.328 276.182 170.461 275.958C170.594 275.735 170.626 275.473 170.549 275.229C170.465 274.987 170.279 274.785 170.032 274.667C169.785 274.549 169.496 274.524 169.228 274.598L167.577 275.055C167.498 275.077 167.422 275.109 167.351 275.15L167.143 274.645C167.057 274.475 167.012 274.289 167.012 274.102C167.012 273.914 167.057 273.729 167.143 273.558C167.302 273.256 167.581 273.019 167.925 272.896H168.064L174.025 271.32C174.373 271.236 174.743 271.272 175.064 271.42C175.385 271.568 175.634 271.819 175.763 272.124L177.188 275.465C177.274 275.636 177.319 275.821 177.319 276.009C177.319 276.196 177.274 276.382 177.188 276.552C177.099 276.723 176.97 276.874 176.812 276.996C176.653 277.118 176.467 277.209 176.267 277.262L170.289 278.838C169.937 278.911 169.567 278.865 169.25 278.708C168.933 278.551 168.69 278.295 168.568 277.987Z" fill="white"/>
<path opacity="0.2" d="M172.374 185.869C168.733 186.551 164.967 186.452 161.376 185.579C157.785 184.706 154.469 183.084 151.692 180.842C151.168 179.926 150.587 179.036 149.954 178.178L161.564 160.653C162.659 168.265 165.753 181.267 172.374 185.869Z" fill="black"/>
<path d="M172.323 139.031C172.323 139.031 179.361 153.215 172.462 161.095C165.562 168.975 157.098 141.489 157.098 141.489L172.323 139.031Z" fill="#263238"/>
<path d="M150.997 179.14C153.558 181.11 156.76 182.264 160.114 182.423C163.467 182.583 166.786 181.739 169.559 180.023C173.198 177.868 175.795 174.537 176.824 170.708C176.963 170.188 177.067 169.637 177.172 169.132C178.632 159.03 175.121 142.908 162.764 139.661C158.541 138.526 153.995 138.958 150.123 140.861C146.252 142.764 143.372 145.983 142.116 149.811C141.356 152.078 141.207 154.478 141.682 156.808C143.646 167.651 144.237 174.128 150.997 179.14Z" fill="#EBB376"/>
<path d="M160.383 158.1C160.383 158.998 161.078 159.676 161.721 159.676C162.364 159.676 162.798 158.841 162.712 157.958C162.625 157.076 161.999 156.382 161.356 156.382C160.713 156.382 160.278 157.202 160.383 158.1Z" fill="#263238"/>
<path d="M171.506 157.044C171.506 157.943 172.218 158.62 172.861 158.62C173.504 158.62 173.939 157.769 173.835 156.887C173.73 156.004 173.122 155.311 172.479 155.389C171.836 155.468 171.401 156.209 171.506 157.044Z" fill="#263238"/>
<path d="M168.012 157.816C169.501 160.436 171.378 162.859 173.591 165.019C172.963 165.519 172.223 165.889 171.421 166.104C170.62 166.319 169.777 166.373 168.95 166.264L168.012 157.816Z" fill="#D58745"/>
<path d="M156.541 155.153C156.648 155.163 156.756 155.144 156.852 155.1C156.948 155.055 157.027 154.986 157.08 154.901C157.441 154.331 157.943 153.845 158.546 153.482C159.149 153.118 159.837 152.886 160.556 152.805C160.693 152.783 160.818 152.719 160.907 152.622C160.997 152.525 161.046 152.403 161.046 152.277C161.046 152.151 160.997 152.029 160.907 151.932C160.818 151.835 160.693 151.771 160.556 151.749C159.638 151.825 158.754 152.101 157.98 152.554C157.205 153.007 156.562 153.623 156.107 154.349C156.064 154.406 156.035 154.47 156.019 154.537C156.004 154.605 156.004 154.674 156.018 154.741C156.033 154.809 156.062 154.873 156.104 154.93C156.146 154.987 156.2 155.036 156.263 155.074C156.349 155.117 156.444 155.144 156.541 155.153Z" fill="#263238"/>
<path d="M175.886 153.12C175.998 153.159 176.121 153.159 176.233 153.12C176.298 153.086 176.355 153.04 176.401 152.986C176.446 152.931 176.478 152.869 176.496 152.802C176.514 152.736 176.517 152.667 176.505 152.6C176.492 152.533 176.465 152.468 176.424 152.411C175.953 151.69 175.299 151.083 174.516 150.639C173.732 150.194 172.843 149.927 171.923 149.858C171.846 149.856 171.77 149.867 171.698 149.893C171.627 149.918 171.561 149.956 171.506 150.004C171.451 150.053 171.407 150.111 171.377 150.175C171.347 150.239 171.332 150.308 171.332 150.378C171.332 150.515 171.389 150.646 171.493 150.746C171.596 150.846 171.738 150.906 171.888 150.914C172.604 150.991 173.29 151.218 173.893 151.576C174.496 151.935 175 152.414 175.364 152.978C175.43 153.04 175.513 153.086 175.604 153.111C175.696 153.136 175.793 153.139 175.886 153.12Z" fill="#263238"/>
<path d="M148.981 142.261L150.441 146.989C149.623 147.497 149.044 148.262 148.815 149.137C148.587 150.011 148.727 150.931 149.207 151.717C151.588 155.531 150.128 162.135 147.121 165.113C147.121 165.113 146.722 163.38 145.175 164.01C143.628 164.64 145.592 173.702 149.503 177.611C149.503 177.611 144.028 174.349 139.718 165.145C135.72 156.65 134.156 149.385 135.599 145.618L148.981 142.261Z" fill="#263238"/>
<path d="M137.424 166.248C138.228 167.416 139.28 168.429 140.518 169.227C141.756 170.024 143.155 170.592 144.637 170.897C148.582 171.701 150.355 168.454 149.086 165.161C147.921 162.245 144.48 158.21 140.587 158.857C139.737 159.018 138.944 159.369 138.282 159.879C137.619 160.388 137.108 161.04 136.794 161.774C136.479 162.508 136.372 163.302 136.482 164.084C136.593 164.865 136.916 165.609 137.424 166.248Z" fill="#EBB376"/>
<path d="M150.371 146.974C150.371 146.974 156.454 149.322 158.158 147.651C159.861 145.981 157.48 144.31 157.48 144.31C157.48 144.31 165.84 147.178 169.211 146.217C172.583 145.256 168.742 141.489 168.742 141.489C168.742 141.489 175.138 147.399 177.171 145.051C178.162 143.916 177.05 135.689 164.901 133.026C152.753 130.363 141.89 135.343 139.526 139.472C137.524 140.126 135.822 141.373 134.696 143.011C133.571 144.649 133.086 146.584 133.322 148.502C134.434 157.501 150.371 146.974 150.371 146.974Z" fill="#263238"/>
<path d="M167.751 169.069C166.821 170.106 165.973 171.202 165.213 172.347L164.501 172.079C161.233 170.882 160.173 169.353 159.965 168.013C159.883 167.358 159.973 166.694 160.225 166.075C160.365 165.725 160.552 165.391 160.782 165.082C162.431 166.635 164.428 167.85 166.639 168.644C167.23 168.927 167.751 169.069 167.751 169.069Z" fill="#263238"/>
<path d="M166.552 168.644L165.787 169.589C162.711 168.455 160.73 167.273 160.139 166.075C160.279 165.725 160.465 165.391 160.695 165.082C162.344 166.635 164.341 167.85 166.552 168.644Z" fill="white"/>
<path d="M164.414 172.079C161.147 170.882 160.086 169.353 159.878 168.013C161.108 168.487 162.233 169.16 163.198 169.999C163.832 170.561 164.257 171.288 164.414 172.079Z" fill="#DE5753"/>
<path d="M118.861 492.133L144.601 486.586L142.776 479.604L115.941 484.915L118.861 492.133Z" fill="#FEDE8A"/>
<path opacity="0.6" d="M118.861 492.133L144.601 486.586L142.776 479.604L115.941 484.915L118.861 492.133Z" fill="white"/>
<path opacity="0.2" d="M208.559 237.688C198.757 227.239 192.674 207.571 192.796 204.419C192.796 204.419 196.602 205.837 201.903 208.217C203.676 217.2 205.987 227.775 208.559 237.688Z" fill="black"/>
<path d="M204.736 192.552L205.936 194.128C210.732 200.684 228.634 225.096 232.631 230.376C237.237 236.538 253.991 281.233 253.991 281.233L246.9 285.52C246.9 285.52 228.06 243.851 225.001 239.123C221.943 234.395 205.449 216.381 205.449 216.381" fill="#EBB376"/>
<path d="M200.13 186.311C207.986 189.147 222.915 211.668 222.915 211.668L211.67 226.372L201.155 221.14C195.918 215.31 192.797 208.154 192.222 200.652C191.005 187.682 200.13 186.311 200.13 186.311Z" fill="#FEDE8A"/>
<path opacity="0.6" d="M200.13 186.311C207.986 189.147 222.915 211.668 222.915 211.668L211.67 226.372L201.155 221.14C195.918 215.31 192.797 208.154 192.222 200.652C191.005 187.682 200.13 186.311 200.13 186.311Z" fill="white"/>
<path d="M251.523 280.288C253.334 279.939 255.205 279.939 257.015 280.288C260.005 280.918 268.208 295.055 268.208 295.055C268.208 295.055 257.624 301.359 253.991 299.2C250.359 297.04 243.32 287.963 246.048 283.707C248.777 279.452 251.523 280.288 251.523 280.288Z" fill="#EBB376"/>
<path d="M141.421 216.775L171.488 214.411L181.325 249.303L152.735 253.637L141.421 216.775Z" fill="#FEDE8A"/>
<path opacity="0.2" d="M149.729 223.441L175.746 221.786L184.332 252.329L158.714 256.017L149.729 223.441Z" fill="black"/>
</svg>
