<svg width="558" height="574" viewBox="0 0 558 574" fill="none" xmlns="http://www.w3.org/2000/svg">
<path opacity="0.5" d="M138.83 472.218C228.177 516.015 373.034 516.015 462.381 472.218C551.728 428.422 551.717 357.418 462.381 313.588C373.045 269.757 228.177 269.78 138.83 313.588C49.4833 357.395 49.4945 428.411 138.83 472.218Z" fill="#EBEBEB"/>
<path d="M103.409 385.727C102.765 385.283 102.264 384.652 101.97 383.914C101.676 383.176 101.602 382.364 101.757 381.583L141.331 201.416C141.807 199.674 142.882 198.168 144.355 197.18L379.831 57.3533C380.551 56.9616 381.351 56.7502 382.165 56.7362C382.98 56.7223 383.786 56.9061 384.518 57.2729C385.152 57.7199 385.644 58.3493 385.932 59.0824C386.22 59.8155 386.291 60.6197 386.136 61.3942L346.552 241.561C346.075 243.306 344.995 244.812 343.516 245.797L108.096 385.624C107.378 386.019 106.579 386.234 105.765 386.252C104.95 386.27 104.143 386.09 103.409 385.727V385.727Z" fill="#F0F0F0"/>
<path d="M145.861 204.08L106.288 384.316C105.953 385.854 106.757 386.474 108.096 385.682L343.572 245.856C345.051 244.871 346.13 243.364 346.607 241.62L386.136 61.3951C386.471 59.8453 385.667 59.2368 384.328 60.0289L148.852 199.855C147.394 200.848 146.332 202.348 145.861 204.08Z" fill="#E6E6E6"/>
<path d="M389.004 59.9371C388.271 59.5721 387.464 59.3902 386.65 59.4061C385.835 59.4221 385.036 59.6355 384.317 60.0289L148.841 199.855C148.158 200.31 147.609 200.948 147.253 201.701C146.897 202.454 146.747 203.292 146.821 204.126L177.812 427.286C177.964 428.131 178.277 428.938 178.735 429.657C179.193 430.377 179.786 430.995 180.48 431.476C181.21 431.843 182.015 432.027 182.828 432.011C183.642 431.995 184.439 431.78 185.156 431.384L420.587 291.592C421.272 291.136 421.822 290.496 422.178 289.741C422.534 288.986 422.683 288.145 422.607 287.31L391.716 64.1273C391.56 63.2775 391.24 62.4687 390.774 61.7489C390.308 61.0291 389.706 60.4129 389.004 59.9371V59.9371Z" fill="#F0F0F0"/>
<path d="M151.397 206.824L182.343 429.983C182.349 430.316 182.445 430.641 182.619 430.921C182.794 431.201 183.04 431.426 183.332 431.572C183.623 431.717 183.947 431.776 184.269 431.743C184.591 431.71 184.898 431.585 185.156 431.384L420.587 291.592C421.272 291.136 421.822 290.496 422.178 289.741C422.534 288.986 422.683 288.145 422.607 287.31L391.716 64.1273C391.712 63.7936 391.618 63.4676 391.444 63.1856C391.271 62.9036 391.024 62.6768 390.733 62.5304C390.441 62.384 390.116 62.3238 389.793 62.3564C389.47 62.3891 389.162 62.5133 388.904 62.7153L153.428 202.542C152.741 202.996 152.188 203.636 151.83 204.391C151.472 205.146 151.322 205.987 151.397 206.824Z" fill="#FAFAFA"/>
<path d="M106.5 383.306L166.764 347.5L168.516 360.472L140.884 376.888C140.884 376.888 133.518 379.575 130.594 380.332C127.671 381.09 106.5 383.306 106.5 383.306Z" fill="#E0E0E0"/>
<path d="M168.55 360.484L177.59 425.69L140.918 376.9L168.55 360.484Z" fill="#E6E6E6"/>
<path d="M176.507 427.86L143.641 383.949C143.095 383.294 142.405 382.782 141.629 382.457C140.852 382.131 140.012 382.001 139.177 382.077L108.442 386.669C106.711 386.86 104.964 386.533 103.409 385.728C102.159 384.993 102.371 384.144 103.878 383.845L139.199 376.854C140.027 376.726 140.873 376.82 141.656 377.128C142.438 377.436 143.129 377.946 143.663 378.61L181.082 430.5C181.998 431.774 181.73 432.199 180.48 431.453C178.973 430.487 177.631 429.273 176.507 427.86V427.86Z" fill="#E0E0E0"/>
<path d="M386.193 60.5111C386.189 59.8643 386.03 59.2284 385.73 58.6598C385.43 58.0911 384.999 57.6072 384.474 57.2508C383.74 56.8893 382.934 56.7094 382.12 56.7253C381.306 56.7413 380.507 56.9527 379.787 57.3426L144.311 197.169C143.593 197.632 142.968 198.232 142.469 198.937C141.916 199.67 141.51 200.509 141.275 201.405L135.695 226.856L140.226 229.531L380.557 86.8347L386.137 61.3951C386.19 61.1037 386.212 60.8074 386.204 60.5111H386.193Z" fill="#FEDE8A"/>
<path opacity="0.2" d="M386.136 61.3951C386.471 59.8453 385.668 59.2368 384.328 60.0289L148.852 199.855C147.382 200.842 146.308 202.343 145.828 204.08L140.248 229.531L380.556 86.8347L386.136 61.3951Z" fill="black"/>
<path opacity="0.1" d="M147.045 201.623C146.491 202.35 146.088 203.186 145.862 204.08L140.282 229.531L135.751 226.845L141.331 201.394C141.566 200.498 141.972 199.659 142.525 198.925L147.045 201.623Z" fill="black"/>
<path opacity="0.4" d="M386.192 60.4996C386.08 59.6386 385.355 59.3516 384.317 60.029L148.841 199.844C148.118 200.305 147.492 200.91 147 201.623L142.469 198.925C142.967 198.221 143.592 197.62 144.31 197.158L379.786 57.3312C380.506 56.9412 381.305 56.7298 382.119 56.7139C382.933 56.6979 383.739 56.8779 384.473 57.2393C384.998 57.5957 385.429 58.0797 385.729 58.6483C386.029 59.2169 386.188 59.8528 386.192 60.4996V60.4996Z" fill="white"/>
<path d="M391.951 66.2626L391.716 64.1273C391.699 64.0228 391.677 63.9194 391.649 63.8173C391.654 63.7869 391.654 63.7559 391.649 63.7255V63.7255C391.27 62.1807 390.352 60.8327 389.071 59.9371C388.338 59.5721 387.531 59.3902 386.717 59.4061C385.903 59.4221 385.103 59.6355 384.384 60.0289L148.908 199.855C148.195 200.309 147.631 200.973 147.29 201.761V201.761C146.941 202.494 146.802 203.314 146.888 204.126L151.352 236.098L155.883 238.795L396.102 96.1106L391.951 66.2626Z" fill="#FEDE8A"/>
<path opacity="0.1" d="M155.839 238.784L151.308 236.086L146.844 204.114C146.758 203.303 146.897 202.483 147.246 201.75L151.788 204.436C151.431 205.167 151.288 205.988 151.375 206.801L155.839 238.784Z" fill="black"/>
<path opacity="0.4" d="M391.583 63.7255C391.519 63.4363 391.385 63.1682 391.194 62.9461C391.003 62.7239 390.761 62.5547 390.49 62.4541C390.218 62.3535 389.927 62.3247 389.642 62.3703C389.357 62.4159 389.088 62.5346 388.86 62.7152L153.384 202.542C152.668 202.992 152.103 203.657 151.765 204.447L147.312 201.761C147.657 200.972 148.22 200.305 148.931 199.844L384.407 60.0289C385.126 59.6355 385.925 59.4221 386.74 59.4061C387.554 59.3902 388.361 59.5721 389.094 59.9371C390.344 60.8458 391.229 62.1929 391.583 63.7255V63.7255Z" fill="white"/>
<path d="M218.346 393.006L215.533 372.675C215.529 372.411 215.455 372.152 215.318 371.928C215.181 371.704 214.986 371.523 214.756 371.404C214.526 371.286 214.268 371.235 214.012 371.256C213.755 371.278 213.51 371.372 213.301 371.527L192.778 383.719C192.225 384.083 191.781 384.598 191.495 385.206C191.21 385.814 191.093 386.491 191.16 387.163L193.961 407.54C193.961 407.807 194.033 408.068 194.169 408.294C194.305 408.521 194.5 408.704 194.732 408.824C194.964 408.943 195.223 408.993 195.481 408.969C195.739 408.945 195.986 408.848 196.193 408.688L216.716 396.496C217.279 396.131 217.731 395.61 218.019 394.993C218.308 394.375 218.421 393.687 218.346 393.006V393.006Z" fill="#FEDE8A"/>
<path d="M250.085 374.179L247.261 353.86C247.261 353.593 247.189 353.332 247.053 353.105C246.917 352.878 246.722 352.695 246.49 352.576C246.258 352.457 245.999 352.406 245.741 352.43C245.483 352.454 245.236 352.552 245.029 352.712L224.506 364.892C223.954 365.257 223.51 365.771 223.225 366.379C222.939 366.987 222.823 367.664 222.888 368.336L225.711 388.667C225.711 388.933 225.783 389.195 225.919 389.421C226.056 389.648 226.251 389.831 226.482 389.95C226.714 390.07 226.973 390.12 227.231 390.096C227.489 390.072 227.736 389.975 227.943 389.815L248.466 377.623C249.02 377.26 249.465 376.746 249.751 376.137C250.037 375.529 250.152 374.851 250.085 374.179V374.179Z" fill="#EBEBEB"/>
<path d="M281.824 355.352L279.001 335.032C279.001 334.766 278.929 334.505 278.792 334.278C278.656 334.051 278.461 333.868 278.23 333.749C277.998 333.63 277.738 333.579 277.48 333.603C277.222 333.627 276.976 333.724 276.769 333.884L256.234 346.088C255.682 346.452 255.239 346.967 254.953 347.575C254.668 348.183 254.551 348.86 254.616 349.532L257.44 369.863C257.44 370.129 257.512 370.39 257.648 370.617C257.784 370.844 257.979 371.027 258.211 371.146C258.443 371.265 258.702 371.316 258.96 371.292C259.218 371.268 259.464 371.171 259.672 371.011L280.195 358.819C280.755 358.456 281.204 357.938 281.492 357.325C281.78 356.712 281.895 356.029 281.824 355.352V355.352Z" fill="#EBEBEB"/>
<path d="M313.596 336.536L310.773 316.205C310.773 315.939 310.7 315.677 310.564 315.451C310.428 315.224 310.233 315.041 310.001 314.922C309.77 314.802 309.51 314.752 309.252 314.776C308.994 314.8 308.748 314.897 308.541 315.057L287.928 327.272C287.374 327.635 286.929 328.149 286.644 328.758C286.358 329.366 286.242 330.044 286.31 330.716L289.133 351.035C289.133 351.302 289.205 351.563 289.342 351.79C289.478 352.017 289.673 352.2 289.904 352.319C290.136 352.438 290.396 352.489 290.654 352.465C290.912 352.441 291.158 352.343 291.365 352.183L311.889 340.003C312.461 339.648 312.924 339.135 313.226 338.522C313.528 337.909 313.656 337.221 313.596 336.536V336.536Z" fill="#EBEBEB"/>
<path d="M345.302 317.709L342.478 297.332C342.478 297.066 342.406 296.804 342.27 296.578C342.134 296.351 341.939 296.168 341.707 296.049C341.475 295.929 341.216 295.879 340.958 295.903C340.7 295.927 340.453 296.024 340.246 296.184L319.723 308.376C319.169 308.739 318.724 309.253 318.438 309.861C318.153 310.47 318.037 311.148 318.105 311.82L320.928 332.139C320.928 332.406 321 332.667 321.137 332.894C321.273 333.121 321.468 333.304 321.699 333.423C321.931 333.542 322.19 333.593 322.448 333.569C322.707 333.545 322.953 333.447 323.16 333.287L343.728 321.13C344.268 320.761 344.7 320.248 344.978 319.645C345.255 319.042 345.367 318.373 345.302 317.709Z" fill="#EBEBEB"/>
<path d="M377.041 298.882L374.217 278.551C374.217 278.284 374.145 278.023 374.009 277.796C373.873 277.57 373.678 277.386 373.446 277.267C373.215 277.148 372.955 277.098 372.697 277.122C372.439 277.145 372.193 277.243 371.985 277.403L351.462 289.594C350.908 289.957 350.464 290.472 350.178 291.08C349.892 291.688 349.776 292.366 349.844 293.038L352.656 313.404C352.656 313.671 352.728 313.932 352.865 314.158C353.001 314.385 353.196 314.568 353.427 314.688C353.659 314.807 353.919 314.857 354.177 314.833C354.435 314.809 354.681 314.712 354.888 314.552L375.412 302.36C375.972 301.995 376.422 301.476 376.71 300.861C376.998 300.246 377.113 299.56 377.041 298.882V298.882Z" fill="#EBEBEB"/>
<path d="M408.78 280.112L405.957 259.781C405.957 259.514 405.885 259.253 405.749 259.027C405.612 258.8 405.418 258.617 405.186 258.497C404.954 258.378 404.695 258.328 404.437 258.352C404.179 258.376 403.932 258.473 403.725 258.633L383.202 270.825C382.649 271.189 382.205 271.703 381.919 272.311C381.633 272.919 381.517 273.597 381.584 274.269L384.396 294.6C384.4 294.865 384.475 295.123 384.612 295.347C384.749 295.571 384.943 295.753 385.173 295.871C385.403 295.989 385.661 296.041 385.917 296.019C386.174 295.997 386.42 295.903 386.628 295.748L407.151 283.556C407.706 283.194 408.152 282.68 408.44 282.072C408.728 281.463 408.846 280.785 408.78 280.112V280.112Z" fill="#EBEBEB"/>
<path d="M212.832 353.228L210.009 332.92C210.005 332.655 209.93 332.397 209.793 332.173C209.656 331.948 209.462 331.767 209.232 331.649C209.001 331.53 208.744 331.479 208.487 331.501C208.231 331.523 207.985 331.617 207.777 331.772L187.254 343.964C186.701 344.328 186.257 344.842 185.971 345.45C185.685 346.058 185.569 346.736 185.635 347.408L188.448 367.739C188.452 368.004 188.526 368.262 188.663 368.486C188.8 368.71 188.995 368.892 189.225 369.01C189.455 369.128 189.712 369.18 189.969 369.158C190.226 369.136 190.471 369.042 190.68 368.887L211.203 356.695C211.758 356.327 212.204 355.809 212.491 355.197C212.779 354.586 212.897 353.904 212.832 353.228V353.228Z" fill="#FEDE8A"/>
<path d="M244.572 334.401L241.748 314.07C241.744 313.805 241.669 313.547 241.532 313.322C241.395 313.098 241.201 312.917 240.971 312.799C240.741 312.68 240.483 312.629 240.227 312.651C239.97 312.673 239.724 312.766 239.516 312.922L218.993 325.114C218.44 325.478 217.996 325.992 217.71 326.6C217.424 327.208 217.308 327.886 217.375 328.558L220.187 348.889C220.191 349.153 220.266 349.412 220.403 349.636C220.54 349.86 220.734 350.041 220.964 350.16C221.194 350.278 221.452 350.329 221.708 350.308C221.965 350.286 222.211 350.192 222.419 350.037L242.942 337.845C243.494 337.479 243.937 336.964 244.224 336.357C244.512 335.75 244.632 335.073 244.572 334.401V334.401Z" fill="#EBEBEB"/>
<path d="M276.311 315.574L273.487 295.243C273.483 294.978 273.409 294.719 273.272 294.495C273.135 294.271 272.94 294.09 272.71 293.972C272.48 293.853 272.223 293.802 271.966 293.824C271.709 293.845 271.464 293.939 271.255 294.095L250.732 306.286C250.179 306.65 249.735 307.165 249.449 307.773C249.164 308.381 249.048 309.059 249.114 309.73L251.926 330.062C251.93 330.326 252.005 330.585 252.142 330.809C252.279 331.033 252.473 331.214 252.703 331.333C252.934 331.451 253.191 331.502 253.448 331.481C253.704 331.459 253.95 331.365 254.158 331.21L274.681 319.018C275.233 318.652 275.676 318.137 275.964 317.53C276.251 316.923 276.371 316.246 276.311 315.574V315.574Z" fill="#EBEBEB"/>
<path d="M308.016 296.747L305.193 276.415C305.189 276.151 305.114 275.892 304.977 275.668C304.84 275.444 304.646 275.263 304.416 275.144C304.186 275.026 303.928 274.975 303.672 274.996C303.415 275.018 303.169 275.112 302.961 275.267L282.46 287.482C281.908 287.847 281.465 288.362 281.179 288.97C280.893 289.577 280.777 290.254 280.842 290.926L283.654 311.257C283.658 311.522 283.733 311.781 283.87 312.005C284.007 312.229 284.201 312.41 284.431 312.528C284.661 312.647 284.919 312.698 285.175 312.676C285.432 312.655 285.678 312.561 285.886 312.405L306.409 300.214C306.961 299.843 307.403 299.324 307.687 298.712C307.97 298.101 308.084 297.421 308.016 296.747V296.747Z" fill="#EBEBEB"/>
<path d="M339.789 277.919L336.966 257.6C336.966 257.333 336.894 257.072 336.757 256.845C336.621 256.619 336.426 256.435 336.194 256.316C335.963 256.197 335.703 256.147 335.445 256.171C335.187 256.194 334.941 256.292 334.734 256.452L314.199 268.632C313.647 268.997 313.204 269.512 312.918 270.119C312.633 270.727 312.516 271.404 312.581 272.076L315.393 292.407C315.397 292.672 315.472 292.93 315.609 293.155C315.746 293.379 315.94 293.56 316.17 293.678C316.401 293.797 316.658 293.848 316.915 293.826C317.171 293.804 317.417 293.711 317.625 293.555L338.149 281.34C338.699 280.978 339.143 280.468 339.433 279.865C339.722 279.262 339.845 278.589 339.789 277.919V277.919Z" fill="#EBEBEB"/>
<path d="M371.528 259.092L368.704 238.784C368.704 238.518 368.632 238.256 368.496 238.03C368.36 237.803 368.165 237.62 367.933 237.501C367.702 237.381 367.442 237.331 367.184 237.355C366.926 237.379 366.68 237.476 366.472 237.636L345.96 249.839C345.406 250.202 344.962 250.717 344.676 251.325C344.39 251.933 344.274 252.611 344.342 253.283L347.154 273.603C347.158 273.868 347.233 274.126 347.37 274.35C347.507 274.574 347.701 274.756 347.932 274.874C348.162 274.992 348.419 275.044 348.676 275.022C348.932 275 349.178 274.906 349.386 274.751L369.91 262.559C370.464 262.19 370.908 261.672 371.193 261.06C371.479 260.448 371.595 259.767 371.528 259.092V259.092Z" fill="#EBEBEB"/>
<path d="M403.267 240.276L400.443 219.945C400.443 219.679 400.371 219.418 400.235 219.191C400.098 218.964 399.904 218.781 399.672 218.662C399.44 218.543 399.181 218.492 398.923 218.516C398.665 218.54 398.418 218.637 398.211 218.797L377.677 230.989C377.126 231.355 376.684 231.87 376.4 232.478C376.117 233.086 376.002 233.762 376.07 234.433L378.882 254.753C378.886 255.017 378.961 255.276 379.098 255.5C379.235 255.724 379.429 255.905 379.659 256.024C379.889 256.142 380.147 256.193 380.403 256.172C380.66 256.15 380.906 256.056 381.114 255.901L401.637 243.72C402.188 243.353 402.63 242.839 402.918 242.232C403.205 241.625 403.325 240.949 403.267 240.276Z" fill="#EBEBEB"/>
<path d="M207.308 313.404L204.496 293.073C204.492 292.808 204.417 292.55 204.28 292.326C204.143 292.101 203.949 291.92 203.719 291.802C203.489 291.683 203.231 291.632 202.975 291.654C202.718 291.676 202.472 291.769 202.264 291.925L181.718 304.22C181.168 304.587 180.726 305.102 180.441 305.709C180.156 306.316 180.038 306.993 180.1 307.664L182.924 327.984C182.924 328.25 182.996 328.511 183.132 328.738C183.268 328.965 183.463 329.148 183.695 329.267C183.927 329.386 184.186 329.437 184.444 329.413C184.702 329.389 184.949 329.292 185.156 329.132L205.69 316.848C206.242 316.483 206.686 315.968 206.971 315.361C207.257 314.753 207.373 314.076 207.308 313.404Z" fill="#FEDE8A"/>
<path d="M239.048 294.623L236.235 274.292C236.231 274.027 236.157 273.768 236.02 273.544C235.883 273.32 235.689 273.139 235.458 273.02C235.228 272.902 234.971 272.851 234.714 272.873C234.458 272.894 234.212 272.988 234.003 273.144L213.48 285.335C212.93 285.702 212.488 286.217 212.203 286.825C211.917 287.432 211.8 288.108 211.862 288.779L214.685 309.11C214.69 309.375 214.764 309.634 214.901 309.858C215.038 310.082 215.232 310.263 215.463 310.382C215.693 310.5 215.95 310.551 216.207 310.529C216.463 310.508 216.709 310.414 216.917 310.258L237.441 298.067C237.992 297.701 238.433 297.186 238.717 296.578C239.001 295.97 239.115 295.293 239.048 294.623V294.623Z" fill="#EBEBEB"/>
<path d="M270.786 275.796L267.974 255.465C267.97 255.2 267.896 254.941 267.758 254.717C267.621 254.493 267.427 254.312 267.197 254.193C266.967 254.075 266.709 254.024 266.453 254.046C266.196 254.067 265.95 254.161 265.742 254.317L245.219 266.508C244.669 266.876 244.228 267.391 243.943 267.998C243.658 268.605 243.539 269.281 243.601 269.952L246.424 290.283C246.428 290.548 246.503 290.807 246.64 291.031C246.777 291.255 246.971 291.436 247.201 291.555C247.432 291.673 247.689 291.724 247.945 291.702C248.202 291.681 248.448 291.587 248.656 291.431L269.179 279.24C269.73 278.874 270.172 278.359 270.456 277.751C270.739 277.143 270.854 276.466 270.786 275.796Z" fill="#EBEBEB"/>
<path d="M302.526 256.968L299.713 236.637C299.709 236.373 299.635 236.114 299.498 235.89C299.361 235.666 299.167 235.485 298.936 235.366C298.706 235.248 298.449 235.197 298.192 235.218C297.936 235.24 297.69 235.334 297.481 235.489L276.958 247.681C276.409 248.049 275.968 248.564 275.682 249.171C275.397 249.778 275.279 250.454 275.34 251.125L278.163 271.456C278.167 271.721 278.242 271.979 278.379 272.204C278.516 272.428 278.71 272.609 278.941 272.727C279.171 272.846 279.428 272.897 279.685 272.875C279.941 272.853 280.187 272.76 280.395 272.604L300.919 260.412C301.47 260.047 301.911 259.532 302.195 258.924C302.479 258.316 302.593 257.639 302.526 256.968V256.968Z" fill="#EBEBEB"/>
<path d="M334.265 238.141L331.453 217.81C331.449 217.545 331.374 217.287 331.237 217.063C331.1 216.839 330.906 216.657 330.675 216.539C330.445 216.421 330.188 216.369 329.931 216.391C329.675 216.413 329.429 216.507 329.221 216.662L308.697 228.854C308.148 229.222 307.707 229.737 307.422 230.344C307.136 230.951 307.018 231.627 307.079 232.298L309.903 252.629C309.907 252.894 309.981 253.152 310.118 253.376C310.255 253.601 310.45 253.782 310.68 253.9C310.91 254.018 311.167 254.07 311.424 254.048C311.681 254.026 311.926 253.932 312.135 253.777L332.658 241.585C333.209 241.22 333.651 240.705 333.934 240.097C334.218 239.489 334.332 238.812 334.265 238.141V238.141Z" fill="#EBEBEB"/>
<path d="M366.048 219.268L363.236 198.937C363.232 198.672 363.157 198.414 363.02 198.189C362.883 197.965 362.689 197.784 362.459 197.666C362.228 197.547 361.971 197.496 361.714 197.518C361.458 197.54 361.212 197.633 361.004 197.789L340.38 210.084C339.831 210.452 339.389 210.967 339.104 211.574C338.819 212.181 338.701 212.857 338.762 213.528L341.585 233.859C341.589 234.124 341.664 234.382 341.801 234.607C341.938 234.831 342.132 235.012 342.362 235.13C342.593 235.249 342.85 235.3 343.107 235.278C343.363 235.256 343.609 235.163 343.817 235.007L364.385 222.712C364.947 222.355 365.401 221.843 365.695 221.234C365.989 220.626 366.111 219.945 366.048 219.268V219.268Z" fill="#EBEBEB"/>
<path d="M397.743 200.487L394.931 180.167C394.927 179.902 394.852 179.644 394.715 179.42C394.578 179.196 394.384 179.014 394.154 178.896C393.923 178.778 393.666 178.726 393.409 178.748C393.153 178.77 392.907 178.864 392.699 179.019L372.176 191.199C371.625 191.566 371.183 192.081 370.898 192.689C370.613 193.296 370.495 193.972 370.557 194.643L373.381 214.975C373.385 215.239 373.459 215.498 373.596 215.722C373.733 215.946 373.928 216.127 374.158 216.246C374.388 216.364 374.646 216.415 374.902 216.394C375.159 216.372 375.404 216.278 375.613 216.123L396.181 203.908C396.721 203.539 397.152 203.026 397.428 202.422C397.703 201.819 397.812 201.149 397.743 200.487Z" fill="#EBEBEB"/>
<path d="M201.796 273.66L198.972 253.341C198.972 253.074 198.9 252.813 198.764 252.586C198.627 252.36 198.433 252.176 198.201 252.057C197.969 251.938 197.71 251.888 197.452 251.911C197.194 251.935 196.947 252.033 196.74 252.193L176.217 264.373C175.665 264.738 175.221 265.253 174.936 265.86C174.65 266.468 174.534 267.145 174.599 267.817L177.444 288.148C177.444 288.414 177.517 288.676 177.653 288.902C177.789 289.129 177.984 289.312 178.216 289.431C178.447 289.551 178.707 289.601 178.965 289.577C179.223 289.553 179.469 289.456 179.676 289.296L200.2 277.104C200.749 276.738 201.19 276.223 201.471 275.615C201.753 275.007 201.865 274.33 201.796 273.66Z" fill="#FEDE8A"/>
<path d="M233.534 254.856L230.711 234.536C230.711 234.27 230.638 234.009 230.502 233.782C230.366 233.555 230.171 233.372 229.939 233.253C229.708 233.134 229.448 233.083 229.19 233.107C228.932 233.131 228.686 233.229 228.479 233.388L207.955 245.58C207.401 245.943 206.957 246.458 206.671 247.066C206.385 247.674 206.27 248.352 206.337 249.024L209.161 269.344C209.161 269.61 209.233 269.872 209.369 270.098C209.505 270.325 209.7 270.508 209.932 270.627C210.163 270.746 210.423 270.797 210.681 270.773C210.939 270.749 211.185 270.652 211.393 270.492L231.916 258.3C232.47 257.937 232.915 257.423 233.2 256.814C233.486 256.206 233.602 255.528 233.534 254.856V254.856Z" fill="#EBEBEB"/>
<path d="M265.273 236.017L262.45 215.686C262.45 215.42 262.378 215.159 262.241 214.932C262.105 214.705 261.91 214.522 261.679 214.403C261.447 214.284 261.188 214.233 260.93 214.257C260.672 214.281 260.425 214.378 260.218 214.538L239.695 226.73C239.141 227.093 238.696 227.607 238.41 228.216C238.124 228.824 238.009 229.502 238.076 230.174L240.9 250.494C240.9 250.76 240.972 251.021 241.108 251.248C241.244 251.475 241.439 251.658 241.671 251.777C241.903 251.896 242.162 251.947 242.42 251.923C242.678 251.899 242.925 251.802 243.132 251.642L263.655 239.461C264.207 239.096 264.651 238.582 264.936 237.974C265.222 237.366 265.338 236.689 265.273 236.017Z" fill="#EBEBEB"/>
<path d="M297.013 217.19L294.189 196.859C294.189 196.593 294.117 196.331 293.981 196.105C293.845 195.878 293.65 195.695 293.418 195.576C293.186 195.456 292.927 195.406 292.669 195.43C292.411 195.454 292.164 195.551 291.957 195.711L271.434 207.903C270.88 208.266 270.435 208.78 270.149 209.388C269.864 209.997 269.748 210.675 269.816 211.347L272.628 231.678C272.632 231.943 272.707 232.201 272.844 232.425C272.981 232.65 273.175 232.831 273.405 232.949C273.635 233.067 273.893 233.119 274.149 233.097C274.406 233.075 274.652 232.981 274.86 232.826L295.383 220.634C295.937 220.271 296.383 219.757 296.671 219.149C296.958 218.541 297.077 217.863 297.013 217.19V217.19Z" fill="#EBEBEB"/>
<path d="M328.752 198.363L325.928 178.032C325.928 177.765 325.856 177.504 325.72 177.277C325.584 177.051 325.389 176.868 325.157 176.748C324.926 176.629 324.666 176.579 324.408 176.603C324.15 176.627 323.904 176.724 323.696 176.884L303.173 189.076C302.619 189.439 302.174 189.953 301.889 190.561C301.603 191.17 301.487 191.848 301.555 192.52L304.367 212.851C304.371 213.115 304.446 213.374 304.583 213.598C304.72 213.822 304.914 214.003 305.144 214.122C305.375 214.24 305.632 214.291 305.889 214.27C306.145 214.248 306.391 214.154 306.599 213.999L327.123 201.807C327.678 201.444 328.124 200.931 328.412 200.322C328.699 199.714 328.817 199.036 328.752 198.363V198.363Z" fill="#EBEBEB"/>
<path d="M360.468 179.536L357.645 159.205C357.645 158.938 357.572 158.677 357.436 158.45C357.3 158.224 357.105 158.04 356.873 157.921C356.642 157.802 356.382 157.752 356.124 157.775C355.866 157.799 355.62 157.897 355.413 158.057L334.889 170.248C334.336 170.612 333.892 171.127 333.607 171.735C333.321 172.343 333.205 173.021 333.271 173.692L336.095 194.012C336.099 194.277 336.173 194.535 336.31 194.759C336.447 194.984 336.641 195.165 336.872 195.283C337.102 195.402 337.359 195.453 337.616 195.431C337.872 195.409 338.118 195.316 338.327 195.16L358.85 182.968C359.401 182.605 359.844 182.092 360.129 181.487C360.415 180.881 360.532 180.206 360.468 179.536V179.536Z" fill="#EBEBEB"/>
<path d="M392.23 160.72L389.406 140.389C389.406 140.122 389.334 139.861 389.198 139.635C389.062 139.408 388.867 139.225 388.635 139.105C388.403 138.986 388.144 138.936 387.886 138.96C387.628 138.984 387.382 139.081 387.174 139.241L366.651 151.433C366.098 151.797 365.654 152.311 365.368 152.919C365.083 153.527 364.966 154.205 365.033 154.877L367.845 175.208C367.849 175.473 367.924 175.731 368.061 175.955C368.198 176.179 368.392 176.361 368.622 176.479C368.853 176.597 369.11 176.649 369.366 176.627C369.623 176.605 369.869 176.511 370.077 176.356L390.6 164.164C391.155 163.802 391.602 163.288 391.889 162.68C392.177 162.071 392.295 161.393 392.23 160.72V160.72Z" fill="#EBEBEB"/>
<path d="M196.919 237.728L196.204 232.539C196.204 232.272 196.132 232.011 195.996 231.784C195.86 231.558 195.665 231.375 195.433 231.255C195.202 231.136 194.942 231.086 194.684 231.11C194.426 231.134 194.18 231.231 193.972 231.391L173.438 243.606C172.885 243.97 172.441 244.484 172.155 245.092C171.87 245.7 171.754 246.378 171.82 247.05L172.523 252.239C172.527 252.503 172.602 252.762 172.739 252.986C172.876 253.21 173.07 253.391 173.3 253.51C173.53 253.628 173.788 253.679 174.044 253.658C174.301 253.636 174.547 253.542 174.755 253.387L195.301 241.149C195.847 240.784 196.287 240.273 196.572 239.67C196.857 239.067 196.977 238.396 196.919 237.728Z" fill="#E6E6E6"/>
<path d="M228.658 218.901L227.944 213.712C227.944 213.445 227.872 213.184 227.735 212.957C227.599 212.731 227.404 212.547 227.173 212.428C226.941 212.309 226.682 212.259 226.423 212.283C226.165 212.306 225.919 212.404 225.712 212.564L205.177 224.778C204.624 225.142 204.18 225.657 203.895 226.265C203.609 226.873 203.493 227.551 203.559 228.222L204.262 233.411C204.266 233.676 204.341 233.935 204.478 234.159C204.615 234.383 204.809 234.564 205.039 234.683C205.27 234.801 205.527 234.852 205.784 234.83C206.04 234.809 206.286 234.715 206.494 234.559L227.029 222.368C227.585 222.001 228.031 221.482 228.319 220.871C228.606 220.259 228.724 219.577 228.658 218.901V218.901Z" fill="#E6E6E6"/>
<path d="M260.396 200.073L259.682 194.884C259.678 194.62 259.603 194.361 259.466 194.137C259.329 193.913 259.135 193.732 258.905 193.613C258.675 193.495 258.417 193.444 258.161 193.466C257.904 193.487 257.658 193.581 257.45 193.736L236.916 205.951C236.363 206.315 235.919 206.83 235.633 207.438C235.347 208.046 235.231 208.723 235.297 209.395L236.001 214.584C236.001 214.851 236.073 215.112 236.209 215.339C236.345 215.565 236.54 215.749 236.772 215.868C237.003 215.987 237.263 216.037 237.521 216.013C237.779 215.989 238.025 215.892 238.233 215.732L258.767 203.54C259.323 203.173 259.769 202.655 260.057 202.043C260.344 201.431 260.462 200.75 260.396 200.073Z" fill="#E6E6E6"/>
<path d="M292.136 181.258L291.421 176.057C291.417 175.793 291.343 175.534 291.206 175.31C291.069 175.086 290.874 174.905 290.644 174.786C290.414 174.668 290.157 174.617 289.9 174.638C289.643 174.66 289.398 174.754 289.189 174.909L268.655 187.124C268.102 187.488 267.658 188.003 267.372 188.611C267.087 189.219 266.97 189.896 267.037 190.568L267.74 195.757C267.74 196.023 267.812 196.285 267.948 196.511C268.084 196.738 268.279 196.921 268.511 197.04C268.743 197.16 269.002 197.21 269.26 197.186C269.518 197.162 269.765 197.065 269.972 196.905L290.506 184.725C291.06 184.356 291.505 183.837 291.793 183.226C292.08 182.614 292.199 181.934 292.136 181.258Z" fill="#E6E6E6"/>
<path d="M323.875 162.431L323.161 157.23C323.157 156.965 323.082 156.707 322.945 156.483C322.808 156.259 322.614 156.077 322.384 155.959C322.154 155.841 321.896 155.789 321.64 155.811C321.383 155.833 321.137 155.927 320.929 156.082L300.395 168.297C299.842 168.662 299.399 169.176 299.114 169.784C298.828 170.392 298.711 171.069 298.776 171.741L299.479 176.93C299.479 177.196 299.552 177.458 299.688 177.684C299.824 177.911 300.019 178.094 300.251 178.213C300.482 178.332 300.742 178.383 301 178.359C301.258 178.335 301.504 178.238 301.711 178.078L322.246 165.898C322.8 165.529 323.245 165.01 323.532 164.399C323.82 163.787 323.938 163.107 323.875 162.431Z" fill="#E6E6E6"/>
<path d="M355.613 143.603L354.899 138.414C354.899 138.148 354.827 137.887 354.691 137.66C354.555 137.433 354.36 137.25 354.128 137.131C353.896 137.012 353.637 136.961 353.379 136.985C353.121 137.009 352.874 137.107 352.667 137.266L332.133 149.47C331.581 149.835 331.137 150.349 330.852 150.957C330.566 151.565 330.45 152.242 330.515 152.914L331.218 158.114C331.222 158.379 331.296 158.637 331.433 158.862C331.57 159.086 331.765 159.267 331.995 159.385C332.225 159.504 332.482 159.555 332.739 159.533C332.996 159.511 333.241 159.418 333.45 159.262L353.984 147.07C354.539 146.702 354.985 146.184 355.272 145.572C355.56 144.961 355.678 144.279 355.613 143.603V143.603Z" fill="#E6E6E6"/>
<path d="M387.341 124.776L386.638 119.587C386.638 119.321 386.566 119.059 386.43 118.833C386.294 118.606 386.099 118.423 385.867 118.304C385.635 118.185 385.376 118.134 385.118 118.158C384.86 118.182 384.614 118.279 384.406 118.439L363.883 130.631C363.329 130.994 362.884 131.508 362.599 132.117C362.313 132.725 362.197 133.403 362.265 134.075L362.968 139.264C362.972 139.529 363.047 139.787 363.184 140.011C363.321 140.236 363.515 140.417 363.745 140.535C363.975 140.654 364.233 140.705 364.489 140.683C364.746 140.661 364.992 140.567 365.2 140.412L385.734 128.22C386.284 127.854 386.725 127.338 387.009 126.731C387.293 126.123 387.408 125.447 387.341 124.776V124.776Z" fill="#E6E6E6"/>
<path opacity="0.2" d="M172.98 207.076C172.879 205.559 173.183 204.043 173.86 202.691C174.537 201.34 175.56 200.204 176.819 199.408C179.319 197.927 181.651 198.948 182.042 201.704C182.145 203.222 181.841 204.741 181.162 206.093C180.483 207.446 179.455 208.58 178.192 209.372C175.703 210.853 173.37 209.832 172.98 207.076Z" fill="black"/>
<path opacity="0.2" d="M204.753 188.272C204.65 186.755 204.953 185.237 205.63 183.885C206.307 182.533 207.331 181.398 208.592 180.603C211.092 179.111 213.425 180.133 213.815 182.899C213.918 184.416 213.613 185.933 212.934 187.283C212.255 188.634 211.228 189.766 209.965 190.557C207.465 191.992 205.133 190.97 204.753 188.272Z" fill="black"/>
<path opacity="0.2" d="M236.458 169.387C236.355 167.87 236.658 166.353 237.335 165.001C238.012 163.649 239.037 162.513 240.297 161.719C242.797 160.226 245.141 161.248 245.52 164.015C245.623 165.53 245.319 167.046 244.642 168.396C243.965 169.746 242.941 170.879 241.681 171.672C239.181 173.153 236.838 172.131 236.458 169.387Z" fill="black"/>
<path opacity="0.2" d="M299.914 131.699C299.811 130.181 300.114 128.664 300.791 127.312C301.468 125.96 302.493 124.825 303.753 124.03C306.253 122.549 308.586 123.571 308.965 126.326C309.074 127.844 308.773 129.363 308.095 130.716C307.418 132.069 306.39 133.204 305.126 133.995C302.626 135.464 300.294 134.454 299.914 131.699Z" fill="black"/>
<path opacity="0.2" d="M331.676 112.848C331.57 111.331 331.872 109.813 332.549 108.46C333.226 107.107 334.253 105.972 335.515 105.18C338.015 103.687 340.347 104.709 340.738 107.476C340.842 108.994 340.537 110.513 339.858 111.865C339.179 113.218 338.151 114.352 336.888 115.144C334.388 116.614 332.055 115.592 331.676 112.848Z" fill="black"/>
<path opacity="0.2" d="M363.381 94.0097C363.278 92.4925 363.581 90.9752 364.258 89.623C364.935 88.2708 365.959 87.1356 367.22 86.3411C369.72 84.8487 372.064 85.8704 372.443 88.6371C372.546 90.1526 372.242 91.668 371.565 93.0182C370.888 94.3684 369.864 95.5015 368.604 96.2942C366.048 97.7752 363.816 96.7534 363.381 94.0097Z" fill="black"/>
<path d="M169.699 176.057C166.351 174.048 163.07 173.761 160.57 175.242C158.07 176.723 156.687 179.754 156.687 183.783C156.708 185.668 156.979 187.541 157.49 189.351L159.477 188.203C159.12 186.766 158.933 185.29 158.919 183.806C158.919 180.638 159.901 178.307 161.686 177.251C162.419 176.83 163.247 176.616 164.086 176.631C165.668 176.709 167.205 177.203 168.55 178.066C174.487 181.602 179.319 190.212 179.319 197.261C179.322 197.763 179.296 198.265 179.241 198.765C179.214 199.764 178.957 200.743 178.491 201.621C178.026 202.499 177.365 203.251 176.563 203.816C175.539 204.384 174.359 204.579 173.215 204.367C172.989 205.109 172.895 205.887 172.936 206.663C173.353 206.731 173.774 206.766 174.197 206.766C175.426 206.782 176.636 206.457 177.701 205.825C178.697 205.182 179.542 204.319 180.173 203.298C180.804 202.278 181.206 201.125 181.35 199.924C181.501 199.053 181.575 198.169 181.573 197.284C181.584 189.42 176.25 179.949 169.699 176.057Z" fill="#F5F5F5"/>
<path d="M201.461 157.207C198.113 155.198 194.832 154.911 192.332 156.392C189.832 157.873 188.448 160.904 188.448 164.933C188.47 166.818 188.74 168.691 189.252 170.501L191.238 169.353C190.882 167.916 190.694 166.44 190.68 164.956C190.68 161.788 191.662 159.457 193.448 158.401C194.181 157.98 195.008 157.766 195.847 157.781C197.43 157.859 198.967 158.353 200.311 159.216C206.248 162.752 211.081 171.362 211.081 178.411C211.084 178.913 211.058 179.415 211.003 179.915C210.975 180.914 210.718 181.893 210.253 182.771C209.787 183.649 209.126 184.401 208.324 184.966C207.301 185.534 206.121 185.729 204.976 185.517C204.751 186.259 204.656 187.037 204.697 187.813C205.114 187.881 205.536 187.916 205.958 187.916C207.187 187.932 208.398 187.607 209.463 186.975C210.459 186.332 211.303 185.469 211.935 184.448C212.566 183.427 212.968 182.275 213.112 181.074C213.262 180.203 213.337 179.319 213.335 178.434C213.346 170.604 208.012 161.099 201.461 157.207Z" fill="#F5F5F5"/>
<path d="M233.166 138.368C229.818 136.359 226.537 136.072 224.037 137.553C221.537 139.034 220.153 142.065 220.153 146.095C220.175 147.979 220.445 149.852 220.957 151.662L222.943 150.514C222.587 149.077 222.399 147.601 222.385 146.117C222.385 142.949 223.367 140.619 225.153 139.562C225.886 139.142 226.713 138.928 227.552 138.942C229.135 139.02 230.672 139.514 232.016 140.377C237.954 143.913 242.786 152.523 242.786 159.572C242.789 160.074 242.763 160.577 242.708 161.076C242.68 162.076 242.423 163.054 241.958 163.932C241.492 164.81 240.831 165.562 240.029 166.127C239.006 166.696 237.826 166.89 236.681 166.678C236.456 167.42 236.361 168.198 236.402 168.974C236.819 169.042 237.241 169.077 237.663 169.077C238.892 169.093 240.103 168.768 241.168 168.136C242.164 167.493 243.008 166.63 243.64 165.609C244.271 164.589 244.673 163.436 244.817 162.235C244.967 161.364 245.042 160.48 245.04 159.595C245.051 151.766 239.717 142.26 233.166 138.368Z" fill="#F5F5F5"/>
<path d="M296.634 100.737C293.286 98.728 290.005 98.441 287.505 99.9219C285.005 101.403 283.621 104.434 283.621 108.463C283.643 110.348 283.913 112.221 284.425 114.031L286.411 112.883C286.054 111.446 285.867 109.969 285.853 108.486C285.853 105.318 286.835 102.987 288.621 101.931C289.353 101.51 290.181 101.296 291.02 101.311C292.603 101.389 294.14 101.883 295.484 102.746C301.421 106.282 306.254 114.892 306.254 121.941C306.257 122.443 306.231 122.945 306.175 123.444C306.148 124.444 305.891 125.423 305.426 126.301C304.96 127.179 304.299 127.931 303.497 128.496C302.474 129.064 301.294 129.258 300.149 129.047C299.924 129.789 299.829 130.566 299.87 131.343C300.287 131.411 300.709 131.445 301.131 131.446C302.36 131.462 303.571 131.137 304.635 130.505C305.632 129.862 306.476 128.999 307.108 127.978C307.739 126.957 308.141 125.805 308.285 124.604C308.435 123.732 308.51 122.849 308.508 121.964C308.519 114.134 303.185 104.629 296.634 100.737Z" fill="#F5F5F5"/>
<path d="M328.394 81.8754C325.046 79.8664 321.765 79.5794 319.265 81.0603C316.766 82.5412 315.382 85.572 315.382 89.6014C315.404 91.4862 315.674 93.3592 316.185 95.1692L318.172 94.0212C317.815 92.5839 317.628 91.1077 317.614 89.6244C317.614 86.4559 318.596 84.1255 320.381 83.0693C321.114 82.6485 321.942 82.4346 322.781 82.4494C324.364 82.5271 325.901 83.0211 327.245 83.8844C333.182 87.4202 338.014 96.0302 338.014 103.079C338.018 103.581 337.992 104.084 337.936 104.583C337.909 105.582 337.652 106.561 337.186 107.439C336.721 108.317 336.06 109.069 335.258 109.634C334.235 110.202 333.054 110.397 331.91 110.185C331.684 110.927 331.59 111.705 331.631 112.481C332.048 112.549 332.47 112.584 332.892 112.584C334.121 112.6 335.331 112.275 336.396 111.643C337.392 111 338.237 110.137 338.868 109.116C339.5 108.096 339.902 106.943 340.045 105.742C340.196 104.871 340.271 103.987 340.269 103.102C340.28 95.284 334.945 85.7671 328.394 81.8754Z" fill="#F5F5F5"/>
<path d="M360.1 63.0367C356.752 61.0277 353.471 60.7407 350.971 62.2216C348.471 63.7025 347.076 66.7333 347.076 70.7627C347.098 72.6475 347.368 74.5205 347.88 76.3305L349.866 75.1825C349.51 73.7452 349.322 72.269 349.308 70.7857C349.308 67.6172 350.29 65.2868 352.076 64.2306C352.808 63.8098 353.636 63.5959 354.475 63.6107C356.058 63.6884 357.595 64.1825 358.939 65.0457C364.876 68.5815 369.709 77.1915 369.709 84.2403C369.712 84.7427 369.686 85.2449 369.631 85.7442C369.603 86.7438 369.346 87.7226 368.881 88.6005C368.415 89.4784 367.754 90.2305 366.952 90.7953C365.929 91.3638 364.749 91.5581 363.604 91.3464C363.379 92.0885 363.284 92.8661 363.325 93.6424C363.742 93.7105 364.164 93.7451 364.586 93.7457C365.815 93.7615 367.026 93.4363 368.09 92.8043C369.087 92.1616 369.931 91.2985 370.563 90.2777C371.194 89.257 371.596 88.1043 371.74 86.9036C371.89 86.032 371.965 85.1484 371.963 84.2632C371.985 76.4339 366.651 66.9284 360.1 63.0367Z" fill="#F5F5F5"/>
<path d="M393.078 361.62L385.578 375.017C385.085 375.854 384.936 376.859 385.163 377.809C385.39 378.76 385.975 379.579 386.789 380.086C387.603 380.593 388.579 380.746 389.503 380.512C390.428 380.279 391.223 379.677 391.716 378.84L399.26 365.363C399.986 364.077 399.205 362.206 397.508 361.195C395.812 360.185 393.803 360.369 393.078 361.62Z" fill="#455A64"/>
<path d="M452.761 338.029L465.785 345.743C466.185 345.998 466.631 346.168 467.096 346.244C467.561 346.32 468.036 346.301 468.493 346.186C468.951 346.071 469.381 345.864 469.76 345.576C470.139 345.289 470.458 344.926 470.7 344.511C470.941 344.095 471.1 343.634 471.166 343.154C471.233 342.675 471.206 342.186 471.087 341.718C470.968 341.249 470.76 340.809 470.474 340.424C470.188 340.039 469.831 339.717 469.423 339.475L456.321 331.772C455.071 331.026 453.252 331.829 452.27 333.574C451.288 335.319 451.511 337.282 452.761 338.029Z" fill="#455A64"/>
<path d="M467.191 277.632H467.124L435.396 258.794H435.307C428.343 254.718 418.745 255.35 408.155 261.618C386.873 274.246 369.619 305.001 369.619 330.28C369.619 342.908 373.916 351.736 380.846 355.891H380.902L412.63 374.742H412.708C419.672 378.84 429.28 378.186 439.882 371.929C461.153 359.301 478.407 328.546 478.407 303.279C478.407 290.651 474.121 281.788 467.191 277.632Z" fill="#FEDE8A"/>
<path opacity="0.1" d="M412.117 374.363L380.869 355.834H380.802C373.871 351.667 369.586 342.804 369.586 330.222C369.586 318.949 373.023 306.596 378.704 295.254L410.432 314.093C404.74 325.435 401.314 337.787 401.314 349.061C401.336 361.344 405.443 370.092 412.117 374.363Z" fill="black"/>
<path opacity="0.4" d="M467.127 342.308C482.175 315.496 482.176 286.517 467.129 277.58C452.082 268.643 427.685 283.134 412.637 309.946C397.589 336.757 397.588 365.737 412.635 374.673C427.682 383.61 452.079 369.119 467.127 342.308Z" fill="white"/>
<path d="M422.663 369.277C410.476 369.277 409.159 355.111 409.159 349.015C409.159 326.721 425.018 298.503 443.755 287.321C448.532 284.486 453.13 282.993 457.058 282.993C469.245 282.993 470.561 297.16 470.561 303.256C470.561 325.55 454.703 353.768 435.965 364.949C431.178 367.785 426.58 369.277 422.663 369.277Z" fill="#FAFAFA"/>
<path d="M431.334 351.965C431.275 351.976 431.214 351.976 431.155 351.965C431.016 351.913 430.902 351.807 430.837 351.67C430.773 351.533 430.763 351.375 430.809 351.231L439.347 326.147C439.395 326.002 439.498 325.883 439.632 325.817C439.766 325.75 439.92 325.741 440.061 325.791C440.201 325.841 440.317 325.947 440.382 326.085C440.447 326.222 440.456 326.381 440.407 326.526L431.892 351.575C431.855 351.695 431.779 351.798 431.678 351.869C431.577 351.94 431.456 351.974 431.334 351.965Z" fill="#FEDE8A"/>
<path d="M452.672 333.712C452.446 333.716 452.221 333.669 452.014 333.574L438.209 327.433V301.671C438.209 301.215 438.385 300.777 438.699 300.454C439.013 300.131 439.439 299.949 439.883 299.949C440.327 299.949 440.753 300.131 441.067 300.454C441.381 300.777 441.557 301.215 441.557 301.671V325.171L453.342 330.417C453.691 330.578 453.977 330.856 454.151 331.206C454.325 331.556 454.377 331.957 454.299 332.343C454.221 332.728 454.017 333.073 453.721 333.323C453.425 333.572 453.055 333.709 452.672 333.712V333.712Z" fill="#37474F"/>
<path d="M439.883 320.751C442.383 319.259 444.414 320.464 444.414 323.437C444.321 325.048 443.863 326.613 443.076 328.009C442.289 329.404 441.196 330.591 439.883 331.473C437.372 332.966 435.341 331.76 435.341 328.776C435.437 327.166 435.897 325.602 436.686 324.209C437.475 322.816 438.57 321.631 439.883 320.751V320.751Z" fill="#FEDE8A"/>
<path d="M403.01 302.268C397.541 311.992 387.241 316.4 379.496 311.797C374.952 309.095 371.639 304.647 370.283 299.431C368.928 294.216 369.643 288.66 372.27 283.986C374.896 279.313 379.22 275.904 384.291 274.51C389.361 273.116 394.761 273.851 399.305 276.553C407.027 281.26 408.456 292.533 403.01 302.268Z" fill="#455A64"/>
<path d="M379.496 311.797C387.241 316.389 397.542 311.992 403.01 302.268C404.232 300.089 405.138 297.737 405.7 295.289C405.387 295.713 396.281 307.652 384.965 304.289C373.447 300.845 371.282 291.741 372.276 283.981C370.974 286.295 370.128 288.85 369.786 291.5C369.444 294.151 369.614 296.844 370.284 299.427C370.955 302.011 372.113 304.433 373.694 306.555C375.275 308.677 377.246 310.458 379.496 311.797V311.797Z" fill="#37474F"/>
<path d="M376.315 282.006L370.445 278.562C370.045 278.307 369.599 278.137 369.134 278.061C368.669 277.985 368.194 278.005 367.737 278.119C367.279 278.234 366.849 278.441 366.47 278.729C366.091 279.017 365.771 279.379 365.53 279.795C365.289 280.211 365.13 280.672 365.064 281.151C364.997 281.631 365.024 282.119 365.143 282.588C365.262 283.056 365.47 283.496 365.756 283.881C366.042 284.266 366.399 284.589 366.807 284.83L372.744 288.366C374.005 289.112 375.824 288.309 376.806 286.564C377.788 284.819 377.565 282.752 376.315 282.006Z" fill="#FEDE8A"/>
<path d="M463.877 252.881L467.225 246.854C467.473 246.443 467.638 245.984 467.712 245.506C467.786 245.028 467.767 244.539 467.655 244.068C467.544 243.598 467.342 243.155 467.063 242.765C466.783 242.375 466.431 242.047 466.027 241.798C465.622 241.55 465.174 241.387 464.708 241.319C464.242 241.25 463.767 241.278 463.312 241.4C462.856 241.523 462.429 241.737 462.054 242.031C461.68 242.325 461.366 242.692 461.131 243.112L457.694 249.219C456.969 250.505 457.694 252.376 459.446 253.387C461.198 254.397 463.14 254.179 463.877 252.881Z" fill="#FEDE8A"/>
<path d="M435.52 255.373C436.82 253.055 438.552 251.023 440.616 249.394C442.68 247.764 445.036 246.569 447.549 245.876C450.062 245.183 452.683 245.006 455.262 245.355C457.842 245.704 460.329 246.573 462.583 247.911C464.836 249.249 466.811 251.03 468.395 253.153C469.979 255.276 471.141 257.7 471.814 260.285C472.488 262.87 472.66 265.566 472.321 268.219C471.981 270.873 471.137 273.432 469.837 275.75L435.52 255.373Z" fill="#455A64"/>
<path d="M465.484 250.08C466.6 252.48 469.635 262.639 465.484 265.165C461.332 267.691 442.159 259.31 442.159 259.31L469.836 275.75C472.141 271.622 472.968 266.795 472.173 262.105C471.378 257.416 469.011 253.161 465.484 250.08V250.08Z" fill="#37474F"/>
</svg>
