<svg width="714" height="476" viewBox="0 0 714 476" fill="none" xmlns="http://www.w3.org/2000/svg">
<path d="M86.6703 220.626H40.3555V232.878H86.6703V220.626Z" fill="#EBEBEB"/>
<path d="M67.0872 245.778C67.0832 245.705 67.0832 245.632 67.0872 245.559V244.931C67.0872 244.35 67.0872 243.55 67.0872 242.522C67.0872 240.409 67.0872 237.362 67.0111 233.526L67.1539 233.669L20.8391 233.764L21.0771 233.526V239.742C21.0771 241.786 21.0771 243.795 21.0771 245.768L20.8486 245.54L53.8544 245.645L63.5934 245.711H66.2304H66.9254H67.1634C67.1634 245.711 67.0968 245.711 66.954 245.711H66.2876H63.7076L54.0163 245.778L20.8486 245.883H20.6201V245.645C20.6201 243.677 20.6201 241.668 20.6201 239.619V233.402L20.8581 233.173L67.1729 233.259H67.3157V233.402C67.3157 237.277 67.2586 240.342 67.2396 242.484C67.2396 243.503 67.2396 244.293 67.2396 244.864C67.2396 245.112 67.2396 245.302 67.2396 245.464C67.2396 245.626 67.0968 245.788 67.0872 245.778Z" fill="#E0E0E0"/>
<path d="M683.26 263.885H580.32V434.274H683.26V263.885Z" fill="#E0E0E0"/>
<path d="M679.842 263.885H576.902V434.274H679.842V263.885Z" fill="#EBEBEB"/>
<path d="M675.453 267.341H581.281V430.818H675.453V267.341Z" fill="#FAFAFA"/>
<path d="M657.118 288.589H599.208V409.579H657.118V288.589Z" fill="#EBEBEB"/>
<path d="M599.207 366.768C599.074 355.458 609.241 344.424 620.428 342.853C625.768 342.101 631.442 343.158 636.421 341.111C645.322 337.465 648.159 325.632 657.118 322.128L657.527 409.579H599.207V366.768Z" fill="#E0E0E0"/>
<path d="M611.935 361.75V434.16H507.948L504.197 362.255L611.935 361.75Z" fill="#E0E0E0"/>
<path d="M504.197 362.265V434.007H608.194V362.265H504.197Z" fill="white"/>
<path d="M608.69 434.502H503.703V361.76H608.69V434.502ZM504.693 433.55H607.7V362.712H504.693V433.55Z" fill="#E0E0E0"/>
<path d="M596.923 371.175H515.46V425.097H596.923V371.175Z" fill="white"/>
<path d="M596.904 371.175H596.495H595.343H590.868L574.075 371.233L515.432 371.356L515.67 371.118C515.67 387.588 515.67 405.847 515.67 425.03L515.413 424.783L596.885 424.83L596.675 425.03C596.723 408.627 596.761 395.175 596.78 385.808C596.78 381.124 596.828 377.468 596.837 374.955C596.837 373.717 596.837 372.765 596.837 372.099C596.837 371.432 596.837 371.147 596.837 371.147C596.837 371.147 596.837 371.461 596.837 372.099C596.837 372.737 596.837 373.689 596.837 374.955C596.837 377.449 596.837 381.086 596.894 385.751C596.894 395.156 596.951 408.646 596.999 425.106V425.316H596.904L515.432 425.363H515.175V425.097C515.175 405.914 515.175 387.654 515.175 371.185V370.947H515.413L574.218 371.061L590.944 371.128H595.371H596.504L596.904 371.175Z" fill="#E0E0E0"/>
<path d="M504.197 362.055C504.84 362.366 505.441 362.756 505.987 363.217C507.053 363.988 508.5 365.121 510.062 366.33C511.623 367.539 513.003 368.757 513.974 369.652C514.533 370.094 515.032 370.606 515.459 371.175C515.364 371.28 512.86 369.224 509.747 366.73C507.797 365.295 505.943 363.733 504.197 362.055Z" fill="#E0E0E0"/>
<path d="M608.195 362.255C606.484 363.939 604.654 365.498 602.721 366.92C600.89 368.468 598.956 369.89 596.933 371.175C598.639 369.49 600.465 367.931 602.397 366.511C604.228 364.958 606.165 363.537 608.195 362.255Z" fill="#E0E0E0"/>
<path d="M608.109 434.017L596.514 424.592L608.109 434.017Z" fill="white"/>
<path d="M596.514 424.592C598.603 425.948 600.594 427.45 602.473 429.085C604.461 430.59 606.344 432.228 608.109 433.988C606.023 432.624 604.032 431.119 602.149 429.485C600.163 427.982 598.281 426.347 596.514 424.592Z" fill="#E0E0E0"/>
<path d="M504.197 434.007C505.886 432.34 507.697 430.799 509.614 429.4C511.413 427.86 513.322 426.454 515.326 425.192C513.631 426.853 511.821 428.393 509.909 429.799C508.11 431.339 506.201 432.745 504.197 434.007Z" fill="#E0E0E0"/>
<path d="M531.996 387.969V406.019H583.261V387.969H531.996Z" fill="#E0E0E0"/>
<path d="M526.599 363.75H459.54V433.655H526.599V363.75Z" fill="#E0E0E0"/>
<path d="M522.058 363.75H454.999V433.655H522.058V363.75Z" fill="#FAFAFA"/>
<path d="M522.077 433.674H454.971V363.731H522.077V433.674ZM455.018 433.674H522.03V363.778H455.056L455.018 433.674Z" fill="#E0E0E0"/>
<path d="M513.033 373.156H464.005V424.259H513.033V373.156Z" fill="white"/>
<path d="M464.005 424.592C463.663 425.108 463.256 425.578 462.796 425.991C462.015 426.82 460.892 427.895 459.683 429.152C458.474 430.409 457.312 431.456 456.484 432.217C456.061 432.667 455.584 433.063 455.065 433.398C455.408 432.886 455.811 432.416 456.265 431.998C457.046 431.17 458.169 430.094 459.387 428.838C460.606 427.581 461.767 426.534 462.596 425.763C463.015 425.316 463.488 424.923 464.005 424.592Z" fill="#E0E0E0"/>
<path d="M513.042 424.468C513.551 424.823 514.02 425.231 514.441 425.687C515.27 426.467 516.345 427.591 517.602 428.8C518.859 430.009 519.906 431.17 520.668 431.999C521.117 432.422 521.513 432.898 521.848 433.417C521.336 433.074 520.866 432.671 520.449 432.218C519.62 431.437 518.497 430.314 517.288 429.095C516.079 427.876 514.984 426.715 514.213 425.887C513.762 425.468 513.368 424.991 513.042 424.468Z" fill="#E0E0E0"/>
<path d="M512.899 373.289C513.249 372.773 513.658 372.3 514.118 371.88C514.899 371.051 516.022 369.976 517.231 368.719C518.44 367.462 519.601 366.425 520.43 365.654C520.856 365.208 521.332 364.812 521.848 364.473C521.511 364.99 521.108 365.46 520.649 365.873C519.868 366.701 518.745 367.824 517.526 369.043C516.308 370.261 515.146 371.347 514.318 372.108C513.897 372.56 513.421 372.957 512.899 373.289Z" fill="#E0E0E0"/>
<path d="M463.871 373.412C463.361 373.063 462.892 372.657 462.472 372.203C461.644 371.423 460.52 370.299 459.311 369.09C458.102 367.881 457.008 366.72 456.246 365.882C455.794 365.461 455.397 364.985 455.065 364.464C455.576 364.812 456.046 365.218 456.465 365.673C457.293 366.453 458.369 367.577 459.626 368.795C460.882 370.014 461.929 371.166 462.7 372.003C463.147 372.423 463.541 372.896 463.871 373.412Z" fill="#E0E0E0"/>
<path d="M512.899 424.259C512.899 424.259 512.899 424.173 512.899 424.011C512.899 423.85 512.899 423.602 512.899 423.297C512.899 422.66 512.899 421.736 512.899 420.537C512.899 418.118 512.899 414.596 512.851 410.122C512.851 401.173 512.794 388.416 512.756 373.156L512.937 373.336H464.052L464.261 373.127C464.261 391.881 464.261 409.427 464.261 424.23L464.08 424.04L499.475 424.135L509.424 424.183H512.051H509.462L499.561 424.24L464.042 424.335H463.852V424.145C463.852 409.341 463.852 391.777 463.852 373.041V372.822H464.071H512.956H513.146V373.013C513.146 388.33 513.079 401.116 513.051 410.141C513.051 414.596 513.051 418.099 513.003 420.508C513.003 421.688 513.003 422.602 513.003 423.231C513.003 423.526 513.003 423.754 513.003 423.926C512.987 424.042 512.952 424.154 512.899 424.259Z" fill="#E0E0E0"/>
<path d="M496.696 390.52H480.341V406.875H496.696V390.52Z" fill="#EBEBEB"/>
<path d="M184.058 309.048H21.4092V434.493H184.058V309.048Z" fill="#EBEBEB"/>
<path d="M143.305 433.617C143.124 433.617 142.981 405.647 142.981 371.166C142.981 336.684 143.124 308.714 143.305 308.714C143.486 308.714 143.629 336.665 143.629 371.166C143.629 405.666 143.476 433.617 143.305 433.617Z" fill="#E0E0E0"/>
<path d="M170.265 405.942H157.794V420.041H170.265V405.942Z" fill="#FAFAFA"/>
<path d="M89.5066 309.372H71.0283V336.142H89.5066V309.372Z" fill="#E0E0E0"/>
<path d="M89.5066 407.361H71.0283V434.131H89.5066V407.361Z" fill="#E0E0E0"/>
<path d="M72.8848 431.742V130.872H69.1624V431.808L38.3652 434.122H69.1624H72.8848H103.682L72.8848 431.742Z" fill="#E0E0E0"/>
<path d="M49.7613 104.653L35.9287 166.457H106.12L90.3355 104.844L49.7613 104.653Z" fill="#E0E0E0"/>
<path d="M62.623 191.504C62.4612 191.504 62.3469 183.888 62.3755 174.568C62.404 165.248 62.5373 157.623 62.6992 157.623C62.861 157.623 62.9752 165.239 62.9562 174.568C62.9372 183.898 62.8324 191.504 62.623 191.504Z" fill="#E0E0E0"/>
<path d="M62.5937 191.352C62.5937 191.276 63.0983 191.352 63.3173 191.98C63.3808 192.17 63.3975 192.372 63.366 192.569C63.3345 192.766 63.2557 192.953 63.1364 193.113C62.9653 193.297 62.7438 193.427 62.4995 193.485C62.2552 193.544 61.9991 193.529 61.7632 193.443C61.5273 193.356 61.3222 193.202 61.1736 192.999C61.0249 192.797 60.9394 192.555 60.9277 192.304C60.9468 192.11 61.011 191.922 61.1151 191.757C61.2192 191.592 61.3604 191.453 61.5275 191.352C62.1082 191.009 62.5366 191.295 62.4795 191.352C62.4224 191.409 62.1082 191.352 61.7655 191.685C61.5814 191.856 61.4719 192.092 61.4609 192.342C61.4862 192.477 61.5461 192.603 61.6346 192.707C61.7232 192.812 61.8374 192.891 61.966 192.938C62.0947 192.985 62.2333 192.998 62.3684 192.975C62.5035 192.953 62.6303 192.895 62.7365 192.809C62.8152 192.713 62.8728 192.601 62.9056 192.481C62.9384 192.362 62.9457 192.236 62.9269 192.114C62.8317 191.647 62.5557 191.466 62.5937 191.352Z" fill="#E0E0E0"/>
<path d="M256.631 323.975H373.65V233.716H256.631V323.975Z" fill="#F5F5F5"/>
<path d="M285.943 323.347C286.104 323.347 286.238 303.221 286.238 278.412C286.238 253.603 286.104 233.478 285.943 233.478C285.781 233.478 285.647 253.594 285.647 278.412C285.647 303.231 285.781 323.347 285.943 323.347Z" fill="#EBEBEB"/>
<path d="M266.551 313.579H275.519V303.441H266.551V313.579Z" fill="#FAFAFA"/>
<path d="M337.94 233.954H324.65V253.213H337.94V233.954Z" fill="#EBEBEB"/>
<path d="M337.94 304.45H324.65V323.709H337.94V304.45Z" fill="#EBEBEB"/>
<path d="M362.312 323.052H217.817V434.493H362.312V323.052Z" fill="#EBEBEB"/>
<path d="M326.108 433.712C325.946 433.712 325.822 408.875 325.822 378.239C325.822 347.604 325.946 322.757 326.108 322.757C326.27 322.757 326.393 347.594 326.393 378.239C326.393 408.884 326.27 433.712 326.108 433.712Z" fill="#E0E0E0"/>
<path d="M350.06 409.132H338.979V421.65H350.06V409.132Z" fill="#FAFAFA"/>
<path d="M278.308 323.347H261.896V347.128H278.308V323.347Z" fill="#E0E0E0"/>
<path d="M278.308 410.388H261.896V434.169H278.308V410.388Z" fill="#E0E0E0"/>
<path d="M340.673 101.893H294.358V114.145H340.673V101.893Z" fill="#EBEBEB"/>
<path d="M321.09 127.054C321.081 126.981 321.081 126.908 321.09 126.835V126.207C321.09 125.626 321.09 124.826 321.09 123.798C321.09 121.675 321.09 118.638 321.013 114.802L321.156 114.945L274.842 115.04C274.946 114.935 274.604 115.278 275.07 114.802V127.035L274.832 126.806L307.847 126.911L317.586 126.978H320.223H320.909H321.156H320.937H320.28H317.691L308 127.044L274.832 127.149H274.604V114.678C275.07 114.212 274.727 114.545 274.842 114.44L321.156 114.535H321.299V114.678C321.299 118.553 321.232 121.618 321.213 123.76C321.213 124.769 321.213 125.569 321.213 126.131C321.213 126.378 321.213 126.578 321.213 126.74C321.188 126.85 321.146 126.956 321.09 127.054Z" fill="#E0E0E0"/>
<path d="M680.889 180.556H634.574V192.809H680.889V180.556Z" fill="#EBEBEB"/>
<path d="M661.308 205.718C661.301 205.642 661.301 205.565 661.308 205.489C661.308 205.327 661.308 205.127 661.308 204.861C661.308 204.29 661.308 203.481 661.308 202.452C661.308 200.339 661.26 197.302 661.222 193.465L661.374 193.608L615.06 193.703C615.164 193.599 614.822 193.932 615.288 193.465V199.673C615.288 201.722 615.288 203.731 615.288 205.699L615.06 205.47L648.065 205.575L657.814 205.642H660.441H661.136H661.384H661.165H660.508H657.919L648.227 205.708L615.06 205.813H614.831V199.558C614.831 198.53 614.831 197.502 614.831 196.464V193.351C615.307 192.875 614.964 193.218 615.079 193.113L661.393 193.208H661.536V193.351C661.536 197.216 661.47 200.291 661.45 202.424C661.45 203.442 661.45 204.233 661.45 204.804C661.45 205.051 661.45 205.251 661.45 205.404C661.414 205.513 661.367 205.618 661.308 205.718Z" fill="#E0E0E0"/>
<path d="M453.828 69.7055C453.821 69.6326 453.821 69.5593 453.828 69.4865V68.8582C453.828 68.2775 453.828 67.4778 453.828 66.4401C453.828 64.3267 453.78 61.2898 453.752 57.4532L453.895 57.596L407.58 57.6912C407.685 57.5865 407.342 57.9197 407.808 57.4532V69.7055L407.57 69.477L440.586 69.5817L450.325 69.6483H452.962H453.647H453.895H453.676H453.019H450.429L440.747 69.715L407.57 69.8197H407.342V57.4723L407.58 57.2343L453.895 57.3295H454.037V57.4723C454.037 61.3374 453.971 64.4123 453.961 66.5448C453.961 67.5635 453.961 68.3536 453.961 68.9248V69.5341C453.922 69.5948 453.877 69.6521 453.828 69.7055Z" fill="#E0E0E0"/>
<path d="M460.101 57.4533C460.101 57.4533 460.101 57.3676 460.101 57.2153V56.5679C460.101 55.9681 460.101 55.1494 460.101 54.1117C460.101 51.9602 460.053 48.9329 460.015 45.201L460.177 45.3724L432.35 45.439L432.588 45.201V51.4937C432.588 53.5405 432.588 55.5302 432.588 57.4342L432.36 57.2057L452.266 57.3105L458.064 57.3771H459.634H460.187C460.019 57.3907 459.85 57.3907 459.682 57.3771H458.168L452.456 57.4342L432.398 57.5389H432.179V57.3105C432.179 55.4065 432.179 53.4168 432.179 51.37C432.179 50.3418 432.179 49.3041 432.179 48.2474V45.2201L432.417 44.9821L460.244 45.0487H460.415V45.2201C460.415 49.0281 460.348 52.0649 460.329 54.2355C460.329 55.2541 460.329 56.0633 460.282 56.6536C460.245 56.9249 460.185 57.1925 460.101 57.4533Z" fill="#E0E0E0"/>
<path d="M166.505 57.4437C166.501 57.3708 166.501 57.2977 166.505 57.2248V56.5965C166.505 56.0157 166.505 55.2161 166.505 54.1879C166.505 52.0649 166.505 49.0281 166.429 45.1915L166.572 45.3343L120.257 45.4295L120.495 45.1915V51.4081C120.495 53.458 120.495 55.4668 120.495 57.4342L120.266 57.2057L153.272 57.3105L163.011 57.3771H165.648H166.343H166.581C166.581 57.3771 166.514 57.3771 166.372 57.3771H165.648H163.068L153.377 57.4342L120.209 57.5485H119.952V57.3105C119.952 55.3398 119.952 53.3311 119.952 51.2843V45.2105L120.19 44.9725L166.505 45.0677H166.648V45.2105C166.648 49.0852 166.591 52.1506 166.572 54.2926C166.572 55.3017 166.572 56.1014 166.572 56.6631C166.572 56.9106 166.572 57.1105 166.572 57.2724C166.572 57.4342 166.514 57.4533 166.505 57.4437Z" fill="#E0E0E0"/>
<path d="M660.831 83.4238C660.831 83.4238 660.831 83.3477 660.831 83.2049V82.5766C660.831 81.9958 660.831 81.1962 660.831 80.1585C660.831 78.045 660.783 75.0082 660.745 71.1716L660.888 71.3144L614.516 71.4001C614.621 71.2954 614.278 71.6286 614.754 71.1621V77.3977C614.754 79.4445 614.754 81.4532 614.754 83.4238L614.525 83.1954L647.531 83.3001L657.28 83.3667H659.907H660.602H660.84C660.84 83.3667 660.774 83.3667 660.631 83.3667H659.964H657.384L647.693 83.4334L614.525 83.5381H614.297V83.3096C614.297 81.3421 614.297 79.3334 614.297 77.2834V71.1906L614.535 70.9526L660.85 71.0478H661.002V71.1906C661.002 75.0558 660.945 78.1307 660.926 80.2632C660.926 81.2818 660.926 82.072 660.926 82.6432C660.926 82.8907 660.926 83.0906 660.926 83.2525C660.926 83.4143 660.84 83.4238 660.831 83.4238Z" fill="#E0E0E0"/>
<path d="M677.747 434.502C677.747 434.636 531.996 434.75 352.258 434.75C172.521 434.75 26.7314 434.636 26.7314 434.502C26.7314 434.369 172.445 434.255 352.258 434.255C532.072 434.255 677.747 434.36 677.747 434.502Z" fill="#263238"/>
<path d="M172.791 360.875H80V430.023H172.791V360.875Z" fill="#FEDE8A"/>
<path opacity="0.7" d="M172.791 360.875H80V430.023H172.791V360.875Z" fill="white"/>
<path opacity="0.4" d="M172.79 360.875H139.953V430.023H172.79V360.875Z" fill="#FEDE8A"/>
<path d="M158.941 387.365H156.254V403.521H158.941V387.365Z" fill="#FEDE8A"/>
<path opacity="0.7" d="M104.111 430.01H115.832V403.86H104.111V430.01Z" fill="white"/>
<path opacity="0.7" d="M104.111 373.136H115.832V360.875H104.111V373.136Z" fill="white"/>
<path d="M247.193 360.875H154.402V430.023H247.193V360.875Z" fill="#FEDE8A"/>
<path opacity="0.7" d="M247.193 360.875H154.402V430.023H247.193V360.875Z" fill="white"/>
<path opacity="0.4" d="M247.181 360.875H214.344V430.023H247.181V360.875Z" fill="#FEDE8A"/>
<path opacity="0.7" d="M190.232 360.875H178.512V387.025H190.232V360.875Z" fill="white"/>
<path opacity="0.7" d="M190.232 417.749H178.512V430.01H190.232V417.749Z" fill="white"/>
<path d="M216.584 308H123.793V360.874H216.584V308Z" fill="#FEDE8A"/>
<path opacity="0.7" d="M216.584 308H123.793V360.874H216.584V308Z" fill="white"/>
<path opacity="0.4" d="M216.583 308H183.746V360.874H216.583V308Z" fill="#FEDE8A"/>
<path d="M201.381 347.572C205.333 347.572 208.536 341.691 208.536 334.438C208.536 327.184 205.333 321.304 201.381 321.304C197.43 321.304 194.227 327.184 194.227 334.438C194.227 341.691 197.43 347.572 201.381 347.572Z" fill="white"/>
<path d="M202.733 326.359H200.047V342.516H202.733V326.359Z" fill="#FEDE8A"/>
<path d="M206.492 336.575V332.314H196.275V336.575H206.492Z" fill="#FEDE8A"/>
<path opacity="0.7" d="M159.623 308H147.902V326.007H159.623V308Z" fill="white"/>
<path opacity="0.7" d="M159.623 348.614H147.902V360.875H159.623V348.614Z" fill="white"/>
<path d="M233.537 95.2791L238.534 103.097C240.246 105.703 241.944 108.309 243.698 110.823C247.178 115.944 250.784 120.96 254.57 125.703C255.502 126.915 256.491 128.036 257.437 129.208C257.925 129.795 258.426 130.329 258.913 130.889L259.651 131.736L260.026 132.153C260.026 132.218 260.026 132.153 260.026 132.153L259.901 132.049L259.651 131.879C258.982 131.475 258.718 131.514 258.788 131.58C259.044 131.743 259.341 131.842 259.651 131.866C260.848 132.033 262.061 132.085 263.27 132.023C269.513 131.558 275.719 130.731 281.853 129.547L285.305 137.248C282.311 139.061 279.175 140.66 275.923 142.029C272.561 143.498 269.056 144.658 265.455 145.495C263.364 145.985 261.221 146.26 259.066 146.316C257.688 146.351 256.311 146.241 254.96 145.99C253.002 145.626 251.156 144.856 249.559 143.736C249.312 143.566 249.075 143.383 248.849 143.189L248.487 142.876L248.222 142.642L247.749 142.186L246.802 141.287C246.176 140.674 245.522 140.075 244.923 139.463C243.74 138.16 242.473 137.013 241.374 135.749C236.84 130.762 232.606 125.542 228.693 120.114C226.758 117.508 224.865 114.732 223.125 111.983C221.385 109.234 219.603 106.498 217.891 103.501L233.537 95.2791Z" fill="#FF8B7B"/>
<path d="M278.777 131.553L288.744 122.849L296.163 133.442C296.163 133.442 289.454 141.104 281.464 137.625L278.777 131.553Z" fill="#FEDE8A"/>
<path d="M301.174 121.091L302.566 126.889C302.681 127.365 302.65 127.862 302.478 128.323C302.305 128.784 301.998 129.19 301.591 129.495L296.204 133.482L288.785 122.889L297.402 119.345C297.77 119.2 298.166 119.131 298.565 119.143C298.964 119.154 299.356 119.246 299.714 119.412C300.071 119.577 300.387 119.813 300.639 120.103C300.891 120.392 301.073 120.729 301.174 121.091Z" fill="#FEDE8A"/>
<path d="M262.032 421.958C261.985 421.937 261.945 421.904 261.918 421.862C261.891 421.821 261.877 421.772 261.879 421.724C261.876 421.669 261.892 421.616 261.925 421.571C261.958 421.526 262.005 421.493 262.06 421.476C262.631 421.281 267.628 419.639 269.02 420.577C269.143 420.665 269.24 420.78 269.303 420.912C269.366 421.044 269.393 421.188 269.382 421.333C269.373 421.571 269.304 421.803 269.181 422.012C269.057 422.22 268.883 422.398 268.672 422.531C267.28 423.443 263.912 422.531 262.06 421.971L262.032 421.958ZM268.589 420.942C267.74 420.538 265.039 421.124 263.021 421.724C265.568 422.453 267.517 422.596 268.324 422.088C268.469 422.006 268.588 421.888 268.668 421.749C268.749 421.609 268.789 421.452 268.784 421.294C268.794 421.236 268.786 421.178 268.761 421.124C268.737 421.071 268.696 421.026 268.644 420.994L268.589 420.942Z" fill="#FEDE8A"/>
<path d="M264.33 417.658C264.564 417.511 264.829 417.412 265.108 417.367C265.386 417.322 265.671 417.333 265.944 417.397C266.696 417.567 266.863 417.958 266.863 418.257C266.863 419.56 263.731 421.567 262.228 421.984C262.197 421.996 262.164 422.002 262.13 422.002C262.097 422.002 262.064 421.996 262.033 421.984C261.999 421.952 261.974 421.912 261.96 421.869C261.945 421.826 261.942 421.781 261.949 421.736C261.908 421.541 262.659 418.609 264.33 417.658ZM266.306 418.27C266.306 418.27 266.306 418.101 266.084 418.01L265.805 417.905H265.68C265.312 417.852 264.936 417.926 264.622 418.114C263.602 418.961 262.883 420.079 262.562 421.319C264.135 420.668 266.376 419.039 266.376 418.27H266.306Z" fill="#FEDE8A"/>
<path d="M250.853 422.948L262.713 422.778L261.975 396.954L250.102 397.136L250.853 422.948Z" fill="#FF8B7B"/>
<path d="M262.852 421.489L249.892 421.684C249.664 421.68 249.442 421.757 249.271 421.9C249.101 422.042 248.994 422.24 248.973 422.453L247.846 432.382C247.825 432.632 247.859 432.884 247.948 433.122C248.036 433.359 248.177 433.577 248.36 433.761C248.544 433.945 248.766 434.091 249.013 434.19C249.26 434.289 249.526 434.339 249.795 434.336C254.458 434.193 261.181 433.828 267.056 433.75C273.932 433.645 273.264 433.906 281.324 433.75C286.196 433.685 286.975 429.046 284.887 428.655C275.366 426.883 274.405 426.792 265.817 422.271C264.916 421.777 263.895 421.508 262.852 421.489Z" fill="#263238"/>
<path opacity="0.2" d="M261.975 396.967L262.351 410.27L250.491 410.453L250.102 397.137L261.975 396.967Z" fill="black"/>
<path d="M234.51 46.1572C234.05 54.4832 234.844 70.8354 228.371 76.1254C232.812 80.6206 240.161 84.2038 250.49 84.8031C260.819 85.4025 258.466 79.9952 255.974 76.4381C246.397 74.0276 248.11 66.0144 250.239 59.8123L234.51 46.1572Z" fill="#FF8B7B"/>
<path d="M223.863 74.7829C224.114 72.4506 225.673 67.7729 232.382 69.3886C239.092 71.0043 247.012 70.431 253.04 70.7567C259.067 71.0824 259.401 78.1576 259.401 78.1576L223.863 74.7829Z" fill="#FEDE8A"/>
<path d="M226.286 73.2195C240.582 73.0762 258.413 74.7049 268.046 77.5584C269.291 77.923 270.388 78.635 271.189 79.599C271.99 80.5631 272.457 81.7332 272.528 82.9527C273.099 93.0376 274.658 126.237 276.008 177.991L212.408 178.955C212.828 150.356 211.158 121.763 207.411 93.3764C207.079 90.8644 207.318 88.3152 208.113 85.8959C208.908 83.4767 210.24 81.242 212.023 79.3387C213.805 77.4353 215.997 75.9061 218.455 74.8516C220.914 73.797 223.582 73.2408 226.286 73.2195Z" fill="#263238"/>
<path d="M373.554 99.7381L285.426 88.9059L278.381 139.123L366.509 149.955L373.554 99.7381Z" fill="#A88424"/>
<path opacity="0.7" d="M373.554 99.7381L285.426 88.9059L278.381 139.123L366.509 149.955L373.554 99.7381Z" fill="white"/>
<path opacity="0.4" d="M374.66 99.3914L314.828 92.1573L307.886 142.464L367.718 149.698L374.66 99.3914Z" fill="#C7791D"/>
<path opacity="0.7" d="M302.612 90.6775L297.531 90.0632L295.167 107.198L300.247 107.812L302.612 90.6775Z" fill="white"/>
<path opacity="0.7" d="M297.28 129.323L292.199 128.708L290.589 140.377L295.669 140.992L297.28 129.323Z" fill="white"/>
<path d="M276.647 92.1647C276.953 93.4676 277.371 95.0572 277.747 96.5166L278.944 100.999C279.793 103.983 280.656 106.953 281.617 109.885C282.577 112.817 283.551 115.722 284.679 118.563C285.807 121.403 286.934 124.192 288.256 126.85C288.911 128.153 289.579 129.455 290.289 130.758C290.637 131.41 291.013 132.061 291.375 132.635L291.945 133.534L292.224 133.977V133.912L292.071 133.742C291.966 133.627 291.855 133.519 291.736 133.416C291.337 133.06 290.863 132.785 290.344 132.609C290.14 132.516 289.917 132.467 289.69 132.465C289.523 132.465 289.802 132.622 290.205 132.661C291.413 132.698 292.622 132.615 293.811 132.413C300.133 131.172 306.367 129.567 312.477 127.605L316.876 134.876C314.071 137.072 311.103 139.079 307.995 140.882C304.759 142.769 301.338 144.362 297.778 145.638C295.669 146.389 293.473 146.905 291.235 147.176C289.702 147.376 288.147 147.376 286.614 147.176C285.545 147.005 284.502 146.711 283.51 146.303C282.239 145.763 281.08 145.017 280.085 144.101C279.816 143.853 279.56 143.592 279.32 143.319L278.972 142.902L278.777 142.641L278.345 142.081L277.51 140.882C276.981 140.127 276.424 139.371 275.923 138.615C274.893 137.091 273.933 135.553 273.056 134.003C269.623 127.917 266.745 121.571 264.453 115.032C263.312 111.813 262.282 108.595 261.363 105.325C260.904 103.709 260.472 102.067 260.068 100.412C259.665 98.7577 259.331 97.168 258.969 95.3309L276.647 92.1647Z" fill="#FF8B7B"/>
<path d="M253.538 83.6303C247.859 92.9856 263.087 124.192 263.087 124.192L286.751 115.761C286.751 115.761 285.847 99.9694 279.624 87.7607C273.165 75.2392 259.761 73.3759 253.538 83.6303Z" fill="#263238"/>
<path d="M328.778 122.953L324.491 123.305C322.03 123.498 319.621 124.075 317.364 125.012L310.947 127.618C310.538 127.788 310.211 128.094 310.031 128.477C309.851 128.86 309.83 129.293 309.972 129.69L312.478 136.791C312.607 137.158 312.866 137.473 313.214 137.681C313.561 137.89 313.975 137.981 314.385 137.937C317.782 137.698 321.123 136.987 324.296 135.827L329.753 133.755C330.173 133.561 330.527 133.261 330.773 132.887C331.02 132.514 331.148 132.083 331.145 131.644L331.409 125.781C331.441 125.432 331.398 125.081 331.282 124.748C331.167 124.416 330.98 124.108 330.735 123.844C330.489 123.58 330.19 123.366 329.853 123.213C329.517 123.059 329.152 122.971 328.778 122.953Z" fill="#FF8B7B"/>
<path d="M314.746 128.869C316.027 127.475 317.53 121.663 316.653 120.165C315.776 118.667 314.301 122.484 313.382 123.501C310.834 126.315 308.705 129.168 310.514 130.015C312.324 130.862 312.491 131.305 314.746 128.869Z" fill="#FF8B7B"/>
<path d="M263.436 39.3682C263.519 40.2672 264.09 40.9448 264.716 40.8926C265.343 40.8405 265.774 40.0718 265.705 39.1727C265.635 38.2737 265.051 37.5962 264.424 37.6613C263.798 37.7265 263.352 38.4822 263.436 39.3682Z" fill="#263238"/>
<path d="M262.281 39.316C263.661 41.9492 265.422 44.3914 267.515 46.5735C266.905 47.0647 266.188 47.4262 265.414 47.6331C264.641 47.8401 263.828 47.8875 263.033 47.7723L262.281 39.316Z" fill="#FF5652"/>
<path d="M260.195 34.7823C260.098 34.7703 260.004 34.7439 259.916 34.7042C259.854 34.6671 259.799 34.6187 259.757 34.5617C259.714 34.5047 259.684 34.4403 259.669 34.3723C259.653 34.3043 259.652 34.2341 259.666 34.1658C259.68 34.0974 259.708 34.0324 259.749 33.9745C260.198 33.241 260.83 32.6205 261.591 32.1666C262.353 31.7126 263.221 31.4387 264.12 31.3686C264.194 31.3651 264.267 31.3756 264.337 31.3995C264.406 31.4235 264.469 31.4603 264.522 31.5079C264.576 31.5554 264.618 31.6127 264.647 31.6761C264.676 31.7395 264.691 31.8078 264.691 31.8767C264.693 31.9469 264.68 32.0167 264.653 32.0822C264.626 32.1477 264.585 32.2075 264.534 32.2584C264.482 32.3092 264.42 32.35 264.352 32.3784C264.283 32.4068 264.209 32.4223 264.134 32.424C263.428 32.4879 262.748 32.7078 262.15 33.0657C261.552 33.4236 261.054 33.9093 260.696 34.4827C260.65 34.5709 260.579 34.6455 260.49 34.6984C260.402 34.7513 260.3 34.7803 260.195 34.7823Z" fill="#263238"/>
<path d="M230.795 38.0529C232.479 48.9717 232.883 55.4474 239.3 60.5811C248.961 68.2947 262.964 62.0274 264.843 50.8219C266.5 40.75 263.451 24.5802 251.592 21.1925C248.962 20.4415 246.172 20.3273 243.483 20.8606C240.794 21.394 238.293 22.5575 236.215 24.2422C234.137 25.9269 232.55 28.0777 231.602 30.4932C230.654 32.9086 230.376 35.5097 230.795 38.0529Z" fill="#FF8B7B"/>
<path d="M258.831 43.5772C259.52 43.1887 260.112 42.6649 260.564 42.042C261.017 41.419 261.319 40.7116 261.452 39.9686C261.584 39.2255 261.543 38.4644 261.331 37.7378C261.118 37.0111 260.741 36.3362 260.223 35.7594C258.33 33.6616 254.975 30.0394 256.868 28.5019C258.761 26.9644 268.505 23.8372 264.914 17.5439C261.323 11.2506 253.778 7.39384 248.767 12.0715C243.756 16.7491 242.224 14.3256 234.137 13.3744C226.049 12.4233 222.43 20.1368 225.186 23.1988C227.942 26.2608 217.962 27.7983 221.233 31.8244C215.122 34.7952 221.052 44.1505 225.882 48.1766C230.712 52.2028 227.427 58.9652 235.626 61.4669C243.825 63.9685 262.534 52.281 258.831 43.5772Z" fill="#263238"/>
<path d="M183.426 418.179C183.377 418.163 183.335 418.133 183.305 418.094C183.275 418.054 183.259 418.006 183.259 417.958C183.254 417.904 183.268 417.849 183.297 417.802C183.327 417.756 183.372 417.719 183.426 417.697C183.983 417.463 188.882 415.456 190.274 416.29C190.408 416.366 190.519 416.473 190.595 416.601C190.67 416.729 190.709 416.873 190.706 417.02C190.73 417.268 190.686 417.517 190.579 417.745C190.472 417.973 190.305 418.172 190.093 418.323C188.701 419.326 185.361 418.701 183.468 418.245L183.426 418.179ZM189.885 416.681C189.008 416.342 186.363 417.137 184.428 417.867C187.017 418.414 188.98 418.414 189.745 417.867C189.882 417.771 189.989 417.644 190.057 417.498C190.126 417.352 190.153 417.191 190.135 417.033C190.141 416.976 190.13 416.919 190.103 416.869C190.076 416.818 190.034 416.775 189.982 416.746L189.885 416.681Z" fill="#FEDE8A"/>
<path d="M185.362 413.71C185.82 413.4 186.389 413.269 186.948 413.346C187.714 413.463 187.923 413.854 187.951 414.14C188.09 415.443 185.167 417.658 183.635 418.193C183.572 418.212 183.504 418.212 183.441 418.193H183.357C183.321 418.158 183.294 418.117 183.277 418.072C183.261 418.027 183.254 417.979 183.26 417.932C183.274 417.776 183.775 414.792 185.362 413.71ZM187.394 414.192C187.394 414.192 187.394 414.036 187.143 413.945L186.851 413.867H186.614C186.279 413.869 185.953 413.97 185.682 414.153C184.741 415.073 184.128 416.243 183.928 417.502C185.431 416.746 187.477 414.961 187.394 414.192Z" fill="#FEDE8A"/>
<path d="M171.469 417.059L182.925 419.86L190.664 394.987L179.208 392.198L171.469 417.059Z" fill="#FF8B7B"/>
<path d="M183.745 417.71L171.217 414.648C170.998 414.592 170.764 414.614 170.56 414.71C170.357 414.807 170.199 414.97 170.118 415.169L166.151 424.446C166.059 424.687 166.023 424.943 166.045 425.198C166.067 425.453 166.147 425.7 166.278 425.924C166.41 426.148 166.59 426.344 166.808 426.498C167.026 426.652 167.276 426.761 167.543 426.818C172.08 427.847 173.598 427.873 179.291 429.267C185.931 430.883 187.086 434.271 195.146 434.336C200.018 434.336 200.923 429.776 198.849 429.319C192.278 427.873 188.534 422.518 186.418 419.248C185.774 418.429 184.816 417.878 183.745 417.71Z" fill="#263238"/>
<path opacity="0.2" d="M190.662 394.987L186.667 407.808L175.211 405.02L179.206 392.198L190.662 394.987Z" fill="black"/>
<path d="M198.932 285.199C205.781 243.413 202.858 202.734 212.462 178.955L254.487 178.317C254.487 178.317 236.252 254.501 228.039 287.766C219.52 322.411 192.459 402.791 192.459 402.791L173.918 398.244C173.918 398.244 188.033 315.336 198.932 285.199Z" fill="#FEDE8A"/>
<path opacity="0.2" d="M229.277 249.823C229.277 258.084 229.932 267.023 230.822 276.56C236.237 254.267 243.824 222.735 248.918 201.444C233.495 212.233 229.277 228.82 229.277 249.823Z" fill="black"/>
<path d="M252.763 44.685C253.108 45.8038 253.687 46.8474 254.466 47.7554C255.245 48.6635 256.209 49.4179 257.301 49.9751C260.238 51.4605 262.465 49.1672 262.271 46.2095C262.103 43.6036 260.377 39.6035 257.12 39.3429C256.41 39.2971 255.699 39.4169 255.051 39.6916C254.403 39.9662 253.838 40.3871 253.406 40.9164C252.974 41.4458 252.689 42.0672 252.577 42.725C252.465 43.3827 252.529 44.0561 252.763 44.685Z" fill="#FF8B7B"/>
<path d="M242.515 285.511C236.793 241.744 229.082 201.795 235.053 178.551L276.02 177.938C276.02 177.938 273.64 255.882 271.663 289.732C269.603 324.913 266.721 407.586 266.721 407.586L246.593 407.872C246.593 407.872 239.731 329.733 242.515 285.511Z" fill="#FEDE8A"/>
<path d="M267.974 408.043L244.046 408.394L242.695 401.137L269.366 400.355L267.974 408.043Z" fill="#263238"/>
<path d="M193.961 407.078L170.812 401.436L171.578 394.101L197.511 400.029L193.961 407.078Z" fill="#263238"/>
<path d="M460.785 41.962C446.155 53.0242 442.438 70.8878 447.7 78.9792C455.189 90.4844 485.284 93.5333 499.552 86.6146C506.192 83.3832 512.191 46.822 492.926 39.8382C485.646 30.0008 469.053 35.6947 460.785 41.962Z" fill="#263238"/>
<path d="M513.25 392.485L502.629 399.56L472.84 373.045L485.674 360.041L513.25 392.485Z" fill="#FFC3BD"/>
<path d="M501.082 397.033L511.842 387.717C512.016 387.535 512.259 387.424 512.518 387.407C512.778 387.39 513.035 387.469 513.234 387.626L521.684 394.036C521.889 394.22 522.051 394.442 522.158 394.688C522.265 394.934 522.316 395.198 522.307 395.464C522.298 395.729 522.229 395.99 522.105 396.229C521.98 396.468 521.804 396.68 521.586 396.851C517.786 400.043 515.795 401.411 511.063 405.515C508.153 408.03 502.391 413.503 498.368 416.981C494.345 420.46 490.767 417.164 492.131 415.405C498.27 407.483 499.328 402.975 500.052 398.935C500.17 398.215 500.531 397.549 501.082 397.033Z" fill="#263238"/>
<path d="M498.912 401.606C498.178 402.371 497.203 402.896 496.128 403.105C495.858 403.131 495.586 403.088 495.341 402.98C495.096 402.872 494.886 402.703 494.736 402.492C494.636 402.37 494.57 402.225 494.546 402.073C494.521 401.92 494.539 401.764 494.597 401.619C495.223 400.043 500.707 398.453 501.32 398.271C501.378 398.257 501.44 398.259 501.497 398.278C501.554 398.296 501.604 398.33 501.64 398.375C501.674 398.423 501.691 398.48 501.691 398.538C501.691 398.596 501.674 398.652 501.64 398.701C500.821 399.741 499.908 400.713 498.912 401.606ZM495.529 401.346C495.373 401.465 495.249 401.617 495.167 401.789C495.144 401.846 495.138 401.908 495.15 401.968C495.163 402.027 495.193 402.083 495.237 402.128C495.329 402.265 495.46 402.376 495.614 402.449C495.768 402.522 495.941 402.555 496.114 402.545C497.13 402.545 498.786 401.242 500.61 399.066C498.797 399.566 497.081 400.336 495.529 401.346Z" fill="#FEDE8A"/>
<path d="M501.627 398.739L501.516 398.804C499.929 399.339 495.948 399.482 495.182 398.374C495.001 398.114 494.918 397.684 495.488 397.071C495.893 396.637 496.462 396.366 497.075 396.316C499.135 396.159 501.544 398.231 501.641 398.322C501.678 398.355 501.705 398.396 501.72 398.442C501.734 398.488 501.736 398.536 501.725 398.583C501.702 398.64 501.669 398.693 501.627 398.739ZM496.059 397.306L495.934 397.436C495.558 397.827 495.669 397.997 495.697 398.049C496.156 398.713 499.066 398.817 500.82 398.427C499.789 397.546 498.479 397.006 497.089 396.889C496.706 396.918 496.344 397.064 496.059 397.306Z" fill="#FEDE8A"/>
<path d="M489.025 424.291L476.442 424.695L474.02 383.547L491.503 383.782L489.025 424.291Z" fill="#FFC3BD"/>
<path d="M475.581 420.942L489.71 420.851C489.948 420.84 490.181 420.918 490.358 421.066C490.535 421.215 490.642 421.423 490.657 421.646L491.506 432.069C491.511 432.342 491.46 432.612 491.353 432.865C491.247 433.119 491.089 433.35 490.887 433.546C490.686 433.742 490.445 433.899 490.178 434.008C489.912 434.117 489.625 434.175 489.334 434.18C484.421 434.18 482.068 433.881 475.86 433.92C472.032 433.92 466.422 434.35 461.146 434.389C455.871 434.428 455.94 429.542 458.167 429.086C468.162 427.04 469.916 424.291 473.479 421.659C474.079 421.213 474.816 420.962 475.581 420.942Z" fill="#263238"/>
<path d="M453.906 112.218C453.155 114.993 452.319 117.651 451.47 120.348C450.621 123.045 449.744 125.716 448.784 128.387C446.877 133.73 444.844 139.033 442.297 144.388C441.643 145.691 440.975 147.072 440.209 148.453C439.39 149.954 438.46 151.4 437.425 152.779C436.638 153.828 435.702 154.77 434.641 155.58C433.503 156.385 432.168 156.909 430.757 157.105C429.946 157.217 429.125 157.244 428.307 157.183C427.205 157.064 426.118 156.842 425.064 156.518C424.195 156.284 423.34 156.006 422.503 155.685C419.545 154.516 416.699 153.112 413.998 151.489C411.387 149.937 408.881 148.236 406.495 146.394C405.862 145.9 405.432 145.216 405.278 144.459C405.124 143.701 405.254 142.917 405.648 142.239C406.042 141.562 406.675 141.033 407.438 140.743C408.201 140.453 409.049 140.42 409.836 140.648H409.947L418.188 143.111C420.77 143.918 423.395 144.601 426.052 145.157C426.611 145.281 427.179 145.368 427.751 145.417C428.11 145.473 428.477 145.473 428.836 145.417C428.836 145.417 428.836 145.417 428.6 145.417C427.916 145.504 427.27 145.765 426.734 146.173L426.581 146.29C426.581 146.29 426.72 146.108 426.846 145.886C427.436 144.963 427.953 144.001 428.391 143.007C428.92 141.912 429.435 140.74 429.936 139.528C431.899 134.681 433.653 129.521 435.351 124.348L437.87 116.53L440.306 108.713C440.838 107.057 442.038 105.661 443.653 104.821C445.268 103.982 447.169 103.766 448.951 104.22C450.734 104.674 452.256 105.761 453.195 107.25C454.133 108.739 454.414 110.512 453.976 112.192L453.906 112.218Z" fill="#263238"/>
<path d="M400.482 130.733L395.833 129.678C395.511 129.607 395.177 129.596 394.851 129.647C394.525 129.698 394.213 129.809 393.933 129.974C393.653 130.139 393.411 130.354 393.221 130.608C393.031 130.861 392.897 131.147 392.826 131.45L391.434 137.261C391.316 137.779 391.389 138.319 391.642 138.792C391.895 139.266 392.313 139.645 392.826 139.867L400.051 143.15C401.687 144.996 403.954 146.257 406.468 146.721C407.245 146.783 408.022 146.6 408.676 146.201C409.329 145.802 409.821 145.21 410.073 144.519L410.602 143.15C410.795 142.639 410.854 142.091 410.774 141.554C410.694 141.017 410.478 140.505 410.143 140.062L405.271 133.73C404.11 132.226 402.41 131.163 400.482 130.733Z" fill="#FFC3BD"/>
<path d="M405.394 140.063C404.879 138.252 406.146 131.893 407.58 130.734C409.014 129.574 408.902 133.496 409.195 135.007C409.918 138.695 411.547 141.522 410.239 143.985C409.32 145.692 406.271 143.216 405.394 140.063Z" fill="#FFC3BD"/>
<path d="M439.167 113.273C438.54 123.619 438.512 140.635 440.141 168.792L490.81 170.343C492.049 152.675 493.26 141.144 504.131 109.716C504.616 108.34 504.777 106.882 504.601 105.443C504.426 104.003 503.92 102.616 503.116 101.377C502.313 100.139 501.233 99.0781 499.949 98.2683C498.666 97.4584 497.21 96.9187 495.682 96.6865C492.898 96.2695 489.821 95.8916 486.703 95.6571C479.062 94.9025 471.372 94.6674 463.694 94.9535C461.606 95.0708 459.448 95.2402 457.346 95.4356C452.542 95.8919 448.069 97.9401 444.736 101.211C441.403 104.482 439.427 108.759 439.167 113.273Z" fill="#263238"/>
<path d="M463.691 94.9929C463.691 94.9929 456.48 96.0874 462.173 110.498C471.261 107.035 479.579 102.015 486.701 95.6965L463.691 94.9929Z" fill="white"/>
<path d="M482.272 123.396C483 119.856 480.86 116.494 477.493 115.888C474.126 115.282 470.807 117.66 470.079 121.2C469.352 124.741 471.491 128.102 474.858 128.709C478.225 129.315 481.545 126.937 482.272 123.396Z" fill="white"/>
<path opacity="0.2" d="M494.092 114.823C493.452 122.003 492.937 134.303 494.524 142.016C495.665 136.883 497.197 131.137 499.326 124.244L494.092 114.823Z" fill="black"/>
<path d="M487.204 71.1094C484.963 78.0672 482.054 90.8623 486.703 95.6963C486.703 95.6963 478.977 101.677 463.317 107.827C457.373 96.5954 463.693 94.9927 463.693 94.9927C472.17 93.377 472.616 87.5789 471.795 82.0934L487.204 71.1094Z" fill="#FFC3BD"/>
<path opacity="0.2" d="M482.945 76.5162L471.809 82.0799C472.019 83.3732 472.112 84.6808 472.087 85.9888C474.481 85.9888 480.564 84.0474 482.694 80.3209C483.256 79.1204 483.345 77.7722 482.945 76.5162Z" fill="black"/>
<path d="M495.192 56.5811C493.8 68.1905 493.536 73.1287 486.952 78.8227C477.055 87.3831 462.118 83.2918 459.738 71.5521C457.594 60.972 460.17 43.7729 472.572 39.6816C475.303 38.7669 478.237 38.5207 481.098 38.9664C483.958 39.412 486.649 40.5348 488.916 42.2281C491.182 43.9214 492.949 46.1289 494.047 48.6409C495.146 51.153 495.54 53.8863 495.192 56.5811Z" fill="#FFC3BD"/>
<path d="M478.169 40.8279C469.622 45.4404 488.011 63.3301 492.66 63.0956C500.552 58.7437 500.678 49.8183 496.279 45.5576C491.88 41.297 488.679 35.1861 478.169 40.8279Z" fill="#263238"/>
<path d="M487.413 39.9427C493.482 42.5486 465.601 42.6789 459.852 49.5456C464.64 42.718 471.767 33.1282 487.413 39.9427Z" fill="#263238"/>
<path d="M440.141 168.793C440.141 168.793 414.013 272.847 416.338 299.519C419.122 330.699 472.769 375.456 472.769 375.456L488.081 359.82C488.081 359.82 455.69 325.565 443.329 298.75C447.338 271.948 483.195 195.608 481.678 170.07L440.141 168.793Z" fill="#FEDE8A"/>
<path opacity="0.4" d="M440.141 168.793C440.141 168.793 414.013 272.847 416.338 299.519C419.122 330.699 472.769 375.456 472.769 375.456L488.081 359.82C488.081 359.82 455.69 325.565 443.329 298.75C447.338 271.948 483.195 195.608 481.678 170.07L440.141 168.793Z" fill="white"/>
<path d="M491.312 361.71L472.979 377.15L467.578 373.983L487.609 356.172L491.312 361.71Z" fill="#FEDE8A"/>
<path opacity="0.3" d="M460.38 213.679C445.695 232.716 444.985 267.726 445.903 287.388C450.942 269.316 461.73 242.853 470.138 218.553C469.943 209.21 467.243 204.728 460.38 213.679Z" fill="#FEDE8A"/>
<path d="M449.605 168.389C449.605 168.389 459.878 258.528 463.15 289.33C467.019 325.904 472.699 384.537 472.699 384.537L491.505 383.808C491.505 383.808 495.681 334.1 492.563 301.343C493.119 257.876 501.235 197.223 490.809 170.369L449.605 168.389Z" fill="#FEDE8A"/>
<path opacity="0.4" d="M449.605 168.389C449.605 168.389 459.878 258.528 463.15 289.33C467.019 325.904 472.699 384.537 472.699 384.537L491.505 383.808C491.505 383.808 495.681 334.1 492.563 301.343C493.119 257.876 501.235 197.223 490.809 170.369L449.605 168.389Z" fill="white"/>
<path d="M492.925 386.999L471.363 386.426L469.859 380.081L494.247 379.442L492.925 386.999Z" fill="#FEDE8A"/>
<path d="M474.914 59.2525C474.914 60.2037 474.288 60.9464 473.633 60.9203C472.979 60.8943 472.464 60.0995 472.52 59.1483C472.575 58.1971 473.146 57.4545 473.8 57.4935C474.455 57.5326 474.956 58.3144 474.914 59.2525Z" fill="#263238"/>
<path d="M463.469 58.7959C463.469 59.734 462.842 60.4767 462.188 60.4507C461.534 60.4246 461.019 59.6298 461.074 58.6786C461.13 57.7275 461.701 56.9978 462.355 57.0239C463.009 57.0499 463.51 57.8057 463.469 58.7959Z" fill="#263238"/>
<path d="M462.648 57.0505L460.254 56.2817C460.254 56.2817 461.409 58.119 462.648 57.0505Z" fill="#263238"/>
<path d="M466.908 60.3468C465.898 62.4682 464.582 64.4498 462.996 66.2362C463.495 66.604 464.073 66.8656 464.691 67.0029C465.309 67.1401 465.951 67.1498 466.573 67.0311L466.908 60.3468Z" fill="#ED847E"/>
<path d="M472.393 70.7701C471.828 70.8232 471.259 70.8232 470.695 70.7701C470.656 70.7701 470.618 70.763 470.583 70.7492C470.547 70.7355 470.515 70.7153 470.488 70.6899C470.461 70.6645 470.439 70.6343 470.425 70.6012C470.41 70.568 470.402 70.5324 470.402 70.4964C470.402 70.4605 470.41 70.4249 470.425 70.3917C470.439 70.3585 470.461 70.3284 470.488 70.303C470.515 70.2776 470.547 70.2574 470.583 70.2436C470.618 70.2299 470.656 70.2228 470.695 70.2228C471.949 70.3082 473.206 70.1169 474.367 69.6643C475.527 69.2117 476.558 68.5104 477.376 67.6169C477.398 67.5862 477.427 67.5601 477.46 67.5401C477.494 67.5201 477.531 67.5066 477.57 67.5005C477.609 67.4945 477.649 67.4959 477.688 67.5047C477.726 67.5135 477.762 67.5295 477.794 67.5517C477.847 67.6048 477.876 67.6746 477.876 67.7472C477.876 67.8197 477.847 67.8896 477.794 67.9426C476.447 69.4977 474.514 70.5097 472.393 70.7701Z" fill="#263238"/>
<path d="M497.448 67.1876C496.149 69.0921 494.097 70.4368 491.74 70.9271C488.622 71.5525 487.258 68.8944 488.288 66.2234C489.207 63.8259 491.949 60.6076 495.012 61.1809C495.678 61.316 496.298 61.6049 496.815 62.0214C497.332 62.4378 497.729 62.9685 497.971 63.5653C498.213 64.1621 498.292 64.8061 498.201 65.4387C498.109 66.0713 497.85 66.6725 497.448 67.1876Z" fill="#FFC3BD"/>
<path d="M478.183 55.9297C478.04 55.8617 477.93 55.7452 477.876 55.6039C477.686 54.9276 477.327 54.3032 476.828 53.7822C476.33 53.2612 475.706 52.8585 475.009 52.6071C474.858 52.5648 474.731 52.4686 474.656 52.3394C474.58 52.2101 474.562 52.0582 474.605 51.9166C474.626 51.8457 474.662 51.7795 474.71 51.7219C474.759 51.6642 474.819 51.6163 474.888 51.5811C474.957 51.5458 475.033 51.5239 475.111 51.5166C475.189 51.5093 475.268 51.5168 475.343 51.5387C476.232 51.8394 477.03 52.3363 477.669 52.9873C478.309 53.6383 478.772 54.4242 479.018 55.2782C479.041 55.3483 479.049 55.4221 479.041 55.4952C479.034 55.5683 479.01 55.6392 478.972 55.7037C478.935 55.7681 478.884 55.8248 478.822 55.8703C478.76 55.9159 478.69 55.9494 478.614 55.9688C478.543 55.992 478.468 56.0005 478.394 55.9938C478.319 55.987 478.247 55.9652 478.183 55.9297Z" fill="#263238"/>
<path d="M459.529 53.8451C459.376 53.8611 459.223 53.824 459.097 53.7409C458.97 53.6526 458.886 53.5207 458.862 53.3742C458.839 53.2277 458.878 53.0784 458.972 52.9591C459.517 52.2366 460.238 51.6459 461.076 51.2358C461.913 50.8257 462.843 50.608 463.788 50.6007C463.866 50.604 463.943 50.6219 464.013 50.6534C464.084 50.6848 464.147 50.7292 464.199 50.7838C464.251 50.8385 464.29 50.9023 464.315 50.9716C464.341 51.0409 464.351 51.1141 464.345 51.1871C464.341 51.2607 464.322 51.3329 464.289 51.3996C464.255 51.4663 464.208 51.5262 464.15 51.5758C464.092 51.6254 464.024 51.6638 463.95 51.6888C463.876 51.7137 463.797 51.7248 463.719 51.7213C462.971 51.7309 462.236 51.9088 461.577 52.2399C460.918 52.571 460.354 53.0456 459.932 53.6236C459.834 53.7446 459.689 53.8242 459.529 53.8451Z" fill="#263238"/>
<path d="M468.663 422.323C468.515 422.139 468.414 421.926 468.368 421.7C468.322 421.474 468.332 421.241 468.398 421.02C468.424 420.847 468.497 420.684 468.609 420.545C468.721 420.406 468.869 420.296 469.038 420.225C470.556 419.6 474.203 421.88 474.606 422.14C474.652 422.17 474.687 422.212 474.707 422.261C474.727 422.31 474.731 422.363 474.718 422.414C474.705 422.47 474.676 422.521 474.634 422.562C474.593 422.603 474.54 422.633 474.481 422.649C472.825 423.013 469.888 423.495 468.774 422.492C468.725 422.443 468.687 422.386 468.663 422.323ZM473.66 422.219C472.17 421.346 470.041 420.368 469.247 420.694C469.172 420.723 469.108 420.772 469.061 420.834C469.014 420.897 468.987 420.97 468.983 421.046C468.921 421.214 468.91 421.395 468.949 421.57C468.988 421.744 469.077 421.905 469.205 422.036C469.804 422.544 471.447 422.609 473.66 422.192V422.219Z" fill="#FEDE8A"/>
<path d="M472.783 421.254C471.887 420.409 471.387 419.266 471.391 418.075C471.454 417.856 471.59 417.661 471.781 417.52C471.972 417.379 472.206 417.3 472.449 417.293C472.671 417.255 472.9 417.269 473.116 417.332C473.332 417.396 473.528 417.508 473.687 417.658C474.954 418.779 474.745 422.166 474.731 422.31C474.724 422.358 474.705 422.404 474.676 422.445C474.648 422.485 474.609 422.519 474.564 422.544C474.52 422.567 474.469 422.579 474.418 422.579C474.367 422.579 474.317 422.567 474.272 422.544C473.705 422.192 473.202 421.757 472.783 421.254ZM473.381 418.205L473.256 418.075C473.156 417.981 473.032 417.91 472.897 417.869C472.761 417.828 472.617 417.819 472.476 417.841C472.101 417.841 472.003 418.049 471.961 418.179C471.739 418.987 473.019 420.889 474.161 421.775C474.253 420.541 473.984 419.307 473.381 418.205Z" fill="#FEDE8A"/>
<path d="M491.881 167.555L492.688 171.881C492.828 172.219 492.368 172.545 491.784 172.532L439.639 170.942C439.18 170.942 438.832 170.695 438.832 170.434V166.122C438.832 165.822 439.25 165.587 439.751 165.6L491.074 167.164C491.234 167.151 491.395 167.181 491.538 167.25C491.681 167.319 491.8 167.425 491.881 167.555Z" fill="white"/>
<path d="M484.392 172.767H485.784C486.062 172.767 486.285 172.637 486.285 172.48V166.943C486.285 166.786 486.062 166.643 485.784 166.63H484.392C484.113 166.63 483.891 166.747 483.891 166.917V172.506C483.891 172.624 484.113 172.767 484.392 172.767Z" fill="#FEDE8A"/>
<path opacity="0.4" d="M484.392 172.767H485.784C486.062 172.767 486.285 172.637 486.285 172.48V166.943C486.285 166.786 486.062 166.643 485.784 166.63H484.392C484.113 166.63 483.891 166.747 483.891 166.917V172.506C483.891 172.624 484.113 172.767 484.392 172.767Z" fill="white"/>
<path d="M443.466 171.516H444.858C445.136 171.516 445.359 171.385 445.359 171.229V165.639C445.359 165.47 445.136 165.326 444.858 165.326H443.466C443.188 165.326 442.965 165.444 442.965 165.613V171.203C442.965 171.372 443.16 171.516 443.466 171.516Z" fill="#FEDE8A"/>
<path opacity="0.4" d="M443.466 171.516H444.858C445.136 171.516 445.359 171.385 445.359 171.229V165.639C445.359 165.47 445.136 165.326 444.858 165.326H443.466C443.188 165.326 442.965 165.444 442.965 165.613V171.203C442.965 171.372 443.16 171.516 443.466 171.516Z" fill="white"/>
<path d="M463.931 172.155H465.323C465.601 172.155 465.824 172.024 465.824 171.868V166.278C465.824 166.109 465.601 165.965 465.323 165.965H463.931C463.652 165.965 463.43 166.083 463.43 166.252V171.842C463.43 171.998 463.652 172.155 463.931 172.155Z" fill="#FEDE8A"/>
<path opacity="0.4" d="M463.931 172.155H465.323C465.601 172.155 465.824 172.024 465.824 171.868V166.278C465.824 166.109 465.601 165.965 465.323 165.965H463.931C463.652 165.965 463.43 166.083 463.43 166.252V171.842C463.43 171.998 463.652 172.155 463.931 172.155Z" fill="white"/>
<path d="M504.243 103.918C506.15 111.514 507.667 118.993 508.85 126.681C509.435 130.59 509.992 134.381 510.326 138.316C510.734 142.378 510.846 146.462 510.66 150.538C510.576 151.632 510.465 152.74 510.27 153.926C510.186 154.512 510.033 155.15 509.908 155.763L509.616 156.792C509.49 157.236 509.332 157.671 509.142 158.095C508.603 159.335 507.775 160.448 506.72 161.352C505.858 162.083 504.882 162.685 503.825 163.138C502.315 163.762 500.708 164.153 499.064 164.297C496.606 164.501 494.131 164.445 491.687 164.128C489.5 163.862 487.33 163.488 485.186 163.007C477.045 161.129 469.119 158.511 461.522 155.189C460.73 154.855 460.098 154.258 459.748 153.513C459.398 152.769 459.354 151.929 459.625 151.156C459.896 150.383 460.463 149.732 461.217 149.326C461.97 148.921 462.858 148.791 463.707 148.961H463.819C471.544 150.499 479.479 151.971 487.065 152.766C488.944 152.961 490.824 153.079 492.633 153.118C494.213 153.182 495.795 153.086 497.352 152.831C497.728 152.781 498.089 152.656 498.41 152.466C498.41 152.466 498.271 152.466 498.034 152.675C497.715 152.925 497.462 153.242 497.296 153.6C497.171 153.926 497.296 153.6 497.296 153.6V153.248L497.422 152.297C497.422 151.593 497.505 150.825 497.519 150.017C497.451 146.53 497.168 143.049 496.67 139.593C496.169 135.984 495.626 132.348 494.944 128.7C493.552 121.43 492.035 114.029 490.42 106.836V106.758C490.089 105.07 490.469 103.328 491.481 101.897C492.494 100.466 494.06 99.4585 495.849 99.0857C497.639 98.7128 499.513 99.0039 501.079 99.8977C502.644 100.792 503.778 102.219 504.243 103.879V103.918Z" fill="#263238"/>
<path d="M453.587 139.749L449.342 139.071C449.016 139.021 448.683 139.032 448.362 139.104C448.041 139.175 447.738 139.306 447.472 139.488C447.205 139.669 446.979 139.899 446.808 140.163C446.637 140.427 446.523 140.72 446.474 141.026L445.542 146.915C445.461 147.431 445.568 147.957 445.846 148.408C446.124 148.86 446.556 149.21 447.073 149.404L454.52 152.218C454.52 152.218 460.645 156.701 465.503 154.577V149.717L459.406 142.863C457.921 141.214 455.859 140.11 453.587 139.749Z" fill="#FFC3BD"/>
<path d="M474.09 57.5588L471.695 56.79C471.695 56.79 472.851 58.6272 474.09 57.5588Z" fill="#263238"/>
</svg>
