<svg width="685" height="546" viewBox="0 0 685 546" fill="none" xmlns="http://www.w3.org/2000/svg">
<path d="M342.022 545.714C530.915 545.714 684.044 536.774 684.044 525.746C684.044 514.718 530.915 505.777 342.022 505.777C153.128 505.777 0 514.718 0 525.746C0 536.774 153.128 545.714 342.022 545.714Z" fill="#F5F5F5"/>
<path d="M452.472 108.168C431.341 102.27 410.252 96.2144 389.206 90C368.708 96.1771 348.211 102.233 327.714 108.168C307.776 102.233 287.88 96.1771 268.025 90C246.373 96.2144 224.683 102.27 202.956 108.168L154.028 306.716C182.268 300.762 210.484 294.706 238.677 288.548C265.072 294.716 291.499 300.772 317.959 306.716C344.978 300.79 371.997 294.734 399.016 288.548C426.604 294.744 454.224 300.8 481.876 306.716C507.731 300.762 533.557 294.706 559.356 288.548L510.4 90C491.123 96.1771 471.814 102.233 452.472 108.168Z" fill="#DCDCDC"/>
<path opacity="0.8" d="M452.472 108.168C431.341 102.27 410.252 96.2144 389.206 90C368.708 96.1771 348.211 102.233 327.714 108.168C307.776 102.233 287.88 96.1771 268.025 90C246.373 96.2144 224.683 102.27 202.956 108.168L154.028 306.716C182.268 300.762 210.484 294.706 238.677 288.548C265.072 294.716 291.499 300.772 317.959 306.716C344.978 300.79 371.997 294.734 399.016 288.548C426.604 294.744 454.224 300.8 481.876 306.716C507.731 300.762 533.557 294.706 559.356 288.548L510.4 90C491.123 96.1771 471.814 102.233 452.472 108.168Z" fill="white"/>
<path d="M318.502 295.186C345.167 289.261 371.809 283.205 398.427 277.018C425.642 283.214 452.885 289.27 480.155 295.186C501.705 290.174 523.241 285.049 544.763 279.813C531.235 221.312 517.726 162.816 504.235 104.325C487.604 109.551 470.931 114.676 454.217 119.698C432.713 113.8 411.247 107.744 389.818 101.53C368.967 107.688 348.093 113.744 327.195 119.698C306.884 113.763 286.61 107.707 266.374 101.53C247.871 106.738 229.344 111.862 210.794 116.902C197.266 175.394 183.757 233.885 170.266 292.377C193.679 287.327 217.069 282.203 240.436 277.004C266.402 283.163 292.424 289.223 318.502 295.186Z" fill="#C9C9C9" fill-opacity="0.87"/>
<path opacity="0.4" d="M318.502 295.186C345.167 289.261 371.809 283.205 398.427 277.018C425.642 283.214 452.885 289.27 480.155 295.186C501.705 290.174 523.241 285.049 544.763 279.813C531.235 221.312 517.726 162.816 504.235 104.325C487.604 109.551 470.931 114.676 454.217 119.698C432.713 113.8 411.247 107.744 389.818 101.53C368.967 107.688 348.093 113.744 327.195 119.698C306.884 113.763 286.61 107.707 266.374 101.53C247.871 106.738 229.344 111.862 210.794 116.902C197.266 175.394 183.757 233.885 170.266 292.377C193.679 287.327 217.069 282.203 240.436 277.004C266.402 283.163 292.424 289.223 318.502 295.186Z" fill="white"/>
<path d="M378.933 242.932C377.885 231.752 377.033 221.592 372.644 215.722C362.862 202.739 339.453 205.506 324.751 208.19C323.116 205.394 318.923 197.61 314.325 178.841C309.937 160.925 289.645 152.288 273.992 147.243C269.576 145.845 264.112 143.973 263.203 142.687C261.904 136.775 256.216 136.496 250.626 136.244C246.14 136.035 241.025 135.797 236.944 133.086C233.296 130.654 237.489 119.18 242.953 108.126L238.355 109.384C237.964 110.236 237.559 111.089 237.167 111.955C230.669 126.462 227.315 135.713 232.765 139.235C238.216 142.757 244.239 142.995 249.214 143.232C254.189 143.47 256.565 143.735 256.873 145.3C257.683 149.493 262.868 151.352 271.337 153.951C285.774 158.381 303.327 165.131 307.757 181.049C315.164 207.603 319.734 213.892 320.6 214.688L321.9 215.89L323.703 215.513C336.854 213.011 358.222 210.02 366.733 219.593C370.073 223.353 370.926 233.415 371.582 243.421C372.323 255.873 371.876 269.975 375.663 282.329L386.704 279.785C381.211 267.166 379.982 254.057 378.933 242.932Z" fill="#BAD3D9"/>
<path opacity="0.2" d="M378.898 242.806C377.85 231.626 376.998 221.466 372.609 215.596C362.827 202.613 339.418 205.38 324.716 208.064C323.081 205.268 318.888 197.484 314.29 178.715C309.902 160.799 289.61 152.162 273.957 147.117C269.541 145.719 264.077 143.847 263.168 142.561C261.869 136.649 256.181 136.37 250.59 136.118C246.104 135.909 240.989 135.671 236.909 132.96C233.261 130.528 237.454 119.055 242.918 108L238.32 109.258C237.929 110.11 237.524 110.963 237.132 111.829C230.634 126.336 227.28 135.587 232.73 139.109C238.18 142.631 244.204 142.869 249.179 143.106C254.154 143.344 256.53 143.609 256.837 145.174C257.648 149.367 262.833 151.226 271.302 153.825C285.739 158.255 303.292 165.005 307.722 180.923C315.129 207.477 319.699 213.766 320.565 214.562L321.865 215.764L323.668 215.387C336.818 212.885 358.187 209.894 366.698 219.467C370.038 223.227 370.89 233.289 371.547 243.295C372.288 255.748 371.841 269.849 375.628 282.203L386.669 279.659C381.176 267.04 379.946 253.931 378.898 242.806Z" fill="white"/>
<g opacity="0.5">
<path opacity="0.5" d="M400.384 173.391L446.88 177.304C448.207 187.869 448.864 193.166 450.192 203.731L419.041 200.768L417.853 186.569L401.083 184.459C400.775 180.043 400.635 177.821 400.384 173.391Z" fill="white"/>
<path opacity="0.5" d="M398.595 188.554L414.219 190.678L415.407 206.051L399.503 204.821L398.595 188.554Z" fill="white"/>
</g>
<path opacity="0.5" d="M474.065 141.946C469.09 143.917 466.588 144.895 461.487 146.865L463.653 161.036C468.866 159.401 471.452 158.591 476.609 156.942C475.63 150.946 475.113 147.941 474.065 141.946Z" fill="white"/>
<path opacity="0.5" d="M241.178 230.914C231.395 233.974 226.434 235.497 216.442 238.544C214.807 247.321 213.982 251.723 212.333 260.499C222.507 257.956 227.552 256.698 237.559 254.155C238.998 244.861 239.725 240.207 241.178 230.914Z" fill="white"/>
<path d="M393.008 167.829C415.843 169.692 438.67 171.555 461.487 173.419H461.934C480.214 168.481 498.466 163.454 516.69 158.339L515.292 152.568C497.087 157.748 478.849 162.816 460.578 167.773L435.688 165.746C428.878 146.936 422.356 128.05 416.123 109.09L409.135 107.106C415.359 126.559 421.853 145.915 428.617 165.173L391.987 162.169C382.205 165.718 377.243 167.507 367.209 171.057H324.822C303.561 167.703 282.309 164.307 261.066 160.869C269.2 143.064 277.045 125.143 284.601 107.106L280.031 105.708C272.177 124.146 264.034 142.445 255.602 160.603C236.651 163.399 217.691 166.142 198.722 168.835C198.205 171.099 197.94 172.231 197.423 174.425C216.736 171.63 236.055 168.835 255.378 166.04C262.771 183.872 270.947 201.286 279.43 218.629L248.474 216.142C226.999 221.853 205.486 227.443 183.936 232.912C183.126 236.392 182.72 238.139 181.924 241.619C203.996 236.103 226.035 230.476 248.041 224.736L283.259 227.531C289.632 249.193 296.564 270.687 304.222 291.916L311.587 293.593C303.565 272.043 296.312 250.116 289.59 228.062L321.356 230.634C346.763 237.37 372.231 243.971 397.759 250.437C415.871 244.614 433.941 238.651 451.97 232.549C459.335 243.575 463.15 249.081 470.948 260.108C486.396 269.052 501.96 277.805 517.64 286.368L529.184 283.573C511.714 274.023 494.352 264.291 477.097 254.378C470.11 244.595 466.672 239.648 460.019 229.823L470.096 226.371C490.025 222.766 509.949 219.118 529.868 215.429C529.072 212.019 528.68 210.314 527.898 206.904C507.512 210.724 487.122 214.497 466.728 218.224C443.556 226.227 420.329 234.044 397.047 241.674C382.959 238.078 368.886 234.431 354.827 230.732C360.221 212.592 365.257 194.354 369.934 176.018C379.242 172.818 383.854 171.113 393.008 167.829ZM349.279 229.25C338.839 226.455 333.654 225.058 323.41 222.347L286.418 219.314C277.795 201.998 269.451 184.599 261.905 166.781C282.607 170.097 303.309 173.358 324.011 176.563H364.218C359.532 194.237 354.529 211.8 349.209 229.25H349.279Z" fill="white"/>
<path opacity="0.1" d="M238.649 288.548C210.456 294.716 182.24 300.772 154 306.716L202.914 108.168C224.641 102.261 246.331 96.2051 267.983 90L238.649 288.548Z" fill="black"/>
<path opacity="0.1" d="M399.001 288.548C371.982 294.744 344.963 300.8 317.944 306.716C321.205 240.566 324.466 174.383 327.727 108.168C348.224 102.233 368.721 96.1771 389.219 90C392.47 156.187 395.731 222.37 399.001 288.548Z" fill="black"/>
<path opacity="0.1" d="M559.312 288.548C533.514 294.716 507.687 300.772 481.833 306.716L452.484 108.168C471.826 102.233 491.126 96.1771 510.384 90L559.312 288.548Z" fill="black"/>
<path opacity="0.1" d="M478.871 158.242C478.871 159.793 474.986 161.037 470.206 161.037C465.427 161.037 461.556 159.793 461.556 158.242C461.556 156.691 465.427 155.447 470.206 155.447C474.986 155.447 478.871 156.705 478.871 158.242Z" fill="black"/>
<path d="M470.934 157.305C475.309 157.305 478.872 148.724 478.872 144.35C478.872 142.243 478.036 140.223 476.548 138.732C475.06 137.241 473.041 136.402 470.934 136.398H469.537C468.493 136.398 467.46 136.604 466.496 137.004C465.532 137.403 464.656 137.989 463.919 138.728C463.181 139.466 462.597 140.343 462.199 141.308C461.801 142.273 461.597 143.306 461.599 144.35C461.599 148.724 465.148 157.305 469.537 157.305H470.934ZM467.762 144.35C467.867 143.888 468.101 143.465 468.436 143.13C468.771 142.795 469.194 142.561 469.656 142.456C470.118 142.351 470.6 142.378 471.047 142.535C471.494 142.692 471.888 142.972 472.183 143.343C472.478 143.714 472.662 144.16 472.715 144.631C472.767 145.102 472.685 145.578 472.479 146.005C472.272 146.431 471.95 146.791 471.548 147.042C471.146 147.293 470.681 147.426 470.208 147.425C469.514 147.261 468.895 146.869 468.451 146.311C468.008 145.754 467.765 145.063 467.762 144.35Z" fill="#263238"/>
<path d="M469.494 136.398C468.45 136.398 467.417 136.604 466.453 137.004C465.489 137.403 464.613 137.989 463.876 138.728C463.138 139.466 462.554 140.343 462.156 141.308C461.758 142.273 461.554 143.306 461.556 144.35C461.556 148.724 465.105 157.305 469.494 157.305C473.882 157.305 477.432 148.724 477.432 144.35C477.434 143.306 477.23 142.273 476.831 141.308C476.433 140.343 475.849 139.466 475.112 138.728C474.374 137.989 473.499 137.403 472.535 137.004C471.571 136.604 470.537 136.398 469.494 136.398V136.398ZM469.494 147.508C468.866 147.508 468.252 147.322 467.73 146.973C467.208 146.624 466.801 146.127 466.561 145.547C466.322 144.966 466.26 144.328 466.383 143.712C466.507 143.096 466.81 142.531 467.255 142.088C467.701 141.645 468.267 141.344 468.883 141.223C469.5 141.102 470.138 141.167 470.717 141.409C471.297 141.651 471.791 142.06 472.138 142.584C472.485 143.107 472.669 143.722 472.666 144.35C472.666 144.766 472.584 145.178 472.424 145.562C472.265 145.946 472.031 146.295 471.736 146.588C471.441 146.882 471.091 147.114 470.707 147.272C470.322 147.43 469.91 147.51 469.494 147.508V147.508Z" fill="#FEDE8A"/>
<path opacity="0.1" d="M415.606 230.397C415.606 231.934 411.734 233.192 406.955 233.192C402.175 233.192 398.29 231.934 398.29 230.397C398.29 228.859 402.175 227.602 406.955 227.602C411.734 227.602 415.606 228.845 415.606 230.397Z" fill="black"/>
<path d="M407.667 229.446C412.055 229.446 415.605 220.879 415.605 216.491C415.605 214.386 414.769 212.367 413.28 210.878C411.791 209.39 409.772 208.553 407.667 208.553H406.269C405.226 208.551 404.192 208.755 403.227 209.153C402.263 209.552 401.386 210.136 400.647 210.873C399.909 211.611 399.323 212.486 398.923 213.45C398.523 214.414 398.317 215.448 398.317 216.491C398.317 220.879 401.881 229.446 406.269 229.446H407.667ZM404.508 216.491C404.614 216.029 404.847 215.606 405.183 215.271C405.518 214.936 405.94 214.703 406.402 214.597C406.865 214.492 407.347 214.52 407.794 214.677C408.241 214.833 408.635 215.113 408.93 215.484C409.225 215.855 409.409 216.302 409.461 216.773C409.514 217.244 409.432 217.72 409.225 218.146C409.019 218.573 408.696 218.932 408.294 219.183C407.893 219.435 407.428 219.567 406.954 219.566C406.258 219.407 405.637 219.016 405.192 218.457C404.748 217.899 404.506 217.205 404.508 216.491Z" fill="#263238"/>
<path d="M406.242 208.553C405.198 208.551 404.165 208.755 403.2 209.153C402.235 209.552 401.359 210.136 400.62 210.873C399.881 211.611 399.295 212.486 398.896 213.45C398.496 214.414 398.29 215.448 398.29 216.491C398.29 220.879 401.854 229.446 406.242 229.446C410.63 229.446 414.18 220.879 414.18 216.491C414.18 215.449 413.975 214.417 413.576 213.453C413.177 212.49 412.592 211.615 411.855 210.878C411.118 210.141 410.243 209.556 409.28 209.157C408.317 208.759 407.284 208.553 406.242 208.553V208.553ZM406.242 219.734C405.614 219.736 404.999 219.553 404.476 219.206C403.952 218.859 403.543 218.364 403.301 217.785C403.059 217.205 402.994 216.567 403.115 215.951C403.236 215.335 403.537 214.768 403.98 214.323C404.423 213.878 404.988 213.574 405.604 213.451C406.22 213.327 406.858 213.389 407.439 213.629C408.019 213.869 408.516 214.275 408.865 214.797C409.214 215.319 409.4 215.933 409.4 216.561C409.382 217.388 409.042 218.175 408.452 218.754C407.862 219.334 407.069 219.66 406.242 219.664V219.734Z" fill="#F44336"/>
<path opacity="0.1" d="M283.271 237.104C283.271 238.656 279.385 239.899 274.606 239.899C269.826 239.899 265.955 238.656 265.955 237.104C265.955 235.553 269.826 234.309 274.606 234.309C279.385 234.309 283.271 235.581 283.271 237.104Z" fill="black"/>
<path d="M275.335 236.182C279.709 236.182 283.273 227.601 283.273 223.227C283.273 221.121 282.437 219.1 280.948 217.609C279.46 216.118 277.441 215.279 275.335 215.275H273.937C272.893 215.275 271.86 215.481 270.896 215.881C269.932 216.281 269.056 216.866 268.319 217.605C267.582 218.344 266.997 219.22 266.599 220.185C266.201 221.15 265.997 222.184 265.999 223.227C265.999 227.601 269.549 236.182 273.937 236.182H275.335ZM272.162 223.227C272.267 222.765 272.501 222.342 272.836 222.007C273.171 221.672 273.594 221.439 274.056 221.333C274.518 221.228 275.001 221.256 275.448 221.412C275.895 221.569 276.289 221.849 276.584 222.22C276.879 222.591 277.063 223.038 277.115 223.509C277.167 223.979 277.086 224.456 276.879 224.882C276.673 225.309 276.35 225.668 275.948 225.919C275.546 226.17 275.082 226.303 274.608 226.302C273.914 226.138 273.295 225.746 272.852 225.189C272.408 224.631 272.165 223.94 272.162 223.227V223.227Z" fill="#263238"/>
<path d="M273.893 215.275C272.85 215.275 271.816 215.481 270.852 215.881C269.888 216.281 269.012 216.866 268.275 217.605C267.538 218.344 266.953 219.22 266.555 220.185C266.157 221.15 265.953 222.184 265.955 223.227C265.955 227.601 269.505 236.182 273.893 236.182C278.281 236.182 281.831 227.601 281.831 223.227C281.833 222.184 281.629 221.15 281.231 220.185C280.833 219.22 280.248 218.344 279.511 217.605C278.774 216.866 277.898 216.281 276.934 215.881C275.97 215.481 274.937 215.275 273.893 215.275V215.275ZM273.893 226.455C273.264 226.458 272.649 226.274 272.125 225.927C271.602 225.579 271.193 225.084 270.951 224.504C270.709 223.923 270.645 223.284 270.767 222.668C270.889 222.051 271.191 221.484 271.636 221.04C272.08 220.595 272.647 220.293 273.264 220.171C273.88 220.049 274.519 220.113 275.1 220.355C275.68 220.597 276.175 221.005 276.523 221.529C276.87 222.053 277.054 222.668 277.052 223.297C277.033 224.122 276.692 224.908 276.102 225.485C275.512 226.063 274.719 226.386 273.893 226.386V226.455Z" fill="#FEDE8A"/>
<path opacity="0.1" d="M254.846 156.369C254.846 157.92 250.975 159.164 246.195 159.164C241.415 159.164 237.53 157.92 237.53 156.369C237.53 154.818 241.415 153.574 246.195 153.574C250.975 153.574 254.846 154.832 254.846 156.369Z" fill="black"/>
<path d="M246.907 155.433C251.295 155.433 254.845 146.852 254.845 142.478C254.847 141.434 254.643 140.4 254.245 139.436C253.847 138.471 253.262 137.594 252.525 136.856C251.788 136.117 250.912 135.531 249.948 135.131C248.984 134.731 247.951 134.526 246.907 134.526H245.51C243.401 134.526 241.378 135.363 239.887 136.855C238.395 138.346 237.558 140.369 237.558 142.478C237.558 146.852 241.121 155.433 245.51 155.433H246.907ZM243.749 142.478C243.854 142.016 244.088 141.593 244.423 141.258C244.758 140.923 245.181 140.689 245.643 140.584C246.105 140.479 246.587 140.506 247.034 140.663C247.481 140.82 247.875 141.1 248.17 141.471C248.465 141.841 248.649 142.288 248.702 142.759C248.754 143.23 248.672 143.706 248.466 144.133C248.259 144.559 247.936 144.919 247.535 145.17C247.133 145.421 246.668 145.554 246.194 145.552C245.498 145.394 244.877 145.003 244.432 144.444C243.988 143.885 243.747 143.192 243.749 142.478V142.478Z" fill="#263238"/>
<path d="M245.482 134.526C243.373 134.526 241.351 135.363 239.859 136.855C238.368 138.346 237.53 140.369 237.53 142.478C237.53 146.852 241.094 155.433 245.482 155.433C249.871 155.433 253.42 146.852 253.42 142.478C253.42 140.371 252.584 138.351 251.096 136.86C249.608 135.369 247.589 134.529 245.482 134.526ZM245.482 145.706C244.854 145.709 244.238 145.525 243.715 145.177C243.191 144.83 242.782 144.334 242.54 143.754C242.298 143.174 242.234 142.535 242.356 141.918C242.478 141.301 242.781 140.735 243.225 140.29C243.67 139.846 244.236 139.543 244.853 139.421C245.47 139.299 246.109 139.363 246.689 139.605C247.269 139.847 247.764 140.256 248.112 140.78C248.459 141.304 248.643 141.919 248.641 142.547C248.619 143.372 248.277 144.155 247.687 144.732C247.098 145.308 246.307 145.633 245.482 145.636V145.706Z" fill="#FEDE8A"/>
<path opacity="0.1" d="M390.407 161.023C390.407 162.56 386.536 163.818 381.757 163.818C376.977 163.818 373.092 162.56 373.092 161.023C373.092 159.485 376.977 158.228 381.757 158.228C386.536 158.228 390.407 159.471 390.407 161.023Z" fill="black"/>
<path d="M382.47 160.072C386.858 160.072 390.408 151.506 390.408 147.117C390.41 146.074 390.206 145.04 389.807 144.075C389.409 143.111 388.825 142.234 388.088 141.495C387.35 140.757 386.475 140.171 385.511 139.771C384.547 139.371 383.513 139.165 382.47 139.165H381.072C378.963 139.165 376.94 140.003 375.449 141.494C373.958 142.986 373.12 145.008 373.12 147.117C373.12 151.506 376.684 160.072 381.072 160.072H382.47ZM379.311 147.117C379.417 146.655 379.65 146.232 379.985 145.897C380.32 145.562 380.743 145.329 381.205 145.224C381.667 145.118 382.15 145.146 382.597 145.303C383.044 145.459 383.438 145.739 383.733 146.11C384.028 146.481 384.212 146.928 384.264 147.399C384.316 147.87 384.235 148.346 384.028 148.772C383.822 149.199 383.499 149.558 383.097 149.809C382.695 150.061 382.231 150.193 381.757 150.192C381.061 150.033 380.439 149.642 379.995 149.084C379.55 148.525 379.309 147.831 379.311 147.117V147.117Z" fill="#393E41"/>
<path d="M381.044 139.165C378.935 139.165 376.912 140.003 375.421 141.494C373.93 142.986 373.092 145.008 373.092 147.117C373.092 151.506 376.656 160.072 381.044 160.072C385.432 160.072 388.982 151.506 388.982 147.117C388.982 145.011 388.146 142.99 386.658 141.499C385.169 140.008 383.15 139.169 381.044 139.165V139.165ZM381.044 150.346C380.415 150.348 379.8 150.164 379.276 149.817C378.752 149.469 378.343 148.974 378.102 148.394C377.86 147.813 377.796 147.174 377.918 146.558C378.04 145.941 378.342 145.374 378.787 144.93C379.231 144.485 379.798 144.183 380.414 144.061C381.031 143.939 381.67 144.003 382.25 144.245C382.831 144.487 383.326 144.896 383.673 145.419C384.021 145.943 384.205 146.559 384.202 147.187C384.18 148.011 383.838 148.795 383.249 149.372C382.659 149.948 381.868 150.272 381.044 150.276V150.346Z" fill="#FEDE8A"/>
<path d="M211.46 45.5458C214.833 48.5092 219.197 50.096 223.685 49.9911H499.557C502.069 49.9911 504.557 49.4959 506.879 48.5339C509.2 47.5718 511.308 46.1617 513.084 44.3842C514.86 42.6068 516.268 40.4967 517.228 38.1747C518.188 35.8527 518.681 33.3643 518.679 30.8517V22.6667C518.832 18.9513 517.746 15.2903 515.592 12.2591C512.945 9.09269 510.048 6.14326 506.93 3.43915C503.81 1.05657 499.951 -0.154582 496.029 0.0169951H220.157C215.081 0.0169951 210.213 2.03345 206.623 5.62279C203.034 9.21212 201.018 14.0803 201.018 19.1564V27.3413C200.855 30.8654 201.832 34.348 203.805 37.2727C206.166 40.2009 208.724 42.965 211.46 45.5458V45.5458Z" fill="#FEDE8A"/>
<path opacity="0.8" d="M496.011 0H220.157C209.587 0 201.018 8.56899 201.018 19.1394V27.3243C201.018 37.8947 209.587 46.4637 220.157 46.4637H496.011C506.582 46.4637 515.151 37.8947 515.151 27.3243V19.1394C515.151 8.56899 506.582 0 496.011 0Z" fill="white"/>
<path d="M462.374 40.5718C461.597 40.5718 460.852 40.2633 460.303 39.7142C459.754 39.165 459.445 38.4202 459.445 37.6436V8.81983C459.445 8.04322 459.754 7.29841 460.303 6.74926C460.852 6.2001 461.597 5.8916 462.374 5.8916V5.8916C462.758 5.8916 463.139 5.96734 463.494 6.1145C463.849 6.26165 464.172 6.47734 464.444 6.74926C464.716 7.02117 464.932 7.34398 465.079 7.69925C465.226 8.05452 465.302 8.43529 465.302 8.81983V37.6436C465.302 38.0281 465.226 38.4089 465.079 38.7642C464.932 39.1194 464.716 39.4422 464.444 39.7142C464.172 39.9861 463.849 40.2018 463.494 40.3489C463.139 40.4961 462.758 40.5718 462.374 40.5718V40.5718Z" fill="#FEDE8A"/>
<path d="M492.379 12.0833C490.956 10.6612 489.157 9.67418 487.193 9.23782C485.229 8.80145 483.182 8.93384 481.29 9.61949C479.399 10.3051 477.742 11.5156 476.514 13.1092C475.286 14.7027 474.538 16.6132 474.356 18.6168C474.175 20.6204 474.569 22.6342 475.491 24.4221C476.414 26.21 477.826 27.6981 479.564 28.7118C481.302 29.7256 483.292 30.2231 485.303 30.1461C487.313 30.069 489.26 29.4206 490.915 28.2768C490.998 28.643 491.181 28.9789 491.444 29.247L499.029 36.8322C499.234 37.0373 499.478 37.1999 499.745 37.3108C500.013 37.4218 500.3 37.4789 500.59 37.4789C500.88 37.4789 501.167 37.4218 501.435 37.3108C501.703 37.1999 501.946 37.0373 502.151 36.8322C502.356 36.6272 502.519 36.3839 502.63 36.116C502.741 35.8481 502.798 35.561 502.798 35.2711C502.798 34.9812 502.741 34.6941 502.63 34.4262C502.519 34.1584 502.356 33.915 502.151 33.71L494.566 26.1248C494.298 25.862 493.962 25.6788 493.596 25.5956C495.008 23.5574 495.66 21.0882 495.437 18.6188C495.215 16.1493 494.132 13.8363 492.379 12.0833ZM489.715 24.4313C488.761 25.3868 487.545 26.0377 486.22 26.3018C484.896 26.5658 483.523 26.431 482.275 25.9145C481.027 25.3981 479.96 24.5231 479.21 23.4003C478.459 22.2775 478.059 20.9573 478.059 19.6068C478.059 18.2563 478.459 16.9361 479.21 15.8133C479.96 14.6905 481.027 13.8155 482.275 13.299C483.523 12.7826 484.896 12.6478 486.22 12.9118C487.545 13.1758 488.761 13.8268 489.715 14.7822C490.983 16.0608 491.695 17.7885 491.695 19.5892C491.695 21.3898 490.983 23.1175 489.715 24.396V24.4313Z" fill="#FEDE8A"/>
<g opacity="0.3">
<path opacity="0.3" d="M462.374 40.5718C461.597 40.5718 460.852 40.2633 460.303 39.7142C459.754 39.165 459.445 38.4202 459.445 37.6436V8.81983C459.445 8.04322 459.754 7.29841 460.303 6.74926C460.852 6.2001 461.597 5.8916 462.374 5.8916V5.8916C462.758 5.8916 463.139 5.96734 463.494 6.1145C463.849 6.26165 464.172 6.47734 464.444 6.74926C464.716 7.02117 464.932 7.34398 465.079 7.69925C465.226 8.05452 465.302 8.43529 465.302 8.81983V37.6436C465.302 38.0281 465.226 38.4089 465.079 38.7642C464.932 39.1194 464.716 39.4422 464.444 39.7142C464.172 39.9861 463.849 40.2018 463.494 40.3489C463.139 40.4961 462.758 40.5718 462.374 40.5718V40.5718Z" fill="white"/>
<path opacity="0.3" d="M492.379 12.0833C490.956 10.6612 489.157 9.67418 487.193 9.23782C485.229 8.80145 483.182 8.93384 481.29 9.61949C479.399 10.3051 477.742 11.5156 476.514 13.1092C475.286 14.7027 474.538 16.6132 474.356 18.6168C474.175 20.6204 474.569 22.6342 475.491 24.4221C476.414 26.21 477.826 27.6981 479.564 28.7118C481.302 29.7256 483.292 30.2231 485.303 30.1461C487.313 30.069 489.26 29.4206 490.915 28.2768C490.998 28.643 491.181 28.9789 491.444 29.247L499.029 36.8322C499.234 37.0373 499.478 37.1999 499.745 37.3108C500.013 37.4218 500.3 37.4789 500.59 37.4789C500.88 37.4789 501.167 37.4218 501.435 37.3108C501.703 37.1999 501.946 37.0373 502.151 36.8322C502.356 36.6272 502.519 36.3839 502.63 36.116C502.741 35.8481 502.798 35.561 502.798 35.2711C502.798 34.9812 502.741 34.6941 502.63 34.4262C502.519 34.1584 502.356 33.915 502.151 33.71L494.566 26.1248C494.298 25.862 493.962 25.6788 493.596 25.5956C495.008 23.5574 495.66 21.0882 495.437 18.6188C495.215 16.1493 494.132 13.8363 492.379 12.0833ZM489.715 24.4313C488.761 25.3868 487.545 26.0377 486.22 26.3018C484.896 26.5658 483.523 26.431 482.275 25.9145C481.027 25.3981 479.96 24.5231 479.21 23.4003C478.459 22.2775 478.059 20.9573 478.059 19.6068C478.059 18.2563 478.459 16.9361 479.21 15.8133C479.96 14.6905 481.027 13.8155 482.275 13.299C483.523 12.7826 484.896 12.6478 486.22 12.9118C487.545 13.1758 488.761 13.8268 489.715 14.7822C490.983 16.0608 491.695 17.7885 491.695 19.5892C491.695 21.3898 490.983 23.1175 489.715 24.396V24.4313Z" fill="white"/>
</g>
<path d="M501.806 356.437C487.83 358.184 473.692 358.184 459.716 356.437C445.604 354.956 436.467 343.437 438.989 332.676C439.201 331.847 439.289 331.424 439.483 330.577C442.024 319.817 452.96 313.325 464.091 314.489C475.162 315.865 486.36 315.865 497.431 314.489C508.562 313.325 519.498 319.781 522.021 330.577C522.233 331.424 522.321 331.847 522.515 332.676C525.055 343.366 515.865 354.956 501.806 356.437Z" fill="#FEDE8A"/>
<path d="M485.63 351.286L484.042 389.988H490.392L491.98 351.286H485.63Z" fill="#263238"/>
<path d="M461.78 389.988H468.131L469.718 351.286H463.368L461.78 389.988Z" fill="#263238"/>
<g opacity="0.6">
<path opacity="0.6" d="M485.63 351.286L484.042 389.988H490.392L491.98 351.286H485.63Z" fill="white"/>
<path opacity="0.6" d="M461.78 389.988H468.131L469.718 351.286H463.368L461.78 389.988Z" fill="white"/>
</g>
<path d="M486.811 401.79H414.434L408.084 532.29H413.305L422.831 412.215H445.516L448.603 532.29H452.643L455.73 412.215H478.415L487.94 532.29H493.162L486.811 401.79Z" fill="#263238"/>
<path opacity="0.6" d="M486.811 401.79H414.434L408.084 532.29H413.305L422.831 412.215H445.516L448.603 532.29H452.643L455.73 412.215H478.415L487.94 532.29H493.162L486.811 401.79Z" fill="white"/>
<path opacity="0.2" d="M486.811 401.79H414.434L413.923 412.215H422.831H445.516H455.73H478.415H487.323L486.811 401.79Z" fill="black"/>
<path d="M498.701 356.437C484.719 358.184 470.575 358.184 456.594 356.437C442.482 354.956 433.362 343.437 435.885 332.676C436.079 331.847 436.184 331.424 436.379 330.577C438.901 319.817 449.838 313.325 460.969 314.489C472.039 315.865 483.238 315.865 494.308 314.489C505.457 313.325 516.393 319.781 518.916 330.577C519.11 331.424 519.216 331.847 519.41 332.676C521.932 343.366 512.813 354.956 498.701 356.437Z" fill="#FEDE8A"/>
<g opacity="0.5">
<path opacity="0.5" d="M498.701 356.437C484.719 358.184 470.575 358.184 456.594 356.437C442.482 354.956 433.362 343.437 435.885 332.676C436.079 331.847 436.184 331.424 436.379 330.577C438.901 319.817 449.838 313.325 460.969 314.489C472.039 315.865 483.238 315.865 494.308 314.489C505.457 313.325 516.393 319.781 518.916 330.577C519.11 331.424 519.216 331.847 519.41 332.676C521.932 343.366 512.813 354.956 498.701 356.437Z" fill="white"/>
</g>
<g opacity="0.7">
<path opacity="0.7" d="M496.937 334.881C496.937 335.422 496.777 335.951 496.476 336.4C496.176 336.85 495.749 337.2 495.249 337.407C494.75 337.614 494.2 337.668 493.67 337.563C493.139 337.457 492.652 337.197 492.27 336.815C491.887 336.432 491.627 335.945 491.521 335.415C491.416 334.884 491.47 334.334 491.677 333.835C491.884 333.335 492.234 332.908 492.684 332.608C493.134 332.307 493.662 332.147 494.203 332.147C494.928 332.147 495.624 332.435 496.136 332.948C496.649 333.461 496.937 334.156 496.937 334.881V334.881Z" fill="white"/>
<path opacity="0.7" d="M463.915 334.881C463.918 335.427 463.759 335.961 463.458 336.417C463.157 336.872 462.728 337.227 462.224 337.438C461.721 337.648 461.166 337.704 460.63 337.599C460.095 337.493 459.603 337.231 459.217 336.845C458.831 336.459 458.569 335.967 458.463 335.431C458.358 334.896 458.414 334.341 458.624 333.838C458.834 333.334 459.19 332.904 459.645 332.603C460.1 332.302 460.635 332.144 461.181 332.147C461.54 332.147 461.895 332.218 462.227 332.355C462.559 332.493 462.86 332.694 463.114 332.948C463.368 333.202 463.569 333.503 463.707 333.835C463.844 334.167 463.915 334.522 463.915 334.881V334.881Z" fill="white"/>
</g>
<path d="M496.214 404.118H405.032C403.89 404.12 402.758 403.897 401.702 403.461C400.646 403.025 399.686 402.384 398.878 401.576C398.07 400.768 397.429 399.809 396.993 398.752C396.557 397.696 396.334 396.564 396.336 395.422C396.336 393.115 397.252 390.903 398.883 389.272C400.514 387.641 402.726 386.725 405.032 386.725H496.214C498.52 386.725 500.732 387.641 502.363 389.272C503.994 390.903 504.91 393.115 504.91 395.422C504.912 396.564 504.689 397.696 504.253 398.752C503.817 399.809 503.176 400.768 502.368 401.576C501.56 402.384 500.601 403.025 499.544 403.461C498.488 403.897 497.356 404.12 496.214 404.118Z" fill="#FEDE8A"/>
<path opacity="0.5" d="M496.214 404.118H405.032C403.89 404.12 402.758 403.897 401.702 403.461C400.646 403.025 399.686 402.384 398.878 401.576C398.07 400.768 397.429 399.809 396.993 398.752C396.557 397.696 396.334 396.564 396.336 395.422C396.336 393.115 397.252 390.903 398.883 389.272C400.514 387.641 402.726 386.725 405.032 386.725H496.214C498.52 386.725 500.732 387.641 502.363 389.272C503.994 390.903 504.91 393.115 504.91 395.422C504.912 396.564 504.689 397.696 504.253 398.752C503.817 399.809 503.176 400.768 502.368 401.576C501.56 402.384 500.601 403.025 499.544 403.461C498.488 403.897 497.356 404.12 496.214 404.118Z" fill="white"/>
<path d="M382.965 218.792C382.965 218.792 361.179 201.911 380.672 185.276C380.672 185.276 402.316 160.792 415.775 178.661C418.121 181.766 428.335 178.52 429.887 191.009C431.334 202.405 439.272 196.301 438.478 209.126C437.808 220.027 446.028 217.416 445.887 224.208C445.71 233.028 424.719 228.706 414.54 234.263C403.163 240.489 393.267 251.197 390.832 239.555C389.378 232.246 386.72 225.229 382.965 218.792V218.792Z" fill="#263238"/>
<path d="M405.209 279.65C405.209 279.65 404.521 307.663 394.537 314.225C384.553 320.787 358.075 277.851 358.075 277.851L356.487 256.03L367.6 252.185L372.099 268.713L368.13 276.793C368.13 276.793 383.829 298.225 385.893 295.844C387.957 293.462 389.421 274.817 389.421 274.817L405.209 279.65Z" fill="#F4D3B4"/>
<path d="M395.877 247.422C386.863 253.296 388.045 267.002 385.293 283.249L406.973 286.054C406.973 286.054 411.947 236.961 395.877 247.422Z" fill="black"/>
<path opacity="0.1" d="M394.448 255.36C394.448 255.36 387.762 268.325 394.448 292.527C396.238 298.388 397.42 304.418 397.976 310.52C402.315 304.011 404.026 292.739 404.697 285.824L406.867 286.107C406.867 286.107 408.719 268.131 406.62 256.26L400.199 252.467L394.448 255.36Z" fill="black"/>
<path d="M326.605 402.054L335.373 497.892L347.156 499.268L353.224 403.695L326.605 402.054Z" fill="#F4D3B4"/>
<path opacity="0.1" d="M326.605 402.054L335.373 497.892L347.156 499.268L353.224 403.695L326.605 402.054Z" fill="black"/>
<path d="M335.319 496.499L346.644 492.83C346.884 492.752 347.142 492.757 347.379 492.843C347.615 492.93 347.816 493.092 347.949 493.306L353.788 503.184C353.923 503.389 354.013 503.619 354.054 503.86C354.095 504.101 354.085 504.348 354.026 504.585C353.966 504.823 353.858 505.045 353.707 505.238C353.557 505.431 353.368 505.591 353.153 505.707C353.044 505.778 352.925 505.831 352.8 505.866C348.073 507.33 343.786 508.441 337.93 510.364C330.997 512.64 333.026 512.886 324.929 515.656C320.043 517.332 317.326 512.128 319.302 511.087C328.44 506.783 330.239 502.973 332.797 498.369C333.375 497.452 334.274 496.785 335.319 496.499Z" fill="#263238"/>
<path d="M357.105 409.41L344.492 513.61L353.771 515.991C366.59 484.745 376.372 452.338 382.983 419.218L357.105 409.41Z" fill="#F4D3B4"/>
<path d="M344.439 511.863L355.835 515.391C356.077 515.466 356.286 515.619 356.43 515.827C356.574 516.035 356.644 516.285 356.629 516.538L355.817 527.88C355.819 528.129 355.768 528.376 355.667 528.603C355.567 528.831 355.419 529.035 355.234 529.202C355.049 529.368 354.831 529.494 354.594 529.57C354.357 529.646 354.107 529.672 353.859 529.644C353.73 529.661 353.6 529.661 353.471 529.644C348.744 528.127 344.651 526.61 338.689 524.846C331.633 522.765 333.22 524.123 324.983 521.777C320.026 520.366 320.802 514.474 322.972 514.827C332.938 516.502 336.572 514.386 341.3 512.057C342.289 511.62 343.403 511.551 344.439 511.863V511.863Z" fill="#263238"/>
<path d="M469.278 330.207C469.632 332.764 470.363 335.255 471.448 337.598C479.315 355.89 490.851 401.102 391.291 391.276L384.976 425.092L324.242 407.276C324.242 407.276 321.807 360.3 332.144 351.216C344.881 340.032 412.301 340.473 412.301 340.473L411.948 332.376L469.278 330.207Z" fill="#263238"/>
<path opacity="0.1" d="M356.682 361.588C344.651 370.232 342.922 393.552 343.84 413.026L353.101 415.743C352.942 407.311 353.101 385.878 358.393 375.171C365.114 361.553 384.306 348.023 408.755 344.989C408.737 344.901 378.749 345.712 356.682 361.588Z" fill="black"/>
<path d="M431.81 334.14C442.129 334.528 474.551 337.351 472.77 328.848C469.856 315.904 467.852 302.771 466.772 289.546C465.096 265.909 466.543 242.271 458.799 234.492C450.72 226.395 402.051 236.909 395.877 248.957C388.645 263.069 395.877 278.945 401.663 300.712C405.103 313.731 407.361 325.849 409.513 332.464C411.241 337.862 426.235 333.946 431.81 334.14Z" fill="#263238"/>
<path opacity="0.1" d="M471.447 337.598C470.363 335.255 469.632 332.764 469.277 330.207L411.947 332.376L412.282 340.085C415.281 340.896 420.397 341.479 428.441 340.085C441.829 337.668 457.317 344.054 472.153 339.326L471.447 337.598Z" fill="black"/>
<path opacity="0.6" d="M435.197 321.051C435.197 321.051 459.488 317.382 469.613 312.584C468.502 305.934 467.39 297.925 466.808 289.652C465.52 271.642 466.05 253.631 462.945 242.642L446.116 246.011C446.116 246.011 444.793 257.794 461.463 297.484L456.365 309.338L435.197 321.051Z" fill="black"/>
<path opacity="0.1" d="M452.378 388.013C414.752 389.953 392.967 380.322 392.967 380.322L391.291 391.276C419.956 394.081 439.395 392.352 452.378 388.013Z" fill="black"/>
<path d="M455.43 267.92C455.43 267.92 464.744 289.37 463.156 292.527C461.569 295.685 434.191 313.96 434.191 313.96C434.191 313.96 417.874 302.847 413.535 307.61C410.67 310.823 408.085 314.275 405.809 317.929L409.337 319.517L418.245 316.712C418.245 316.712 430.064 324.174 435.214 321.051C435.214 321.051 477.55 306.41 478.609 295.314C479.667 284.219 469.648 260.034 469.648 260.034L455.43 267.92Z" fill="#F4D3B4"/>
<path d="M452.837 232.234C448.374 232.428 435.514 237.843 455.941 272.806L474.41 263.88C474.41 263.88 465.185 231.616 452.837 232.234Z" fill="#0A0A0A"/>
<path d="M413.305 214.082C415.951 221.879 420.467 232.516 428.07 234.386C428.07 234.386 431.916 242.112 416.498 261.216C403.462 255.078 406.214 241.424 406.214 241.424C408.966 239.66 410.307 237.367 406.444 233.239L413.305 214.082Z" fill="#F4D3B4"/>
<path opacity="0.1" d="M410.289 222.479L406.443 233.24C407.624 234.329 408.448 235.749 408.807 237.314C416.287 234.615 415.863 220.909 415.863 220.909L410.289 222.479Z" fill="black"/>
<path d="M415.563 196.795C419.091 210.096 420.75 215.635 416.34 224.472C409.707 237.773 392.596 239.078 385.24 227.083C378.643 216.27 374.092 196.248 385.24 186.987C387.672 184.911 390.595 183.491 393.73 182.865C396.866 182.239 400.11 182.427 403.152 183.41C406.195 184.394 408.935 186.14 411.11 188.484C413.286 190.827 414.825 193.688 415.581 196.795H415.563Z" fill="#F4D3B4"/>
<path d="M394.942 209.302C395.383 210.343 395.189 211.401 394.519 211.701C393.848 212.001 392.949 211.366 392.508 210.343C392.067 209.32 392.278 208.244 392.931 207.961C393.584 207.679 394.483 208.42 394.942 209.302Z" fill="#263238"/>
<path d="M383.353 214.329C383.777 215.37 383.583 216.429 382.93 216.711C382.277 216.993 381.343 216.393 380.902 215.37C380.461 214.347 380.672 213.271 381.343 212.989C382.013 212.706 382.912 213.306 383.353 214.329Z" fill="#263238"/>
<path d="M381.659 212.918L378.89 213.253C378.89 213.253 380.971 214.594 381.659 212.918Z" fill="#263238"/>
<path d="M387.728 214.594C387.801 217.333 387.498 220.069 386.828 222.726C387.513 222.872 388.222 222.871 388.906 222.722C389.59 222.573 390.235 222.28 390.797 221.861L387.728 214.594Z" fill="#FF5652"/>
<path d="M398.153 223.573C397.69 223.871 397.2 224.124 396.689 224.331C396.651 224.349 396.609 224.359 396.567 224.36C396.525 224.362 396.483 224.355 396.444 224.34C396.405 224.325 396.369 224.303 396.338 224.274C396.307 224.245 396.283 224.211 396.265 224.172C396.249 224.132 396.24 224.088 396.241 224.045C396.242 224.001 396.252 223.958 396.27 223.918C396.288 223.879 396.315 223.843 396.347 223.814C396.38 223.785 396.418 223.763 396.46 223.749C397.752 223.237 398.905 222.427 399.824 221.385C400.744 220.342 401.404 219.097 401.752 217.751C401.769 217.665 401.819 217.589 401.891 217.54C401.964 217.49 402.053 217.471 402.14 217.487C402.182 217.493 402.222 217.508 402.258 217.53C402.294 217.552 402.326 217.582 402.35 217.616C402.375 217.651 402.392 217.69 402.402 217.731C402.411 217.773 402.412 217.815 402.404 217.857C402.114 219.046 401.589 220.164 400.858 221.146C400.128 222.128 399.208 222.953 398.153 223.573V223.573Z" fill="#263238"/>
<path d="M398.629 205.068C398.515 205.149 398.38 205.192 398.241 205.192C398.102 205.192 397.966 205.149 397.852 205.068C396.956 204.489 395.949 204.102 394.896 203.932C393.842 203.762 392.764 203.812 391.731 204.08C391.563 204.124 391.384 204.101 391.233 204.015C391.082 203.93 390.969 203.789 390.92 203.622C390.896 203.541 390.888 203.456 390.897 203.372C390.906 203.287 390.932 203.206 390.973 203.132C391.015 203.058 391.07 202.993 391.137 202.941C391.203 202.889 391.279 202.85 391.361 202.828V202.828C392.601 202.5 393.897 202.444 395.16 202.663C396.423 202.883 397.625 203.372 398.682 204.098C398.741 204.157 398.788 204.227 398.82 204.304C398.852 204.382 398.868 204.464 398.868 204.548C398.868 204.631 398.852 204.714 398.82 204.791C398.788 204.869 398.741 204.939 398.682 204.998V204.998C398.667 205.024 398.649 205.047 398.629 205.068V205.068Z" fill="#263238"/>
<path d="M377.584 210.449C377.483 210.509 377.367 210.541 377.249 210.541C377.131 210.541 377.015 210.509 376.914 210.449C376.837 210.41 376.769 210.356 376.714 210.29C376.658 210.223 376.617 210.147 376.592 210.064C376.567 209.982 376.56 209.895 376.57 209.81C376.579 209.724 376.606 209.641 376.649 209.567C377.107 208.623 377.792 207.807 378.641 207.192C379.49 206.576 380.479 206.18 381.518 206.039C381.6 206.026 381.685 206.031 381.765 206.052C381.846 206.073 381.922 206.11 381.988 206.161C382.054 206.212 382.108 206.276 382.149 206.349C382.19 206.422 382.215 206.502 382.224 206.585C382.238 206.756 382.186 206.925 382.077 207.057C381.968 207.189 381.812 207.273 381.641 207.291V207.291C380.832 207.443 380.069 207.783 379.414 208.282C378.758 208.781 378.228 209.426 377.866 210.166C377.801 210.285 377.703 210.383 377.584 210.449Z" fill="#263238"/>
<path d="M393.319 208.067L390.55 208.385C390.55 208.385 392.578 209.725 393.319 208.067Z" fill="#263238"/>
<path d="M422.39 205.668C422.325 208.271 421.235 210.744 419.356 212.548C416.834 214.911 414.064 213.041 413.323 209.813C412.759 206.903 413.323 202.175 416.534 200.993C417.242 200.751 418 200.692 418.737 200.821C419.474 200.95 420.167 201.263 420.751 201.731C421.335 202.199 421.792 202.806 422.078 203.498C422.365 204.189 422.472 204.942 422.39 205.686V205.668Z" fill="#F4D3B4"/>
<path d="M384.164 190.392C384.264 192.614 385.125 194.735 386.602 196.399C388.079 198.062 390.083 199.168 392.278 199.529C400.305 201.117 400.269 209.69 405.967 209.902C411.665 210.113 409.936 216.587 414.452 215.405C418.968 214.223 416.533 207.679 418.968 205.174C422.408 201.646 415.775 186.299 407.713 183.124C399.652 179.949 382.576 180.072 384.164 190.392Z" fill="#263238"/>
<path d="M385.241 188.681C385.241 188.681 378.908 194.185 380.266 200.747C381.625 207.309 376.897 208.385 378.502 214.665C380.107 220.944 384.764 221.721 385.258 227.013C385.752 232.305 390.833 233.592 388.786 236.503C386.74 239.413 383.089 232.798 382.824 227.683C382.559 222.567 376.333 222.285 375.539 215.529C374.745 208.773 378.326 205.598 377.303 199.653C376.28 193.708 375.539 185.223 386.846 185.753C398.153 186.282 385.241 188.681 385.241 188.681Z" fill="#263238"/>
<path d="M384.87 184.147C384.87 184.147 377.62 197.077 384.87 202.334C392.12 207.591 381.765 195.684 384.87 184.147Z" fill="#263238"/>
<path d="M382.77 185.559C382.77 185.559 369.17 186.776 368.817 196.972C368.464 207.168 371.498 189.492 382.77 185.559Z" fill="#263238"/>
<path d="M362.873 256.524C362.837 257.562 363.007 258.597 363.372 259.569C363.737 260.542 364.29 261.432 364.999 262.191C365.708 262.95 366.56 263.561 367.506 263.99C368.452 264.419 369.473 264.657 370.511 264.691H370.917C371.675 268.219 374.797 268.555 378.519 268.555H380.125C384.429 268.555 387.904 267.337 387.904 263.033V249.345C387.904 248.758 387.672 248.196 387.259 247.779C386.846 247.363 386.285 247.127 385.699 247.122H372.945C372.359 247.127 371.798 247.363 371.385 247.779C370.972 248.196 370.74 248.758 370.74 249.345V250.227H370.511C365.836 250.191 362.873 252.52 362.873 256.524ZM365.695 256.842C365.695 254.231 367.583 252.714 370.67 252.714V262.222C369.317 262.167 368.041 261.58 367.12 260.589C366.198 259.598 365.705 258.283 365.748 256.93L365.695 256.842Z" fill="#FEDE8A"/>
<path opacity="0.2" d="M362.873 256.524C362.837 257.562 363.007 258.597 363.372 259.569C363.737 260.542 364.29 261.432 364.999 262.191C365.708 262.95 366.56 263.561 367.506 263.99C368.452 264.419 369.473 264.657 370.511 264.691H370.917C371.675 268.219 374.797 268.555 378.519 268.555H380.125C384.429 268.555 387.904 267.337 387.904 263.033V249.345C387.904 248.758 387.672 248.196 387.259 247.779C386.846 247.363 386.285 247.127 385.699 247.122H372.945C372.359 247.127 371.798 247.363 371.385 247.779C370.972 248.196 370.74 248.758 370.74 249.345V250.227H370.511C365.836 250.191 362.873 252.52 362.873 256.524ZM365.695 256.842C365.695 254.231 367.583 252.714 370.67 252.714V262.222C369.317 262.167 368.041 261.58 367.12 260.589C366.198 259.598 365.705 258.283 365.748 256.93L365.695 256.842Z" fill="black"/>
<path opacity="0.1" d="M370.722 262.222V263.069C370.727 263.626 370.786 264.181 370.899 264.727H370.493C369.837 264.729 369.184 264.64 368.553 264.462V261.746C369.231 262.064 369.973 262.227 370.722 262.222Z" fill="black"/>
<path opacity="0.1" d="M370.564 250.191H370.794V252.696C370.084 252.693 369.378 252.788 368.694 252.979V250.333C369.313 250.234 369.938 250.187 370.564 250.191V250.191Z" fill="black"/>
<path opacity="0.1" d="M370.722 262.222V263.069C370.727 263.626 370.786 264.181 370.899 264.727H370.493C369.837 264.729 369.184 264.64 368.553 264.462V261.746C369.231 262.064 369.973 262.227 370.722 262.222Z" fill="black"/>
<path opacity="0.1" d="M370.564 250.191H370.794V252.696C370.084 252.693 369.378 252.788 368.694 252.979V250.333C369.313 250.234 369.938 250.187 370.564 250.191V250.191Z" fill="black"/>
<path d="M357.987 277.851L356.399 256.03L367.513 252.185L372.011 268.731L368.042 276.793L357.987 277.851Z" fill="#F4D3B4"/>
<path d="M262.678 281.432C262.678 281.432 252.605 292.915 249.324 279.509C246.043 266.102 242.921 254.425 242.921 254.425C242.921 254.425 297.393 270.089 262.678 281.432Z" fill="#335626"/>
<path d="M264.088 298.772C264.088 298.772 267.616 271.8 252.816 262.857C252.816 262.857 265.535 274.711 261.636 298.437L264.088 298.772Z" fill="#FEDE8A"/>
<path opacity="0.5" d="M264.088 298.772C264.088 298.772 267.616 271.8 252.816 262.857C252.816 262.857 265.535 274.711 261.636 298.437L264.088 298.772Z" fill="#234F27"/>
<path d="M270.316 282.808C270.316 282.808 258.673 271.5 271.974 265.168C285.274 258.835 299.563 271.042 299.563 271.042C299.563 271.042 271.233 302.653 270.316 282.808Z" fill="#336A1F"/>
<path d="M265.623 297.501C265.623 297.501 265.852 271.906 285.256 271.042C285.256 271.042 268.975 274.428 267.387 297.501H265.623Z" fill="#FEDE8A"/>
<path opacity="0.5" d="M265.623 297.501C265.623 297.501 265.852 271.906 285.256 271.042C285.256 271.042 268.975 274.428 267.387 297.501H265.623Z" fill="#456D33"/>
<path d="M255.075 286.212C255.075 286.212 263.665 275.628 252.146 273.088C240.628 270.548 230.696 286.212 230.696 286.212C230.696 286.212 259.591 298.366 255.075 286.212Z" fill="#2E4313"/>
<path d="M261.054 297.502C261.054 297.502 256.291 269.913 237.046 282.614C237.046 282.614 253.716 274.482 258.672 297.502H261.054Z" fill="#FEDE8A"/>
<path opacity="0.5" d="M261.054 297.502C261.054 297.502 256.291 269.913 237.046 282.614C237.046 282.614 253.716 274.482 258.672 297.502H261.054Z" fill="#101A04"/>
<path d="M280.105 295.667H247.595L248.406 302.264H250.523L253.151 323.856H274.549L277.195 302.264H279.294L280.105 295.667Z" fill="#263238"/>
<path opacity="0.4" d="M276.631 306.886L277.16 302.547H250.559L251.088 306.886H276.631Z" fill="black"/>
<path d="M493.285 339.573H487.94H413.288H407.943L390.479 532.29H395.824H397.871H403.216L424.137 349.892H477.092L498.013 532.29H503.358H505.404H510.749L493.285 339.573Z" fill="#263238"/>
<path opacity="0.2" d="M493.285 339.573H487.94H413.288H407.943L390.479 532.29H395.824H397.871H403.216L424.137 349.892H477.092L498.013 532.29H503.358H505.404H510.749L493.285 339.573Z" fill="white"/>
<path opacity="0.1" d="M424.136 349.892H482.419L503.358 532.29H510.749L493.285 339.573H413.288L395.824 532.29H403.215L424.136 349.892Z" fill="white"/>
<path d="M291.219 339.573H285.874H211.222H205.877L188.413 532.29H193.758H195.804H201.149L222.07 349.892H275.025L295.947 532.29H301.291H303.338H308.683L291.219 339.573Z" fill="#263238"/>
<path opacity="0.2" d="M291.219 339.573H285.874H211.222H205.877L188.413 532.29H193.758H195.804H201.149L222.07 349.892H275.025L295.947 532.29H301.291H303.338H308.683L291.219 339.573Z" fill="white"/>
<path opacity="0.1" d="M222.07 349.892H280.353L301.291 532.29H308.682L291.219 339.573H211.221L193.758 532.29H201.149L222.07 349.892Z" fill="white"/>
<path d="M516.093 324.509H182.062V332.358H516.093V324.509Z" fill="#FEDE8A"/>
<path opacity="0.5" d="M516.093 324.509H182.062V332.358H516.093V324.509Z" fill="white"/>
<path opacity="0.2" d="M516.094 324.509H394.219V332.358H516.094V324.509Z" fill="black"/>
<path d="M509.743 331.935H188.413V339.785H509.743V331.935Z" fill="#FEDE8A"/>
<path opacity="0.2" d="M509.743 331.935H188.413V339.785H509.743V331.935Z" fill="white"/>
<path opacity="0.2" d="M509.743 331.935H394.219V339.785H509.743V331.935Z" fill="black"/>
<path d="M418.103 319.569H316.814C316.159 319.569 315.531 319.829 315.068 320.293C314.605 320.756 314.345 321.384 314.345 322.039C314.345 322.694 314.605 323.322 315.068 323.785C315.531 324.248 316.159 324.509 316.814 324.509H418.103C418.758 324.509 419.386 324.248 419.849 323.785C420.313 323.322 420.573 322.694 420.573 322.039C420.573 321.384 420.313 320.756 419.849 320.293C419.386 319.829 418.758 319.569 418.103 319.569V319.569Z" fill="#1A2E35"/>
<path opacity="0.3" d="M418.103 319.569H316.814C316.159 319.569 315.531 319.829 315.068 320.293C314.605 320.756 314.345 321.384 314.345 322.039C314.345 322.694 314.605 323.322 315.068 323.785C315.531 324.248 316.159 324.509 316.814 324.509H418.103C418.758 324.509 419.386 324.248 419.849 323.785C420.313 323.322 420.573 322.694 420.573 322.039C420.573 321.384 420.313 320.756 419.849 320.293C419.386 319.829 418.758 319.569 418.103 319.569V319.569Z" fill="white"/>
<path d="M318.155 322.991H360.103C360.289 322.991 360.472 322.946 360.637 322.86C360.802 322.774 360.944 322.65 361.051 322.498C361.158 322.346 361.227 322.17 361.253 321.986C361.278 321.802 361.259 321.614 361.197 321.439L344.298 273.159C344.071 272.508 343.646 271.944 343.083 271.545C342.52 271.147 341.848 270.934 341.158 270.936H299.228C299.04 270.934 298.855 270.977 298.688 271.061C298.521 271.146 298.376 271.27 298.267 271.422C298.158 271.575 298.088 271.751 298.061 271.937C298.035 272.122 298.054 272.312 298.116 272.488L315.033 320.769C315.255 321.42 315.676 321.985 316.236 322.383C316.796 322.782 317.468 322.995 318.155 322.991V322.991Z" fill="#1A2E35"/>
<path opacity="0.5" d="M318.155 322.991H360.103C360.289 322.991 360.472 322.946 360.637 322.86C360.802 322.774 360.944 322.65 361.051 322.498C361.158 322.346 361.227 322.17 361.253 321.986C361.278 321.802 361.259 321.614 361.197 321.439L344.298 273.159C344.071 272.508 343.646 271.944 343.083 271.545C342.52 271.147 341.848 270.934 341.158 270.936H299.228C299.04 270.934 298.855 270.977 298.688 271.061C298.521 271.146 298.376 271.27 298.267 271.422C298.158 271.575 298.088 271.751 298.061 271.937C298.035 272.122 298.054 272.312 298.116 272.488L315.033 320.769C315.255 321.42 315.676 321.985 316.236 322.383C316.796 322.782 317.468 322.995 318.155 322.991V322.991Z" fill="white"/>
<path d="M316.673 322.991H358.603C358.791 322.994 358.976 322.951 359.143 322.866C359.31 322.781 359.455 322.657 359.564 322.505C359.673 322.353 359.743 322.176 359.77 321.991C359.796 321.805 359.777 321.616 359.715 321.439L342.798 273.158C342.576 272.508 342.155 271.943 341.595 271.544C341.035 271.145 340.363 270.932 339.676 270.936H297.728C297.542 270.936 297.359 270.982 297.194 271.068C297.029 271.153 296.887 271.278 296.78 271.43C296.673 271.582 296.604 271.757 296.578 271.941C296.553 272.125 296.572 272.313 296.634 272.488L313.48 320.769C313.71 321.428 314.143 321.998 314.716 322.397C315.29 322.797 315.975 323.004 316.673 322.991V322.991Z" fill="#1A2E35"/>
<path opacity="0.7" d="M316.673 322.991H358.603C358.791 322.994 358.976 322.951 359.143 322.866C359.31 322.781 359.455 322.657 359.564 322.505C359.673 322.353 359.743 322.176 359.77 321.991C359.796 321.805 359.777 321.616 359.715 321.439L342.798 273.158C342.576 272.508 342.155 271.943 341.595 271.544C341.035 271.145 340.363 270.932 339.676 270.936H297.728C297.542 270.936 297.359 270.982 297.194 271.068C297.029 271.153 296.887 271.278 296.78 271.43C296.673 271.582 296.604 271.757 296.578 271.941C296.553 272.125 296.572 272.313 296.634 272.488L313.48 320.769C313.71 321.428 314.143 321.998 314.716 322.397C315.29 322.797 315.975 323.004 316.673 322.991V322.991Z" fill="white"/>
<path d="M330.98 296.955C331.527 299.248 330.698 301.1 329.216 301.1C327.734 301.1 325.97 299.248 325.423 296.955C324.877 294.662 325.723 292.827 327.276 292.827C328.828 292.827 330.451 294.679 330.98 296.955Z" fill="white"/>
<path opacity="0.2" d="M364.055 324.509C363.4 324.509 362.771 324.248 362.308 323.785C361.845 323.322 361.585 322.694 361.585 322.039C361.585 321.384 361.845 320.756 362.308 320.293C362.771 319.829 363.4 319.569 364.055 319.569H418.104C418.759 319.569 419.387 319.829 419.85 320.293C420.313 320.756 420.573 321.384 420.573 322.039C420.573 322.694 420.313 323.322 419.85 323.785C419.387 324.248 418.759 324.509 418.104 324.509H364.055Z" fill="white"/>
<path d="M266.544 25.136C264.72 25.136 263.12 24.92 261.744 24.488C260.368 24.04 259.304 23.408 258.552 22.592C257.8 21.76 257.424 20.784 257.424 19.664C257.424 18.544 257.8 17.576 258.552 16.76C259.304 15.928 260.368 15.296 261.744 14.864C263.12 14.416 264.72 14.192 266.544 14.192C268.368 14.192 269.968 14.416 271.344 14.864C272.72 15.296 273.784 15.928 274.536 16.76C275.288 17.576 275.664 18.544 275.664 19.664C275.664 20.784 275.288 21.76 274.536 22.592C273.784 23.408 272.72 24.04 271.344 24.488C269.968 24.92 268.368 25.136 266.544 25.136ZM266.544 16.328C264.56 16.328 262.952 16.624 261.72 17.216C260.504 17.808 259.896 18.624 259.896 19.664C259.896 20.704 260.504 21.52 261.72 22.112C262.952 22.704 264.56 23 266.544 23C268.528 23 270.128 22.704 271.344 22.112C272.576 21.52 273.192 20.704 273.192 19.664C273.192 18.624 272.576 17.808 271.344 17.216C270.128 16.624 268.528 16.328 266.544 16.328ZM276.792 29.24H267.744V34.976H265.32V29.24H256.32V27.032H276.792V29.24ZM296.158 14H298.534V34.496H296.158V14ZM280.582 22.76H289.75V16.928H280.534V14.744H292.126V24.944H282.958V31.088H288.958C289.934 31.088 290.902 31 291.862 30.824C292.838 30.648 293.638 30.408 294.262 30.104V32.288C293.654 32.592 292.862 32.832 291.886 33.008C290.91 33.184 289.91 33.272 288.886 33.272H280.582V22.76ZM329.69 23.432V25.352H309.218V23.432H318.266V21.32H310.682V14.24H328.226V16.16H313.058V19.4H328.466V21.32H320.618V23.432H329.69ZM319.442 27.056C322.146 27.056 324.322 27.352 325.97 27.944C327.634 28.536 328.466 29.488 328.466 30.8C328.466 32.112 327.634 33.064 325.97 33.656C324.306 34.264 322.13 34.568 319.442 34.568C316.754 34.568 314.578 34.264 312.914 33.656C311.25 33.064 310.418 32.112 310.418 30.8C310.418 29.488 311.242 28.536 312.89 27.944C314.554 27.352 316.738 27.056 319.442 27.056ZM319.442 32.696C321.314 32.696 322.866 32.544 324.098 32.24C325.346 31.936 325.97 31.456 325.97 30.8C325.97 30.16 325.346 29.688 324.098 29.384C322.866 29.08 321.314 28.928 319.442 28.928C317.57 28.928 316.01 29.08 314.762 29.384C313.53 29.688 312.914 30.16 312.914 30.8C312.914 31.456 313.53 31.936 314.762 32.24C316.01 32.544 317.57 32.696 319.442 32.696ZM352.008 14V34.496H349.752V14H352.008ZM344.808 14.12H347.04V34.136H344.808V23.744H339.408V21.536H344.808V14.12ZM338.136 31.16C339.016 31.16 339.872 31.096 340.704 30.968C341.552 30.824 342.288 30.624 342.912 30.368V32.456C342.32 32.728 341.568 32.928 340.656 33.056C339.76 33.2 338.832 33.272 337.872 33.272H332.928V14.696H335.256V31.16H338.136ZM379.037 20.24V17.648H375.557L375.413 15.68H379.037V14H381.413V24.032H379.037V22.208H375.413L375.557 20.24H379.037ZM374.933 18.992C374.933 19.92 374.669 20.744 374.141 21.464C373.629 22.184 372.901 22.752 371.957 23.168C371.013 23.568 369.925 23.768 368.693 23.768C367.461 23.768 366.373 23.568 365.429 23.168C364.485 22.752 363.749 22.184 363.221 21.464C362.693 20.744 362.429 19.92 362.429 18.992C362.429 18.064 362.693 17.24 363.221 16.52C363.749 15.8 364.485 15.24 365.429 14.84C366.373 14.424 367.461 14.216 368.693 14.216C369.925 14.216 371.013 14.424 371.957 14.84C372.901 15.24 373.629 15.8 374.141 16.52C374.669 17.24 374.933 18.064 374.933 18.992ZM364.781 18.992C364.781 19.856 365.141 20.552 365.861 21.08C366.597 21.592 367.541 21.848 368.693 21.848C369.845 21.848 370.781 21.592 371.501 21.08C372.221 20.552 372.581 19.856 372.581 18.992C372.581 18.128 372.221 17.44 371.501 16.928C370.781 16.4 369.845 16.136 368.693 16.136C367.541 16.136 366.597 16.4 365.861 16.928C365.141 17.44 364.781 18.128 364.781 18.992ZM381.917 32.36V34.232H364.205V28.808H379.061V27.032H364.157V25.16H381.413V30.584H366.557V32.36H381.917ZM401.955 14H404.331V29.288H401.955V14ZM386.139 19.472H395.907V16.52H386.091V14.504H398.259V21.416H388.491V24.44H393.891C395.283 24.44 396.539 24.36 397.659 24.2C398.795 24.04 399.691 23.816 400.347 23.528V25.544C399.707 25.832 398.811 26.056 397.659 26.216C396.507 26.376 395.219 26.456 393.795 26.456H386.139V19.472ZM386.955 28.328H389.355V32.12H404.883V34.232H386.955V28.328ZM427.417 14V24.656H425.041V14H427.417ZM415.657 20.624C414.921 21.696 413.961 22.568 412.777 23.24C411.609 23.896 410.281 24.296 408.793 24.44V22.328C410.473 22.104 411.825 21.472 412.849 20.432C413.889 19.392 414.489 18.096 414.649 16.544H409.057V14.528H422.329V16.544H417.049C417.001 17.328 416.841 18.08 416.569 18.8L423.001 22.472L421.873 24.248L415.657 20.624ZM425.089 25.544H427.417V34.232H410.041V25.544H412.369V27.824H425.089V25.544ZM425.089 32.288V29.744H412.369V32.288H425.089Z" fill="#2D2D2D"/>
</svg>
