<svg width="576" height="576" viewBox="0 0 576 576" fill="none" xmlns="http://www.w3.org/2000/svg">
<path d="M554.411 131.823H498.366V146.65H554.411V131.823Z" fill="#EBEBEB"/>
<path d="M263.981 475.05C263.986 470.073 262.844 465.162 260.643 460.698C258.442 456.234 255.241 452.338 251.289 449.313C247.337 446.287 242.741 444.213 237.858 443.252C232.974 442.292 227.935 442.47 223.132 443.773C218.329 445.077 213.891 447.47 210.163 450.768C206.435 454.065 203.517 458.178 201.637 462.786C199.757 467.394 198.965 472.374 199.322 477.338C199.679 482.302 201.176 487.117 203.697 491.409L203.789 491.524C205.033 493.62 206.588 495.118 208.166 497.284L226.944 522.213C227.488 522.936 228.193 523.522 229.003 523.926C229.812 524.33 230.705 524.54 231.609 524.54C232.514 524.54 233.407 524.33 234.216 523.926C235.026 523.522 235.731 522.936 236.275 522.213L254.707 497.722C256.392 495.736 257.961 493.655 259.407 491.489L259.476 491.409C262.411 486.456 263.966 480.807 263.981 475.05ZM231.552 489.139C228.733 489.139 225.977 488.303 223.634 486.737C221.29 485.17 219.463 482.944 218.385 480.34C217.307 477.735 217.026 474.869 217.576 472.105C218.127 469.34 219.485 466.801 221.48 464.808C223.474 462.816 226.014 461.46 228.779 460.911C231.544 460.363 234.409 460.646 237.013 461.727C239.617 462.807 241.842 464.635 243.406 466.98C244.971 469.325 245.804 472.082 245.802 474.9C245.802 476.771 245.433 478.624 244.717 480.352C244.001 482.08 242.951 483.651 241.628 484.973C240.304 486.295 238.733 487.344 237.004 488.059C235.275 488.774 233.423 489.141 231.552 489.139Z" fill="#E0E0E0"/>
<path d="M143.815 61.344H87.7705V76.1702H143.815V61.344Z" fill="#EBEBEB"/>
<path d="M119.393 91.7916C119.388 91.7034 119.388 91.6149 119.393 91.5267V90.7664C119.393 90.0636 119.393 89.096 119.393 87.8403C119.393 85.2828 119.393 81.608 119.301 76.9654L119.473 77.1382L63.3595 77.2534L63.6475 76.9654V80.7555C63.6475 82.0112 63.6475 83.2668 63.6475 84.4995V91.7916L63.3595 91.5152L103.299 91.6419L115.084 91.7225H118.275H119.105H119.404C119.404 91.7225 119.324 91.7225 119.151 91.7225H118.344H115.223L103.495 91.8032L63.3595 92.0681H63.083V91.7916C63.083 89.4032 63.083 86.9724 63.083 84.4995V76.9884L63.371 76.7004L119.416 76.8156H119.589V76.9884C119.589 81.6771 119.52 85.3865 119.496 87.967C119.496 89.1996 119.496 90.1673 119.496 90.847C119.496 91.1465 119.496 91.3884 119.496 91.5843C119.496 91.7801 119.404 91.8032 119.393 91.7916Z" fill="#E0E0E0"/>
<path d="M548.202 453.082H492.157V467.908H548.202V453.082Z" fill="#EBEBEB"/>
<path d="M523.78 483.517C523.77 483.429 523.77 483.341 523.78 483.252C523.78 483.057 523.78 482.803 523.78 482.492C523.78 481.789 523.78 480.822 523.78 479.578C523.78 477.009 523.722 473.334 523.688 468.691L523.86 468.864L467.816 468.979C467.942 468.852 467.527 469.267 468.092 468.691V483.506L467.816 483.229L507.755 483.356L519.54 483.437H522.731H523.561H523.86H523.595H522.801H519.667L507.951 483.517L467.712 483.84H467.424V468.703C467.988 468.138 467.585 468.553 467.712 468.415L523.757 468.53H523.929V468.703C523.929 473.391 523.86 477.101 523.837 479.693C523.837 480.914 523.837 481.882 523.837 482.573C523.837 482.872 523.837 483.103 523.837 483.299C523.824 483.373 523.805 483.446 523.78 483.517Z" fill="#E0E0E0"/>
<path d="M399.744 68.256C399.739 68.1677 399.739 68.0793 399.744 67.991V67.2307C399.744 66.528 399.744 65.5603 399.744 64.3162C399.744 61.7587 399.744 58.0723 399.652 53.4298L399.825 53.6026L343.78 53.7178L344.068 53.4298V60.9523C344.068 63.4253 344.068 65.856 344.068 68.2445L343.791 67.968L383.731 68.0947L395.516 68.1754H398.707H399.548H399.744C399.744 68.1754 399.663 68.1754 399.491 68.1754H398.684H395.562L383.835 68.256L343.699 68.3827H343.423V68.0947C343.423 65.7101 343.423 63.2794 343.423 60.8026V53.4413L343.711 53.1648L399.756 53.2685H399.928V53.4413C399.928 58.1299 399.859 61.8394 399.836 64.4314C399.836 65.664 399.836 66.6202 399.836 67.3114V68.0371C399.744 68.1869 399.744 68.2675 399.744 68.256Z" fill="#E0E0E0"/>
<path d="M407.347 53.4299C407.338 53.3379 407.338 53.2453 407.347 53.1534V52.37C407.347 51.6327 407.347 50.642 407.347 49.3979C407.347 46.7943 407.278 43.1195 407.232 38.6036L407.439 38.811L373.767 38.8916C373.513 39.1451 374.112 38.546 374.043 38.6036V46.2299C374.043 48.7182 374.043 51.1143 374.043 53.4183L373.778 53.1534L397.866 53.2801L404.882 53.3492H406.771H407.451C407.248 53.3657 407.044 53.3657 406.84 53.3492H404.997L398.085 53.4299L373.813 53.5566H373.536V53.2801C373.536 50.9761 373.536 48.5799 373.536 46.0916V38.6151L373.824 38.3271L407.497 38.4078H407.704V38.6151C407.704 43.2231 407.612 46.898 407.589 49.5246C407.589 50.7572 407.589 51.7364 407.589 52.4507C407.589 53.1649 407.359 53.4529 407.347 53.4299Z" fill="#E0E0E0"/>
<path d="M83.4506 490.049C83.4506 490.049 83.4506 489.946 83.4506 489.773V489.013C83.4506 488.321 83.4506 487.342 83.4506 486.098C83.4506 483.541 83.4506 479.854 83.3469 475.223L83.5197 475.396L27.4749 475.5L27.7629 475.223V482.734C27.7629 485.2 27.7629 487.642 27.7629 490.026L27.4864 489.738L67.4263 489.877L79.2112 489.946H82.4023H83.2432H83.5312H83.2778H82.4714H79.3495L67.6221 490.026L27.4864 490.153H27.21V489.877C27.21 487.492 27.21 485.05 27.21 482.584V475.073L27.498 474.785L83.5427 474.901H83.7155V475.073C83.7155 479.751 83.6464 483.472 83.6234 486.052C83.6234 487.285 83.6234 488.241 83.6234 488.932V489.658C83.5954 489.799 83.5364 489.933 83.4506 490.049Z" fill="#E0E0E0"/>
<path d="M91.0075 475.223C90.999 475.127 90.999 475.031 91.0075 474.935C91.0075 474.728 91.0075 474.463 91.0075 474.152C91.0075 473.426 91.0075 472.435 91.0075 471.18C91.0075 468.576 90.9384 464.901 90.8923 460.397L91.0996 460.593L57.4267 460.673L57.7032 460.397V468.012C57.7032 470.488 57.7032 472.896 57.7032 475.2L57.4382 474.924L81.5265 475.05L88.5422 475.131H90.4315H91.1112C90.908 475.147 90.7038 475.147 90.5006 475.131H88.6574L81.7454 475.2L57.4728 475.327H57.1963V475.062C57.1963 472.758 57.1963 470.35 57.1963 467.873V460.259L57.4843 459.971L91.1572 460.051H91.3646V460.259C91.3646 464.867 91.2724 468.53 91.2494 471.168C91.2494 472.401 91.2494 473.368 91.2494 474.094C91.2494 474.82 91.0651 475.235 91.0075 475.223Z" fill="#E0E0E0"/>
<path d="M526.395 532.927C526.395 533.088 416.068 533.226 280.006 533.226C143.943 533.226 33.5928 533.088 33.5928 532.927C33.5928 532.765 143.897 532.627 280.006 532.627C416.114 532.627 526.395 532.765 526.395 532.927Z" fill="#263238"/>
<path d="M502.87 97.908H57.1845C49.0216 97.908 42.4043 104.525 42.4043 112.688V414.293C42.4043 422.456 49.0216 429.073 57.1845 429.073H502.87C511.033 429.073 517.65 422.456 517.65 414.293V112.688C517.65 104.525 511.033 97.908 502.87 97.908Z" fill="#263238"/>
<path d="M517.651 112.689L517.582 111.652C517.563 111.226 517.513 110.803 517.432 110.385C517.346 109.796 517.215 109.214 517.041 108.645C516.488 106.72 515.549 104.927 514.279 103.378C513.009 101.829 511.436 100.556 509.656 99.6364C508.416 99.0016 507.094 98.5403 505.728 98.2655C504.205 98.015 502.661 97.9223 501.12 97.989H490.418H463.726L293.633 98.0927H176.129H59.0168C57.5689 98.0354 56.1189 98.1126 54.6853 98.3231C53.2592 98.5649 51.8794 99.0275 50.5957 99.694C48.0019 101.025 45.867 103.104 44.467 105.661C43.7876 106.949 43.2913 108.326 42.9925 109.751C42.7549 111.205 42.6623 112.679 42.716 114.152V141.258C42.716 153.416 42.716 165.704 42.716 178.122V254.154C42.716 305.821 42.716 359.309 42.716 414.098C42.7061 417.47 43.877 420.739 46.0255 423.337C48.1739 425.936 51.1644 427.701 54.4779 428.325C56.1438 428.572 57.8298 428.657 59.5121 428.578H193.928H342.927H477.711H501.154C502.424 428.62 503.695 428.562 504.956 428.406C508.033 427.979 510.891 426.572 513.105 424.393C515.319 422.214 516.772 419.38 517.248 416.31C517.391 415.083 517.441 413.846 517.398 412.612C517.398 411.368 517.398 410.135 517.398 408.891V401.506C517.398 381.915 517.398 363.126 517.398 345.139C517.398 273.335 517.478 215.217 517.501 175.046C517.501 154.978 517.501 139.334 517.559 128.805C517.559 123.529 517.559 119.497 517.559 116.778C517.559 114.059 517.559 112.689 517.559 112.689C517.559 112.689 517.559 114.071 517.559 116.778C517.559 119.485 517.559 123.529 517.559 128.805C517.559 139.38 517.559 154.978 517.559 175.046C517.559 215.217 517.628 273.335 517.674 345.139C517.674 363.095 517.674 381.884 517.674 401.506C517.674 403.96 517.674 406.414 517.674 408.891V412.612C517.712 413.87 517.658 415.129 517.513 416.379C517.15 418.935 516.138 421.355 514.573 423.409C513.008 425.462 510.942 427.079 508.573 428.106C507.374 428.612 506.116 428.964 504.829 429.154C503.546 429.313 502.252 429.375 500.959 429.339H477.757H342.973H193.974H59.5352C57.8142 429.416 56.0897 429.328 54.3857 429.074C50.9186 428.42 47.7893 426.575 45.5401 423.856C43.2909 421.138 42.0636 417.718 42.0709 414.19C42.0709 359.401 42.0709 305.902 42.0709 254.246C42.0709 228.418 42.0709 203.074 42.0709 178.214V114.267C42.0214 112.755 42.1217 111.243 42.3704 109.751C42.6814 108.266 43.1971 106.832 43.9025 105.489C45.3728 102.826 47.5972 100.658 50.2961 99.2562C51.6355 98.5672 53.0732 98.0892 54.5585 97.8393C56.0263 97.6216 57.511 97.5406 58.9937 97.5974H110.707H176.141H293.645L463.737 97.701H490.429H501.12C502.662 97.6489 504.205 97.7492 505.728 98.0006C507.109 98.2778 508.444 98.7511 509.691 99.406C511.482 100.338 513.062 101.627 514.334 103.195C515.606 104.762 516.543 106.574 517.087 108.518C517.255 109.088 517.378 109.669 517.455 110.258C517.533 110.68 517.579 111.107 517.593 111.537C517.651 112.331 517.651 112.689 517.651 112.689Z" fill="#263238"/>
<path d="M493.77 250.779C496.276 250.779 498.726 251.522 500.81 252.914C502.894 254.307 504.518 256.286 505.477 258.601C506.436 260.917 506.687 263.465 506.198 265.923C505.709 268.381 504.502 270.639 502.73 272.411C500.958 274.183 498.7 275.39 496.242 275.879C493.784 276.368 491.236 276.117 488.92 275.158C486.605 274.199 484.626 272.575 483.233 270.491C481.841 268.407 481.098 265.957 481.098 263.451C481.098 260.09 482.433 256.867 484.809 254.49C487.186 252.114 490.409 250.779 493.77 250.779Z" fill="#455A64"/>
<path d="M67.5189 229.559V297.216C67.5204 297.836 67.3996 298.45 67.1635 299.023C66.9274 299.596 66.5806 300.116 66.1429 300.555C65.7053 300.994 65.1853 301.342 64.6129 301.579C64.0405 301.817 63.4269 301.939 62.8072 301.939C62.1869 301.939 61.5727 301.817 60.9997 301.58C60.4266 301.342 59.906 300.994 59.4674 300.556C59.0288 300.117 58.6809 299.597 58.4435 299.023C58.2062 298.45 58.084 297.836 58.084 297.216V229.594C58.084 228.341 58.5816 227.14 59.4674 226.254C60.3532 225.368 61.5545 224.87 62.8072 224.87C64.0528 224.87 65.2478 225.364 66.1307 226.242C67.0137 227.121 67.5128 228.313 67.5189 229.559Z" fill="#455A64"/>
<path d="M473.195 108.634H76.3076V418.913H473.195V108.634Z" fill="#EBEBEB"/>
<path d="M332.202 332.617L362.891 386.703L438.347 385.586L434.074 326.892L332.202 332.617Z" fill="#E0E0E0"/>
<path d="M232.462 149.967L221.38 235.457L244.27 240.918L289.025 236.471L280.812 143.078L232.462 149.967Z" fill="#E0E0E0"/>
<path d="M162.939 324.933H110.039V261.239L167.524 261.815L162.939 324.933Z" fill="#F5F5F5"/>
<path d="M380.713 326.891C380.713 325.083 390.033 261.815 390.033 261.815C390.033 261.815 426.505 251.827 426.643 253.256C426.781 254.684 433.901 325.209 433.901 325.209L380.713 326.891Z" fill="#F5F5F5"/>
<path d="M116.121 164.851C116.225 166.395 141.384 216.991 141.384 216.991L170.519 209.272V151.062L140.474 150.37L116.121 164.851Z" fill="#E0E0E0"/>
<path d="M294.036 270.42H253.751V289.428H294.036V270.42Z" fill="#E0E0E0"/>
<path d="M294.221 295.73L253.647 297.781L251.585 336.303L297.918 332.617L294.221 295.73Z" fill="#E0E0E0"/>
<path d="M456.745 224.294L451.111 146.096H473.092L473.195 222.739L456.745 224.294Z" fill="#E0E0E0"/>
<path d="M366.728 133.286L375.886 230.734L423.936 226.425L415.549 143.309L377.51 133.286H366.728Z" fill="#E0E0E0"/>
<path d="M145.958 150.716L76.585 149.668L76.6541 145.06L142.203 146.05L149.772 108.668L154.299 109.578L145.958 150.716Z" fill="white"/>
<path d="M109.705 225.988L76.0898 150.601L77.1382 150.129L110.362 224.617L170.381 208.708L170.669 209.825L109.705 225.988Z" fill="white"/>
<path d="M167.535 260.663H76.6309V262.967H167.535V260.663Z" fill="white"/>
<path d="M110.603 225.308H109.451V324.945H110.603V225.308Z" fill="white"/>
<path d="M163.25 324.426H76.6309V325.578H163.25V324.426Z" fill="white"/>
<path d="M158.756 415.077L76.2617 396.875L77.2524 392.371L154.552 409.432L167.811 224.939L169.804 148.205L172.903 108.945L177.488 109.302L174.401 148.504L172.419 225.17L158.756 415.077Z" fill="white"/>
<path d="M171.913 153.516L143.851 150.682L144.323 146.097L169.125 148.608L173.227 139.853L210.194 148.815L376.428 129.865L434.339 144.91L473.023 143.793L473.161 148.389L433.82 149.541L376.094 134.542L209.906 153.481L175.807 145.221L171.913 153.516Z" fill="white"/>
<path d="M365.184 330.474L360.61 329.875L373.559 230.711L363.606 133.379V108.634H368.213V133.263L378.201 230.769L365.184 330.474Z" fill="white"/>
<path d="M160.981 344.114L160.704 339.517L432.426 322.998L469.405 247.703L473.541 249.73L435.387 327.433L434.051 327.513L160.981 344.114Z" fill="white"/>
<path d="M297.032 335.393L279.659 143.182L278.715 109.163L281.019 109.094L281.963 143.055L299.324 335.186L297.032 335.393Z" fill="white"/>
<path d="M260.559 417.681L240.468 335.635V242.83L217.854 237.208L227.67 149.115L226.759 108.68L231.367 108.576L232.289 149.322L232.278 149.472L222.877 233.706L245.076 239.236V335.071L265.04 416.586L260.559 417.681Z" fill="white"/>
<path d="M242.772 261.239H167.523V262.391H242.772V261.239Z" fill="white"/>
<path d="M170.219 224.534L169.986 225.663L220.243 236.007L220.475 234.878L170.219 224.534Z" fill="white"/>
<path d="M242.646 299.958L224.767 296.006V261.815H225.919V295.085L242.899 298.829L242.646 299.958Z" fill="white"/>
<path d="M214.733 417.623L204.687 385.379H158.711V380.771H208.074L219.133 416.252L214.733 417.623Z" fill="white"/>
<path d="M362.558 387.291L331.707 332.893L332.709 332.329L363.226 386.127L472.942 384.491L472.965 385.643L362.558 387.291Z" fill="white"/>
<path d="M416.54 386.703H415.388V417.761H416.54V386.703Z" fill="white"/>
<path d="M437.772 385.632L433.498 326.937L411.472 108.691L412.624 108.576L434.65 326.834L438.924 385.54L437.772 385.632Z" fill="white"/>
<path d="M473.154 222.142L242.73 240.438L242.822 241.587L473.245 223.29L473.154 222.142Z" fill="white"/>
<path d="M452.249 147.993L449.954 148.199L456.797 224.42L459.092 224.214L452.249 147.993Z" fill="white"/>
<path d="M454.87 190.811L421.109 199.166L421.386 200.285L455.147 191.93L454.87 190.811Z" fill="white"/>
<path d="M440.029 194.653L434.05 160.762L417.196 158.976L417.311 157.835L435.029 159.713L441.158 194.446L440.029 194.653Z" fill="white"/>
<path d="M325.929 139.145L323.634 139.342L331.636 232.68L333.931 232.483L325.929 139.145Z" fill="white"/>
<path d="M370.689 190.18L329.859 199.165L330.107 200.29L370.936 191.306L370.689 190.18Z" fill="white"/>
<path d="M361.776 386.568L357.582 419.084L359.867 419.379L364.061 386.862L361.776 386.568Z" fill="white"/>
<path d="M172.108 263.773L167.523 335.29L239.005 331.811V303.748L220.285 299.612V266.849L172.108 263.773Z" fill="#E0E0E0"/>
<path d="M152.421 281.192C152.422 278.695 151.848 276.231 150.743 273.992C149.638 271.754 148.031 269.8 146.048 268.283C144.065 266.765 141.759 265.726 139.309 265.244C136.859 264.763 134.331 264.853 131.922 265.507C129.512 266.161 127.286 267.362 125.416 269.017C123.545 270.671 122.082 272.734 121.139 275.046C120.195 277.358 119.797 279.856 119.976 282.346C120.155 284.836 120.906 287.252 122.169 289.405V289.463C122.792 290.511 123.563 291.26 124.358 292.366L133.782 304.854C134.055 305.216 134.41 305.51 134.816 305.713C135.223 305.916 135.672 306.021 136.126 306.021C136.58 306.021 137.029 305.916 137.435 305.713C137.842 305.51 138.196 305.216 138.47 304.854L147.686 292.573C148.529 291.576 149.318 290.534 150.048 289.451C151.571 286.963 152.392 284.109 152.421 281.192ZM136.178 288.265C134.762 288.267 133.377 287.849 132.199 287.064C131.021 286.279 130.102 285.162 129.559 283.854C129.016 282.546 128.874 281.107 129.149 279.718C129.425 278.329 130.106 277.054 131.108 276.052C132.109 275.051 133.385 274.37 134.773 274.094C136.162 273.818 137.602 273.961 138.909 274.504C140.217 275.047 141.334 275.965 142.119 277.144C142.905 278.322 143.322 279.707 143.32 281.122C143.317 283.016 142.564 284.831 141.225 286.17C139.886 287.508 138.071 288.262 136.178 288.265Z" fill="#FEDE8A"/>
<path d="M305.279 224.041C305.285 221.542 304.715 219.075 303.612 216.832C302.509 214.59 300.904 212.632 298.92 211.111C296.937 209.591 294.63 208.548 292.178 208.065C289.726 207.581 287.196 207.67 284.784 208.324C282.372 208.978 280.144 210.18 278.272 211.836C276.401 213.493 274.936 215.558 273.993 217.872C273.051 220.187 272.654 222.688 272.836 225.18C273.017 227.672 273.771 230.09 275.039 232.243V232.312C275.661 233.36 276.445 234.109 277.24 235.215L286.686 247.68C286.96 248.042 287.314 248.337 287.721 248.539C288.128 248.742 288.576 248.847 289.03 248.847C289.485 248.847 289.933 248.742 290.34 248.539C290.747 248.337 291.101 248.042 291.375 247.68L300.671 235.411C301.498 234.415 302.267 233.372 302.975 232.289C304.473 229.797 305.269 226.948 305.279 224.041ZM289.036 231.114C287.621 231.114 286.238 230.694 285.062 229.908C283.885 229.122 282.968 228.005 282.427 226.698C281.885 225.391 281.744 223.952 282.02 222.564C282.296 221.177 282.977 219.902 283.978 218.901C284.978 217.901 286.253 217.22 287.64 216.944C289.028 216.668 290.467 216.809 291.774 217.351C293.081 217.892 294.198 218.809 294.984 219.986C295.77 221.162 296.19 222.545 296.19 223.96C296.19 224.901 296.005 225.832 295.644 226.7C295.284 227.569 294.756 228.358 294.091 229.023C293.425 229.687 292.635 230.214 291.766 230.573C290.897 230.932 289.965 231.116 289.025 231.114H289.036Z" fill="#FEDE8A"/>
<path d="M237.841 364.746C237.847 363.031 237.456 361.339 236.701 359.8C235.945 358.261 234.844 356.917 233.484 355.873C232.124 354.829 230.541 354.113 228.859 353.781C227.177 353.449 225.441 353.51 223.786 353.958C222.132 354.407 220.603 355.232 219.319 356.368C218.035 357.504 217.031 358.921 216.384 360.509C215.737 362.097 215.466 363.813 215.591 365.523C215.716 367.233 216.234 368.891 217.105 370.368C217.531 371.082 218.073 371.6 218.614 372.349L225.077 380.92C225.265 381.166 225.508 381.366 225.785 381.503C226.063 381.64 226.369 381.711 226.678 381.711C226.988 381.711 227.294 381.64 227.571 381.503C227.849 381.366 228.091 381.166 228.28 380.92L234.639 372.499C235.217 371.814 235.76 371.099 236.263 370.356C237.28 368.66 237.825 366.723 237.841 364.746ZM226.701 369.596C225.73 369.598 224.78 369.312 223.972 368.774C223.163 368.237 222.532 367.471 222.159 366.574C221.786 365.678 221.687 364.691 221.875 363.738C222.063 362.785 222.53 361.91 223.216 361.222C223.901 360.535 224.776 360.066 225.728 359.876C226.68 359.686 227.668 359.782 228.565 360.153C229.463 360.524 230.23 361.153 230.769 361.961C231.309 362.768 231.597 363.717 231.597 364.688C231.599 365.332 231.473 365.97 231.228 366.566C230.983 367.161 230.622 367.702 230.167 368.158C229.713 368.614 229.172 368.975 228.578 369.222C227.983 369.469 227.345 369.596 226.701 369.596Z" fill="#FEDE8A"/>
<path d="M439.914 162.547C439.903 159.772 438.855 157.101 436.978 155.058C435.101 153.014 432.528 151.745 429.764 151.499C427 151.252 424.243 152.047 422.034 153.726C419.825 155.405 418.322 157.848 417.819 160.577C417.343 163.189 417.826 165.885 419.178 168.169C419.605 168.883 420.146 169.402 420.688 170.162L427.15 178.721C427.338 178.967 427.581 179.167 427.859 179.304C428.136 179.441 428.442 179.512 428.752 179.512C429.061 179.512 429.367 179.441 429.645 179.304C429.922 179.167 430.165 178.967 430.353 178.721L436.712 170.3C437.291 169.615 437.833 168.9 438.336 168.157C439.353 166.462 439.898 164.525 439.914 162.547ZM428.775 167.397C427.803 167.399 426.853 167.113 426.044 166.575C425.235 166.036 424.604 165.27 424.231 164.373C423.858 163.476 423.76 162.488 423.949 161.535C424.138 160.582 424.606 159.706 425.293 159.019C425.98 158.332 426.855 157.865 427.809 157.676C428.762 157.487 429.749 157.585 430.646 157.958C431.544 158.331 432.31 158.961 432.848 159.77C433.387 160.579 433.673 161.529 433.671 162.501C433.671 163.8 433.155 165.045 432.237 165.963C431.318 166.881 430.073 167.397 428.775 167.397Z" fill="#FEDE8A"/>
<path d="M202.752 167.846C202.756 164.811 202.059 161.815 200.717 159.092C199.374 156.369 197.422 153.993 195.012 152.147C192.601 150.302 189.798 149.036 186.819 148.45C183.84 147.864 180.767 147.973 177.837 148.768C174.907 149.563 172.2 151.022 169.926 153.034C167.652 155.045 165.872 157.553 164.725 160.364C163.578 163.175 163.095 166.212 163.313 169.24C163.53 172.268 164.443 175.205 165.98 177.823L166.038 177.892C166.787 179.171 167.743 180.081 168.699 181.417L180.162 196.612C180.495 197.051 180.925 197.407 181.418 197.652C181.912 197.897 182.456 198.025 183.007 198.025C183.558 198.025 184.102 197.897 184.596 197.652C185.089 197.407 185.519 197.051 185.852 196.612L197.13 181.636C198.158 180.424 199.115 179.155 199.999 177.834C201.791 174.81 202.742 171.362 202.752 167.846ZM182.995 176.44C181.275 176.44 179.593 175.93 178.162 174.974C176.732 174.018 175.617 172.658 174.959 171.068C174.301 169.479 174.129 167.729 174.466 166.042C174.802 164.354 175.632 162.804 176.849 161.589C178.067 160.373 179.618 159.545 181.306 159.211C182.994 158.877 184.743 159.05 186.332 159.711C187.921 160.371 189.279 161.487 190.233 162.919C191.187 164.351 191.695 166.034 191.693 167.754C191.69 170.059 190.772 172.268 189.142 173.897C187.511 175.526 185.3 176.44 182.995 176.44Z" fill="#FEDE8A"/>
<path d="M96.7679 483.345C96.7679 483.345 70.8248 453.566 61.0559 423.775C51.2869 393.984 55.941 397.44 55.941 397.44C55.941 397.44 69.1199 426.344 79.1308 440.318C89.1416 454.291 106.963 474.809 106.963 474.809L96.7679 483.345Z" fill="#455A64"/>
<path d="M101.871 402.048C101.699 401.74 101.424 401.502 101.095 401.375C100.765 401.248 100.401 401.241 100.067 401.355C99.7327 401.468 99.4488 401.696 99.2649 401.997C99.0809 402.299 99.0085 402.655 99.0602 403.004C100.638 413.476 104.048 438.025 103.91 453.946C103.737 474.682 103.91 482.631 103.91 482.631H114.681C114.681 482.631 112.769 439.868 110.338 426.828C108.645 417.693 105.016 407.543 101.871 402.048Z" fill="#455A64"/>
<path d="M107.734 479.151C112.253 468.927 115.242 458.094 116.605 446.999C117.492 439.384 115.914 429.085 113.552 415.354C112.645 410.332 112.19 405.239 112.193 400.136C112.208 399.571 112.41 399.026 112.767 398.587C113.123 398.149 113.614 397.84 114.164 397.708C114.714 397.577 115.292 397.631 115.808 397.862C116.325 398.092 116.75 398.487 117.02 398.984C118.321 401.288 122.077 409.225 123.033 414.202C125.648 427.761 128.597 434.534 126.339 447.402C124.081 460.27 115.741 480.085 115.741 480.085L107.734 479.151Z" fill="#455A64"/>
<path d="M117.504 480.027C117.504 480.027 145.912 418.971 147.882 409.905C149.852 400.839 156.545 379.953 157.34 381.105C158.135 382.257 159.31 393.316 154.184 405.919C149.057 418.522 127.204 481.836 127.204 481.836H117.504" fill="#455A64"/>
<path d="M104.625 477.297C104.345 477.134 104.08 476.949 103.83 476.744C103.323 476.364 102.562 475.822 101.629 475.062C99.74 473.576 97.0904 471.318 93.9915 468.323C85.9901 460.432 79.0609 451.524 73.3823 441.827C67.7188 432.155 63.0044 421.959 59.3048 411.379C57.8763 407.324 56.8395 404.006 56.1599 401.702C55.8143 400.55 55.5723 399.652 55.3995 399.041C55.3057 398.732 55.2326 398.416 55.1807 398.097C55.3202 398.39 55.4358 398.695 55.5263 399.007C55.7336 399.652 56.0216 400.527 56.3903 401.633C57.1275 403.937 58.2335 407.209 59.708 411.241C63.5134 421.752 68.2637 431.897 73.9007 441.55C79.5662 451.198 86.4162 460.099 94.2911 468.046C97.3323 471.064 99.9359 473.368 101.779 474.958C102.689 475.753 103.426 476.318 103.91 476.732C104.166 476.897 104.405 477.086 104.625 477.297Z" fill="#263238"/>
<path d="M107.735 448.001C107.604 447.41 107.52 446.809 107.481 446.204C107.343 444.937 107.17 443.29 106.963 441.308C106.514 437.184 105.811 431.482 104.797 425.18C103.783 418.879 102.677 413.292 101.802 409.225C101.387 407.278 101.042 405.654 100.765 404.41C100.604 403.826 100.5 403.228 100.454 402.624C100.678 403.186 100.859 403.763 100.996 404.352C101.318 405.504 101.744 407.105 102.228 409.133C103.207 413.176 104.394 418.81 105.396 425.077C106.398 431.343 107.044 437.08 107.389 441.205C107.562 443.278 107.666 444.96 107.723 446.124C107.786 446.748 107.79 447.376 107.735 448.001Z" fill="#263238"/>
<path d="M114.393 398.442C114.531 398.692 114.643 398.954 114.727 399.226L115.58 401.53C115.96 402.509 116.386 403.719 116.801 405.159C117.216 406.599 117.769 408.211 118.183 410.055C118.402 410.965 118.644 411.921 118.886 412.923C119.128 413.925 119.289 414.985 119.508 416.068C119.969 418.234 120.257 420.584 120.66 423.049C121.272 428.421 121.499 433.83 121.34 439.235C121.116 444.648 120.503 450.037 119.508 455.363C118.99 457.805 118.529 460.132 117.918 462.275C117.619 463.335 117.377 464.383 117.066 465.362C116.755 466.341 116.444 467.274 116.156 468.173C115.614 469.982 115.004 471.548 114.428 472.954C113.852 474.359 113.403 475.534 112.953 476.49L111.94 478.691C111.839 478.955 111.708 479.206 111.548 479.439C111.62 479.168 111.712 478.902 111.824 478.645L112.734 476.398C113.149 475.431 113.633 474.244 114.117 472.827C114.601 471.41 115.269 469.843 115.753 468.046L116.617 465.224C116.916 464.245 117.147 463.208 117.423 462.148C118.022 460.017 118.448 457.701 118.955 455.236C119.91 449.945 120.507 444.595 120.741 439.223C120.892 433.839 120.681 428.451 120.107 423.095C119.785 420.641 119.508 418.291 119.07 416.183C118.863 415.1 118.713 414.04 118.483 413.05L117.826 410.181C117.435 408.338 116.928 406.725 116.536 405.285C116.144 403.845 115.753 402.624 115.384 401.622C115.015 400.62 114.82 399.905 114.635 399.318C114.521 399.036 114.44 398.743 114.393 398.442Z" fill="#263238"/>
<path d="M156.96 382.372C156.965 382.464 156.965 382.556 156.96 382.649C156.96 382.867 156.88 383.121 156.834 383.443C156.707 384.135 156.546 385.171 156.269 386.485C155.716 389.111 154.806 392.89 153.389 397.475C151.972 402.06 150.025 407.44 147.721 413.349C145.417 419.259 142.768 425.699 140.245 432.553C137.722 439.408 135.717 446.089 133.863 452.137C132.008 458.185 130.28 463.657 128.587 468.15C127.288 471.71 125.792 475.194 124.105 478.587C123.529 479.797 122.953 480.695 122.665 481.317L122.262 482.02C122.22 482.101 122.17 482.179 122.112 482.25C122.112 482.25 122.112 482.158 122.216 481.985L122.55 481.26C122.861 480.626 123.345 479.704 123.898 478.483C125.05 476.064 126.582 472.504 128.195 468C129.808 463.496 131.513 458.047 133.321 451.976C135.13 445.905 137.111 439.2 139.68 432.334C142.249 425.468 144.887 419.029 147.203 413.13C149.518 407.232 151.511 401.887 152.963 397.337C154.414 392.786 155.405 389.019 156.027 386.416C156.338 385.114 156.534 384.112 156.695 383.409C156.776 383.098 156.834 382.833 156.88 382.626C156.893 382.537 156.92 382.452 156.96 382.372Z" fill="#263238"/>
<path d="M69.339 368.882C68.9455 368.51 68.44 368.279 67.9014 368.224C67.3627 368.17 66.8211 368.295 66.361 368.58C65.9008 368.866 65.548 369.295 65.3573 369.802C65.1667 370.308 65.149 370.864 65.307 371.382C66.2774 374.535 67.4708 377.614 68.8782 380.598C72.7835 388.892 84.2574 418.683 89.6142 435.041C94.971 451.4 102.528 481.882 102.528 481.882L114.048 480.027C114.048 480.027 103.553 429.88 93.3122 411.817C85.0523 397.302 76.8155 376.312 69.339 368.882Z" fill="#455A64"/>
<path d="M92.7705 445.237C93.0076 445.679 93.2042 446.142 93.358 446.619C93.7036 447.518 94.1644 448.831 94.6828 450.467C95.7427 453.739 96.9868 458.312 98.3347 463.381C99.6825 468.45 100.719 473.081 101.468 476.433L102.332 480.407C102.446 480.891 102.512 481.385 102.528 481.882C102.317 481.429 102.159 480.954 102.056 480.465C101.779 479.417 101.422 478.103 101.007 476.537C100.132 473.081 98.9798 468.553 97.7011 463.531C96.4223 458.508 95.1782 453.888 94.2451 450.594L93.0931 446.688C92.9305 446.218 92.8222 445.731 92.7705 445.237Z" fill="#263238"/>
<path d="M108.288 480.96C108.251 480.86 108.228 480.755 108.219 480.649C108.219 480.407 108.139 480.108 108.092 479.751C107.966 478.956 107.862 477.769 107.62 476.295C107.205 473.276 106.468 468.945 105.212 463.623C103.749 457.422 101.957 451.304 99.8441 445.294C97.5401 438.497 94.5449 431.159 91.2041 423.556C84.4534 408.373 77.7142 394.917 73.279 384.952C71.0441 379.987 69.3046 375.932 68.1641 373.11C67.5881 371.704 67.1734 370.599 66.8739 369.85L66.5629 368.997C66.5198 368.902 66.4888 368.801 66.4707 368.698C66.4707 368.698 66.4707 368.778 66.6205 368.974L66.9891 369.804L68.383 373.018C69.6387 375.817 71.4243 379.838 73.7283 384.768C78.2557 394.675 85.0525 408.096 91.8147 423.303C95.167 430.917 98.1046 438.279 100.432 445.098C102.527 451.14 104.285 457.293 105.696 463.53C106.644 467.715 107.382 471.944 107.908 476.202C108.115 477.711 108.185 478.898 108.265 479.658C108.265 480.039 108.265 480.338 108.346 480.568C108.349 480.701 108.33 480.834 108.288 480.96Z" fill="#263238"/>
<path d="M114.048 480.027C113.875 479.392 113.748 478.745 113.668 478.092C113.437 476.755 113.138 474.97 112.769 472.827C111.986 468.38 110.776 462.263 109.037 455.547C107.297 448.831 105.385 442.956 103.899 438.693L102.102 433.647C101.852 433.042 101.648 432.418 101.491 431.781C101.819 432.351 102.096 432.949 102.321 433.567C102.816 434.719 103.473 436.424 104.302 438.543C106.374 444.063 108.151 449.689 109.624 455.397C111.105 461.093 112.297 466.861 113.196 472.677C113.518 474.912 113.772 476.721 113.898 477.988C114.01 478.662 114.061 479.344 114.048 480.027Z" fill="#263238"/>
<path d="M137.571 478.38H92.8047V532.927H137.571V478.38Z" fill="#FEDE8A"/>
<g opacity="0.3">
<path opacity="0.3" d="M137.571 478.38H92.8047V532.927H137.571V478.38Z" fill="black"/>
</g>
<path d="M123.298 478.38H83.5771V532.927H123.298V478.38Z" fill="#FEDE8A"/>
<path d="M295.822 363.468C295.822 363.468 295.822 403.972 295.315 406.253C294.808 408.534 293.622 420.676 296.583 426.309C299.543 431.942 306.582 443.359 312.711 444.948C318.839 446.538 322.307 444.948 322.307 444.948C322.307 444.948 326.074 418.568 324.841 410.999C323.608 403.43 320.809 386.911 320.809 386.911L301.824 365.368L295.822 363.468Z" fill="#FFBE9D"/>
<path d="M343.538 307.872L361.429 302.377L395.263 300.119L415.734 304.001L393.5 339.633L361.429 337.214L343.538 307.872Z" fill="#FFBE9D"/>
<path d="M414.364 234.34C414.553 242.907 412.927 251.416 409.591 259.309C406.255 267.201 401.286 274.298 395.01 280.132C392.122 271.784 389.238 263.428 386.358 255.065" fill="#263238"/>
<path d="M349.136 184.481C356.566 180.426 365.541 179.873 373.835 181.509C382.129 183.145 389.871 186.924 397.198 191.163C401.299 193.536 405.4 196.151 408.36 199.872C413.752 206.657 419.074 217.797 419.604 226.449C420.019 233.441 417.3 250.952 414.385 257.311C411.667 263.14 398.972 267.575 392.705 269.015L335.231 202.13C336.264 198.414 338.025 194.939 340.412 191.91C342.799 188.88 345.764 186.355 349.136 184.481Z" fill="#263238"/>
<path d="M339.219 193.536L353.043 191.071C345.509 209.019 343.47 250.053 339.15 269.038C334.069 261.665 322.273 239.213 322.906 230.273C323.54 221.334 322.837 191.981 339.219 193.536Z" fill="#263238"/>
<path d="M404.594 223.385C404.348 218.351 402.495 213.529 399.306 209.626C396.117 205.724 391.76 202.947 386.876 201.704L355.127 193.64C341.407 192.165 332.237 209.042 331.338 222.82C330.348 238.119 329.726 254.258 331.511 265.686C335.105 288.645 352.696 291.617 352.696 291.617C352.696 291.617 352.696 302.538 352.696 309.243L381.059 331.719L397.555 305.925L404.652 223.707C404.675 223.269 404.629 223.903 404.594 223.385Z" fill="#FFBE9D"/>
<path d="M338.239 240.112C338.229 240.88 338.52 241.622 339.049 242.179C339.578 242.737 340.304 243.065 341.072 243.095C341.447 243.125 341.824 243.08 342.18 242.962C342.537 242.844 342.867 242.657 343.15 242.41C343.433 242.163 343.664 241.862 343.83 241.525C343.995 241.188 344.092 240.821 344.114 240.446C344.123 239.677 343.832 238.935 343.303 238.378C342.774 237.821 342.048 237.492 341.28 237.462C340.905 237.431 340.528 237.475 340.17 237.592C339.813 237.709 339.482 237.897 339.199 238.144C338.915 238.391 338.684 238.692 338.519 239.03C338.354 239.368 338.259 239.736 338.239 240.112Z" fill="#263238"/>
<path d="M334.783 231.759C335.152 232.151 337.386 230.504 340.543 230.515C343.699 230.527 346.027 232.128 346.372 231.736C346.545 231.564 346.176 230.872 345.163 230.135C343.795 229.18 342.165 228.673 340.497 228.684C338.844 228.669 337.23 229.182 335.889 230.147C334.944 230.895 334.61 231.552 334.783 231.759Z" fill="#263238"/>
<path d="M365.863 240.111C365.856 240.867 366.141 241.597 366.658 242.148C367.175 242.7 367.885 243.031 368.64 243.072C369.015 243.104 369.392 243.059 369.749 242.942C370.107 242.825 370.437 242.637 370.721 242.39C371.004 242.143 371.235 241.842 371.4 241.504C371.565 241.166 371.661 240.798 371.681 240.423C371.694 239.655 371.405 238.913 370.878 238.355C370.35 237.798 369.626 237.469 368.859 237.439C368.486 237.414 368.111 237.464 367.758 237.585C367.404 237.707 367.079 237.897 366.8 238.146C366.521 238.395 366.294 238.697 366.134 239.035C365.973 239.372 365.881 239.738 365.863 240.111Z" fill="#263238"/>
<path d="M364.874 231.759C365.242 232.151 367.477 230.504 370.634 230.515C373.79 230.527 376.129 232.128 376.463 231.736C376.636 231.564 376.267 230.872 375.253 230.135C373.886 229.18 372.256 228.673 370.588 228.684C368.935 228.671 367.322 229.183 365.98 230.147C365.035 230.895 364.701 231.552 364.874 231.759Z" fill="#263238"/>
<path d="M354.978 256.654C354.978 256.47 353.019 256.124 349.828 255.71C349.022 255.629 348.25 255.456 348.123 254.915C348.053 254.076 348.242 253.235 348.665 252.507L351.072 246.355C354.413 237.589 356.832 230.389 356.487 230.227C356.141 230.066 353.134 237.139 349.794 245.86L347.49 252.058C346.986 253.033 346.836 254.152 347.063 255.226C347.185 255.506 347.368 255.755 347.6 255.955C347.831 256.154 348.105 256.299 348.4 256.378C348.846 256.503 349.307 256.569 349.771 256.574C352.973 256.816 354.966 256.827 354.978 256.654Z" fill="#263238"/>
<path d="M383.155 283.392C383.155 283.392 375.679 299.163 352.708 296.963V291.571C363.419 291.716 373.959 288.885 383.155 283.392Z" fill="#EB996E"/>
<path d="M365.876 220.309C366.187 221.173 369.332 220.769 373.064 221.23C376.797 221.691 379.78 222.705 380.276 221.933C380.506 221.564 379.976 220.781 378.767 219.917C377.159 218.877 375.327 218.233 373.421 218.039C371.523 217.799 369.594 218.02 367.8 218.684C366.429 219.226 365.738 219.905 365.876 220.309Z" fill="#263238"/>
<path d="M335.819 222.071C336.372 222.797 338.561 222.071 341.188 222.071C343.814 222.071 346.038 222.567 346.544 221.806C346.775 221.449 346.418 220.723 345.45 220.044C344.149 219.22 342.632 218.803 341.093 218.847C339.554 218.89 338.063 219.391 336.81 220.286C335.877 220.977 335.577 221.714 335.819 222.071Z" fill="#263238"/>
<path d="M337.536 201.796C338.941 198.34 342.731 196.266 346.452 196.036C350.204 196.03 353.879 197.101 357.039 199.123C370.713 207.026 377.775 226.115 391.253 234.294C394.583 236.31 398.903 234.467 401.725 237.128C404.547 239.789 406.391 244.04 404.824 247.599C406.76 245.197 408.339 242.527 409.513 239.674C410.092 238.241 410.358 236.701 410.293 235.157C410.227 233.613 409.831 232.101 409.132 230.723C407.98 228.695 405.895 227.151 405.331 224.882C404.835 222.889 405.619 220.804 405.538 218.742C405.306 216.652 404.583 214.647 403.43 212.89C398.142 203.524 390.862 195.068 381.484 189.85C375.369 186.308 368.402 184.503 361.336 184.631C354.242 184.799 347.442 187.5 342.167 192.246C339.137 195.057 335.969 198.006 337.559 201.796" fill="#263238"/>
<path d="M401.449 240.019C401.691 239.363 413.66 235.043 413.822 247.772C413.971 260.133 401.495 257.702 401.472 257.345C401.449 256.988 401.449 240.019 401.449 240.019Z" fill="#FFBE9D"/>
<path d="M405.239 252.622C405.297 252.622 405.458 252.772 405.827 252.933C406.345 253.14 406.922 253.14 407.44 252.933C408.741 252.438 409.824 250.353 409.859 248.13C409.885 247.066 409.668 246.01 409.225 245.042C409.105 244.657 408.894 244.308 408.609 244.023C408.324 243.738 407.974 243.526 407.589 243.406C407.34 243.354 407.081 243.385 406.852 243.496C406.623 243.606 406.436 243.789 406.322 244.017C406.161 244.363 406.242 244.604 406.184 244.627C406.126 244.651 405.907 244.42 406.011 243.913C406.072 243.605 406.239 243.327 406.483 243.13C406.814 242.882 407.225 242.767 407.636 242.807C408.15 242.897 408.632 243.118 409.036 243.449C409.439 243.78 409.751 244.21 409.94 244.697C410.482 245.766 410.751 246.954 410.723 248.153C410.723 250.641 409.41 252.991 407.624 253.521C407.293 253.62 406.945 253.643 406.604 253.59C406.263 253.536 405.938 253.406 405.654 253.21C405.274 252.922 405.205 252.645 405.239 252.622Z" fill="#EB996E"/>
<path d="M406.368 233.66C406.105 233.547 405.854 233.409 405.619 233.246C405.147 232.946 404.41 232.543 403.546 231.932C401.113 230.143 398.873 228.105 396.864 225.85C393.949 222.469 391.226 218.926 388.708 215.24C385.66 210.742 382.247 206.504 378.501 202.568C376.498 200.604 374.289 198.862 371.912 197.372C369.679 196.007 367.288 194.92 364.792 194.135C360.567 192.777 356.122 192.233 351.694 192.534C348.705 192.713 345.752 193.29 342.916 194.25C341.902 194.561 341.153 194.896 340.612 195.103C340.349 195.22 340.075 195.313 339.794 195.379C340.041 195.234 340.299 195.107 340.566 194.999C341.312 194.631 342.082 194.311 342.87 194.043C345.706 192.991 348.677 192.347 351.694 192.131C356.177 191.779 360.687 192.291 364.977 193.64C367.515 194.425 369.948 195.516 372.223 196.889C374.636 198.403 376.88 200.172 378.916 202.165C382.689 206.132 386.111 210.418 389.146 214.975C391.644 218.663 394.336 222.216 397.21 225.619C399.172 227.882 401.352 229.946 403.718 231.783C404.571 232.428 405.274 232.854 405.723 233.188C405.95 233.328 406.166 233.486 406.368 233.66Z" fill="#455A64"/>
<path d="M406.656 254.811C407.264 254.705 407.889 254.834 408.404 255.171C408.92 255.509 409.289 256.03 409.435 256.628C409.582 257.227 409.495 257.859 409.193 258.396C408.891 258.934 408.396 259.336 407.808 259.523C407.214 259.73 406.562 259.699 405.99 259.435C405.418 259.171 404.971 258.696 404.743 258.109C404.514 257.523 404.522 256.87 404.766 256.289C405.009 255.708 405.468 255.245 406.046 254.995" fill="white"/>
<path d="M406.069 254.995C405.522 255.416 405.12 255.995 404.917 256.654C404.827 256.993 404.825 257.349 404.909 257.69C404.994 258.03 405.163 258.344 405.401 258.601C405.678 258.925 406.045 259.159 406.455 259.275C406.866 259.391 407.301 259.384 407.707 259.253C408.113 259.123 408.471 258.876 408.737 258.542C409.003 258.209 409.165 257.805 409.202 257.38C409.245 257.035 409.2 256.685 409.074 256.361C408.947 256.037 408.742 255.75 408.476 255.525C407.937 255.103 407.283 254.854 406.599 254.811C406.599 254.811 406.795 254.684 407.186 254.673C407.538 254.678 407.886 254.755 408.207 254.9C408.528 255.044 408.816 255.253 409.053 255.513C409.291 255.773 409.473 256.079 409.587 256.412C409.702 256.745 409.747 257.098 409.721 257.449C409.683 257.98 409.486 258.488 409.157 258.906C408.827 259.324 408.38 259.634 407.872 259.795C407.365 259.956 406.821 259.962 406.311 259.81C405.8 259.659 405.347 259.358 405.009 258.947C404.729 258.623 404.537 258.232 404.453 257.812C404.368 257.392 404.393 256.958 404.525 256.551C404.69 256.016 405.021 255.548 405.47 255.214C405.85 254.995 406.057 254.961 406.069 254.995Z" fill="#263238"/>
<path d="M403.258 237.162C403.454 240.538 403.604 244.074 402.048 247.104C400.493 250.134 396.542 252.15 393.616 250.468C391.22 249.109 390.494 246.033 390.091 243.303C388.939 235.434 388.386 227.463 387.142 219.594L403.258 237.162Z" fill="#263238"/>
<path d="M340.624 195.921C340.624 195.99 341.718 195.713 343.7 195.644C346.498 195.599 349.278 196.108 351.879 197.142C353.676 197.839 355.394 198.723 357.005 199.78C358.849 201.024 360.618 202.374 362.305 203.823C366.194 207.117 369.675 210.865 372.673 214.986C374.251 217.187 375.645 219.456 377.142 221.564C378.57 223.61 380.237 225.478 382.108 227.128C385.307 229.857 388.814 232.204 392.556 234.121C395.724 235.803 398.316 236.966 400.194 237.784L402.302 238.683C402.544 238.801 402.8 238.889 403.062 238.948C402.847 238.787 402.61 238.655 402.36 238.556L400.309 237.531C398.512 236.655 395.908 235.411 392.787 233.695C389.124 231.726 385.687 229.366 382.534 226.656C380.715 225.02 379.095 223.176 377.707 221.161C376.221 219.087 374.827 216.818 373.249 214.583C370.221 210.411 366.688 206.631 362.731 203.328C361.022 201.875 359.225 200.529 357.351 199.296C355.694 198.232 353.925 197.355 352.075 196.681C349.409 195.666 346.56 195.222 343.711 195.379C342.936 195.42 342.166 195.524 341.407 195.69C341.138 195.735 340.875 195.812 340.624 195.921Z" fill="#455A64"/>
<path d="M403.592 229.525C403.945 229.815 404.332 230.063 404.744 230.262L407.877 232.105L408.937 232.704C409.349 232.949 409.809 233.102 410.285 233.153C410.579 233.182 410.875 233.113 411.126 232.958C411.256 232.861 411.364 232.739 411.443 232.598C411.523 232.457 411.572 232.301 411.587 232.14C411.556 231.57 411.351 231.023 410.999 230.573C409.847 228.787 408.695 226.829 407.37 224.755L406.875 225.216C409.298 227.002 412.268 227.886 415.273 227.716C415.665 227.714 416.054 227.648 416.425 227.52C416.635 227.46 416.83 227.355 416.995 227.211C417.16 227.068 417.292 226.89 417.381 226.691C417.453 226.481 417.471 226.256 417.435 226.037C417.399 225.818 417.309 225.611 417.174 225.435C416.963 225.157 416.728 224.899 416.471 224.663C414.841 223.084 413.423 221.299 412.255 219.353C411.229 217.518 410.336 215.612 409.582 213.65C409.635 214.222 409.767 214.784 409.974 215.321C410.45 216.803 411.071 218.234 411.829 219.594C412.964 221.623 414.375 223.484 416.022 225.124C416.483 225.562 416.943 226.057 416.759 226.449C416.575 226.841 415.918 227.036 415.262 227.036C412.415 227.174 409.607 226.337 407.301 224.663L405.827 223.58L406.817 225.124L410.527 230.884C410.804 231.212 410.983 231.611 411.045 232.036C411.039 232.119 411.015 232.199 410.975 232.272C410.935 232.344 410.879 232.407 410.813 232.456C410.746 232.506 410.67 232.54 410.588 232.557C410.507 232.574 410.423 232.573 410.343 232.554C409.548 232.403 408.792 232.093 408.119 231.644L404.882 229.985C404.473 229.777 404.04 229.623 403.592 229.525Z" fill="#455A64"/>
<path d="M367.027 262.495C366.795 261.554 366.24 260.724 365.459 260.149C364.679 259.575 363.721 259.292 362.754 259.35C362.048 259.442 361.376 259.706 360.796 260.117C360.216 260.529 359.745 261.076 359.424 261.711C359.121 262.354 358.949 263.051 358.917 263.761C358.886 264.471 358.995 265.18 359.24 265.847L359.309 266.147C359.966 266.861 360.828 267.355 361.776 267.561C362.725 267.768 363.714 267.676 364.608 267.299C365.485 266.876 366.197 266.177 366.635 265.308C367.072 264.439 367.21 263.45 367.027 262.495Z" fill="#EB996E"/>
<path d="M357.005 266.216C357.005 265.732 360.208 265.882 362.627 263.255C365.046 260.629 364.851 257.196 365.3 257.196C365.507 257.196 365.887 257.99 365.853 259.43C365.786 261.309 365.06 263.103 363.802 264.499C362.598 265.854 360.91 266.681 359.102 266.803C357.754 266.826 356.982 266.435 357.005 266.216Z" fill="#263238"/>
<path d="M320.832 438.244L322.33 446.965L320.925 451.711C320.925 451.711 306.444 470.143 301.801 483.713C297.159 497.284 296.802 533.03 296.802 533.03L461.768 532.927C461.768 532.927 456.008 479.831 435.272 463.116V459.302L440.399 451.711C440.399 451.711 442.127 445.836 434.639 446.711C431.666 447.057 320.832 438.244 320.832 438.244Z" fill="#455A64"/>
<path d="M436.194 458.012H435.042L431.689 457.932C428.786 457.862 424.581 457.805 419.374 457.839C414.167 457.874 407.981 457.989 401.104 458.127C394.226 458.266 386.669 458.404 378.72 458.277C371.248 458.175 363.785 457.699 356.36 456.849C350.296 456.15 344.285 455.053 338.366 453.565C334.375 452.571 330.448 451.34 326.604 449.879C325.233 449.384 324.208 448.9 323.493 448.612L322.699 448.255C322.514 448.174 322.422 448.128 322.434 448.116L322.722 448.197L323.539 448.497C324.265 448.75 325.302 449.199 326.684 449.649C330.55 451.003 334.484 452.157 338.469 453.105C344.384 454.525 350.383 455.571 356.429 456.238C363.249 457.033 370.795 457.471 378.732 457.62C386.669 457.77 394.215 457.62 401.092 457.517C407.97 457.413 414.167 457.321 419.374 457.356C424.581 457.39 428.798 457.494 431.701 457.644C433.152 457.701 434.281 457.782 435.042 457.839L435.917 457.908C436.101 457.978 436.205 458.001 436.194 458.012Z" fill="#263238"/>
<path d="M436.193 465.662C436.098 465.68 436.001 465.68 435.905 465.662H435.03L431.678 465.581C428.774 465.512 424.57 465.454 419.363 465.489C414.156 465.523 407.969 465.638 401.092 465.777C394.214 465.915 386.657 466.053 378.709 465.926C370.76 465.8 363.191 465.316 356.348 464.498C350.285 463.799 344.274 462.703 338.354 461.215C334.363 460.218 330.436 458.983 326.592 457.517C325.221 457.022 324.196 456.549 323.482 456.261L322.687 455.904C322.502 455.823 322.41 455.777 322.422 455.766L322.71 455.847L323.528 456.146C324.254 456.399 325.29 456.837 326.673 457.298C330.538 458.654 334.472 459.807 338.458 460.754C344.373 462.174 350.371 463.221 356.417 463.887C363.237 464.682 370.783 465.12 378.72 465.27C386.657 465.42 394.203 465.27 401.08 465.166C407.958 465.062 414.156 464.97 419.363 465.005C424.57 465.039 428.786 465.143 431.689 465.293C433.141 465.35 434.27 465.431 435.03 465.489L435.905 465.558C436.101 465.638 436.205 465.65 436.193 465.662Z" fill="#263238"/>
<path d="M327.894 474.624C327.986 473.808 328.203 473.012 328.539 472.263C329.221 470.407 330.094 468.628 331.142 466.952C332.179 465.271 333.383 463.701 334.736 462.263C335.261 461.632 335.878 461.084 336.568 460.639C336.706 460.766 334.034 463.381 331.649 467.263C329.264 471.145 328.066 474.624 327.894 474.624Z" fill="#263238"/>
<path d="M333.758 485.234C333.685 484.917 333.666 484.59 333.7 484.267C333.709 483.385 333.767 482.504 333.873 481.628C334.225 478.738 334.85 475.888 335.739 473.115C336.61 470.347 337.696 467.65 338.988 465.051C339.471 463.947 340.07 462.897 340.773 461.918C340.373 463.047 339.903 464.152 339.368 465.224C338.21 467.857 337.191 470.548 336.315 473.288C335.438 476.034 334.765 478.841 334.299 481.686C333.942 483.84 333.85 485.246 333.758 485.234Z" fill="#263238"/>
<path d="M337.662 443.52C337.834 444.043 337.947 444.584 337.996 445.133C338.266 446.417 338.628 447.679 339.079 448.911C340.105 451.814 341.476 453.946 341.383 454.038C340.082 452.635 339.121 450.952 338.572 449.119C338.093 447.855 337.78 446.535 337.639 445.19C337.507 444.64 337.515 444.066 337.662 443.52Z" fill="#263238"/>
<path d="M342.547 446.976C343.136 448.177 343.547 449.458 343.768 450.778C344.186 452.05 344.407 453.378 344.425 454.717C343.411 452.247 342.778 449.637 342.547 446.976Z" fill="#263238"/>
<path d="M372.027 445.824C372.426 449.731 372.426 453.668 372.027 457.574C371.628 453.668 371.628 449.731 372.027 445.824Z" fill="#263238"/>
<path d="M375.713 448.831C376.575 451.777 376.494 454.918 375.483 457.816C375.31 457.816 375.644 455.789 375.702 453.324C375.759 450.858 375.552 448.854 375.713 448.831Z" fill="#263238"/>
<path d="M385.678 476.03C385.253 474.369 384.93 472.684 384.711 470.984C384.291 469.317 383.983 467.623 383.789 465.915C384.567 467.47 385.077 469.144 385.298 470.869C385.721 472.554 385.849 474.3 385.678 476.03Z" fill="#263238"/>
<path d="M286.848 361.164C286.526 360.115 298.645 325.452 305.833 320.198C313.022 314.945 345.473 307.423 345.473 307.423C345.473 307.423 359.136 320.901 377.453 318.102C395.77 315.302 409.836 302.377 409.836 302.377C409.836 302.377 444.499 306.916 450.386 311.109C456.273 315.302 472.274 353.307 472.274 353.307L444.027 376.842L441.527 398.154C441.527 398.154 442.84 442.541 439.891 447.091C436.942 451.642 321.512 440.064 321.512 440.064C321.512 440.064 315.625 439.016 320.199 428.544C324.772 418.072 328.055 411.068 328.055 411.068C328.055 411.068 319.876 401.979 318.563 385.897C317.249 369.815 314.035 368.087 314.035 368.087L286.848 361.164Z" fill="#FEDE8A"/>
<path d="M441.377 397.336C441.204 397.336 442.944 382.867 445.259 365.08C447.575 347.294 449.568 332.824 449.729 332.882C449.89 332.94 448.128 347.34 445.824 365.184C443.52 383.029 441.538 397.359 441.377 397.336Z" fill="#263238"/>
<path d="M317.653 373.985C317.503 374.043 315.349 368.859 312.826 362.396C310.303 355.933 308.402 350.657 308.552 350.6C308.702 350.542 310.856 355.726 313.391 362.177C315.925 368.628 317.814 373.928 317.653 373.985Z" fill="#263238"/>
<g opacity="0.3">
<path opacity="0.3" d="M354.251 392.452C353.729 389.45 352.479 386.622 350.611 384.215C347.904 381.151 343.618 379.849 339.54 379.872C335.451 380.09 331.414 380.885 327.548 382.234L320.187 393.754C320.427 394.45 320.821 395.082 321.339 395.605C321.858 396.128 322.488 396.526 323.182 396.772C324.568 397.254 326.022 397.515 327.49 397.544C335.109 398.097 342.727 398.416 350.346 398.5C351.329 398.602 352.321 398.418 353.203 397.97C354.816 396.841 354.7 394.387 354.251 392.452Z" fill="black"/>
</g>
<path d="M303.944 339.633C304.189 340.012 304.39 340.418 304.543 340.842C304.9 341.626 305.384 342.778 305.96 344.218C307.112 347.086 308.656 351.13 310.211 355.542C311.766 359.954 313.057 364.078 313.921 367.062C314.358 368.536 314.704 369.746 314.911 370.587C315.06 371.011 315.153 371.452 315.188 371.9C314.98 371.504 314.814 371.087 314.693 370.656L313.541 367.2C312.573 364.263 311.237 360.208 309.67 355.761C308.103 351.314 306.652 347.294 305.592 344.391C305.096 343.031 304.682 341.879 304.348 340.935C304.162 340.518 304.027 340.081 303.944 339.633Z" fill="#263238"/>
<path d="M303.886 343.296L316.8 390.401C317.025 391.172 317.498 391.847 318.146 392.322C318.794 392.797 319.58 393.045 320.383 393.028H348.388C348.927 393.046 349.463 392.942 349.956 392.723C350.449 392.503 350.886 392.175 351.233 391.762C351.58 391.349 351.829 390.863 351.961 390.34C352.093 389.817 352.104 389.271 351.994 388.743L340.669 341.66C340.463 340.866 339.994 340.165 339.34 339.67C338.686 339.174 337.884 338.914 337.064 338.93H307.457C306.912 338.912 306.37 339.019 305.873 339.245C305.376 339.47 304.937 339.807 304.592 340.23C304.246 340.652 304.003 341.149 303.88 341.68C303.758 342.212 303.76 342.765 303.886 343.296Z" fill="#263238"/>
<path d="M313.609 352.097C313.609 352.097 310.268 350.508 307.63 352.097C304.992 353.687 300.718 360.714 300.718 360.714L298.08 371.889L299.889 387.072L300.603 394.111L317.653 396.046V390.413L337.179 375.817C337.179 375.817 344.033 373.916 343.503 371.877C342.974 369.838 342.098 368.421 340.163 368.79C338.227 369.159 317.307 374.55 317.307 374.55C317.307 374.55 313.966 375.253 314.139 374.366C314.312 373.479 323.989 368.917 325.567 367.857C327.145 366.797 334.541 365.046 333.631 361.705C333.521 361.103 333.276 360.533 332.914 360.039C332.553 359.544 332.084 359.139 331.543 358.851C331.002 358.564 330.403 358.404 329.791 358.381C329.179 358.358 328.57 358.475 328.009 358.721L311.121 364.873L308.31 365.576L308.667 361.175L311.651 357.132C311.918 357.216 312.199 357.246 312.477 357.22C312.756 357.193 313.027 357.111 313.273 356.977C313.519 356.844 313.736 356.663 313.91 356.444C314.085 356.225 314.214 355.973 314.289 355.703C314.525 355.099 314.587 354.44 314.467 353.803C314.347 353.165 314.049 352.574 313.609 352.097Z" fill="#FFBE9D"/>
<path d="M311.339 364.792C310.042 365.536 308.651 366.101 307.204 366.474C305.824 367.055 304.37 367.443 302.884 367.626C304.184 366.889 305.574 366.324 307.019 365.944C308.402 365.37 309.855 364.983 311.339 364.792Z" fill="#EB996E"/>
<path d="M315.187 374.942C313.976 375.609 312.677 376.102 311.328 376.405C310.035 376.899 308.676 377.202 307.296 377.303C309.798 376.149 312.457 375.373 315.187 374.999V374.942Z" fill="#EB996E"/>
<path d="M336.107 375.99C335.808 376.228 335.479 376.425 335.128 376.577C334.472 376.923 333.515 377.395 332.306 377.948C329.173 379.363 325.971 380.617 322.71 381.704C319.448 382.8 316.129 383.719 312.768 384.457C311.478 384.745 310.464 384.941 309.692 385.056C309.314 385.144 308.928 385.186 308.54 385.183C309.887 384.719 311.26 384.334 312.653 384.031C315.199 383.374 318.701 382.395 322.502 381.128C326.304 379.86 329.691 378.536 332.133 377.545C333.427 376.952 334.754 376.433 336.107 375.99Z" fill="#EB996E"/>
<path d="M305.189 384.25C305.131 384.4 304.037 383.824 303.691 382.487C303.345 381.151 303.921 380.103 304.048 380.183C304.175 380.264 303.944 381.197 304.267 382.303C304.589 383.409 305.281 384.112 305.189 384.25Z" fill="#EB996E"/>
<path d="M301.824 375.368C301.824 375.437 301.513 375.368 301.122 375.172C300.632 374.836 300.264 374.35 300.073 373.787C299.882 373.224 299.878 372.615 300.062 372.05C300.223 371.624 300.431 371.428 300.5 371.462C300.569 371.497 300.246 372.488 300.649 373.594C301.053 374.7 301.824 375.206 301.824 375.368Z" fill="#EB996E"/>
<path d="M299.877 364.493C299.887 364.679 299.867 364.866 299.82 365.046C299.739 365.472 299.635 365.979 299.52 366.613C299.232 368.064 298.829 370.069 298.368 372.442V372.373C299.117 377.718 300.142 385.459 301.26 394.145V394.215V394.295C301.041 394.883 300.799 395.505 300.568 396.138C298.055 403.245 296.883 410.757 297.112 418.291C297.176 420.573 297.365 422.85 297.677 425.111C297.781 425.86 297.861 426.471 297.93 426.954C297.978 427.17 297.997 427.391 297.988 427.611C297.911 427.406 297.853 427.194 297.815 426.978C297.723 426.563 297.573 425.952 297.435 425.146C297.043 422.883 296.793 420.597 296.686 418.303C296.327 410.701 297.454 403.102 300.004 395.931C300.234 395.297 300.476 394.664 300.695 394.076V394.226C299.543 385.528 298.622 377.787 297.999 372.419L299.37 366.659C299.532 366.037 299.658 365.507 299.762 365.115C299.784 364.905 299.823 364.697 299.877 364.493Z" fill="#EB996E"/>
<path d="M320.463 388.766C319.357 389.907 318.028 390.809 316.558 391.415C315.171 392.193 313.637 392.676 312.054 392.832C312.054 392.671 313.989 392.003 316.293 390.874C318.597 389.745 320.36 388.616 320.463 388.766Z" fill="#EB996E"/>
<path d="M428.544 412.704C428.544 412.704 433.002 413.856 433.44 416.759C433.878 419.662 430.318 469.751 430.318 469.751H434.557C434.557 469.751 436.251 420.134 436.182 416.586C436.113 413.038 434.431 412.808 433.797 412.554C432.073 412.058 430.237 412.11 428.544 412.704Z" fill="#263238"/>
<path d="M426.298 412.612L446.7 413.395L442.633 388.766L444.027 376.842L471.064 354.263C471.064 354.263 480.522 409.121 481.375 415.457C482.388 423.061 480.914 433.141 477.228 436.746C474.083 439.811 451.423 436.746 442.668 436.746C437.829 436.746 426.263 436.827 426.263 436.827L422.208 417.911L426.298 412.612Z" fill="#FFBE9D"/>
<path d="M477.228 413.464C477.147 413.568 475.765 412.312 473.104 411.16C469.656 409.602 465.877 408.921 462.102 409.179C460.035 409.317 457.998 409.752 456.054 410.469C454.269 411.114 452.725 411.967 451.354 412.497C450.274 412.957 449.133 413.259 447.967 413.395C447.545 413.475 447.111 413.475 446.688 413.395C448.243 413.222 449.759 412.802 451.181 412.151C452.518 411.575 454.027 410.699 455.858 409.997C457.847 409.228 459.94 408.766 462.068 408.626C465.935 408.359 469.805 409.113 473.288 410.815C474.331 411.332 475.325 411.942 476.26 412.635C476.614 412.873 476.939 413.151 477.228 413.464Z" fill="#EB996E"/>
<path d="M405.262 458.035C404.513 458.991 395.896 533.226 395.896 533.226L485.441 532.927L471.249 458.266L405.262 458.035Z" fill="#FEDE8A"/>
<path d="M420.112 533.031C419.951 533.031 419.018 516.35 418.039 495.752C417.059 475.154 416.403 458.496 416.575 458.496C416.748 458.496 417.658 475.177 418.638 495.775C419.617 516.373 420.273 533.019 420.112 533.031Z" fill="#263238"/>
<path d="M383.616 413.856C386.089 413.497 388.537 412.977 390.943 412.301C392.07 411.752 393.159 411.129 394.203 410.435L405.723 409.501L426.286 412.612C426.286 412.612 429.742 415.1 429.247 422.738C428.826 427.853 427.725 432.889 425.975 437.714C425.975 437.714 416.759 445.213 414.294 445.674C411.828 446.135 397.774 445.352 396.38 444.257C395.556 443.633 394.867 442.85 394.353 441.953C393.602 441.57 392.997 440.951 392.631 440.192C392.265 439.433 392.157 438.575 392.325 437.748C392.325 437.748 387.498 431.516 386.876 428.867C386.254 426.217 387.026 425.595 387.026 425.595C387.026 425.595 385.632 422.012 386.715 420.768C386.987 420.464 387.318 420.219 387.688 420.046C388.058 419.874 388.458 419.777 388.866 419.763C389.274 419.749 389.68 419.818 390.061 419.965C390.441 420.112 390.788 420.334 391.081 420.618C392.175 421.862 399.03 420.929 399.03 420.929L405.101 416.874C401.977 417.668 398.801 418.241 395.597 418.591C392.337 418.683 382.522 420.872 383.616 413.856Z" fill="#FFBE9D"/>
<path d="M407.451 428.544C407.451 428.636 406.195 428.855 404.237 429.535C403.258 429.869 402.094 430.307 400.781 430.687C399.338 431.171 397.832 431.443 396.311 431.493C394.753 431.542 393.213 431.142 391.876 430.341C390.819 429.672 389.88 428.831 389.1 427.853C388.577 427.209 388.096 426.531 387.66 425.825C387.349 425.33 387.199 425.042 387.233 425.019C387.268 424.996 388.051 426.033 389.422 427.576C390.207 428.482 391.128 429.259 392.152 429.88C393.414 430.597 394.85 430.949 396.3 430.894C399.41 430.814 402.06 429.627 404.122 429.097C405.191 428.721 406.318 428.534 407.451 428.544Z" fill="#EB996E"/>
<path d="M411.644 423.061C411.702 423.061 411.92 423.199 412.082 423.625C412.278 424.18 412.278 424.786 412.082 425.342C411.894 425.903 411.514 426.38 411.01 426.689C410.619 426.92 410.342 426.92 410.308 426.851C410.273 426.782 411.149 426.24 411.517 425.146C411.886 424.051 411.494 423.13 411.644 423.061Z" fill="#EB996E"/>
<path d="M411.183 436.689C410.24 436.961 409.271 437.135 408.292 437.207C406.495 437.461 404.006 437.76 401.265 438.048C399.966 438.223 398.658 438.323 397.348 438.348C396.259 438.369 395.174 438.198 394.145 437.841C393.16 437.576 392.306 436.956 391.749 436.101C392.517 436.679 393.373 437.13 394.283 437.438C395.278 437.724 396.314 437.844 397.348 437.795C398.5 437.795 399.825 437.599 401.195 437.461C403.949 437.161 406.437 436.931 408.246 436.793C409.219 436.66 410.203 436.625 411.183 436.689Z" fill="#EB996E"/>
<path d="M416.505 431.758C416.574 431.758 416.793 431.988 416.943 432.507C417.139 433.184 417.139 433.903 416.943 434.58C416.75 435.259 416.376 435.873 415.86 436.354C415.457 436.7 415.134 436.804 415.1 436.746C415.065 436.689 415.987 435.825 416.367 434.442C416.522 433.556 416.568 432.655 416.505 431.758Z" fill="#EB996E"/>
<path d="M413.199 442.967C412.308 443.229 411.386 443.368 410.457 443.382C406.002 443.737 401.518 443.458 397.14 442.552C396.219 442.427 395.32 442.175 394.468 441.804C395.39 441.833 396.307 441.944 397.21 442.138C398.891 442.391 401.218 442.679 403.799 442.84C406.379 443.002 408.73 443.002 410.434 442.967C411.354 442.88 412.28 442.88 413.199 442.967Z" fill="#EB996E"/>
<path d="M432.691 412.278C432.691 412.278 436.723 415.296 437.472 417.128C438.221 418.959 446.273 458.024 446.273 458.024H449.729C449.729 458.024 441.516 415.699 439.511 414.063C438.791 413.481 438.02 412.964 437.207 412.52C436.53 412.161 435.783 411.952 435.018 411.907C434.253 411.861 433.487 411.98 432.772 412.255L432.691 412.278Z" fill="#263238"/>
<path d="M354.022 419.95C352.875 420.102 351.713 420.102 350.566 419.95C345.086 419.436 339.803 417.645 335.14 414.72C334.149 414.157 333.232 413.472 332.41 412.681C332.468 412.6 333.562 413.338 335.359 414.351C337.717 415.69 340.198 416.801 342.767 417.669C345.335 418.53 347.976 419.155 350.658 419.535C352.732 419.789 354.022 419.858 354.022 419.95Z" fill="#263238"/>
<g opacity="0.3">
<path opacity="0.3" d="M374.216 419.328C372.102 419.144 369.973 419.225 367.88 419.57C357.109 420.722 345.992 420.722 336.119 415.204C337.537 418.166 339.963 420.526 342.962 421.862C346.377 423.03 349.963 423.618 353.572 423.602C362.237 423.956 370.916 423.571 379.515 422.45C378.918 421.57 378.133 420.833 377.216 420.294C376.3 419.754 375.275 419.424 374.216 419.328Z" fill="black"/>
</g>
<path d="M341.327 308.736C341.327 304.648 339.703 300.728 336.813 297.837C333.922 294.946 330.001 293.322 325.913 293.322H232.072C228.058 293.432 224.246 295.104 221.446 297.981C218.646 300.859 217.079 304.715 217.079 308.73C217.079 312.745 218.646 316.602 221.446 319.479C224.246 322.357 228.058 324.029 232.072 324.138H288.162C293.427 329.219 302.424 336.073 302.424 336.073V323.574L327.042 324.069C335.464 323.816 341.327 316.8 341.327 308.736Z" fill="white"/>
<path d="M341.327 308.736C341.327 308.736 341.327 309.013 341.327 309.577C341.305 310.405 341.212 311.23 341.05 312.042C340.796 313.368 340.378 314.656 339.806 315.878C338.996 317.545 337.896 319.055 336.557 320.337C334.861 321.931 332.801 323.086 330.555 323.7C329.929 323.867 329.295 324.002 328.655 324.104C327.985 324.181 327.312 324.223 326.639 324.23L322.388 324.161L302.435 323.804L302.654 323.585C302.654 327.525 302.654 331.707 302.654 336.061V336.557L302.274 336.257C297.666 332.698 292.747 328.827 287.966 324.323L288.15 324.403H254.166H235.677C234.087 324.403 232.532 324.461 230.896 324.346C227.756 324.097 224.762 322.916 222.299 320.954C219.836 318.991 218.015 316.337 217.072 313.332C216.695 312.074 216.471 310.774 216.404 309.462C216.345 308.158 216.438 306.851 216.68 305.568C216.951 304.297 217.372 303.064 217.936 301.893C219.04 299.591 220.691 297.594 222.746 296.077C224.8 294.561 227.195 293.572 229.721 293.196C230.946 293.028 232.183 292.962 233.419 293H258.048L305.96 293.069H324.392C325.705 293.026 327.019 293.095 328.32 293.276C329.529 293.467 330.712 293.795 331.846 294.255C333.821 295.08 335.606 296.304 337.087 297.85C338.274 299.072 339.241 300.491 339.944 302.043C340.23 302.662 340.48 303.296 340.693 303.944C340.854 304.543 340.992 305.096 341.096 305.58C341.24 306.34 341.32 307.11 341.338 307.884C341.338 308.402 341.338 308.667 341.338 308.667C341.338 308.667 341.338 308.402 341.269 307.884C341.22 307.11 341.12 306.34 340.969 305.58C340.854 305.096 340.704 304.554 340.532 303.967C340.321 303.328 340.067 302.705 339.771 302.1C339.062 300.573 338.091 299.181 336.903 297.988C335.431 296.496 333.671 295.32 331.73 294.532C330.618 294.09 329.458 293.776 328.274 293.599C326.988 293.425 325.689 293.363 324.392 293.414H305.96H258.048H233.419C232.214 293.371 231.007 293.433 229.813 293.599C226.761 294.079 223.927 295.475 221.686 297.602C219.446 299.729 217.905 302.487 217.268 305.51C216.79 307.996 216.916 310.56 217.636 312.987C218.026 314.198 218.56 315.359 219.226 316.443C220.47 318.479 222.182 320.188 224.22 321.428C226.258 322.669 228.562 323.404 230.942 323.574C232.486 323.689 234.11 323.574 235.677 323.631H254.178H288.162H288.265L288.346 323.7C293.081 328.182 297.988 332.064 302.573 335.635L302.182 335.82C302.182 331.465 302.182 327.283 302.182 323.343V323.124H302.412L322.353 323.574C325.279 323.574 328.044 323.931 330.417 323.171C332.62 322.654 334.667 321.615 336.384 320.141C337.714 318.893 338.81 317.419 339.622 315.786C340.569 313.84 341.125 311.726 341.257 309.565C341.292 309.001 341.327 308.736 341.327 308.736Z" fill="#263238"/>
<path d="M255.968 302.488H245.776V301.16H257.552V306.04H255.968V302.488ZM258.528 306.936V308.248H244.88V306.936H250V304.184H251.6V306.936H258.528ZM247.424 313.224H257.744V314.504H245.824V309.576H257.584V310.856H247.424V313.224ZM277.539 301V314.664H275.955V301H277.539ZM270.339 312.36C272.43 312.36 273.923 312.168 274.819 311.784V313.272C273.88 313.656 272.392 313.848 270.355 313.848H264.755V312.36H268.659V309.368H265.555V301.448H267.075V303.88H271.859V301.448H273.395V309.368H270.243V312.36H270.339ZM267.075 307.944H271.859V305.288H267.075V307.944ZM293.01 301V314.664H291.426V308.152H288.802C288.738 310.093 288.338 311.56 287.602 312.552C286.876 313.533 285.922 314.024 284.738 314.024C283.49 314.024 282.498 313.491 281.762 312.424C281.026 311.357 280.658 309.773 280.658 307.672C280.658 305.571 281.026 303.987 281.762 302.92C282.498 301.853 283.49 301.32 284.738 301.32C285.879 301.32 286.807 301.768 287.522 302.664C288.236 303.56 288.652 304.893 288.77 306.664H291.426V301H293.01ZM284.738 312.568C285.484 312.568 286.082 312.168 286.53 311.368C286.988 310.557 287.218 309.325 287.218 307.672C287.218 306.019 286.988 304.792 286.53 303.992C286.082 303.181 285.484 302.776 284.738 302.776C283.98 302.776 283.372 303.181 282.914 303.992C282.466 304.792 282.242 306.019 282.242 307.672C282.242 309.325 282.466 310.557 282.914 311.368C283.372 312.168 283.98 312.568 284.738 312.568ZM309.184 312.552V314.008H295.536V312.552H298.672V308.856C297.883 308.493 297.27 308.019 296.832 307.432C296.406 306.835 296.192 306.157 296.192 305.4C296.192 304.568 296.443 303.837 296.944 303.208C297.456 302.579 298.176 302.093 299.104 301.752C300.043 301.411 301.126 301.24 302.352 301.24C303.579 301.24 304.656 301.411 305.584 301.752C306.523 302.093 307.243 302.579 307.744 303.208C308.256 303.837 308.512 304.568 308.512 305.4C308.512 306.157 308.294 306.835 307.856 307.432C307.43 308.019 306.827 308.488 306.048 308.84V312.552H309.184ZM297.872 305.4C297.872 305.933 298.059 306.408 298.432 306.824C298.806 307.229 299.328 307.544 300 307.768C300.683 307.992 301.467 308.104 302.352 308.104C303.238 308.104 304.022 307.992 304.704 307.768C305.387 307.544 305.915 307.229 306.288 306.824C306.662 306.408 306.848 305.933 306.848 305.4C306.848 304.856 306.662 304.381 306.288 303.976C305.915 303.56 305.387 303.24 304.704 303.016C304.022 302.792 303.238 302.68 302.352 302.68C301.467 302.68 300.683 302.792 300 303.016C299.328 303.24 298.806 303.56 298.432 303.976C298.059 304.381 297.872 304.856 297.872 305.4ZM300.256 312.552H304.464V309.352C303.824 309.48 303.12 309.544 302.352 309.544C301.595 309.544 300.896 309.48 300.256 309.352V312.552ZM311.119 301.512H313.151L312.735 310.776H311.519L311.119 301.512ZM312.127 314.584C311.796 314.584 311.514 314.472 311.279 314.248C311.055 314.024 310.943 313.741 310.943 313.4C310.943 313.069 311.055 312.792 311.279 312.568C311.514 312.344 311.796 312.232 312.127 312.232C312.458 312.232 312.735 312.344 312.959 312.568C313.194 312.792 313.311 313.069 313.311 313.4C313.311 313.741 313.199 314.024 312.975 314.248C312.751 314.472 312.468 314.584 312.127 314.584Z" fill="#2D2D2D"/>
</svg>
