<svg width="171" height="124" viewBox="0 0 171 124" fill="none" xmlns="http://www.w3.org/2000/svg">
<path d="M105.942 0H27.1846V43.4437H105.942V0Z" fill="#455A64"/>
<path d="M12 43.4512H27.1857V29.9102L12 43.4512Z" fill="#455A64"/>
<path d="M72.4667 8.02637H36.7607V9.00636H72.4667V8.02637Z" fill="white"/>
<path d="M96.7366 13.3105H36.7607V14.2905H96.7366V13.3105Z" fill="white"/>
<path d="M96.7366 18.5938H36.7607V19.5737H96.7366V18.5938Z" fill="white"/>
<path d="M85.2408 23.8779H36.7607V24.8579H85.2408V23.8779Z" fill="white"/>
<path d="M96.7366 29.1611H36.7607V30.1411H96.7366V29.1611Z" fill="white"/>
<path d="M58.8235 34.4453H36.7607V35.4253H58.8235V34.4453Z" fill="white"/>
<path d="M138.929 52.0625H60.6992V84.2831H138.929V52.0625Z" fill="#FEDE8A"/>
<path d="M138.7 70.7305V84.2705H153.89L138.7 70.7305Z" fill="#FEDE8A"/>
<path d="M129.534 59.0811H70.2227V60.0611H129.534V59.0811Z" fill="white"/>
<path d="M104.062 64.3652H70.2227V65.3452H104.062V64.3652Z" fill="white"/>
<path d="M115.967 69.6484H70.2227V70.6284H115.967V69.6484Z" fill="white"/>
<path d="M86.1583 74.9316H70.2227V75.9116H86.1583V74.9316Z" fill="white"/>
<path d="M10.7155 71.4295L10.2383 71.0119C10.6047 70.5858 10.9967 70.1598 11.3887 69.7422L11.8574 70.1768C11.4654 70.5944 11.0819 71.0119 10.7155 71.4295Z" fill="#263238"/>
<path d="M29.613 124V123.361C30.7037 123.361 31.8201 123.267 32.9364 123.139L33.0131 123.778C31.8627 123.898 30.7208 123.974 29.613 124ZM25.3521 123.804C24.2236 123.677 23.1027 123.49 21.9945 123.242L22.1394 122.619C23.2221 122.862 24.3174 123.044 25.4203 123.165L25.3521 123.804ZM37.1547 123.071L37.0183 122.449C38.0835 122.21 39.1658 121.921 40.2481 121.597L40.4355 122.21C39.3703 122.534 38.2625 122.832 37.1802 123.071H37.1547ZM17.9297 122.023C16.8686 121.62 15.8327 121.153 14.8278 120.625L15.126 120.054C16.1077 120.569 17.1177 121.027 18.1513 121.426L17.9297 122.023ZM44.4237 120.77L44.1766 120.174C45.1992 119.756 46.2218 119.322 47.2274 118.81L47.5086 119.381C46.52 119.884 45.4804 120.344 44.4493 120.77H44.4237ZM11.189 118.359C10.2768 117.685 9.40863 116.953 8.58989 116.169L9.03301 115.708C9.83952 116.474 10.6934 117.189 11.5895 117.847L11.189 118.359ZM51.1985 117.379L50.8661 116.833C51.812 116.262 52.7494 115.649 53.6612 115.001L54.0277 115.529C53.167 116.177 52.2126 116.799 51.2581 117.379H51.1985ZM5.75215 113.007C5.06052 112.107 4.42585 111.165 3.85182 110.186L4.40573 109.862C4.96363 110.818 5.58125 111.737 6.25492 112.615L5.75215 113.007ZM57.3682 112.93L56.9506 112.445C57.8028 111.737 58.6124 110.979 59.4219 110.203L59.8651 110.663C59.1066 111.447 58.2715 112.214 57.4279 112.93H57.3682ZM62.7965 107.613L62.3193 107.187C63.0522 106.386 63.785 105.482 64.5009 104.63L64.9951 105.031C64.3475 105.942 63.5891 106.803 62.8562 107.613H62.7965ZM1.99407 106.36C1.57532 105.303 1.21964 104.221 0.928864 103.122L1.55095 102.96C1.83291 104.033 2.1772 105.088 2.58207 106.121L1.99407 106.36ZM67.6113 101.716L67.0915 101.332C67.7562 100.48 68.4038 99.5256 69.043 98.6052L69.5713 98.9632C68.9577 99.9005 68.3101 100.812 67.6454 101.716H67.6113ZM0.187479 98.9461C0.0653248 97.851 0.00273903 96.7501 0 95.6482V95.5545H0.639129V95.6567C0.63926 96.733 0.698996 97.8083 0.818078 98.8779L0.187479 98.9461ZM71.9148 95.4607L71.3779 95.1113C71.9829 94.1739 72.588 93.2366 73.1845 92.2736L73.7214 92.6145C73.1589 93.5774 72.5539 94.5319 71.9489 95.4607H71.9148ZM0.937381 91.4044L0.306782 91.3107C0.464267 90.1894 0.680443 89.0772 0.954428 87.9787L1.57651 88.1321C1.31682 89.2113 1.11486 90.3036 0.971475 91.4044H0.937381ZM75.9285 89.0268L75.3831 88.6945C75.9626 87.7401 76.5421 86.7856 77.0875 85.8142L77.6328 86.1465L75.9285 89.0268ZM2.81217 84.1524L2.21564 83.9308C2.60764 82.8827 3.06783 81.8345 3.56208 80.8119L4.13303 81.0931C3.6899 82.0987 3.23825 83.1298 2.85477 84.1524H2.81217ZM79.84 82.5418L79.2946 82.2095L81.0415 79.3291L81.5869 79.6615L79.84 82.5418ZM6.1612 77.4288L5.6158 77.0879C6.21232 76.142 6.85146 75.1961 7.52468 74.2843L8.03599 74.6677C7.42242 75.5796 6.78327 76.5084 6.2038 77.4884L6.1612 77.4288ZM83.8111 76.0738L83.2657 75.733C83.8622 74.787 84.4758 73.8411 85.0893 72.9037L85.6262 73.2531C85.0553 74.2076 84.4417 75.1535 83.8537 76.0909L83.8111 76.0738ZM87.9697 69.7678L87.4413 69.4013C88.0805 68.481 88.7366 67.5691 89.4013 66.6573L89.9126 67.0323C89.2877 67.9469 88.6543 68.8758 88.0123 69.8189L87.9697 69.7678ZM92.4521 63.6918L91.9493 63.2912C92.6566 62.3965 93.3725 61.5187 94.0798 60.6751L94.574 61.0926C93.9093 61.9448 93.1935 62.814 92.4692 63.7088L92.4521 63.6918ZM97.3436 57.9481L96.8749 57.5135C97.6418 56.6613 98.4344 55.8688 99.2184 55.0848L99.67 55.5365C98.9286 56.3375 98.1531 57.1471 97.3862 57.9652L97.3436 57.9481ZM102.712 52.6647L102.286 52.1874C103.138 51.4375 103.991 50.6961 104.843 49.9888L105.243 50.4831C104.442 51.1989 103.547 51.9233 102.755 52.6817L102.712 52.6647ZM108.567 47.9266L108.192 47.4153C109.095 46.7506 110.032 46.1029 110.97 45.4894L111.319 46.0262C110.433 46.6483 109.513 47.296 108.609 47.9436L108.567 47.9266ZM114.873 43.8276L114.557 43.2737C115.52 42.7198 116.517 42.1659 117.514 41.6546L117.813 42.217C116.858 42.7454 115.87 43.2908 114.915 43.8447L114.873 43.8276ZM121.571 40.419L121.307 39.8395C122.329 39.3793 123.377 38.9362 124.417 38.5186L124.656 39.1151C123.659 39.5157 122.628 39.9929 121.613 40.4104L121.571 40.419ZM128.576 37.6664L128.371 37.0614C129.428 36.695 130.51 36.3541 131.592 36.0303L131.771 36.6438C130.74 36.9506 129.666 37.3 128.618 37.6579L128.576 37.6664Z" fill="#263238"/>
<path d="M136.01 35.4848L135.856 34.8627L137.518 34.4707L137.663 35.0928L136.01 35.4848Z" fill="#263238"/>
<path d="M136.604 28.3857L130.102 36.9245L139.254 33.4647L170.58 32.0245L136.604 28.3857Z" fill="#FEDE8A"/>
<path opacity="0.1" d="M136.604 28.3857L130.102 36.9245L139.254 33.4647L170.58 32.0245L136.604 28.3857Z" fill="black"/>
<path d="M139.501 36.0043L130.102 36.9247L139.254 33.4648L139.501 36.0043Z" fill="#263238"/>
<path d="M139.256 33.4656L170.582 32.0254L140.474 47.3645L139.256 33.4656Z" fill="#FEDE8A"/>
<path d="M136.601 28.386L127.253 17.1885L170.577 32.0248L136.601 28.386Z" fill="#FEDE8A"/>
</svg>
