<svg width="17" height="15" viewBox="0 0 17 15" fill="none" xmlns="http://www.w3.org/2000/svg">
<path d="M14.2362 2.08324L14.2358 2.08285C13.8328 1.68777 13.3576 1.3738 12.8361 1.15802L12.8354 1.15776C12.2944 0.933028 11.7142 0.817999 11.1284 0.819348L11.1272 0.81935C10.304 0.819349 9.50163 1.04474 8.80483 1.46982L8.80481 1.46983C8.6381 1.57153 8.48008 1.683 8.3306 1.80425L8.01562 2.05973L7.70065 1.80425C7.55116 1.683 7.39315 1.57153 7.22644 1.46983L7.22642 1.46982C6.52962 1.04474 5.7273 0.819349 4.904 0.819349C4.31027 0.819349 3.73724 0.932855 3.19581 1.15776L3.19527 1.15798C2.6718 1.3747 2.20052 1.68609 1.79527 2.083L1.79459 2.08367L1.79459 2.08367C1.39239 2.4761 1.0711 2.94363 0.848926 3.45977L14.2362 2.08324ZM14.2362 2.08324C14.6381 2.47633 14.9595 2.94399 15.1824 3.46006M14.2362 2.08324L15.1824 3.46006M15.1824 3.46006C15.4135 3.99704 15.5311 4.56566 15.5294 5.15143V5.15285C15.5294 5.70226 15.4172 6.28563 15.1857 6.89094L15.1853 6.89207C14.9935 7.39732 14.7103 7.9314 14.343 8.47974C13.7617 9.34636 12.9532 10.2632 11.9349 11.2034C10.2425 12.7647 8.56714 13.843 8.50468 13.8831L8.50458 13.8831L8.06581 14.1646C8.06571 14.1646 8.06561 14.1647 8.06552 14.1647C8.03483 14.1842 7.99447 14.1841 7.9638 14.1647C7.96373 14.1646 7.96366 14.1646 7.96359 14.1646L7.52481 13.8831L7.52486 13.8831L7.51693 13.8782C7.51724 13.8784 7.51017 13.874 7.4934 13.8632C7.4779 13.8532 7.4563 13.8391 7.42896 13.8212C7.37431 13.7853 7.29731 13.734 7.2011 13.6685C7.00867 13.5375 6.73998 13.3499 6.42017 13.1144C5.77978 12.643 4.93831 11.9827 4.09469 11.2036L4.09464 11.2035C3.07623 10.2633 2.26775 9.3464 1.6864 8.47974C1.31971 7.93237 1.03786 7.39784 0.843673 6.89094L15.1824 3.46006ZM0.5 5.15285C0.5 4.56603 0.617805 3.99685 0.84891 3.45981L0.843577 6.89069C0.612148 6.28547 0.5 5.70218 0.5 5.15285Z" stroke="#2D2D2D"/>
</svg>
