<svg width="12" height="11" viewBox="0 0 12 11" fill="none" xmlns="http://www.w3.org/2000/svg">
<path d="M11.7097 2.25423C11.5235 1.8131 11.255 1.41336 10.9193 1.07737C10.5833 0.740387 10.1872 0.472587 9.75251 0.288539C9.30173 0.0969345 8.81824 -0.0011396 8.33012 9.99031e-06C7.64532 9.99031e-06 6.97719 0.191889 6.39657 0.554327C6.25766 0.641028 6.1257 0.736256 6.00069 0.840013C5.87567 0.736256 5.74371 0.641028 5.60481 0.554327C5.02419 0.191889 4.35605 9.99031e-06 3.67125 9.99031e-06C3.17814 9.99031e-06 2.70031 0.0966601 2.24887 0.288539C1.81271 0.473311 1.41961 0.739099 1.08207 1.07737C0.745914 1.41298 0.477385 1.81282 0.2917 2.25423C0.0986224 2.71332 0 3.20083 0 3.70256C0 4.17586 0.0944553 4.66906 0.281977 5.17079C0.438939 5.59008 0.663965 6.02501 0.951498 6.4642C1.40711 7.15922 2.03357 7.8841 2.81143 8.61893C4.10047 9.837 5.377 10.6784 5.43118 10.7125L5.76038 10.9286C5.90623 11.0238 6.09375 11.0238 6.2396 10.9286L6.56881 10.7125C6.62298 10.677 7.89813 9.837 9.18855 8.61893C9.96642 7.8841 10.5929 7.15922 11.0485 6.4642C11.336 6.02501 11.5624 5.59008 11.718 5.17079C11.9055 4.66906 12 4.17586 12 3.70256C12.0014 3.20083 11.9028 2.71332 11.7097 2.25423V2.25423Z" fill="#2D2D2D"/>
</svg>
