<svg width="1670" height="670" viewBox="0 0 1670 670" fill="none" xmlns="http://www.w3.org/2000/svg">
<g clip-path="url(#clip0_113:205)">
<path d="M310.606 263.731C295.653 283.986 275.532 299.71 252.417 309.204C196.838 331.167 135.163 331.167 79.5837 309.204C56.4269 299.656 36.2345 283.947 21.1321 263.731C7.50341 244.344 0.177734 221.123 0.177734 197.306C0.177734 173.49 7.50341 150.268 21.1321 130.882C36.2196 110.651 56.4165 94.9381 79.5837 85.4085C135.163 63.4456 196.838 63.4456 252.417 85.4085C275.54 94.8881 295.664 110.615 310.606 130.882C324.037 150.349 331.242 173.54 331.242 197.306C331.242 221.073 324.037 244.264 310.606 263.731ZM516.158 556.562V606.887H47.1806V461.084H440.533V413.372H45.9202V363.047H502.819V508.85H109.466V556.562H516.158ZM91.3474 253.069C110.604 267.071 135.497 274.073 166.027 274.073C196.557 274.073 221.292 267.071 240.233 253.069C249.053 246.778 256.252 238.424 261.222 228.714C266.192 219.004 268.786 208.222 268.786 197.28C268.786 186.337 266.192 175.555 261.222 165.845C256.252 156.135 249.053 147.782 240.233 141.491C221.187 127.524 196.399 120.54 165.869 120.54C135.339 120.54 110.446 127.524 91.1899 141.491C82.2859 147.72 75.0064 156.053 69.9776 165.771C64.9488 175.489 62.3215 186.302 62.3215 197.28C62.3215 208.257 64.9488 219.07 69.9776 228.788C75.0064 238.506 82.2859 246.839 91.1899 253.069H91.3474ZM439.798 230.838V161.162H347.736L343.954 108.279H439.798V63.125H502.819V332.767H439.798V283.722H343.954L347.736 230.838H439.798Z" fill="#2D2D2D"/>
<path d="M602.622 210.207H861.215V130.882H601.309V76.6658H923.448V262.451H664.854V343.695H807.806C841.279 343.929 874.727 341.774 907.903 337.245C932.205 334.355 956.025 328.225 978.748 319.013V373.389C955.946 382.662 932.006 388.742 907.588 391.461C873.671 395.965 839.491 398.12 805.285 397.912H602.622V210.207ZM624.206 448.183H687.752V550.112H1098.91V606.887H624.153L624.206 448.183ZM1021.34 63.125H1084.36V473.985H1021.34V63.125Z" fill="#2D2D2D"/>
<path d="M1282.72 311.123C1250.13 329.445 1214.08 340.547 1176.96 343.695V287.027C1221.45 281.021 1257.36 264.033 1284.67 236.063C1312.02 207.948 1328.75 170.958 1331.93 131.575H1183.94V77.3055H1535.33V131.522H1395.58C1394.38 152.261 1390.1 172.696 1382.87 192.135L1553.13 290.812L1523.31 338.791L1358.82 241.18C1339.13 270.156 1313.08 294.099 1282.72 311.123ZM1608.33 373.389H1669.99V606.887H1209.94V373.389H1271.64V434.642H1608.38L1608.33 373.389ZM1608.33 554.643V486.246H1271.64V554.643H1608.33ZM1670.04 63.125V349.506H1607.02V63.125H1670.04Z" fill="#2D2D2D"/>
</g>
<defs>
<clipPath id="clip0_113:205">
<rect width="2534" height="670" fill="white" transform="translate(-864)"/>
</clipPath>
</defs>
</svg>
