<svg width="2534" height="670" viewBox="0 0 2534 670" fill="none" xmlns="http://www.w3.org/2000/svg">
<g clip-path="url(#clip0_113:205)">
<path d="M1174.61 263.731C1159.65 283.986 1139.53 299.71 1116.42 309.204C1060.84 331.167 999.163 331.167 943.584 309.204C920.427 299.656 900.234 283.947 885.132 263.731C871.503 244.344 864.178 221.123 864.178 197.306C864.178 173.49 871.503 150.268 885.132 130.882C900.22 110.651 920.416 94.9381 943.584 85.4085C999.163 63.4456 1060.84 63.4456 1116.42 85.4085C1139.54 94.8881 1159.66 110.615 1174.61 130.882C1188.04 150.349 1195.24 173.54 1195.24 197.306C1195.24 221.073 1188.04 244.264 1174.61 263.731ZM1380.16 556.562V606.887H911.181V461.084H1304.53V413.372H909.92V363.047H1366.82V508.85H973.466V556.562H1380.16ZM955.347 253.069C974.604 267.071 999.497 274.073 1030.03 274.073C1060.56 274.073 1085.29 267.071 1104.23 253.069C1113.05 246.778 1120.25 238.424 1125.22 228.714C1130.19 219.004 1132.79 208.222 1132.79 197.28C1132.79 186.337 1130.19 175.555 1125.22 165.845C1120.25 156.135 1113.05 147.782 1104.23 141.491C1085.19 127.524 1060.4 120.54 1029.87 120.54C999.339 120.54 974.446 127.524 955.19 141.491C946.286 147.72 939.006 156.053 933.978 165.771C928.949 175.489 926.322 186.302 926.322 197.28C926.322 208.257 928.949 219.07 933.978 228.788C939.006 238.506 946.286 246.839 955.19 253.069H955.347ZM1303.8 230.838V161.162H1211.74L1207.95 108.279H1303.8V63.125H1366.82V332.767H1303.8V283.722H1207.95L1211.74 230.838H1303.8Z" fill="#2D2D2D"/>
<path d="M1466.62 210.207H1725.22V130.882H1465.31V76.6658H1787.45V262.451H1528.85V343.695H1671.81C1705.28 343.929 1738.73 341.774 1771.9 337.245C1796.2 334.355 1820.03 328.225 1842.75 319.013V373.389C1819.95 382.662 1796.01 388.742 1771.59 391.461C1737.67 395.965 1703.49 398.12 1669.28 397.912H1466.62V210.207ZM1488.21 448.183H1551.75V550.112H1962.91V606.887H1488.15L1488.21 448.183ZM1885.34 63.125H1948.36V473.985H1885.34V63.125Z" fill="#2D2D2D"/>
<path d="M2146.72 311.123C2114.13 329.445 2078.08 340.547 2040.96 343.695V287.027C2085.45 281.021 2121.36 264.033 2148.67 236.063C2176.02 207.948 2192.75 170.958 2195.93 131.575H2047.94V77.3055H2399.33V131.522H2259.58C2258.38 152.261 2254.1 172.696 2246.87 192.135L2417.13 290.812L2387.31 338.791L2222.82 241.18C2203.13 270.156 2177.08 294.099 2146.72 311.123ZM2472.33 373.389H2533.99V606.887H2073.94V373.389H2135.64V434.642H2472.38L2472.33 373.389ZM2472.33 554.643V486.246H2135.64V554.643H2472.33ZM2534.04 63.125V349.506H2471.02V63.125H2534.04Z" fill="#2D2D2D"/>
<path d="M122.139 228.376H284.942L233.895 120.903H169.982L122.139 228.376Z" fill="#FEDE8A"/>
<path d="M602.211 370.17L630.203 378.752V287.806L602.211 296.335V370.17Z" fill="white"/>
<path d="M404.381 72.928H0V595.366H48.6308L47.2653 120.907H357.116L358.481 462.944V595.366H404.381L657.986 670V0L404.381 72.928ZM630.205 378.714L602.213 370.185V296.297L630.205 287.767V378.714Z" fill="#2D2D2D"/>
</g>
<defs>
<clipPath id="clip0_113:205">
<rect width="2534" height="670" fill="white"/>
</clipPath>
</defs>
</svg>
