<svg width="16" height="15" viewBox="0 0 16 15" fill="none" xmlns="http://www.w3.org/2000/svg">
<g clip-path="url(#clip0_75:1934)">
<path fill-rule="evenodd" clip-rule="evenodd" d="M8.4248 0.759766C5.77025 0.759766 3.61914 2.76377 3.61914 5.23735C3.61914 5.87626 3.76525 6.48374 4.02225 7.03275L8.4248 14.5984L12.8256 7.03275C13.0916 6.47098 13.2295 5.85798 13.2296 5.23735C13.2296 2.7629 11.0785 0.759766 8.4248 0.759766ZM8.44505 8.6335C6.72258 8.6335 5.32753 7.24048 5.32753 5.52014C5.32753 3.80156 6.72258 2.40853 8.44505 2.40853C10.1649 2.40853 11.5599 3.80243 11.5599 5.52014C11.5599 7.24048 10.1649 8.6335 8.44505 8.6335Z" fill="#F44336"/>
<path fill-rule="evenodd" clip-rule="evenodd" d="M10.6336 5.54638C10.6344 5.83128 10.5786 6.11356 10.4693 6.37707C10.3601 6.64059 10.1996 6.88018 9.99699 7.08217C9.79437 7.28415 9.55361 7.44457 9.28845 7.55427C9.0233 7.66396 8.73895 7.72077 8.45165 7.72145C7.87172 7.7196 7.31627 7.48943 6.90744 7.08155C6.4986 6.67367 6.26986 6.12147 6.27149 5.54638C6.27032 4.97158 6.49928 4.41983 6.90806 4.01233C7.31684 3.60483 7.87202 3.3749 8.45165 3.37305C9.03157 3.37443 9.5872 3.60416 9.99637 4.01172C10.4055 4.41927 10.6347 4.97128 10.6336 5.54638Z" fill="#F44336"/>
</g>
<defs>
<clipPath id="clip0_75:1934">
<rect width="14.9627" height="13.9652" fill="white" transform="translate(0.970703 0.742188)"/>
</clipPath>
</defs>
</svg>
