<svg width="11" height="14" viewBox="0 0 11 14" fill="none" xmlns="http://www.w3.org/2000/svg">
<path fill-rule="evenodd" clip-rule="evenodd" d="M5.4739 0.0185547C2.81272 0.0185547 0.65625 2.02755 0.65625 4.5073C0.65625 5.1478 0.802721 5.7568 1.06037 6.30718L5.4739 13.8917L9.88566 6.30718C10.1523 5.74401 10.2906 5.12948 10.2907 4.5073C10.2907 2.02668 8.13419 0.0185547 5.4739 0.0185547ZM5.49419 7.91193C3.76743 7.91193 2.3689 6.51543 2.3689 4.7908C2.3689 3.06793 3.76743 1.67143 5.49419 1.67143C7.21831 1.67143 8.61684 3.0688 8.61684 4.7908C8.61684 6.51543 7.21831 7.91193 5.49419 7.91193Z" fill="#F44336"/>
<path fill-rule="evenodd" clip-rule="evenodd" d="M7.68936 4.81645C7.69017 5.10206 7.63423 5.38504 7.52473 5.64921C7.41524 5.91338 7.25433 6.15358 7.0512 6.35607C6.84808 6.55856 6.60671 6.71938 6.3409 6.82934C6.07508 6.9393 5.79002 6.99626 5.502 6.99695C4.92063 6.99509 4.3638 6.76435 3.95394 6.35545C3.54409 5.94655 3.31477 5.39298 3.31641 4.81645C3.31524 4.24022 3.54477 3.68709 3.95457 3.27857C4.36437 2.87005 4.92094 2.63955 5.502 2.6377C6.08338 2.63909 6.64039 2.86939 7.05058 3.27796C7.46076 3.68653 7.69053 4.23992 7.68936 4.81645Z" fill="#F44336"/>
</svg>
