<svg width="11" height="14" viewBox="0 0 11 14" fill="none" xmlns="http://www.w3.org/2000/svg">
<path fill-rule="evenodd" clip-rule="evenodd" d="M5.47194 0.0175781C2.81077 0.0175781 0.654297 2.02658 0.654297 4.50633C0.654297 5.14683 0.800767 5.75583 1.05841 6.3062L5.47194 13.8907L9.88371 6.3062C10.1504 5.74303 10.2887 5.1285 10.2887 4.50633C10.2887 2.0257 8.13224 0.0175781 5.47194 0.0175781ZM5.49224 7.91095C3.76547 7.91095 2.36694 6.51445 2.36694 4.78983C2.36694 3.06695 3.76547 1.67045 5.49224 1.67045C7.21636 1.67045 8.61488 3.06783 8.61488 4.78983C8.61488 6.51445 7.21636 7.91095 5.49224 7.91095Z" fill="#2D2D2D"/>
<path fill-rule="evenodd" clip-rule="evenodd" d="M7.6874 4.81547C7.68822 5.10109 7.63228 5.38406 7.52278 5.64824C7.41328 5.91241 7.25238 6.1526 7.04925 6.35509C6.84612 6.55758 6.60476 6.7184 6.33894 6.82836C6.07313 6.93833 5.78807 6.99528 5.50005 6.99597C4.91868 6.99412 4.36184 6.76337 3.95199 6.35447C3.54214 5.94557 3.31282 5.392 3.31446 4.81547C3.31329 4.23924 3.54281 3.68612 3.95262 3.2776C4.36242 2.86908 4.91898 2.63857 5.50005 2.63672C6.08142 2.63811 6.63844 2.86841 7.04862 3.27698C7.45881 3.68555 7.68858 4.23894 7.6874 4.81547Z" fill="#2D2D2D"/>
</svg>
