<svg width="287" height="285" viewBox="0 0 287 285" fill="none" xmlns="http://www.w3.org/2000/svg">
<path d="M0 0H287V285H0V0Z" fill="#F7F7F8"/>
<path d="M235.478 122.003L232.542 136.222L230.652 134.379L227.437 136.673L224.98 133.621L219.47 137.628L214.761 129.752L209.509 132.829L207.426 129.958L200.756 133.716L198.75 129.418L203.425 106.774L228.489 111.95L235.478 122.003Z" fill="#EBEBEB"/>
<path d="M228.491 111.95L235.479 122.003L226.785 120.209L228.491 111.95Z" fill="#DBDBDB"/>
<path d="M231.917 139.063L227.613 159.925L193.852 152.954L198.125 132.262L200.131 136.557L206.804 132.799L208.884 135.67L214.139 132.596L218.845 140.471L224.358 136.465L226.812 139.514L230.03 137.223L231.917 139.063Z" fill="#EBEBEB"/>
<path d="M183.596 136.618L149.19 138.747L146.457 94.583L172.006 93L181.384 100.869L183.596 136.618Z" fill="#EBEBEB"/>
<path d="M172.004 93L181.382 100.869L172.522 101.418L172.004 93Z" fill="#DBDBDB"/>
<path d="M162.477 122.718L162.342 121.721C161.996 119.656 162.56 117.346 164.355 114.932C165.975 112.784 166.852 111.25 166.754 109.508C166.643 107.545 165.34 106.305 162.913 106.403C161.526 106.475 160.194 106.968 159.094 107.815L158.035 105.443C159.262 104.446 161.41 103.71 163.45 103.602C167.877 103.357 170.03 105.977 170.199 108.901C170.346 111.517 168.99 113.484 167.266 115.782C165.683 117.877 165.165 119.604 165.389 121.558L165.484 122.558L162.477 122.718ZM161.931 128.151C161.852 126.728 162.757 125.672 164.103 125.599C165.45 125.525 166.432 126.47 166.512 127.897C166.585 129.243 165.76 130.329 164.336 130.409C162.977 130.486 161.996 129.498 161.919 128.151H161.931Z" fill="#DBDBDB"/>
<path d="M76.419 115.205L72.9585 113.637L72.4769 114.696C72.4058 114.847 72.2948 114.976 72.1559 115.069C72.017 115.162 71.8554 115.215 71.6884 115.224C71.4983 115.23 71.3087 115.248 71.1209 115.279C70.956 115.303 70.7876 115.282 70.6336 115.219C70.4797 115.155 70.3459 115.051 70.2466 114.917L69.5686 113.969L66.4793 116.184L67.1573 117.132C67.2516 117.269 67.3071 117.428 67.3179 117.594C67.3287 117.76 67.2944 117.926 67.2186 118.074C67.1312 118.242 67.0523 118.415 66.9824 118.592C66.9216 118.748 66.8195 118.884 66.6871 118.986C66.5547 119.088 66.3969 119.153 66.2308 119.172L65.0742 119.285L65.4454 123.068L66.6081 122.951C66.7749 122.938 66.9421 122.97 67.0918 123.045C67.2416 123.12 67.3681 123.234 67.4579 123.375C67.507 123.454 67.5592 123.531 67.6144 123.608C67.6696 123.685 67.7248 123.758 67.7831 123.832C67.889 123.961 67.9571 124.116 67.9798 124.281C68.0026 124.447 67.9791 124.615 67.912 124.768L67.4272 125.835L70.8908 127.406L71.3725 126.341C71.4442 126.19 71.5559 126.061 71.6953 125.969C71.8348 125.877 71.9968 125.824 72.164 125.817C72.352 125.809 72.5394 125.791 72.7254 125.761C72.8902 125.737 73.0586 125.758 73.2126 125.822C73.3666 125.885 73.5004 125.99 73.5997 126.123L74.2777 127.071L77.3701 124.856L76.6921 123.909C76.5949 123.773 76.5376 123.613 76.5268 123.446C76.5159 123.28 76.5519 123.114 76.6307 122.967C76.7162 122.799 76.793 122.627 76.8608 122.451C76.9198 122.294 77.0214 122.157 77.1542 122.055C77.2869 121.952 77.4456 121.889 77.6124 121.871L78.7751 121.755L78.4008 117.972L77.2381 118.086C77.0724 118.1 76.9059 118.069 76.757 117.995C76.6082 117.92 76.4827 117.807 76.3945 117.666C76.3423 117.586 76.2902 117.509 76.235 117.432C76.1797 117.356 76.1245 117.279 76.0662 117.208C75.9611 117.078 75.8935 116.921 75.8708 116.755C75.8481 116.589 75.8711 116.42 75.9374 116.267L76.419 115.205ZM74.4556 118.705C74.8144 119.206 75.0166 119.802 75.0367 120.417C75.0569 121.033 74.894 121.641 74.5687 122.164C74.2434 122.687 73.7704 123.102 73.2094 123.356C72.6483 123.61 72.0245 123.692 71.4169 123.591C70.8092 123.491 70.245 123.213 69.7955 122.792C69.3461 122.37 69.0316 121.825 68.8919 121.226C68.7522 120.626 68.7935 119.998 69.0106 119.422C69.2277 118.845 69.6108 118.346 70.1116 117.988C70.7829 117.507 71.6176 117.312 72.4323 117.447C73.2469 117.582 73.9747 118.034 74.4556 118.705V118.705Z" fill="#EBEBEB"/>
<path d="M232.847 165.395L230.54 166.726L230.948 167.432C231.009 167.533 231.039 167.649 231.035 167.768C231.031 167.886 230.993 168 230.926 168.097C230.856 168.208 230.788 168.321 230.727 168.441C230.676 168.547 230.597 168.636 230.497 168.698C230.398 168.76 230.283 168.792 230.165 168.791H229.355V171.457H230.172C230.289 171.455 230.404 171.487 230.503 171.549C230.603 171.611 230.683 171.7 230.733 171.806C230.794 171.926 230.862 172.039 230.932 172.15C231 172.247 231.037 172.361 231.041 172.48C231.045 172.598 231.015 172.714 230.954 172.816L230.546 173.521L232.853 174.853L233.264 174.144C233.323 174.043 233.41 173.962 233.513 173.907C233.617 173.853 233.733 173.829 233.85 173.837H234.243C234.359 173.829 234.475 173.854 234.579 173.908C234.682 173.962 234.769 174.044 234.828 174.144L235.24 174.856L237.543 173.524L237.135 172.816C237.077 172.714 237.049 172.598 237.053 172.481C237.058 172.364 237.095 172.25 237.16 172.153C237.231 172.043 237.298 171.926 237.359 171.809C237.41 171.704 237.489 171.614 237.589 171.552C237.688 171.49 237.804 171.458 237.921 171.46H238.737V168.794H237.915C237.797 168.795 237.682 168.763 237.583 168.701C237.483 168.639 237.404 168.55 237.353 168.444C237.292 168.327 237.224 168.211 237.154 168.1C237.088 168.003 237.052 167.89 237.047 167.773C237.043 167.655 237.071 167.539 237.129 167.438L237.537 166.729L235.233 165.398L234.822 166.097C234.763 166.198 234.676 166.28 234.573 166.334C234.469 166.388 234.353 166.412 234.236 166.404H234.04H233.844C233.727 166.412 233.61 166.387 233.506 166.333C233.402 166.279 233.315 166.197 233.255 166.097L232.847 165.395ZM234.04 167.941C234.472 167.94 234.895 168.068 235.255 168.308C235.614 168.547 235.895 168.889 236.061 169.288C236.226 169.687 236.27 170.126 236.186 170.55C236.101 170.974 235.893 171.364 235.588 171.67C235.282 171.975 234.892 172.183 234.468 172.268C234.044 172.352 233.605 172.308 233.206 172.143C232.807 171.977 232.465 171.696 232.226 171.337C231.986 170.977 231.858 170.554 231.859 170.122C231.858 169.835 231.915 169.551 232.024 169.286C232.133 169.021 232.294 168.781 232.497 168.578C232.699 168.375 232.94 168.214 233.205 168.104C233.469 167.994 233.753 167.938 234.04 167.938V167.941Z" fill="#EBEBEB"/>
<path d="M83.42 103.869L81.3062 105.489L81.794 106.136C81.8668 106.229 81.9115 106.34 81.9229 106.457C81.9344 106.574 81.912 106.691 81.8584 106.796C81.7997 106.915 81.7485 107.038 81.705 107.164C81.6672 107.275 81.5992 107.373 81.5087 107.447C81.4182 107.522 81.3088 107.569 81.1927 107.584L80.3828 107.689L80.7264 110.33L81.5363 110.226C81.6542 110.209 81.7743 110.227 81.8829 110.275C81.9914 110.324 82.084 110.403 82.1499 110.502C82.2238 110.609 82.3036 110.711 82.3892 110.809C82.4682 110.896 82.5206 111.003 82.5402 111.119C82.5598 111.235 82.5457 111.354 82.4996 111.462L82.1928 112.217L84.6471 113.238L84.9539 112.484C84.9995 112.376 85.0746 112.282 85.1706 112.214C85.2665 112.147 85.3796 112.107 85.4969 112.1L85.6932 112.079L85.8865 112.048C86 112.027 86.1172 112.037 86.2254 112.077C86.3336 112.118 86.4286 112.187 86.5001 112.278L87.0001 112.932L89.1138 111.312L88.6199 110.665C88.5486 110.571 88.5048 110.459 88.4934 110.342C88.482 110.225 88.5035 110.107 88.5555 110.002C88.6137 109.883 88.6649 109.761 88.7089 109.637C88.7467 109.526 88.8147 109.428 88.9052 109.354C88.9957 109.279 89.1052 109.232 89.2212 109.217L90.0311 109.112L89.6875 106.471L88.8776 106.575C88.76 106.592 88.6401 106.575 88.5316 106.527C88.423 106.479 88.3303 106.401 88.2641 106.302C88.1874 106.192 88.1076 106.087 88.0217 105.995C87.9502 105.907 87.904 105.8 87.8878 105.687C87.8716 105.575 87.8861 105.459 87.9297 105.354L88.2364 104.599L85.7822 103.578L85.4754 104.333C85.4292 104.44 85.3539 104.533 85.2581 104.601C85.1622 104.669 85.0495 104.709 84.9324 104.716L84.7361 104.734L84.5551 104.741C84.4415 104.762 84.3243 104.752 84.2161 104.711C84.1079 104.671 84.013 104.601 83.9415 104.51L83.42 103.869ZM84.9324 106.241C85.3597 106.186 85.7938 106.259 86.1798 106.45C86.5657 106.642 86.8864 106.943 87.1012 107.317C87.3161 107.69 87.4155 108.119 87.3869 108.549C87.3584 108.979 87.2032 109.39 86.9408 109.732C86.6785 110.074 86.3208 110.33 85.9129 110.469C85.505 110.608 85.0652 110.623 84.6488 110.512C84.2325 110.401 83.8584 110.169 83.5736 109.846C83.2888 109.522 83.1062 109.122 83.0488 108.695C83.0104 108.41 83.0288 108.12 83.1028 107.843C83.1769 107.565 83.3051 107.304 83.4802 107.076C83.6552 106.848 83.8736 106.657 84.1229 106.513C84.3721 106.37 84.6472 106.277 84.9324 106.241Z" fill="#EBEBEB"/>
<path d="M67.6262 173.086C67.7414 170.12 67.7004 167.15 67.5034 164.189C67.0645 158.074 66.1319 152.004 64.7148 146.04C63.9356 142.683 62.9784 139.382 61.9783 136.085C61.9476 135.983 61.7881 136.011 61.8157 136.115C64.905 147.742 67.439 159.737 67.2642 171.825C67.2151 175.199 66.8224 178.528 66.5033 181.89C66.5033 181.979 66.6414 182.016 66.6629 181.924C67.2979 179.037 67.5065 176.025 67.6262 173.086Z" fill="#EBEBEB"/>
<path d="M61.8209 136.106C61.8209 136.106 57.1455 147.979 58.1917 150.758C59.2378 153.538 61.3975 154.133 61.3975 154.133C61.3975 154.133 58.5353 158.219 60.5355 162.051C62.5357 165.882 66.9779 165.701 67.2847 170.046C67.2755 170.067 67.5209 151.902 61.8209 136.106Z" fill="#EBEBEB"/>
<path d="M66.763 162.566C66.7706 162.546 66.7706 162.525 66.763 162.505C66.1494 154.399 64.6285 146.388 62.2288 138.622C62.2288 138.6 62.1828 138.606 62.1889 138.622C63.1154 142.099 63.9335 145.59 64.6431 149.095C64.0146 148.5 63.2467 148.072 62.4098 147.85C62.4098 147.85 62.3852 147.868 62.4098 147.874C63.289 148.197 64.0795 148.722 64.7168 149.408C64.8518 150.099 64.9867 150.786 65.1125 151.476C64.0664 150.307 62.6184 149.727 61.1673 149.175C61.164 149.177 61.1612 149.179 61.1593 149.182C61.1573 149.185 61.1562 149.188 61.1562 149.192C61.1562 149.196 61.1573 149.199 61.1593 149.202C61.1612 149.205 61.164 149.207 61.1673 149.209C62.6797 149.822 64.183 150.614 65.2076 151.918C65.5635 153.887 65.8764 155.864 66.1464 157.848C65.391 157.057 64.4223 156.501 63.3577 156.25C63.324 156.25 63.3056 156.289 63.3393 156.299C64.4329 156.621 65.4093 157.254 66.1494 158.121H66.1679C66.2599 158.816 66.3478 159.515 66.4317 160.216C65.8474 159.722 65.1876 159.324 64.4775 159.038C64.4591 159.038 64.4468 159.06 64.4775 159.066C65.2022 159.38 65.8658 159.819 66.4378 160.363C66.4378 160.363 66.4532 160.363 66.4624 160.363C66.5391 161.029 66.6158 161.695 66.6832 162.361C65.6298 161.087 64.2626 160.11 62.7166 159.526C62.71 159.526 62.7038 159.529 62.6992 159.533C62.6946 159.538 62.692 159.544 62.692 159.551C62.692 159.557 62.6946 159.563 62.6992 159.568C62.7038 159.572 62.71 159.575 62.7166 159.575C64.2432 160.248 65.5842 161.281 66.625 162.585C66.6364 162.599 66.6519 162.609 66.6694 162.615C66.6868 162.62 66.7056 162.621 66.7231 162.615C66.8244 163.637 66.9164 164.658 66.99 165.683C66.99 165.698 67.0146 165.698 67.0146 165.683C66.9348 164.654 66.851 163.615 66.763 162.566Z" fill="white"/>
<path d="M63.0043 146.681C62.1576 146.154 61.1903 145.852 60.1942 145.803C60.1893 145.803 60.1846 145.805 60.1812 145.809C60.1777 145.812 60.1758 145.817 60.1758 145.822C60.1758 145.827 60.1777 145.831 60.1812 145.835C60.1846 145.838 60.1893 145.84 60.1942 145.84C61.1573 146.023 62.0919 146.332 62.9736 146.761C63.0105 146.77 63.0381 146.705 63.0043 146.681Z" fill="white"/>
<path d="M63.5755 159.25C62.9248 158.876 62.2082 158.632 61.4649 158.529C61.4403 158.529 61.4373 158.563 61.4649 158.569C62.1907 158.715 62.8928 158.96 63.551 159.299C63.5786 159.314 63.6032 159.265 63.5755 159.25Z" fill="white"/>
<path d="M79.9249 150.964C77.947 152.331 76.1305 153.918 74.5102 155.694C72.8392 157.575 71.5502 159.763 70.7153 162.137C68.9384 167.081 67.9829 172.284 67.8868 177.537C67.8272 180.446 68.1062 183.353 68.7182 186.198C68.7231 186.218 68.7358 186.236 68.7537 186.248C68.7715 186.259 68.7932 186.264 68.8141 186.26C68.835 186.256 68.8535 186.244 68.8659 186.227C68.8784 186.209 68.8837 186.188 68.8808 186.167C68.1192 181.147 68.1482 176.038 68.9667 171.027C69.7704 166.119 71.0313 160.775 74.1543 156.783C75.8539 154.608 77.9738 152.899 80.0691 151.132C80.1795 151.034 80.0384 150.884 79.9249 150.964Z" fill="#EBEBEB"/>
<path d="M68.5703 173.997C69.6962 172.176 71.0192 170.484 72.5155 168.953C74.8563 166.613 76.8258 164.95 77.1326 163.404C77.4394 161.857 74.7888 160.716 74.7888 160.716C74.7888 160.716 78.0253 161.299 78.9119 159.94C79.7985 158.581 80.225 150.709 80.225 150.709C80.225 150.709 74.3348 154.915 71.5891 160.811C68.8434 166.708 68.5703 173.997 68.5703 173.997Z" fill="#EBEBEB"/>
<path d="M78.1154 158.093C77.7276 158.036 77.3344 158.022 76.9435 158.054C76.8975 158.054 76.9006 158.133 76.9435 158.136C77.3301 158.136 77.7197 158.118 78.1062 158.136C78.1107 158.135 78.1147 158.133 78.1178 158.13C78.121 158.126 78.1232 158.122 78.1241 158.118C78.1251 158.113 78.1248 158.109 78.1232 158.104C78.1217 158.1 78.119 158.096 78.1154 158.093V158.093Z" fill="white"/>
<path d="M73.8826 165.729C73.2606 165.742 72.6457 165.864 72.0664 166.091C72.0664 166.091 72.0664 166.122 72.0664 166.119C72.68 165.974 73.2721 165.916 73.8795 165.812C73.8874 165.808 73.8942 165.803 73.8991 165.796C73.904 165.788 73.9067 165.78 73.907 165.771C73.9073 165.763 73.9052 165.754 73.9009 165.747C73.8966 165.739 73.8902 165.733 73.8826 165.729V165.729Z" fill="white"/>
<path d="M72.6102 163.091C72.352 163.089 72.0942 163.111 71.8402 163.158C71.8355 163.16 71.8315 163.163 71.8286 163.167C71.8257 163.171 71.8242 163.176 71.8242 163.181C71.8242 163.186 71.8257 163.191 71.8286 163.195C71.8315 163.199 71.8355 163.202 71.8402 163.204C72.0974 163.219 72.3554 163.208 72.6102 163.17C72.6208 163.17 72.631 163.166 72.6384 163.159C72.6459 163.151 72.6501 163.141 72.6501 163.131C72.6501 163.12 72.6459 163.11 72.6384 163.102C72.631 163.095 72.6208 163.091 72.6102 163.091V163.091Z" fill="white"/>
<path d="M51.3063 159.314C53.2234 159.964 55.0605 160.83 56.7823 161.894C58.5688 163.029 60.1181 164.501 61.3442 166.226C63.9239 169.817 65.8991 173.806 67.1915 178.034C67.9122 180.375 68.357 182.793 68.5168 185.237C68.5134 185.253 68.5047 185.267 68.4921 185.277C68.4796 185.288 68.4639 185.293 68.4477 185.293C68.4316 185.293 68.4159 185.288 68.4033 185.277C68.3907 185.267 68.3821 185.253 68.3787 185.237C67.8372 180.999 66.6343 176.872 64.8139 173.006C63.0253 169.217 60.7705 165.186 57.3223 162.676C55.4448 161.311 53.3341 160.416 51.2296 159.471C51.1191 159.434 51.1958 159.277 51.3063 159.314Z" fill="#EBEBEB"/>
<path d="M65.8145 175.331C64.4817 174.119 63.0198 173.056 61.4551 172.162C59.0193 170.809 57.0405 169.92 56.4362 168.738C55.8318 167.557 57.7124 166.023 57.7124 166.023C57.7124 166.023 55.2275 167.251 54.1967 166.346C53.1659 165.44 51 159.182 51 159.182C51 159.182 56.7399 161.222 60.32 165.361C63.9002 169.499 65.8145 175.331 65.8145 175.331Z" fill="#EBEBEB"/>
<path d="M61.0517 169.57C60.4874 169.531 59.9207 169.6 59.3828 169.776C59.3828 169.776 59.3828 169.803 59.3828 169.8C59.9316 169.706 60.4861 169.649 61.0425 169.628C61.0824 169.628 61.0916 169.573 61.0517 169.57Z" fill="white"/>
<path d="M56.0414 163.005C55.7839 162.984 55.5248 162.998 55.2713 163.048C55.2437 163.048 55.2529 163.097 55.2713 163.094C55.526 163.066 55.7745 163.076 56.026 163.069C56.0338 163.07 56.0415 163.067 56.0477 163.063C56.054 163.058 56.0584 163.051 56.0602 163.043C56.062 163.036 56.0611 163.028 56.0577 163.021C56.0542 163.014 56.0485 163.008 56.0414 163.005V163.005Z" fill="white"/>
<path d="M73.2171 193.149H60.2617L62.1086 179.617L62.581 176.147H70.8979L71.3703 179.617L73.2171 193.149Z" fill="#DBDBDB"/>
<path d="M71.375 179.617H62.1133L62.5857 176.147H70.9026L71.375 179.617Z" fill="#C7C7C7"/>
<path d="M72.0851 174.945H61.3906V177.884H72.0851V174.945Z" fill="#DBDBDB"/>
<path d="M145.912 216.014C194.495 216.014 233.879 211.698 233.879 206.374C233.879 201.051 194.495 196.735 145.912 196.735C97.3294 196.735 57.9453 201.051 57.9453 206.374C57.9453 211.698 97.3294 216.014 145.912 216.014Z" fill="#EBEBEB"/>
<path d="M125.434 204.779C124.719 205.022 104.223 205.086 103.437 204.602C103.131 204.417 102.956 201.432 102.824 197.819C102.796 197.039 102.775 196.233 102.756 195.416L101.121 184.483L114.825 184.394L116.117 195.331L116.064 197.736C116.064 197.736 123.924 201.218 124.728 201.85C125.532 202.482 126.148 204.537 125.434 204.779Z" fill="#EB9481"/>
<path d="M125.435 204.779C124.72 205.022 104.224 205.086 103.438 204.602C103.076 204.375 102.88 200.015 102.77 195.416L116.102 195.331L116.05 197.736C116.05 197.736 123.91 201.218 124.714 201.85C125.517 202.482 126.149 204.537 125.435 204.779Z" fill="white"/>
<path d="M125.434 204.779C124.719 205.022 104.223 205.086 103.438 204.601C103.131 204.417 102.956 201.432 102.824 197.818L116.037 197.736C116.037 197.736 123.897 201.218 124.701 201.85C125.505 202.482 126.149 204.537 125.434 204.779Z" fill="#A6A6A6"/>
<path d="M125.136 203.96C121.7 203.887 107.833 203.92 104.431 204.11C104.403 204.11 104.403 204.129 104.431 204.132C107.836 204.276 121.703 204.132 125.136 204.015C125.209 204.012 125.209 203.96 125.136 203.96Z" fill="#263238"/>
<path d="M123.387 201.117C123.005 201.108 122.626 201.179 122.272 201.325C121.919 201.47 121.6 201.688 121.335 201.963C120.852 202.455 120.58 203.115 120.574 203.804C120.574 203.826 120.611 203.826 120.614 203.804C120.728 203.125 121.059 202.502 121.556 202.026C122.054 201.551 122.692 201.249 123.375 201.166C123.382 201.167 123.389 201.166 123.394 201.163C123.4 201.159 123.404 201.154 123.406 201.147C123.407 201.141 123.406 201.134 123.403 201.128C123.4 201.122 123.394 201.118 123.387 201.117V201.117Z" fill="#263238"/>
<path d="M117.379 198.073C116.004 198.058 114.412 198.549 113.559 199.678C113.528 199.721 113.59 199.767 113.63 199.745C114.83 199.111 116.095 198.607 117.403 198.242C117.423 198.236 117.441 198.224 117.452 198.206C117.464 198.188 117.468 198.167 117.465 198.147C117.462 198.126 117.452 198.107 117.436 198.093C117.42 198.08 117.399 198.073 117.379 198.073V198.073Z" fill="#263238"/>
<path d="M118.446 198.481C117.069 198.481 115.477 198.96 114.627 200.086C114.593 200.132 114.655 200.178 114.697 200.156C115.897 199.52 117.161 199.015 118.468 198.65C118.488 198.644 118.505 198.632 118.517 198.615C118.528 198.598 118.533 198.577 118.53 198.556C118.528 198.536 118.518 198.517 118.502 198.503C118.487 198.489 118.467 198.482 118.446 198.481V198.481Z" fill="#263238"/>
<path d="M119.511 198.892C118.137 198.892 116.545 199.368 115.692 200.497C115.661 200.54 115.723 200.586 115.762 200.564C116.963 199.931 118.228 199.427 119.536 199.061C119.556 199.056 119.574 199.043 119.585 199.025C119.597 199.008 119.601 198.987 119.598 198.966C119.595 198.945 119.585 198.926 119.569 198.913C119.553 198.899 119.532 198.892 119.511 198.892Z" fill="#263238"/>
<path d="M120.571 199.304C119.194 199.288 117.601 199.779 116.752 200.908C116.718 200.951 116.782 200.997 116.822 200.976C118.023 200.341 119.288 199.837 120.596 199.472C120.616 199.467 120.633 199.454 120.645 199.436C120.656 199.419 120.661 199.398 120.658 199.377C120.655 199.356 120.644 199.337 120.628 199.324C120.612 199.31 120.592 199.303 120.571 199.304V199.304Z" fill="#263238"/>
<path d="M105.295 200.844C103.761 200.844 103.761 203.252 105.295 203.243C106.829 203.233 106.841 200.834 105.295 200.844Z" fill="#263238"/>
<path d="M118.856 194.398C118.16 193.821 117.282 194.398 116.856 194.99C116.146 196.037 115.723 197.251 115.629 198.512C115.629 198.54 115.65 198.552 115.672 198.552C115.677 198.578 115.689 198.602 115.706 198.623C115.722 198.643 115.744 198.659 115.768 198.67C115.793 198.68 115.819 198.685 115.846 198.683C115.872 198.681 115.898 198.673 115.92 198.659C116.896 197.981 118.025 197.374 118.764 196.414C119.185 195.855 119.528 194.935 118.856 194.398ZM117.181 197.325C116.709 197.671 116.221 197.993 115.761 198.359C116.006 197.671 116.218 196.978 116.531 196.315C116.675 195.998 116.841 195.69 117.028 195.395C117.335 194.938 118.672 193.784 118.813 195.278C118.893 196.098 117.743 196.914 117.181 197.325Z" fill="#263238"/>
<path d="M112.203 199.033C113.4 199.211 114.636 198.868 115.811 198.68C115.837 198.674 115.86 198.661 115.88 198.644C115.9 198.626 115.915 198.605 115.925 198.58C115.935 198.556 115.939 198.529 115.937 198.503C115.934 198.477 115.926 198.451 115.912 198.429C115.917 198.425 115.92 198.421 115.923 198.416C115.925 198.411 115.927 198.405 115.927 198.4C115.927 198.394 115.925 198.389 115.923 198.384C115.92 198.378 115.917 198.374 115.912 198.371C114.968 197.529 113.819 196.95 112.581 196.693C111.857 196.554 110.832 196.754 110.74 197.653C110.63 198.499 111.504 198.923 112.203 199.033ZM111.369 198.254C110.449 197.076 112.206 196.975 112.734 197.097C113.076 197.183 113.413 197.292 113.74 197.423C114.411 197.701 115.068 198.013 115.707 198.358C115.124 198.417 114.55 198.521 113.97 198.601C113.277 198.693 111.884 198.901 111.369 198.254V198.254Z" fill="#263238"/>
<path d="M80.9727 133.947C80.9727 133.947 96.8855 161.017 97.3119 162.919C97.9653 165.84 101.429 194.68 101.429 194.68L117.995 194.373C117.995 194.373 115.142 168.944 112.439 160.566C110.494 154.532 96.4498 134.517 96.4498 134.517L80.9727 133.947Z" fill="#37474F"/>
<path d="M116.484 191.846C114.107 191.827 105.679 191.732 102.513 192.027C102.489 192.027 102.492 192.07 102.513 192.073C103.602 192.229 114.104 191.987 116.481 191.91C116.486 191.912 116.491 191.912 116.497 191.912C116.502 191.911 116.507 191.909 116.511 191.906C116.516 191.903 116.519 191.9 116.522 191.895C116.525 191.89 116.526 191.885 116.526 191.88C116.527 191.875 116.526 191.869 116.523 191.865C116.521 191.86 116.518 191.856 116.514 191.852C116.51 191.849 116.505 191.847 116.5 191.845C116.495 191.844 116.489 191.844 116.484 191.846V191.846Z" fill="#263238"/>
<path d="M83.6859 136.432C84.729 138.067 85.8334 139.668 86.8949 141.291C87.9564 142.914 89.024 144.537 90.0762 146.157C92.1746 149.429 94.2198 152.723 96.2119 156.038C97.1841 157.575 98.0157 159.196 98.6968 160.882C99.3185 162.569 99.7857 164.308 100.093 166.079C100.418 167.855 100.633 169.65 100.832 171.445C101.037 173.353 101.25 175.262 101.473 177.172C101.909 181.081 102.345 184.989 102.783 188.898C102.835 189.376 102.887 189.855 102.937 190.336C102.937 190.407 102.817 190.419 102.808 190.336C102.32 186.456 101.915 182.559 101.473 178.679C101.252 176.742 101.032 174.806 100.814 172.871C100.608 171.07 100.412 169.267 100.133 167.478C99.8764 165.713 99.4867 163.969 98.9668 162.263C98.3939 160.496 97.6264 158.798 96.6782 157.201C94.7608 153.891 92.7299 150.639 90.699 147.384C88.6681 144.129 86.582 140.846 84.4406 137.631C84.1768 137.235 83.9099 136.84 83.6338 136.45C83.6123 136.429 83.6675 136.401 83.6859 136.432Z" fill="#263238"/>
<path d="M86.1863 206.375C85.4316 206.329 65.9386 198.432 65.3987 197.684C65.3747 197.64 65.364 197.59 65.368 197.54C65.368 196.868 66.7209 194.524 67.8499 191.444C67.9205 191.247 68.4236 190.333 69.12 189.103C71.0558 185.731 74.4304 179.924 74.4304 179.924L87.171 184.986L81.0722 194.113L80.1243 196.322C80.1243 196.322 86.1034 202.503 86.6066 203.378C87.1097 204.252 86.9379 206.418 86.1863 206.375Z" fill="#EB9481"/>
<path d="M86.1863 206.375C85.4316 206.329 65.9386 198.432 65.3987 197.684C65.3747 197.64 65.364 197.59 65.368 197.54C65.368 196.868 66.7209 194.524 67.8499 191.444C67.9205 191.247 68.4236 190.333 69.12 189.103L81.0845 194.113L80.1365 196.322C80.1365 196.322 86.1157 202.503 86.6188 203.378C87.122 204.252 86.9379 206.418 86.1863 206.375Z" fill="white"/>
<path d="M86.189 206.375C85.4344 206.329 65.9414 198.432 65.4015 197.684C65.1929 197.398 66.0641 194.739 67.8557 191.444L80.127 196.325C80.127 196.325 86.1062 202.5 86.6124 203.381C87.1186 204.261 86.9407 206.418 86.189 206.375Z" fill="#A6A6A6"/>
<path d="M86.2198 205.504C83.063 204.148 70.1966 198.975 66.9723 197.877C66.9447 197.877 66.9385 197.877 66.9723 197.896C70.0739 199.307 82.9802 204.375 86.2075 205.565C86.2689 205.581 86.2873 205.531 86.2198 205.504Z" fill="#263238"/>
<path d="M85.6647 202.212C85.3146 202.058 84.9365 201.979 84.5541 201.979C84.1718 201.979 83.7936 202.058 83.4436 202.212C82.8142 202.487 82.3153 202.995 82.0508 203.629C82.0508 203.647 82.0784 203.663 82.0876 203.644C82.4493 203.056 82.9918 202.601 83.634 202.347C84.2761 202.093 84.9832 202.054 85.6493 202.236C85.6545 202.235 85.6589 202.231 85.6618 202.227C85.6646 202.222 85.6656 202.217 85.6647 202.212V202.212Z" fill="#263238"/>
<path d="M81.235 197.137C79.968 196.607 78.3052 196.466 77.0934 197.193C77.0474 197.22 77.0934 197.285 77.1333 197.282C78.4842 197.145 79.8458 197.152 81.1951 197.303C81.2159 197.305 81.2368 197.3 81.2538 197.288C81.2709 197.276 81.283 197.258 81.2879 197.238C81.2928 197.218 81.2901 197.196 81.2804 197.178C81.2707 197.159 81.2545 197.145 81.235 197.137Z" fill="#263238"/>
<path d="M82.0709 197.917C80.8039 197.386 79.1412 197.245 77.9294 197.972C77.8834 198 77.9294 198.064 77.9693 198.061C79.32 197.922 80.6818 197.93 82.0311 198.082C82.0518 198.085 82.0727 198.079 82.0898 198.067C82.1069 198.055 82.119 198.037 82.1239 198.017C82.1287 197.997 82.1261 197.975 82.1163 197.957C82.1066 197.939 82.0905 197.924 82.0709 197.917Z" fill="#263238"/>
<path d="M82.9044 198.696C81.6343 198.165 79.9716 198.024 78.7628 198.751C78.7138 198.779 78.7628 198.843 78.7997 198.84C80.1504 198.702 81.5122 198.709 82.8615 198.862C82.8826 198.865 82.9044 198.861 82.9224 198.849C82.9404 198.837 82.9534 198.819 82.9588 198.799C82.9642 198.778 82.9616 198.756 82.9515 198.737C82.9415 198.718 82.9246 198.703 82.9044 198.696V198.696Z" fill="#263238"/>
<path d="M83.7364 199.475C82.4664 198.945 80.8067 198.803 79.5949 199.527C79.5458 199.558 79.5949 199.623 79.6317 199.619C80.9825 199.481 82.3442 199.488 83.6935 199.641C83.7147 199.645 83.7364 199.64 83.7544 199.628C83.7725 199.617 83.7854 199.599 83.7908 199.578C83.7962 199.557 83.7936 199.535 83.7836 199.516C83.7735 199.497 83.7567 199.483 83.7364 199.475V199.475Z" fill="#263238"/>
<path d="M68.9944 195.171C67.5617 194.6 66.672 196.831 68.1108 197.401C69.5496 197.972 70.4424 195.742 68.9944 195.171Z" fill="#263238"/>
<path d="M83.9842 194.284C83.5517 193.49 82.5301 193.686 81.9073 194.082C80.8582 194.785 80.0119 195.751 79.453 196.883C79.4506 196.888 79.4493 196.893 79.4492 196.899C79.4492 196.904 79.4504 196.91 79.4527 196.915C79.4551 196.92 79.4585 196.924 79.4628 196.928C79.4672 196.931 79.4722 196.934 79.4776 196.935C79.4776 197.036 79.5451 197.156 79.6647 197.131C80.8274 196.864 82.1006 196.726 83.1436 196.113C83.7419 195.757 84.3922 195.036 83.9842 194.284ZM81.3305 196.367C80.763 196.512 80.1924 196.628 79.631 196.794C80.0953 196.234 80.5879 195.699 81.1066 195.189C81.362 194.946 81.6336 194.721 81.9196 194.515C82.3644 194.208 84.0456 193.64 83.6161 195.079C83.3799 195.874 82.0085 196.196 81.3305 196.367V196.367Z" fill="#263238"/>
<path d="M76.0782 196.085C77.1213 196.699 78.3944 196.843 79.554 197.113C79.6737 197.141 79.7535 197.021 79.7443 196.917C79.75 196.916 79.7555 196.914 79.7602 196.911C79.7649 196.907 79.7687 196.903 79.7712 196.898C79.7736 196.892 79.7747 196.887 79.7743 196.881C79.7739 196.875 79.772 196.869 79.7688 196.865C79.2108 195.73 78.3644 194.762 77.3145 194.058C76.701 193.659 75.6732 193.459 75.2376 194.251C74.802 195.042 75.4677 195.726 76.0782 196.085ZM75.5996 195.048C75.1732 193.61 76.8513 194.18 77.2961 194.49C77.5818 194.697 77.8524 194.923 78.106 195.168C78.6238 195.679 79.1153 196.215 79.5786 196.776C79.0172 196.61 78.4466 196.49 77.879 196.346C77.1918 196.162 75.8328 195.855 75.5996 195.048Z" fill="#263238"/>
<path d="M82.0631 193.604L67.8008 187.845C67.8008 187.845 85.4837 161.846 85.6126 159.91C85.7291 158.198 77.9614 143.282 77.6577 138.935C77.3264 134.241 79.5843 130.612 82.0692 128.357L96.7795 134.612C96.7795 134.612 95.2271 137.094 92.7913 138.478C92.7913 138.478 100.335 155.719 99.9056 161.02C99.4761 166.322 82.0631 193.604 82.0631 193.604Z" fill="#37474F"/>
<path d="M82.6963 190.891C80.6347 190.005 81.2391 190.229 79.1652 189.358C78.1528 188.934 71.4956 186.164 70.471 185.934C70.4495 185.934 70.4342 185.965 70.4557 185.977C71.3423 186.52 78.0547 189.173 79.0762 189.578C81.1654 190.401 80.5733 190.143 82.6717 190.941C82.6749 190.945 82.679 190.948 82.6838 190.95C82.6886 190.952 82.6938 190.953 82.699 190.953C82.7042 190.952 82.7092 190.95 82.7136 190.947C82.7179 190.945 82.7214 190.941 82.7237 190.936C82.7261 190.931 82.7272 190.926 82.7269 190.921C82.7267 190.916 82.7251 190.91 82.7224 190.906C82.7196 190.902 82.7158 190.898 82.7112 190.895C82.7066 190.893 82.7015 190.891 82.6963 190.891V190.891Z" fill="#263238"/>
<path d="M95.2021 138.162C93.6707 138.519 92.1723 139.005 90.7231 139.616C90.7173 139.618 90.7119 139.621 90.7073 139.625C90.7026 139.629 90.6989 139.634 90.6962 139.64C90.6935 139.645 90.6919 139.651 90.6915 139.658C90.6911 139.664 90.692 139.67 90.694 139.676C90.696 139.682 90.6991 139.687 90.7032 139.692C90.7073 139.696 90.7123 139.7 90.7179 139.703C90.7234 139.705 90.7294 139.707 90.7356 139.707C90.7418 139.708 90.748 139.707 90.7538 139.705C92.257 139.266 93.7848 138.855 95.2635 138.337C95.377 138.297 95.3187 138.137 95.2021 138.162Z" fill="#263238"/>
<path d="M93.4495 137.566C93.3066 137.821 93.1805 138.084 93.0722 138.355C92.9663 138.56 92.9007 138.784 92.8789 139.014C92.8789 139.061 92.9403 139.07 92.9679 139.042C93.1218 138.858 93.246 138.651 93.336 138.429C93.4618 138.186 93.5906 137.947 93.7103 137.698C93.7931 137.517 93.5446 137.401 93.4495 137.566Z" fill="#263238"/>
<path d="M93.6384 136.174C93.7304 135.947 93.8194 135.723 93.9145 135.496C94.0096 135.269 94.1292 135.036 94.2213 134.796C94.2213 134.759 94.2949 134.796 94.2796 134.824C94.1875 135.051 94.1292 135.29 94.0587 135.523C93.9881 135.756 93.9083 135.99 93.8317 136.223C93.6875 136.655 93.5249 137.085 93.3255 137.505C93.5669 137.517 93.8079 137.475 94.0311 137.382C94.259 137.237 94.4342 137.022 94.5311 136.769C94.66 136.517 94.7796 136.26 94.9115 136.008C95.0739 135.736 95.2105 135.45 95.3195 135.152C95.3195 135.115 95.3932 135.152 95.3778 135.18C95.1778 135.809 94.9158 136.416 94.5955 136.993C94.4575 137.217 94.3501 137.453 94.0986 137.539C93.8262 137.615 93.5413 137.635 93.261 137.597C93.2242 137.597 93.1813 137.597 93.1935 137.542C93.3192 137.079 93.4676 136.622 93.6384 136.174V136.174Z" fill="#263238"/>
<path d="M93.0081 139.039C93.5327 140.146 93.9928 141.251 94.4806 142.355C94.9684 143.46 95.401 144.527 95.8397 145.625C96.7171 147.84 97.5024 150.098 98.1927 152.375C98.5332 153.504 98.8492 154.642 99.1314 155.789C99.4423 156.933 99.6699 158.098 99.8125 159.274C99.9356 160.449 99.8314 161.636 99.5057 162.772C99.1674 163.894 98.7332 164.985 98.208 166.033C97.8859 166.695 97.7785 166.606 97.9319 166.272C98.3706 165.321 99.5211 162.44 99.4382 160.02C99.3711 158.861 99.1924 157.711 98.9044 156.587C98.6365 155.427 98.3348 154.277 97.9994 153.135C97.346 150.884 96.5698 148.678 95.7722 146.475C95.3243 145.248 94.8518 144.021 94.3917 142.794C93.9315 141.567 93.4713 140.438 92.9559 139.082C92.9406 139.027 92.9927 139.005 93.0081 139.039Z" fill="#263238"/>
<path d="M82.184 135.379C82.4386 135.284 82.7976 135.441 83.0553 135.484C83.389 135.54 83.7262 135.574 84.0646 135.585C84.3994 135.597 84.7345 135.585 85.0678 135.551C85.4033 135.542 85.7322 135.455 86.028 135.296C86.5133 134.943 86.9293 134.503 87.2551 133.999C87.6434 133.483 87.9641 132.92 88.2092 132.324C88.2092 132.287 88.2736 132.324 88.2614 132.348C88.154 132.689 88.0742 133.032 87.9546 133.367C87.8223 133.681 87.6643 133.984 87.4821 134.272C87.1868 134.852 86.7499 135.347 86.2121 135.714C85.62 136.051 84.8592 136.02 84.1996 135.993C83.817 135.97 83.4366 135.92 83.0614 135.842C82.7914 135.784 82.3374 135.741 82.1656 135.505C82.1575 135.496 82.1515 135.485 82.148 135.474C82.1445 135.462 82.1436 135.45 82.1454 135.438C82.1472 135.426 82.1515 135.414 82.1582 135.404C82.1649 135.394 82.1737 135.386 82.184 135.379V135.379Z" fill="#263238"/>
<path d="M71.8688 185.118C74.2126 181.567 76.5135 177.988 78.7714 174.381C81.0293 170.773 83.2566 167.137 85.4531 163.474C85.9777 162.6 86.5821 161.729 86.9195 160.759C87.2877 159.707 87.0791 158.686 86.7477 157.655C86.1221 155.774 85.3908 153.931 84.5573 152.133C83.7351 150.32 82.8485 148.537 81.9773 146.749C81.106 144.96 80.1949 143.193 79.523 141.328C78.9095 139.545 78.661 137.699 79.1395 135.852C79.6181 134.005 80.6489 132.373 81.7257 130.836C82.008 130.431 82.2994 130.029 82.5847 129.609C82.6062 129.578 82.6522 129.609 82.6307 129.646C81.4435 131.247 80.2869 132.943 79.5905 134.824C79.2346 135.751 79.0355 136.731 79.0015 137.723C78.9957 138.73 79.1521 139.732 79.4647 140.69C80.0415 142.555 80.9526 144.319 81.8024 146.074C82.6522 147.829 83.5603 149.645 84.3978 151.452C85.2618 153.27 86.0298 155.133 86.6987 157.032C86.984 157.876 87.3122 158.759 87.2877 159.664C87.2662 160.655 86.7938 161.548 86.3029 162.382C84.1554 166.018 81.9558 169.61 79.7163 173.181C77.4768 176.752 75.1728 180.323 72.8413 183.857L71.9578 185.192C71.9117 185.247 71.832 185.182 71.8688 185.118Z" fill="#263238"/>
<path d="M97.5955 118.077C98.9239 120.991 105.633 125.007 108.775 125.439C111.033 125.746 117.898 125.857 120.251 125.498C123.012 125.074 120.902 117.635 119.273 117.828C114.794 118.35 110.99 118.932 109.793 118.932C108.333 118.932 100.433 116.398 99.4823 116.04C97.1507 115.171 96.8439 116.423 97.5955 118.077Z" fill="#EB9481"/>
<path d="M97.6362 118.853C99.3174 121.341 104.904 125.409 104.904 125.409L105.68 123.691L108.248 118.009C108.248 118.009 103.115 116.399 99.7377 115.662C99.3402 115.572 98.9359 115.514 98.5289 115.49C96.3723 115.374 96.1851 116.705 97.6362 118.853Z" fill="#FEDE8A"/>
<path d="M97.6362 118.853C99.3174 121.341 104.904 125.409 104.904 125.409L105.68 123.691C103.597 121.27 100.379 117.604 98.5289 115.497C96.3723 115.374 96.1851 116.705 97.6362 118.853Z" fill="#263238"/>
<path d="M103.899 124.255C104.325 123.209 106.221 118.997 106.693 118.12C106.724 118.058 106.773 118.064 106.746 118.12C105.923 120.214 104.987 122.263 103.942 124.255C103.929 124.292 103.88 124.28 103.899 124.255Z" fill="#263238"/>
<path d="M118.453 117.905C121.177 117.549 124.549 116.938 127.405 118.15C127.726 118.276 127.995 118.506 128.169 118.804C129.457 119.325 129.599 120.089 129.599 120.089C130.651 120.942 130.688 121.746 130.688 121.746C130.688 121.746 132.197 122.359 131.967 123.347C131.715 124.439 129.648 123.347 128.144 123.436C124.693 123.651 119.861 124.918 118.864 125.077L118.453 117.905Z" fill="#EB9481"/>
<path d="M124.365 121.12C125.374 121.051 126.387 121.051 127.396 121.12C128.495 121.258 129.582 121.478 130.648 121.779C130.655 121.782 130.662 121.781 130.669 121.778C130.676 121.775 130.681 121.769 130.683 121.763C130.686 121.756 130.685 121.748 130.682 121.741C130.679 121.735 130.673 121.73 130.666 121.727C128.664 120.942 126.484 120.721 124.365 121.089C124.316 121.083 124.316 121.123 124.365 121.12Z" fill="#263238"/>
<path d="M123.727 117.932C125.411 118.018 126.463 118.288 128.156 118.797V118.779C126.291 118 125.527 117.926 123.717 117.859C123.659 117.883 123.662 117.932 123.727 117.932Z" fill="#263238"/>
<path d="M123.998 123.958C123.559 124.164 123.667 124.394 124.504 124.587C125.342 124.78 128.824 124.838 128.701 126.053C128.578 127.268 123.667 127.115 122.295 126.685C120.924 126.256 118.859 125.078 118.859 125.078C119.832 124.915 122.114 124.299 123.998 123.958Z" fill="#EB9481"/>
<path d="M101.242 122.721C101.221 123.246 101.172 123.78 101.098 124.311C101.098 124.289 101.098 124.271 101.119 124.252C101.221 123.976 101.322 123.694 101.445 123.427C101.445 123.427 101.475 123.427 101.472 123.427C101.413 123.72 101.325 124.005 101.208 124.28C101.153 124.412 101.101 124.541 101.043 124.67C101.006 124.906 100.963 125.139 100.917 125.372C100.825 125.811 100.411 127.676 100.303 127.992C100.285 128.056 100.205 128.041 100.211 127.967C100.233 127.624 100.579 125.682 100.65 125.24C100.787 124.387 100.97 123.542 101.199 122.709C101.214 122.694 101.245 122.706 101.242 122.721Z" fill="#263238"/>
<path d="M98.0518 136.671C97.2327 137.091 96.1774 137.745 91.4223 136.809C91.1155 136.748 90.8271 136.674 90.5264 136.585C86.0689 135.247 80.7094 130.005 80.418 129.633C80.418 129.633 87.5016 118.15 96.5609 114.54C97.6806 114.095 99.5336 114.954 100.549 116.024C100.914 116.408 101.709 119.227 101.405 121.51C101.101 123.792 98.8679 136.251 98.0518 136.671Z" fill="#FEDE8A"/>
<path d="M97.4132 121.405C97.4474 121.891 97.3794 122.378 97.2138 122.835C97.1749 122.349 97.2429 121.861 97.4132 121.405V121.405Z" fill="white"/>
<path d="M94.328 129.225C94.3475 129.467 94.3393 129.71 94.3035 129.949C94.2739 130.191 94.2152 130.428 94.1286 130.655C94.1075 130.412 94.1157 130.168 94.1531 129.928C94.1845 129.688 94.2432 129.452 94.328 129.225V129.225Z" fill="white"/>
<path d="M89.0771 123.313C89.1116 123.8 89.0437 124.288 88.8777 124.746C88.8391 124.26 88.9072 123.771 89.0771 123.313V123.313Z" fill="white"/>
<path d="M99.4335 128.826C99.4531 129.069 99.4448 129.313 99.4089 129.553C99.3794 129.795 99.3207 130.032 99.2341 130.259C99.2129 130.017 99.2212 129.773 99.2586 129.532C99.2896 129.291 99.3483 129.054 99.4335 128.826V128.826Z" fill="white"/>
<path d="M92.6953 122.301C92.9367 122.28 93.1796 122.288 93.4193 122.322C93.6608 122.353 93.8978 122.413 94.1249 122.5C93.6397 122.535 93.1525 122.467 92.6953 122.301V122.301Z" fill="white"/>
<path d="M86.7383 127.949C87.2235 127.915 87.7105 127.983 88.1679 128.148C87.6825 128.187 87.1945 128.119 86.7383 127.949V127.949Z" fill="white"/>
<path d="M93.7578 134.063C94.2431 134.028 94.7302 134.096 95.1874 134.262C94.7021 134.301 94.2142 134.233 93.7578 134.063V134.063Z" fill="white"/>
<path d="M84.8984 131.842C85.3837 131.808 85.8707 131.876 86.328 132.041C85.8427 132.08 85.3548 132.012 84.8984 131.842V131.842Z" fill="white"/>
<path d="M97.3672 115.908C97.8524 115.874 98.3394 115.942 98.7968 116.107C98.3116 116.141 97.8245 116.073 97.3672 115.908V115.908Z" fill="white"/>
<path d="M95.6373 117.865C95.4822 118.051 95.305 118.218 95.1097 118.362C94.9196 118.509 94.7138 118.635 94.4961 118.736C94.6502 118.551 94.8252 118.384 95.0176 118.239C95.2095 118.092 95.4174 117.966 95.6373 117.865V117.865Z" fill="white"/>
<path d="M86.1912 123.427C86.0342 123.612 85.8561 123.777 85.6604 123.921C85.4723 124.07 85.2662 124.196 85.0469 124.295C85.2047 124.111 85.3827 123.945 85.5776 123.801C85.7662 123.652 85.9723 123.526 86.1912 123.427V123.427Z" fill="white"/>
<path d="M97.988 125.937C97.8311 126.122 97.653 126.289 97.4573 126.434C97.2687 126.583 97.0627 126.708 96.8438 126.808C97.0007 126.622 97.1788 126.455 97.3745 126.311C97.5641 126.163 97.77 126.038 97.988 125.937Z" fill="white"/>
<path d="M90.3435 130.747C90.1866 130.933 90.0085 131.099 89.8128 131.244C89.6239 131.393 89.4179 131.518 89.1992 131.618C89.3562 131.432 89.5343 131.266 89.73 131.121C89.9196 130.973 90.1255 130.848 90.3435 130.747Z" fill="white"/>
<path d="M100.914 119.365C100.757 119.551 100.579 119.718 100.383 119.862C100.193 120.009 99.9872 120.135 99.7695 120.236C99.9265 120.05 100.105 119.884 100.3 119.739C100.489 119.591 100.695 119.465 100.914 119.365V119.365Z" fill="white"/>
<path d="M100.75 124.94C100.564 124.783 100.398 124.605 100.253 124.409C100.104 124.22 99.9782 124.014 99.8789 123.795C100.065 123.951 100.232 124.128 100.376 124.323C100.522 124.515 100.648 124.721 100.75 124.94V124.94Z" fill="white"/>
<path d="M83.7228 128.78C83.537 128.623 83.3702 128.445 83.2258 128.25C83.0782 128.06 82.9526 127.854 82.8516 127.636C83.0373 127.793 83.2041 127.971 83.3485 128.167C83.4972 128.356 83.6229 128.562 83.7228 128.78V128.78Z" fill="white"/>
<path d="M98.6838 133.349C98.4973 133.193 98.3304 133.016 98.1868 132.821C98.0398 132.631 97.9142 132.425 97.8125 132.207C97.9983 132.364 98.1651 132.542 98.3095 132.738C98.4575 132.926 98.5831 133.131 98.6838 133.349Z" fill="white"/>
<path d="M91.1877 120.325C91.002 120.169 90.8352 119.992 90.6907 119.798C90.5443 119.607 90.4188 119.401 90.3164 119.184C90.5028 119.339 90.6697 119.516 90.8134 119.712C90.9598 119.902 91.0853 120.108 91.1877 120.325V120.325Z" fill="white"/>
<path d="M91.3166 135.95C91.1308 135.793 90.964 135.615 90.8196 135.419C90.6724 135.229 90.5469 135.023 90.4453 134.806C90.6318 134.961 90.7986 135.138 90.9423 135.333C91.0899 135.524 91.2155 135.731 91.3166 135.95V135.95Z" fill="white"/>
<path d="M92.5948 126.734C92.4107 126.576 92.245 126.398 92.1008 126.203C91.9511 126.015 91.8253 125.809 91.7266 125.59C91.9114 125.747 92.0772 125.925 92.2205 126.12C92.3696 126.309 92.4953 126.515 92.5948 126.734V126.734Z" fill="white"/>
<path d="M98.8923 119.083C97.7358 118.868 96.6498 116.479 96.5117 114.871C96.5117 114.761 97.0517 113.886 97.6683 112.791C98.0426 112.125 98.4383 111.374 98.7543 110.662C98.8187 110.518 99.1961 111.006 99.1961 111.006L100.018 111.619L102.733 113.702C102.087 114.478 101.538 115.33 101.098 116.239C101.055 116.338 101.022 116.441 101 116.546C100.999 116.563 100.999 116.581 101 116.598C100.831 117.206 100.006 119.289 98.8923 119.083Z" fill="#EB9481"/>
<path d="M100.994 116.561C100.993 116.579 100.993 116.596 100.994 116.613C100.833 116.566 100.676 116.506 100.524 116.432C97.5517 115.04 98.8617 111.058 98.8617 111.058L100.027 111.634L102.742 113.717C102.096 114.493 101.547 115.345 101.107 116.255C101.059 116.352 101.021 116.455 100.994 116.561V116.561Z" fill="#263238"/>
<path d="M105.852 105.226C105.852 105.226 107.211 106.088 107.217 107.622C107.223 109.155 106.603 110.656 106.474 110.711C106.345 110.766 105.852 105.226 105.852 105.226Z" fill="#263238"/>
<path d="M99.1086 106.023C98.2925 107.634 98.3355 112.711 99.354 114.018C100.833 115.914 103.68 116.567 105.401 114.693C107.067 112.877 106.895 106.263 105.707 105.029C103.98 103.207 100.317 103.64 99.1086 106.023Z" fill="#EB9481"/>
<path d="M103.439 110.088C103.439 110.088 103.411 110.107 103.414 110.119C103.433 110.465 103.396 110.864 103.086 110.987C103.086 110.987 103.086 111.008 103.086 111.005C103.469 110.944 103.512 110.413 103.439 110.088Z" fill="#263238"/>
<path d="M103.121 109.735C102.563 109.705 102.544 110.821 103.063 110.849C103.581 110.876 103.587 109.76 103.121 109.735Z" fill="#263238"/>
<path d="M105.336 110.076C105.336 110.076 105.364 110.076 105.364 110.107C105.345 110.453 105.385 110.852 105.698 110.972C105.698 110.972 105.698 110.993 105.698 110.99C105.312 110.932 105.266 110.401 105.336 110.076Z" fill="#263238"/>
<path d="M105.652 109.72C106.207 109.686 106.234 110.803 105.719 110.834C105.204 110.864 105.185 109.748 105.652 109.72Z" fill="#263238"/>
<path d="M102.776 108.886C102.923 108.844 103.067 108.795 103.209 108.738C103.37 108.709 103.517 108.627 103.626 108.505C103.652 108.46 103.663 108.408 103.657 108.357C103.651 108.305 103.628 108.257 103.592 108.22C103.509 108.157 103.411 108.117 103.307 108.105C103.204 108.092 103.099 108.108 103.003 108.149C102.796 108.205 102.617 108.335 102.5 108.514C102.477 108.557 102.466 108.606 102.469 108.654C102.473 108.703 102.49 108.749 102.519 108.788C102.548 108.827 102.588 108.857 102.633 108.875C102.679 108.892 102.728 108.896 102.776 108.886V108.886Z" fill="#263238"/>
<path d="M106.03 109.379C105.881 109.346 105.734 109.305 105.588 109.256C105.427 109.235 105.277 109.161 105.162 109.045C105.132 109.002 105.118 108.951 105.122 108.899C105.125 108.847 105.146 108.798 105.18 108.759C105.26 108.692 105.355 108.647 105.458 108.629C105.561 108.611 105.666 108.621 105.763 108.658C105.973 108.702 106.159 108.822 106.285 108.996C106.311 109.037 106.325 109.085 106.325 109.133C106.324 109.182 106.31 109.23 106.283 109.27C106.256 109.311 106.217 109.343 106.173 109.362C106.128 109.382 106.078 109.387 106.03 109.379V109.379Z" fill="#263238"/>
<path d="M102.656 113.368C102.739 113.45 102.819 113.561 102.945 113.573C103.074 113.573 103.201 113.546 103.319 113.493C103.319 113.493 103.34 113.493 103.319 113.512C103.269 113.579 103.201 113.632 103.123 113.664C103.045 113.695 102.96 113.706 102.877 113.693C102.807 113.674 102.744 113.634 102.696 113.58C102.648 113.525 102.617 113.458 102.607 113.386C102.605 113.379 102.605 113.372 102.608 113.366C102.611 113.36 102.616 113.355 102.622 113.352C102.629 113.35 102.636 113.35 102.643 113.353C102.649 113.356 102.654 113.361 102.656 113.368Z" fill="#263238"/>
<path d="M104.662 111.889C104.662 111.889 104.677 112.404 104.662 112.647C104.19 112.597 103.714 112.613 103.247 112.696C103.137 112.72 103.149 112.631 103.275 112.573C103.651 112.401 104.07 112.346 104.477 112.413C104.502 112.349 104.438 111.616 104.477 111.619C104.663 111.655 104.843 111.717 105.011 111.803C105.011 110.723 104.839 109.655 104.855 108.576C104.855 108.539 104.913 108.533 104.919 108.576C105.137 109.718 105.24 110.879 105.226 112.042C105.229 112.174 104.754 111.938 104.662 111.889Z" fill="#263238"/>
<path d="M103.97 112.463C103.847 112.784 103.621 113.056 103.326 113.233C102.862 113.42 102.712 113 103.178 112.619C103.423 112.496 103.697 112.442 103.97 112.463Z" fill="#263238"/>
<path d="M103.489 113.137C103.44 113.177 103.385 113.209 103.326 113.232C102.9 113.404 102.731 113.064 103.075 112.72C103.308 112.738 103.575 112.824 103.489 113.137Z" fill="#FF99BA"/>
<path d="M98.8751 110.364C99.4365 110.536 100.081 108.849 100.265 108.217C100.424 107.646 100.608 105.833 100.636 105.707C100.664 105.581 103.09 107.312 104.495 106.901C105.9 106.489 106.854 105.216 106.876 104.624C106.897 104.032 105.14 102.529 103.621 102.452C102.102 102.375 100.044 104.293 100.044 104.293C100.293 104.011 100.518 103.709 100.719 103.391C100.694 103.323 99.7126 103.716 99.5316 104.416C99.5316 104.416 99.7279 103.535 99.6543 103.52C99.5807 103.504 98.8168 104.256 98.9886 104.827C98.9886 104.827 98.1051 105.591 98.0253 106.428C97.9455 107.266 98.2155 110.162 98.8751 110.364Z" fill="#263238"/>
<path d="M105.499 106.581C105.081 106.808 104.631 106.969 104.164 107.06C103.641 107.107 103.113 107.022 102.63 106.815C102.144 106.627 101.692 106.359 101.293 106.023C100.94 105.735 100.624 105.382 100.247 105.124C100.152 105.057 100.044 105.195 100.102 105.281C100.732 106.17 101.631 106.833 102.667 107.17C103.148 107.327 103.662 107.357 104.158 107.255C104.653 107.154 105.114 106.926 105.496 106.594C105.496 106.594 105.505 106.581 105.499 106.581Z" fill="#263238"/>
<path d="M99.4594 110.214C99.4594 110.214 98.5881 108.447 97.8028 108.732C97.0174 109.018 97.496 111.463 98.3028 111.911C98.4017 111.975 98.5124 112.018 98.6284 112.038C98.7444 112.058 98.8632 112.055 98.9778 112.028C99.0924 112.001 99.2004 111.951 99.2952 111.881C99.3901 111.812 99.47 111.724 99.53 111.622L99.4594 110.214Z" fill="#EB9481"/>
<path d="M97.9613 109.428C97.9613 109.428 97.9429 109.428 97.9613 109.453C98.5196 109.784 98.7467 110.373 98.8817 110.987C98.8562 110.922 98.817 110.863 98.7667 110.815C98.7164 110.767 98.6562 110.73 98.5903 110.707C98.5243 110.684 98.4542 110.676 98.3848 110.683C98.3154 110.69 98.2484 110.712 98.1883 110.748C98.1699 110.748 98.1883 110.781 98.1883 110.781C98.2981 110.764 98.4104 110.782 98.5099 110.831C98.6093 110.881 98.691 110.96 98.7436 111.057C98.8314 111.221 98.9014 111.394 98.9522 111.573C98.9706 111.631 99.0719 111.616 99.0627 111.551C99.1946 110.788 98.7651 109.631 97.9613 109.428Z" fill="#263238"/>
<path d="M93.7111 118.104C93.0975 121.58 96.8648 133.29 99.2792 135.477C102.872 138.729 109.513 140.868 111.922 141.564C112.971 141.871 115.873 134.487 114.812 133.999C112.538 132.965 105.476 130.756 104.804 130.204C104.132 129.652 100.083 123.801 98.2791 120.433C95.8647 115.899 94.0148 116.347 93.7111 118.104Z" fill="#EB9481"/>
<path d="M113.024 133.348C113.024 133.348 116.16 134.149 118.181 134.766C119.31 135.112 121.194 135.876 121.909 136.508C122.976 137.456 126.836 142.095 125.731 143.055C124.731 143.926 121.921 139.518 121.921 139.518C121.921 139.518 125.148 143.715 123.762 144.54C122.375 145.365 119.838 139.963 119.838 139.963C119.838 139.963 123.056 144.35 121.482 144.972C120.292 145.442 117.74 140.677 117.74 140.677C117.74 140.677 120.482 144.466 119.273 145.003C117.942 145.598 115.313 141.346 115.313 141.346C112.024 142.196 110.098 141.254 108.831 140.426C108.533 140.223 113.024 133.348 113.024 133.348Z" fill="#EB9481"/>
<path d="M120.892 137.993C121.291 138.472 121.696 138.956 122.049 139.469C122.401 139.981 122.736 140.509 123.039 141.052C123.451 141.754 123.78 142.501 124.021 143.279C123.494 141.929 122.257 140.073 121.904 139.561C121.552 139.048 121.223 138.518 120.874 138.005C120.864 137.993 120.883 137.981 120.892 137.993Z" fill="#263238"/>
<path d="M119.018 139.235C119.699 139.775 121.126 141.782 121.675 143.128C121.699 143.184 121.675 143.18 121.635 143.128C121.206 142.463 119.463 139.886 119.003 139.244C118.994 139.235 119.009 139.226 119.018 139.235Z" fill="#263238"/>
<path d="M117.22 140.021C118.067 140.909 118.735 141.95 119.19 143.089C119.211 143.144 119.168 143.135 119.135 143.089C118.5 142.055 118.009 141.248 117.187 140.049C117.174 140.021 117.202 139.993 117.22 140.021Z" fill="#263238"/>
<path d="M97.1358 118.359C94.3349 114.398 92.6599 115.865 93.2213 120.166C93.749 124.188 95.1571 128.98 95.1571 128.98L102.213 125.556C102.213 125.556 98.9182 120.896 97.1358 118.359Z" fill="#FEDE8A"/>
<path d="M98.8363 119.917C98.9293 120.141 98.9963 120.375 99.0358 120.614C99.0788 120.853 99.0943 121.097 99.0818 121.341C98.9898 121.116 98.9239 120.881 98.8854 120.641C98.8398 120.403 98.8233 120.16 98.8363 119.917V119.917Z" fill="white"/>
<path d="M94.6562 122.326C95.1065 122.142 95.591 122.059 96.0767 122.08C95.8528 122.172 95.6192 122.238 95.3803 122.277C95.1418 122.322 94.8987 122.339 94.6562 122.326V122.326Z" fill="white"/>
<path d="M94.8353 116.165C94.6453 116.614 94.3619 117.016 94.0039 117.346C94.1939 116.898 94.4773 116.495 94.8353 116.165V116.165Z" fill="white"/>
<path d="M100.816 124.176C100.723 124.4 100.604 124.613 100.463 124.811C100.325 125.011 100.165 125.194 99.9844 125.357C100.174 124.908 100.458 124.506 100.816 124.176V124.176Z" fill="white"/>
<path d="M95.9077 126.577C95.6828 126.485 95.4696 126.367 95.2726 126.225C95.0724 126.087 94.8891 125.927 94.7266 125.746C95.1749 125.936 95.5776 126.22 95.9077 126.577V126.577Z" fill="white"/>
<path d="M98.0488 119.552C98.4262 120.071 98.8158 120.577 99.2023 121.086C99.1042 120.828 99.0183 120.568 98.9446 120.304H98.963C99.0397 120.506 99.1287 120.706 99.2023 120.917L99.3128 121.224C99.3223 121.245 99.3305 121.267 99.3373 121.289C99.6441 121.684 99.9509 122.08 100.233 122.485C100.58 122.97 100.914 123.461 101.252 123.952C101.589 124.442 101.93 125.053 102.295 125.547C102.328 125.59 101.681 125.854 101.611 125.887C101.54 125.921 101.503 125.863 101.571 125.841C101.638 125.82 102.154 125.504 102.16 125.498C101.822 125.001 101.433 124.544 101.08 124.062C100.727 123.58 100.377 123.099 100.037 122.611C99.3465 121.617 98.7145 120.586 98.0273 119.589L98.0488 119.552Z" fill="#263238"/>
<path d="M93.3842 123.013C93.4916 123.221 93.6081 123.427 93.691 123.642L93.8075 123.909C93.645 123.145 93.5008 122.375 93.332 121.611C93.6572 122.838 93.9855 124.093 94.2861 125.338C94.5714 126.529 94.9181 127.731 95.0838 128.946C95.2977 128.852 95.5194 128.777 95.7464 128.722C95.5186 128.869 95.2733 128.988 95.0163 129.075C94.6465 127.839 94.3393 126.586 94.0959 125.32C94.0192 124.976 93.9487 124.633 93.875 124.289C93.7953 124.08 93.7002 123.881 93.6051 123.675C93.51 123.47 93.4241 123.24 93.3382 123.022C93.3566 123.01 93.378 122.997 93.3842 123.013Z" fill="#263238"/>
<path d="M95.2583 127.796C96.24 127.243 100.342 125.121 101.259 124.728C101.323 124.7 101.357 124.728 101.293 124.771C99.3457 125.902 97.3384 126.926 95.2798 127.839C95.2552 127.845 95.2307 127.811 95.2583 127.796Z" fill="#263238"/>
<path d="M207.677 208.448H114.207L127.721 131.799H221.191L207.677 208.448Z" fill="#EDD28C"/>
<path d="M159.714 123.859H129.125L127.723 131.799H160.459L159.714 123.859Z" fill="#EDD28C"/>
<path d="M125.821 127.099C125.617 126.221 125.617 125.308 125.821 124.43C126.026 125.308 126.026 126.221 125.821 127.099V127.099Z" fill="#263238"/>
<path d="M123.107 127.885C122.795 127.561 122.526 127.198 122.306 126.805C122.076 126.42 121.896 126.008 121.77 125.578C122.083 125.9 122.352 126.262 122.57 126.654C122.8 127.041 122.98 127.454 123.107 127.885V127.885Z" fill="#263238"/>
<path d="M121.138 129.925C120.276 129.662 119.486 129.206 118.828 128.59C119.258 128.715 119.671 128.894 120.055 129.124C120.448 129.344 120.812 129.613 121.138 129.925V129.925Z" fill="#263238"/>
<path d="M120.454 132.673C119.576 132.878 118.663 132.878 117.785 132.673C118.663 132.469 119.576 132.469 120.454 132.673V132.673Z" fill="#263238"/>
<path d="M121.248 135.392C120.923 135.702 120.56 135.971 120.169 136.192C119.784 136.422 119.371 136.601 118.941 136.726C119.265 136.414 119.628 136.145 120.021 135.925C120.405 135.695 120.818 135.515 121.248 135.392V135.392Z" fill="#263238"/>
<path d="M123.288 137.352C123.026 138.215 122.57 139.007 121.953 139.665C122.078 139.234 122.259 138.822 122.49 138.438C122.709 138.043 122.977 137.678 123.288 137.352V137.352Z" fill="#263238"/>
<path d="M126.033 138.03C126.14 138.466 126.192 138.915 126.187 139.364C126.193 139.814 126.142 140.262 126.033 140.699C125.923 140.262 125.872 139.814 125.88 139.364C125.875 138.915 125.926 138.466 126.033 138.03V138.03Z" fill="#263238"/>
<path d="M128.75 137.26C129.062 137.584 129.332 137.947 129.551 138.34C129.781 138.724 129.961 139.136 130.085 139.567C129.468 138.909 129.011 138.117 128.75 137.254V137.26Z" fill="#263238"/>
<path d="M130.715 135.204C131.145 135.328 131.558 135.507 131.942 135.738C132.335 135.957 132.698 136.226 133.022 136.539C132.591 136.415 132.179 136.235 131.795 136.005C131.402 135.786 131.039 135.516 130.715 135.204V135.204Z" fill="#263238"/>
<path d="M131.395 132.456C132.273 132.251 133.188 132.251 134.067 132.456C133.188 132.66 132.273 132.66 131.395 132.456V132.456Z" fill="#263238"/>
<path d="M130.604 129.738C130.929 129.427 131.291 129.159 131.684 128.94C132.067 128.707 132.48 128.527 132.911 128.403C132.253 129.02 131.461 129.476 130.598 129.738H130.604Z" fill="#263238"/>
<path d="M128.562 127.777C128.689 127.348 128.868 126.935 129.096 126.55C129.315 126.157 129.585 125.794 129.897 125.47C129.773 125.901 129.594 126.313 129.363 126.697C129.144 127.09 128.875 127.453 128.562 127.777V127.777Z" fill="#263238"/>
<path d="M207.538 208.449H113.868L100.566 134.582H194.239L207.538 208.449Z" fill="#FEDE8A"/>
<path d="M127.299 105.146C127.152 106.555 126.617 107.896 125.752 109.018C124.887 110.14 123.728 111 122.403 111.502C121.078 112.004 119.64 112.128 118.249 111.86C116.858 111.592 115.568 110.942 114.525 109.984L110.699 110.545L112.614 107.238C112.176 106.162 111.989 105.001 112.067 103.841C112.146 102.682 112.487 101.556 113.066 100.549C113.645 99.5418 114.445 98.6796 115.407 98.0281C116.369 97.3765 117.467 96.9527 118.617 96.7888C119.767 96.625 120.939 96.7254 122.045 97.0824C123.15 97.4395 124.16 98.0438 124.997 98.8494C125.834 99.655 126.476 100.641 126.875 101.732C127.274 102.823 127.419 103.991 127.299 105.146V105.146Z" fill="white"/>
<path d="M127.299 105.146C127.155 106.554 126.624 107.895 125.765 109.02C125.345 109.589 124.839 110.089 124.264 110.502C123.703 110.93 123.083 111.276 122.424 111.53C121.764 111.79 121.071 111.955 120.365 112.021C120.012 112.052 119.658 112.059 119.304 112.042C118.949 112.033 118.595 111.996 118.245 111.932C116.835 111.672 115.526 111.025 114.463 110.063L114.552 110.091L110.732 110.677L110.453 110.72L110.594 110.474L112.496 107.161V107.293C112.047 106.197 111.857 105.013 111.939 103.831C112.02 102.65 112.373 101.503 112.969 100.479C113.564 99.4592 114.382 98.5866 115.362 97.9271C116.34 97.2763 117.453 96.8554 118.617 96.696C119.781 96.5366 120.966 96.6428 122.083 97.0067C123.189 97.3828 124.196 98.0012 125.031 98.8167C125.865 99.6302 126.503 100.623 126.895 101.72C127.288 102.816 127.426 103.988 127.299 105.146ZM127.299 105.146C127.423 103.994 127.28 102.828 126.882 101.74C126.484 100.652 125.842 99.6693 125.004 98.8689C124.166 98.0684 123.155 97.4711 122.05 97.1233C120.945 96.7754 119.774 96.6862 118.629 96.8625C117.495 97.0303 116.415 97.4565 115.472 98.1081C114.537 98.7648 113.756 99.6168 113.183 100.605C112.619 101.596 112.287 102.701 112.211 103.839C112.136 104.984 112.321 106.131 112.751 107.195L112.779 107.262L112.742 107.327L110.815 110.628L110.68 110.425L114.509 109.889H114.561L114.598 109.922C115.621 110.875 116.889 111.524 118.261 111.797C118.602 111.866 118.949 111.908 119.298 111.922C119.646 111.947 119.996 111.947 120.344 111.922C121.042 111.866 121.73 111.714 122.387 111.472C123.046 111.232 123.666 110.897 124.228 110.478C124.8 110.068 125.306 109.575 125.731 109.014C126.601 107.894 127.144 106.555 127.299 105.146Z" fill="#263238"/>
<path d="M115.954 107.916C115.948 107.814 115.964 107.713 115.999 107.617C116.034 107.522 116.088 107.434 116.158 107.361C116.228 107.287 116.313 107.229 116.407 107.189C116.5 107.15 116.601 107.13 116.703 107.131C116.911 107.131 117.111 107.213 117.258 107.361C117.406 107.508 117.488 107.708 117.488 107.916C117.488 108.124 117.406 108.324 117.258 108.471C117.111 108.619 116.911 108.701 116.703 108.701C116.601 108.702 116.5 108.682 116.407 108.643C116.313 108.603 116.228 108.545 116.158 108.471C116.088 108.398 116.034 108.31 115.999 108.215C115.964 108.119 115.948 108.018 115.954 107.916V107.916ZM116.261 106.103L116.083 100.016H117.31L117.132 106.103H116.261Z" fill="#FEDE8A"/>
<path d="M118.876 107.916C118.87 107.815 118.885 107.713 118.92 107.618C118.955 107.523 119.009 107.436 119.079 107.362C119.149 107.288 119.233 107.23 119.326 107.19C119.42 107.15 119.52 107.13 119.622 107.131C119.83 107.131 120.03 107.213 120.177 107.361C120.324 107.508 120.407 107.708 120.407 107.916C120.407 108.124 120.324 108.324 120.177 108.471C120.03 108.619 119.83 108.701 119.622 108.701C119.52 108.702 119.42 108.682 119.326 108.642C119.233 108.602 119.149 108.544 119.079 108.47C119.009 108.396 118.955 108.309 118.92 108.214C118.885 108.119 118.87 108.017 118.876 107.916V107.916ZM119.183 106.103L119.014 100.016H120.241L120.063 106.103H119.183Z" fill="#FEDE8A"/>
<path d="M121.79 107.916C121.784 107.814 121.799 107.713 121.835 107.617C121.87 107.522 121.924 107.434 121.994 107.361C122.064 107.287 122.149 107.229 122.243 107.189C122.336 107.15 122.437 107.13 122.539 107.131C122.747 107.131 122.947 107.213 123.094 107.361C123.241 107.508 123.324 107.708 123.324 107.916C123.324 108.124 123.241 108.324 123.094 108.471C122.947 108.619 122.747 108.701 122.539 108.701C122.437 108.702 122.336 108.682 122.243 108.643C122.149 108.603 122.064 108.545 121.994 108.471C121.924 108.398 121.87 108.31 121.835 108.215C121.799 108.119 121.784 108.018 121.79 107.916ZM122.097 106.103L121.919 100.016H123.146L122.971 106.103H122.097Z" fill="#FEDE8A"/>
<path d="M144.264 168.08H150.112V168.72H145.056V169.8H150.192V170.44H144.264V168.08ZM143.776 171.104H150.6V171.744H143.776V171.104ZM147.184 174.856C146.288 174.856 145.563 174.755 145.008 174.552C144.453 174.355 144.176 174.037 144.176 173.6C144.176 173.163 144.451 172.845 145 172.648C145.555 172.451 146.283 172.352 147.184 172.352C148.085 172.352 148.811 172.451 149.36 172.648C149.915 172.845 150.192 173.163 150.192 173.6C150.192 174.037 149.915 174.355 149.36 174.552C148.805 174.755 148.08 174.856 147.184 174.856ZM147.184 174.232C147.808 174.232 148.325 174.181 148.736 174.08C149.152 173.979 149.36 173.819 149.36 173.6C149.36 173.387 149.152 173.229 148.736 173.128C148.325 173.027 147.808 172.976 147.184 172.976C146.56 172.976 146.04 173.027 145.624 173.128C145.213 173.229 145.008 173.387 145.008 173.6C145.008 173.819 145.213 173.979 145.624 174.08C146.04 174.181 146.56 174.232 147.184 174.232ZM158.295 171.768V172.4H151.471V171.768H154.487V171.096H151.967V169.28H157.031V168.696H151.967V168.08H157.807V169.864H152.743V170.48H157.903V171.096H155.271V171.768H158.295ZM151.887 172.992H157.815V174.84H157.015V173.632H151.887V172.992ZM165.559 173.2H164.767V168H165.559V173.2ZM164.199 172.096C163.793 172.277 163.039 172.368 161.935 172.368H159.167V171.704H161.143V170.792H159.567V168.136H163.535V168.776H160.351V170.152H163.615V170.792H161.935V171.704H161.959C163.036 171.704 163.783 171.616 164.199 171.44V172.096ZM165.743 174.056V174.744H159.767V172.896H160.567V174.056H165.743ZM134.502 180.528H133.542V183.832H132.75V177H133.542V179.768H134.502V180.528ZM130.31 177.2C130.299 178.283 130.209 179.229 130.038 180.04L132.19 182.952L131.55 183.408L129.79 180.968C129.545 181.72 129.219 182.309 128.814 182.736C128.409 183.157 127.942 183.387 127.414 183.424V182.624C127.857 182.555 128.233 182.272 128.542 181.776C128.857 181.28 129.094 180.632 129.254 179.832C129.414 179.032 129.497 178.144 129.502 177.168L130.31 177.2ZM141.429 182.072H140.637V177H141.429V182.072ZM137.533 179.528C137.293 179.955 136.973 180.301 136.573 180.568C136.179 180.829 135.731 180.987 135.229 181.04V180.312C135.8 180.232 136.259 179.973 136.605 179.536C136.952 179.093 137.147 178.536 137.189 177.864H135.317V177.176H139.741V177.864H137.981C137.976 178.184 137.923 178.515 137.821 178.856L139.941 180.4L139.501 180.984L137.533 179.528ZM141.613 183.024V183.744H135.637V181.568H136.437V183.024H141.613ZM148.333 177H149.133V183.832H148.333V177ZM145.109 183.512C144.693 183.512 144.33 183.395 144.021 183.16C143.711 182.931 143.469 182.579 143.293 182.104C143.122 181.629 143.037 181.04 143.037 180.336C143.037 179.632 143.122 179.043 143.293 178.568C143.469 178.093 143.711 177.741 144.021 177.512C144.33 177.277 144.693 177.16 145.109 177.16C145.519 177.16 145.879 177.277 146.189 177.512C146.498 177.741 146.738 178.093 146.909 178.568C147.085 179.043 147.173 179.632 147.173 180.336C147.173 181.04 147.085 181.629 146.909 182.104C146.738 182.579 146.498 182.931 146.189 183.16C145.879 183.395 145.519 183.512 145.109 183.512ZM145.109 182.784C145.487 182.784 145.794 182.584 146.029 182.184C146.263 181.779 146.381 181.163 146.381 180.336C146.381 179.515 146.263 178.901 146.029 178.496C145.794 178.091 145.487 177.888 145.109 177.888C144.725 177.888 144.415 178.091 144.181 178.496C143.946 178.896 143.829 179.509 143.829 180.336C143.829 181.163 143.943 181.779 144.173 182.184C144.407 182.584 144.719 182.784 145.109 182.784ZM156.934 179.104C156.849 179.515 156.622 179.843 156.254 180.088C155.886 180.333 155.422 180.456 154.862 180.456C154.435 180.456 154.062 180.387 153.742 180.248C153.427 180.104 153.182 179.904 153.006 179.648C152.835 179.392 152.75 179.099 152.75 178.768C152.75 178.443 152.835 178.152 153.006 177.896C153.182 177.64 153.427 177.44 153.742 177.296C154.062 177.152 154.435 177.08 154.862 177.08C155.406 177.08 155.859 177.197 156.222 177.432C156.59 177.667 156.822 177.979 156.918 178.368H158.326V177H159.118V180.552H158.326V179.104H156.934ZM153.542 178.768C153.542 179.083 153.662 179.333 153.902 179.52C154.147 179.707 154.467 179.8 154.862 179.8C155.257 179.8 155.574 179.707 155.814 179.52C156.054 179.333 156.174 179.083 156.174 178.768C156.174 178.453 156.054 178.203 155.814 178.016C155.574 177.829 155.257 177.736 154.862 177.736C154.467 177.736 154.147 177.829 153.902 178.016C153.662 178.203 153.542 178.453 153.542 178.768ZM159.334 183.752L158.102 182.632C157.905 182.963 157.662 183.224 157.374 183.416C157.086 183.613 156.771 183.723 156.43 183.744V183.048C156.67 183.016 156.891 182.907 157.094 182.72C157.297 182.533 157.465 182.277 157.598 181.952C157.737 181.627 157.819 181.251 157.846 180.824L158.606 180.88C158.585 181.264 158.513 181.635 158.39 181.992L159.822 183.224L159.334 183.752ZM155.43 180.848H156.15V183.744H153.294V180.848H154.006V181.648H155.43V180.848ZM155.43 183.112V182.264H154.006V183.112H155.43ZM163.733 178.272C163.36 178.635 162.896 178.923 162.341 179.136C161.787 179.349 161.216 179.461 160.629 179.472V178.816C161.077 178.8 161.52 178.709 161.957 178.544C162.395 178.373 162.771 178.141 163.085 177.848C163.4 177.549 163.6 177.213 163.685 176.84L164.477 176.976C164.424 177.248 164.317 177.509 164.157 177.76L166.989 178.88L166.725 179.48L163.733 178.272ZM167.205 180.008V180.64H160.381V180.008H167.205ZM165.949 181.152H166.725V183.752H160.853V181.152H161.637V181.792H165.949V181.152ZM165.949 183.128V182.408H161.637V183.128H165.949ZM173.661 177H174.453V183.832L173.661 183.84V177ZM168.469 177.208H169.277V182.696H171.261C171.581 182.696 171.903 182.667 172.229 182.608C172.554 182.544 172.821 182.461 173.029 182.36V183.088C172.821 183.189 172.557 183.269 172.237 183.328C171.917 183.392 171.591 183.424 171.261 183.424H168.469V177.208ZM182.916 180.528H181.956V183.832H181.164V177H181.956V179.768H182.916V180.528ZM178.804 182.704C179.129 182.704 179.452 182.675 179.772 182.616C180.097 182.557 180.364 182.477 180.572 182.376V183.096C180.369 183.197 180.1 183.277 179.764 183.336C179.433 183.395 179.1 183.424 178.764 183.424H176.092V177.248H180.036V177.968H176.9V182.704H178.804ZM184.059 183.768C183.899 183.768 183.763 183.712 183.651 183.6C183.545 183.493 183.491 183.36 183.491 183.2C183.491 183.04 183.545 182.907 183.651 182.8C183.763 182.688 183.899 182.632 184.059 182.632C184.219 182.632 184.353 182.688 184.459 182.8C184.566 182.907 184.619 183.04 184.619 183.2C184.619 183.36 184.566 183.493 184.459 183.6C184.353 183.712 184.219 183.768 184.059 183.768Z" fill="white"/>
</svg>
