<svg width="14" height="16" viewBox="0 0 14 16" fill="none" xmlns="http://www.w3.org/2000/svg">
<path d="M1.66602 2.66634V13.333C1.66602 13.6866 1.80649 14.0258 2.05654 14.2758C2.30659 14.5259 2.64573 14.6663 2.99935 14.6663H10.9993C11.353 14.6663 11.6921 14.5259 11.9422 14.2758C12.1922 14.0258 12.3327 13.6866 12.3327 13.333V5.56101C12.3327 5.38338 12.2971 5.20755 12.2282 5.04384C12.1593 4.88013 12.0584 4.73184 11.9313 4.60767L8.97135 1.71301C8.72226 1.46945 8.38773 1.33305 8.03935 1.33301H2.99935C2.64573 1.33301 2.30659 1.47348 2.05654 1.72353C1.80649 1.97358 1.66602 2.31272 1.66602 2.66634V2.66634Z" stroke="#2D2D2D" stroke-width="2" stroke-linecap="round" stroke-linejoin="round"/>
<path d="M8.33398 1.33301V3.99967C8.33398 4.3533 8.47446 4.69244 8.72451 4.94248C8.97456 5.19253 9.3137 5.33301 9.66732 5.33301H12.334" stroke="#2D2D2D" stroke-width="2" stroke-linejoin="round"/>
</svg>
