<svg width="16" height="16" viewBox="0 0 16 16" fill="none" xmlns="http://www.w3.org/2000/svg">
<path d="M13.4978 0.795354L13.6468 0.646354C13.759 0.53427 13.8921 0.445374 14.0386 0.38474C14.1851 0.324106 14.3421 0.292922 14.5007 0.292969C14.6592 0.293015 14.8162 0.324291 14.9627 0.385011C15.1092 0.44573 15.2422 0.534705 15.3543 0.646854C15.4664 0.759003 15.5553 0.89213 15.6159 1.03863C15.6766 1.18514 15.7077 1.34215 15.7077 1.50071C15.7077 1.65926 15.6764 1.81626 15.6157 1.96273C15.5549 2.1092 15.466 2.24227 15.3538 2.35435L15.2048 2.50235C15.4597 2.78822 15.5956 3.16075 15.5846 3.54358C15.5736 3.92642 15.4167 4.29056 15.1458 4.56135L4.85382 14.8544C4.78948 14.9184 4.70893 14.9636 4.62082 14.9854L0.620816 15.9854C0.537108 16.0062 0.449432 16.005 0.366309 15.982C0.283186 15.9589 0.207444 15.9147 0.146447 15.8537C0.0854489 15.7927 0.0412701 15.717 0.0182047 15.6339C-0.00486067 15.5507 -0.00602807 15.4631 0.014816 15.3794L1.01482 11.3794C1.0367 11.2916 1.08197 11.2114 1.14582 11.1474L10.7878 1.50535C10.6914 1.43748 10.5741 1.40588 10.4566 1.41613C10.3391 1.42637 10.229 1.47781 10.1458 1.56135L6.85382 4.85435C6.80733 4.90084 6.75214 4.93772 6.6914 4.96288C6.63066 4.98804 6.56556 5.00099 6.49982 5.00099C6.43407 5.00099 6.36897 4.98804 6.30823 4.96288C6.24749 4.93772 6.1923 4.90084 6.14582 4.85435C6.09933 4.80787 6.06245 4.75268 6.03729 4.69194C6.01213 4.6312 5.99918 4.5661 5.99918 4.50035C5.99918 4.43461 6.01213 4.36951 6.03729 4.30877C6.06245 4.24803 6.09933 4.19284 6.14582 4.14635L9.43982 0.854354C9.71079 0.583369 10.0752 0.426374 10.4583 0.415589C10.8414 0.404803 11.214 0.541045 11.4998 0.796354C11.7746 0.550792 12.1301 0.414966 12.4986 0.414781C12.8671 0.414597 13.2228 0.550068 13.4978 0.795354Z" fill="#2D2D2D"/>
</svg>
