<svg width="11" height="12" viewBox="0 0 11 12" fill="none" xmlns="http://www.w3.org/2000/svg">
<path d="M10.2857 3.375V10.5C10.2857 10.8978 10.1051 11.2794 9.78361 11.5607C9.46212 11.842 9.02609 12 8.57143 12H1.71429C1.25963 12 0.823594 11.842 0.502103 11.5607C0.180612 11.2794 0 10.8978 0 10.5V1.5C0 1.10218 0.180612 0.720644 0.502103 0.43934C0.823594 0.158035 1.25963 0 1.71429 0L6.42857 0L10.2857 3.375ZM7.71429 3.375C7.37329 3.375 7.04627 3.25647 6.80515 3.0455C6.56403 2.83452 6.42857 2.54837 6.42857 2.25V0.75H1.71429C1.48696 0.75 1.26894 0.829018 1.10819 0.96967C0.947449 1.11032 0.857143 1.30109 0.857143 1.5V10.5C0.857143 10.6989 0.947449 10.8897 1.10819 11.0303C1.26894 11.171 1.48696 11.25 1.71429 11.25H8.57143C8.79876 11.25 9.01677 11.171 9.17752 11.0303C9.33827 10.8897 9.42857 10.6989 9.42857 10.5V3.375H7.71429Z" fill="#2D2D2D"/>
<path d="M1.71484 4.875C1.71484 4.77554 1.76 4.68016 1.84037 4.60984C1.92074 4.53951 2.02975 4.5 2.14342 4.5H8.14342C8.25708 4.5 8.36609 4.53951 8.44646 4.60984C8.52683 4.68016 8.57199 4.77554 8.57199 4.875V10.125C8.57199 10.2245 8.52683 10.3198 8.44646 10.3902C8.36609 10.4605 8.25708 10.5 8.14342 10.5H2.14342C2.02975 10.5 1.92074 10.4605 1.84037 10.3902C1.76 10.3198 1.71484 10.2245 1.71484 10.125V4.875ZM1.71484 2.625C1.71484 2.52554 1.76 2.43016 1.84037 2.35984C1.92074 2.28951 2.02975 2.25 2.14342 2.25H4.28627C4.39994 2.25 4.50895 2.28951 4.58932 2.35984C4.66969 2.43016 4.71484 2.52554 4.71484 2.625C4.71484 2.72446 4.66969 2.81984 4.58932 2.89016C4.50895 2.96049 4.39994 3 4.28627 3H2.14342C2.02975 3 1.92074 2.96049 1.84037 2.89016C1.76 2.81984 1.71484 2.72446 1.71484 2.625Z" fill="#2D2D2D"/>
</svg>
