<svg width="66" height="66" viewBox="0 0 66 66" fill="none" xmlns="http://www.w3.org/2000/svg">
<path d="M45.375 24.75C45.375 28.0321 44.0712 31.1797 41.7504 33.5004C39.4297 35.8212 36.2821 37.125 33 37.125C29.7179 37.125 26.5703 35.8212 24.2496 33.5004C21.9288 31.1797 20.625 28.0321 20.625 24.75C20.625 21.4679 21.9288 18.3203 24.2496 15.9996C26.5703 13.6788 29.7179 12.375 33 12.375C36.2821 12.375 39.4297 13.6788 41.7504 15.9996C44.0712 18.3203 45.375 21.4679 45.375 24.75Z" fill="#2D2D2D"/>
<path fill-rule="evenodd" clip-rule="evenodd" d="M0 33C0 24.2479 3.47678 15.8542 9.66548 9.66548C15.8542 3.47678 24.2479 0 33 0C41.7521 0 50.1458 3.47678 56.3345 9.66548C62.5232 15.8542 66 24.2479 66 33C66 41.7521 62.5232 50.1458 56.3345 56.3345C50.1458 62.5232 41.7521 66 33 66C24.2479 66 15.8542 62.5232 9.66548 56.3345C3.47678 50.1458 0 41.7521 0 33ZM33 4.125C27.5623 4.12529 22.2353 5.661 17.6319 8.55536C13.0286 11.4497 9.33604 15.5851 6.97935 20.4855C4.62266 25.386 3.69759 30.8523 4.31062 36.2553C4.92364 41.6583 7.04984 46.7784 10.4445 51.0262C13.3733 46.3073 19.8206 41.25 33 41.25C46.1794 41.25 52.6226 46.3031 55.5555 51.0262C58.9502 46.7784 61.0764 41.6583 61.6894 36.2553C62.3024 30.8523 61.3773 25.386 59.0206 20.4855C56.664 15.5851 52.9714 11.4497 48.3681 8.55536C43.7647 5.661 38.4377 4.12529 33 4.125Z" fill="#2D2D2D"/>
</svg>
