<svg width="305" height="364" viewBox="0 0 305 364" fill="none" xmlns="http://www.w3.org/2000/svg">
<path d="M160.638 205.232C167.763 205.232 173.538 199.456 173.538 192.332C173.538 185.207 167.763 179.432 160.638 179.432C153.514 179.432 147.738 185.207 147.738 192.332C147.738 199.456 153.514 205.232 160.638 205.232Z" fill="#FEDE8A"/>
<path d="M205.041 205.232C212.165 205.232 217.941 199.456 217.941 192.332C217.941 185.207 212.165 179.432 205.041 179.432C197.916 179.432 192.141 185.207 192.141 192.332C192.141 199.456 197.916 205.232 205.041 205.232Z" fill="#FEDE8A"/>
<path d="M290.9 125.581C291.149 125.529 291.405 125.512 291.66 125.531C292.41 125.535 293.157 125.618 293.89 125.781C295.106 126.035 296.276 126.473 297.36 127.081C298.865 127.925 300.185 129.065 301.24 130.431C302.598 132.175 303.477 134.243 303.79 136.431C303.884 137.044 303.937 137.662 303.95 138.281C303.95 138.901 303.95 139.521 303.95 140.161C303.95 141.441 303.95 142.781 303.95 144.161C304 149.711 304.04 156.091 304.1 163.241C304.17 177.551 304.25 194.951 304.35 214.981C304.35 219.988 304.37 225.155 304.41 230.481C304.41 233.148 304.41 235.851 304.41 238.591C304.41 239.961 304.41 241.341 304.41 242.731C304.41 243.421 304.41 244.121 304.41 244.821C304.398 245.579 304.331 246.334 304.21 247.081C303.692 250.19 302.114 253.024 299.745 255.102C297.375 257.18 294.359 258.374 291.21 258.481L272.99 258.541L274.07 257.541C272.89 270.351 271.65 283.881 270.35 297.921L270.15 300.111L268.45 298.711L219.54 258.411L220.34 258.691L120.12 258.741H96.5896C95.7896 258.741 95.0596 258.741 94.2096 258.741C92.0585 258.692 89.9487 258.14 88.0491 257.129C86.1494 256.119 84.5127 254.678 83.2696 252.921C82.2792 251.528 81.5507 249.966 81.1196 248.311C80.7494 246.706 80.598 245.058 80.6696 243.411C80.6696 240.345 80.6696 237.285 80.6696 234.231C80.6696 228.145 80.6696 222.101 80.6696 216.101C80.6696 192.101 80.7196 169.001 80.7396 146.971C80.7396 144.221 80.7396 141.481 80.7396 138.771C80.7011 137.302 80.8866 135.835 81.2896 134.421C81.7 132.998 82.331 131.649 83.1596 130.421C84.825 128.003 87.2173 126.178 89.9896 125.211C91.3485 124.727 92.7772 124.467 94.2196 124.441C95.5796 124.441 96.8496 124.441 98.1696 124.441L128.53 124.501L183.02 124.661L261.93 125.071L283.38 125.321L288.96 125.451C289.596 125.438 290.231 125.481 290.86 125.581C290.232 125.688 289.596 125.732 288.96 125.711L283.38 125.841L261.93 126.091L183.02 126.501L128.53 126.661L98.1696 126.721C96.8796 126.721 95.5296 126.721 94.2696 126.721C93.0685 126.743 91.8791 126.962 90.7496 127.371C88.454 128.183 86.4756 129.703 85.0996 131.711C83.7087 133.774 83.0084 136.225 83.0996 138.711C83.0996 141.421 83.0996 144.161 83.0996 146.911C83.0996 168.911 83.1496 192.061 83.1796 216.041C83.1796 222.041 83.1796 228.085 83.1796 234.171V243.351C83.1064 244.782 83.2343 246.216 83.5596 247.611C84.083 249.644 85.1619 251.49 86.6756 252.944C88.1893 254.397 90.0778 255.401 92.1296 255.841C92.8144 255.985 93.5104 256.069 94.2096 256.091C94.9196 256.091 95.7496 256.091 96.5196 256.091H120.24L220.46 256.141H220.91L221.26 256.431L270.06 296.861L268.15 297.651C269.5 283.651 270.8 270.091 272.04 257.291L272.13 256.291H273.13H291.29C293.969 256.212 296.539 255.207 298.563 253.448C300.586 251.689 301.938 249.284 302.39 246.641C302.492 246.003 302.549 245.358 302.56 244.711C302.56 244.011 302.56 243.311 302.56 242.621C302.56 241.231 302.56 239.851 302.56 238.481C302.56 235.741 302.56 233.038 302.56 230.371C302.56 225.038 302.58 219.871 302.62 214.871C302.72 194.871 302.8 177.441 302.87 163.131C302.93 155.981 302.97 149.601 303.02 144.051C303.02 142.671 303.02 141.331 303.02 140.051C303.02 139.411 303.02 138.791 303.02 138.171C303.019 137.59 302.982 137.009 302.91 136.431C302.653 134.372 301.871 132.412 300.64 130.741C299.668 129.409 298.441 128.284 297.03 127.431C296.003 126.806 294.891 126.331 293.73 126.021C291.93 125.621 290.9 125.681 290.9 125.581Z" fill="#FEDE8A"/>
<path d="M13.39 189.781H208.17C211.724 189.781 215.132 191.193 217.645 193.706C220.158 196.219 221.57 199.627 221.57 203.181V308.241C221.57 311.795 220.158 315.204 217.645 317.716C215.132 320.229 211.724 321.641 208.17 321.641H13.39C9.83875 321.641 6.43295 320.231 3.92184 317.719C1.41073 315.208 3.73448e-06 311.802 3.73448e-06 308.251V203.181C-0.00131011 201.422 0.344062 199.68 1.01638 198.054C1.68871 196.428 2.6748 194.951 3.91831 193.707C5.16182 192.462 6.63836 191.475 8.26356 190.801C9.88876 190.128 11.6308 189.781 13.39 189.781Z" fill="#FEDE8A"/>
<path d="M134.781 317.422L187.171 363.942L191.471 318.252" fill="#FEDE8A"/>
<path d="M69.0602 270.472C76.1846 270.472 81.9602 264.696 81.9602 257.572C81.9602 250.447 76.1846 244.672 69.0602 244.672C61.9357 244.672 56.1602 250.447 56.1602 257.572C56.1602 264.696 61.9357 270.472 69.0602 270.472Z" fill="white"/>
<path d="M113.459 270.472C120.583 270.472 126.359 264.696 126.359 257.572C126.359 250.447 120.583 244.672 113.459 244.672C106.334 244.672 100.559 250.447 100.559 257.572C100.559 264.696 106.334 270.472 113.459 270.472Z" fill="white"/>
<path d="M157.861 270.472C164.985 270.472 170.761 264.696 170.761 257.572C170.761 250.447 164.985 244.672 157.861 244.672C150.736 244.672 144.961 250.447 144.961 257.572C144.961 264.696 150.736 270.472 157.861 270.472Z" fill="white"/>
<g opacity="0.3">
<path opacity="0.3" d="M213.3 190.311L192.48 189.701H31.4805C44.8605 203.011 63.9905 210.131 82.7805 211.771C101.57 213.411 120.46 210.551 139.05 207.331C157.64 204.111 176.31 200.511 195.18 200.651C199.18 200.651 203.29 200.851 206.99 199.371C210.69 197.891 213.85 194.311 213.3 190.311Z" fill="black"/>
</g>
<path d="M249.439 205.232C256.564 205.232 262.339 199.456 262.339 192.332C262.339 185.207 256.564 179.432 249.439 179.432C242.315 179.432 236.539 185.207 236.539 192.332C236.539 199.456 242.315 205.232 249.439 205.232Z" fill="#FEDE8A"/>
<path d="M138.27 2.65234C133.074 2.73108 128.036 4.4519 123.878 7.56841C119.719 10.6849 116.654 15.0373 115.12 20.0023C113.66 25.1323 113.95 30.5923 113.01 35.8523C112.07 41.1123 109.42 46.6123 104.43 48.5123C101.18 49.7423 97.4299 49.2323 94.2299 50.5123C92.7248 51.1156 91.395 52.0869 90.3626 53.3373C89.3301 54.5878 88.628 56.0773 88.3205 57.6695C88.013 59.2616 88.11 60.9055 88.6026 62.4504C89.0952 63.9954 89.9676 65.392 91.1399 66.5123C89.1632 68.2155 87.838 70.5512 87.3901 73.1218C86.9422 75.6923 87.3993 78.3386 88.6836 80.6099C89.9678 82.8813 91.9998 84.6371 94.4333 85.5784C96.8669 86.5197 99.5515 86.5883 102.03 85.7724C100.18 88.7724 100.79 92.7723 102.96 95.5123C105.271 98.1685 108.531 99.8129 112.04 100.092C115.514 100.352 119.008 100.038 122.38 99.1624C129.96 97.4824 137.56 94.7823 143.26 89.5123C149.51 83.7323 152.82 75.5123 155.33 67.3423C160.11 51.7923 162.66 35.0423 158.75 19.2523" fill="#263238"/>
<path d="M103.417 89.3122L94.9867 107.742L76.5367 67.0822C75.6667 63.7922 74.6867 60.0822 74.4867 59.3422C74.1894 58.2043 74.0846 57.0247 74.1767 55.8522C74.238 54.3964 74.5005 52.9561 74.9567 51.5722C75.5067 50.3422 74.2767 49.0922 73.2167 49.6922C72.1567 50.2922 70.5667 53.6922 70.6167 57.9622C70.6667 62.2322 55.7967 52.0322 53.3867 54.4522L55.1867 68.7522C56.8167 70.2422 61.4167 74.3522 63.9767 76.6222L81.3767 119.922C82.3517 122.587 84.0694 124.917 86.3268 126.637C88.5841 128.357 91.2867 129.394 94.115 129.627C96.9432 129.859 99.7789 129.277 102.287 127.949C104.795 126.621 106.87 124.602 108.267 122.132L119.477 102.372L103.417 89.3122Z" fill="#FFBE9D"/>
<path d="M64.3279 41.3114C64.4006 41.2854 64.478 41.275 64.555 41.2809C64.6321 41.2868 64.707 41.3089 64.7749 41.3457C64.8428 41.3825 64.9023 41.4332 64.9493 41.4945C64.9963 41.5557 65.0299 41.6262 65.0479 41.7014L74.6179 70.1114C74.7082 70.3596 74.7119 70.631 74.6284 70.8815C74.5449 71.1321 74.379 71.347 74.1579 71.4914L62.7979 77.8614C62.6829 77.9212 62.5559 77.9546 62.4264 77.959C62.2968 77.9635 62.1679 77.9389 62.049 77.8872C61.9302 77.8354 61.8244 77.7578 61.7394 77.6599C61.6545 77.562 61.5924 77.4463 61.5579 77.3214L50.7979 47.9114C50.6902 47.6463 50.6871 47.3503 50.7892 47.083C50.8913 46.8158 51.0909 46.5972 51.3479 46.4714L64.3279 41.3114Z" fill="#263238"/>
<path d="M64.6395 43.4023L73.4395 68.7423L62.1895 74.7423L52.5195 48.2123L64.6395 43.4023Z" fill="#F5F5F5"/>
<path d="M54.6687 49.9318C55.0087 50.8018 55.5687 52.2018 55.9187 53.0718C55.9592 53.1741 56.0199 53.2672 56.0971 53.3456C56.1743 53.424 56.2665 53.486 56.3682 53.528C56.4699 53.57 56.5791 53.5911 56.6891 53.59C56.7991 53.589 56.9078 53.5658 57.0087 53.5218L63.0087 51.0118L65.0787 51.3118L64.4987 50.2218L65.1787 49.9418C65.281 49.9013 65.3741 49.8406 65.4525 49.7634C65.5309 49.6862 65.5929 49.594 65.6349 49.4923C65.6769 49.3906 65.698 49.2814 65.6969 49.1714C65.6958 49.0614 65.6726 48.9527 65.6287 48.8518L64.4087 46.0018C64.3229 45.8037 64.1624 45.6475 63.962 45.567C63.7617 45.4864 63.5377 45.4882 63.3387 45.5718L55.1587 48.8718C55.0556 48.9074 54.9608 48.9635 54.8799 49.0366C54.7991 49.1098 54.7338 49.1985 54.688 49.2975C54.6423 49.3965 54.617 49.5037 54.6137 49.6127C54.6103 49.7217 54.629 49.8302 54.6687 49.9318Z" fill="#E0E0E0"/>
<path d="M59.7367 64.9115L60.9867 68.0415C61.0273 68.1426 61.0876 68.2346 61.1641 68.3121C61.2406 68.3896 61.3318 68.4511 61.4323 68.493C61.5328 68.5349 61.6407 68.5564 61.7496 68.5561C61.8586 68.5558 61.9663 68.5339 62.0667 68.4915L68.0667 65.9815L70.1367 66.2815L69.5567 65.1915L70.2367 64.9115C70.339 64.871 70.4321 64.8103 70.5105 64.7331C70.5889 64.6559 70.6509 64.5637 70.6929 64.462C70.7349 64.3603 70.756 64.2511 70.7549 64.1411C70.7538 64.0311 70.7306 63.9224 70.6867 63.8215L69.4667 60.9815C69.4261 60.8829 69.3665 60.7932 69.2913 60.7177C69.216 60.6422 69.1265 60.5823 69.0281 60.5414C68.9296 60.5005 68.824 60.4795 68.7174 60.4795C68.6107 60.4795 68.5052 60.5006 68.4067 60.5415L60.2167 63.8415C60.1141 63.8792 60.0202 63.937 59.9403 64.0116C59.8604 64.0861 59.7962 64.1758 59.7515 64.2755C59.7068 64.3752 59.6825 64.4828 59.6799 64.592C59.6774 64.7012 59.6967 64.8099 59.7367 64.9115Z" fill="#E0E0E0"/>
<path d="M66.7364 53.4723C67.1164 54.3223 67.7364 55.7123 68.0964 56.5623C68.1406 56.6626 68.1643 56.7707 68.1661 56.8803C68.1678 56.9898 68.1475 57.0986 68.1065 57.2002C68.0655 57.3019 68.0046 57.3942 67.9272 57.4719C67.8499 57.5495 67.7578 57.6109 67.6564 57.6523L61.6564 60.1523L60.4264 61.8423L60.0464 60.6523L59.3764 60.9523C59.276 60.9952 59.168 61.0178 59.0589 61.0188C58.9497 61.0199 58.8413 60.9994 58.7401 60.9585C58.6388 60.9177 58.5466 60.8572 58.4688 60.7807C58.3909 60.7041 58.329 60.6129 58.2864 60.5123L57.1064 57.6423C57.0261 57.4418 57.0271 57.2178 57.1092 57.018C57.1914 56.8183 57.3482 56.6584 57.5464 56.5723L65.6364 53.0523C65.7359 53.0059 65.8438 52.98 65.9535 52.9761C66.0633 52.9722 66.1727 52.9904 66.2753 53.0295C66.3779 53.0687 66.4716 53.1281 66.5508 53.2042C66.63 53.2802 66.6931 53.3714 66.7364 53.4723Z" fill="#E0E0E0"/>
<path d="M53.3867 55.1621C55.3167 55.4821 57.6867 55.6721 59.6167 55.9921C60.1736 56.0402 60.7113 56.2183 61.1867 56.5121C61.4164 56.668 61.5855 56.8982 61.6656 57.1641C61.7458 57.4299 61.732 57.7152 61.6267 57.9721C61.3167 58.5321 60.5567 58.5721 59.9167 58.5521C58.4967 58.5521 56.9167 58.8121 55.4967 58.7621C57.3167 58.9221 58.9967 59.0721 61.0267 59.3121C61.4577 59.354 61.8617 59.5411 62.1724 59.8427C62.4831 60.1443 62.6821 60.5426 62.7367 60.9721C62.7052 61.3355 62.5465 61.676 62.2886 61.9339C62.0307 62.1918 61.6901 62.3505 61.3267 62.3821C60.5809 62.4337 59.8325 62.4337 59.0867 62.3821C59.0867 62.3821 56.1567 62.3821 56.0267 62.8021C57.8567 62.8021 60.2667 63.1821 62.0967 63.3521C62.5967 63.3521 62.8167 64.0721 62.9367 64.5621C63.0093 64.8028 62.9974 65.061 62.9027 65.2939C62.8081 65.5268 62.6366 65.7203 62.4167 65.8421C62.1849 65.9184 61.9397 65.9457 61.6967 65.9221C59.3267 65.8521 58.0967 66.0021 55.6967 65.9221" fill="#FFBE9D"/>
<path d="M97.2766 120.902C97.4604 118.617 97.3798 116.318 97.0366 114.052C96.5204 111.816 95.7452 109.648 94.7266 107.592C95.2109 108.084 95.6067 108.655 95.8966 109.282C96.6798 110.746 97.2361 112.321 97.5466 113.952C97.8694 115.598 97.9335 117.285 97.7366 118.952C97.7 119.624 97.5442 120.284 97.2766 120.902Z" fill="#EB996E"/>
<path d="M62.537 63.6521C61.1566 63.7532 59.7689 63.6793 58.407 63.4321C57.277 63.3221 56.237 63.0921 55.547 63.0921C55.1657 63.1163 54.794 63.222 54.457 63.4021C54.457 63.4021 54.457 63.2621 54.637 63.1021C54.8822 62.8863 55.1912 62.7564 55.517 62.7321C56.5038 62.702 57.4912 62.7623 58.467 62.9121C59.8488 62.9922 61.2155 63.2407 62.537 63.6521Z" fill="#EB996E"/>
<path d="M61.8887 59.5017C60.5219 59.6033 59.1478 59.5328 57.7987 59.2917C56.6787 59.1817 55.6487 58.9417 54.9787 58.9617C54.3087 58.9817 53.9787 59.3717 53.9187 59.3117C53.8587 59.2517 54.1087 58.7417 54.9187 58.6017C55.3633 58.5416 55.814 58.5416 56.2587 58.6017L57.8387 58.7717C59.2138 58.8453 60.5744 59.0905 61.8887 59.5017Z" fill="#EB996E"/>
<path d="M118.948 145.172C118.948 145.172 58.088 140.572 40.478 154.352C22.868 168.132 31.298 190.352 31.298 190.352H130.818L134.638 144.452L118.948 145.172Z" fill="#263238"/>
<path d="M130.399 176.782C130.101 176.789 129.803 176.769 129.509 176.722C128.929 176.652 128.069 176.572 126.979 176.422C124.779 176.142 121.599 175.692 117.689 175.032C107.509 173.281 97.4388 170.944 87.5286 168.032C81.7386 166.312 76.2386 164.602 71.1686 163.312C66.6883 162.154 62.1074 161.427 57.4886 161.142C54.3748 160.969 51.2515 161.15 48.1786 161.682C47.0786 161.822 46.2586 162.092 45.6886 162.192C45.3994 162.268 45.1054 162.325 44.8086 162.362C45.0843 162.249 45.3686 162.159 45.6586 162.092C46.4739 161.845 47.3018 161.641 48.1386 161.482C51.2217 160.867 54.368 160.629 57.5086 160.772C62.1562 161.007 66.7689 161.704 71.2786 162.852C76.3786 164.082 81.8886 165.852 87.6786 167.522C97.5679 170.425 107.601 172.811 117.739 174.672C121.629 175.372 124.799 175.882 126.979 176.222L129.499 176.612C130.099 176.712 130.399 176.772 130.399 176.782Z" fill="#455A64"/>
<path d="M72.9566 163.072C71.2484 161.642 69.4181 160.363 67.4866 159.252C65.4741 158.292 63.3789 157.515 61.2266 156.932C61.9004 156.885 62.5773 156.956 63.2266 157.142C64.7998 157.484 66.32 158.036 67.7466 158.782C69.1699 159.532 70.4879 160.467 71.6665 161.562C72.1786 161.989 72.6148 162.5 72.9566 163.072Z" fill="#455A64"/>
<path d="M162.996 139.441C162.996 139.441 107.326 140.951 89.7163 154.731C72.1063 168.511 80.5363 190.731 80.5363 190.731L184.936 192.311V178.861L171.396 177.401L171.296 176.781C176.546 171.031 172.546 150.991 163.806 140.421L162.996 139.441Z" fill="#263238"/>
<path d="M178.629 178.312C178.331 178.312 178.033 178.288 177.739 178.242C177.159 178.182 176.309 178.092 175.209 177.952C173.009 177.672 169.829 177.222 165.929 176.552C155.744 174.808 145.67 172.471 135.759 169.552C129.959 167.832 124.479 166.092 119.399 164.842C114.926 163.676 110.352 162.939 105.739 162.642C102.625 162.47 99.5015 162.651 96.4286 163.182C95.3286 163.322 94.5086 163.602 93.9386 163.702C93.6501 163.78 93.3558 163.833 93.0586 163.862C93.3339 163.751 93.6182 163.664 93.9086 163.602C94.7239 163.352 95.5516 163.146 96.3886 162.982C99.467 162.384 102.606 162.159 105.739 162.312C110.384 162.52 114.996 163.19 119.509 164.312C124.619 165.552 130.119 167.312 135.909 168.992C145.804 171.888 155.844 174.261 165.989 176.102C169.879 176.812 173.049 177.322 175.239 177.662L177.759 178.052C178.056 178.112 178.347 178.199 178.629 178.312Z" fill="#455A64"/>
<path d="M121.187 164.552C119.478 163.12 117.648 161.839 115.717 160.722C113.7 159.772 111.606 158.996 109.457 158.402C110.131 158.355 110.809 158.43 111.457 158.622C114.62 159.309 117.539 160.836 119.907 163.042C120.414 163.471 120.847 163.981 121.187 164.552Z" fill="#455A64"/>
<path d="M134.218 141.752C133.936 141.825 133.648 141.875 133.358 141.902L130.878 142.252C128.738 142.572 125.638 143.092 121.878 143.852C118.118 144.612 113.558 145.602 108.568 146.792C103.16 148.039 97.9762 150.109 93.1977 152.932C90.7403 154.402 88.4904 156.195 86.5077 158.262C84.6786 160.202 83.1211 162.382 81.8777 164.742C79.777 168.755 78.6629 173.212 78.6277 177.742C78.6004 180.792 79.0457 183.828 79.9477 186.742C80.2677 187.742 80.5677 188.562 80.7777 189.092C80.8928 189.359 80.993 189.633 81.0777 189.912C80.9178 189.666 80.7838 189.405 80.6777 189.132C80.3307 188.371 80.0236 187.594 79.7577 186.802C78.5305 183.159 78.0486 179.307 78.3407 175.474C78.6327 171.641 79.6928 167.906 81.4577 164.492C82.7036 162.084 84.275 159.86 86.1277 157.882C88.1392 155.776 90.4267 153.953 92.9277 152.462C97.7352 149.616 102.958 147.541 108.408 146.312C113.408 145.142 117.938 144.202 121.758 143.482C125.578 142.762 128.698 142.302 130.848 142.042C131.928 141.912 132.768 141.822 133.348 141.782C133.637 141.756 133.927 141.746 134.218 141.752Z" fill="#455A64"/>
<path d="M184.938 179.532L194.457 178.932L200.767 182.602L212.857 183.922C218.647 184.222 219.567 190.452 216.007 190.452C213.177 190.452 196.247 191.552 196.247 191.552L184.938 191.852V179.532Z" fill="#E0E0E0"/>
<path d="M200.409 182.622C199.995 182.98 199.49 183.216 198.949 183.302C197.654 183.626 196.291 183.542 195.047 183.06C193.802 182.578 192.738 181.723 191.999 180.612C191.654 180.188 191.439 179.675 191.379 179.132C191.449 179.132 191.699 179.652 192.299 180.402C193.066 181.375 194.081 182.124 195.237 182.57C196.392 183.017 197.647 183.145 198.869 182.942C199.819 182.792 200.379 182.542 200.409 182.622Z" fill="#455A64"/>
<path d="M215.517 190.312C215.517 190.372 215.037 190.492 214.357 190.142C213.943 189.884 213.587 189.543 213.311 189.14C213.036 188.737 212.847 188.282 212.757 187.802C212.473 186.868 212.562 185.861 213.007 184.992C213.387 184.332 213.847 184.142 213.877 184.202C213.907 184.262 213.587 184.542 213.337 185.202C213.035 186.014 213.011 186.904 213.267 187.732C213.421 188.576 213.876 189.337 214.547 189.872C215.077 190.232 215.527 190.252 215.517 190.312Z" fill="#455A64"/>
<path d="M121.739 63.6818C121.739 63.6818 109.869 89.7718 110.569 94.2018C111.269 98.6318 114.739 116.312 114.739 116.312L117.249 145.072C117.249 145.072 162.079 139.642 163.009 139.642C163.939 139.642 161.609 115.852 161.609 115.852L168.439 70.1318C168.439 70.1318 165.309 63.9018 151.189 61.7418C142.739 60.4318 121.739 63.6818 121.739 63.6818Z" fill="#FEDE8A"/>
<path d="M154.508 98.8416C155.08 103.493 156.514 107.996 158.738 112.122C159.598 113.672 160.398 115.852 161.818 116.912C164.038 118.582 167.228 117.012 169.238 115.102C171.248 113.192 173.288 110.772 176.058 110.672C177.828 110.612 179.468 111.532 181.198 111.902C182.928 112.272 185.198 111.702 185.568 109.982C185.679 108.966 185.439 107.942 184.888 107.082C180.646 98.653 177.397 89.76 175.208 80.5816C174.285 77.9748 173.106 75.4659 171.688 73.0916C170.688 71.4016 168.108 68.9516 165.568 66.8916" fill="#FEDE8A"/>
<path d="M130.198 61.9521C117.858 62.3821 108.608 70.5421 105.978 76.4221C102.888 83.3221 100.488 91.6622 96.8678 98.3022C96.0552 99.5385 95.4253 100.886 94.9977 102.302C94.7981 103.019 94.8212 103.78 95.0641 104.484C95.307 105.188 95.7582 105.801 96.3577 106.242C98.2177 107.342 100.918 105.912 102.628 107.242C103.568 107.962 103.848 109.242 104.628 110.142C105.628 111.212 107.198 111.432 108.628 111.592L116.958 112.492" fill="#FEDE8A"/>
<path d="M151.739 87.4114C151.537 87.0999 151.375 86.7638 151.259 86.4114C150.901 85.473 150.653 84.4966 150.519 83.5014C150.029 80.1729 150.704 76.7775 152.43 73.8894C154.156 71.0013 156.826 68.7977 159.989 67.6514C160.928 67.3023 161.905 67.0607 162.899 66.9314C163.263 66.8744 163.634 66.8744 163.999 66.9314C162.679 67.2063 161.382 67.5807 160.119 68.0514C157.088 69.2429 154.538 71.4058 152.867 74.2015C151.197 76.9972 150.501 80.2679 150.889 83.5014C151.08 84.8231 151.364 86.1297 151.739 87.4114Z" fill="#263238"/>
<path d="M117.849 77.1914C117.676 77.6434 117.461 78.0786 117.209 78.4914C116.979 78.9014 116.709 79.4014 116.439 80.0014C116.169 80.6014 115.809 81.2614 115.499 82.0014C114.729 83.7867 114.078 85.6207 113.549 87.4914C112.914 89.7863 112.456 92.1265 112.179 94.4914C111.93 96.8561 111.857 99.2359 111.959 101.611C112.056 103.551 112.28 105.481 112.629 107.391C112.759 108.211 112.949 108.931 113.089 109.581C113.229 110.231 113.379 110.771 113.509 111.221C113.656 111.682 113.767 112.153 113.839 112.631C113.618 112.2 113.44 111.748 113.309 111.281C113.114 110.747 112.947 110.203 112.809 109.651C112.639 109.011 112.419 108.281 112.269 107.461C111.864 105.54 111.6 103.591 111.479 101.631C111.178 96.8205 111.723 91.9942 113.089 87.3714C113.645 85.489 114.34 83.6506 115.169 81.8714C115.468 81.1882 115.802 80.5207 116.169 79.8714C116.425 79.3631 116.709 78.869 117.019 78.3914C117.258 77.9665 117.535 77.5648 117.849 77.1914Z" fill="#263238"/>
<path d="M184.84 106.452C184.84 106.452 184.84 106.562 184.74 106.742C184.597 107.004 184.403 107.236 184.17 107.422C183.256 108.06 182.129 108.315 181.03 108.132C179.63 107.972 178.18 107.132 176.49 106.832C175.567 106.714 174.629 106.802 173.744 107.089C172.859 107.376 172.048 107.855 171.37 108.492C169.8 109.752 168.52 111.282 167.01 112.312C166.309 112.831 165.514 113.208 164.67 113.422C163.929 113.57 163.173 113.617 162.42 113.562C161.331 113.514 160.273 113.194 159.34 112.632C159.092 112.465 158.872 112.259 158.69 112.022C158.583 111.849 158.533 111.759 158.54 111.752C158.823 112.01 159.127 112.244 159.45 112.452C160.379 112.928 161.406 113.181 162.45 113.192C163.165 113.22 163.881 113.156 164.58 113.002C165.364 112.782 166.101 112.415 166.75 111.922C168.17 110.922 169.42 109.392 171.06 108.082C171.856 107.432 172.755 106.918 173.72 106.562C174.641 106.239 175.632 106.17 176.59 106.362C178.39 106.752 179.8 107.582 181.09 107.762C182.117 107.975 183.187 107.797 184.09 107.262C184.377 107.029 184.63 106.756 184.84 106.452Z" fill="#FAFAFA"/>
<path d="M181.976 100.602C181.975 100.7 181.951 100.796 181.906 100.882C181.794 101.136 181.627 101.361 181.416 101.542C181.006 101.856 180.531 102.073 180.026 102.179C179.52 102.285 178.998 102.275 178.496 102.152C177.216 101.942 175.896 101.102 174.316 101.022C172.565 101.049 170.866 101.622 169.456 102.662C167.896 103.712 166.556 104.952 165.166 105.892C163.955 106.778 162.549 107.36 161.066 107.592C160.049 107.748 159.009 107.613 158.066 107.202C157.719 107.069 157.407 106.857 157.156 106.582C157.156 106.582 157.496 106.782 158.156 107.022C159.07 107.332 160.048 107.401 160.996 107.222C162.408 106.96 163.738 106.367 164.876 105.492C166.216 104.562 167.536 103.312 169.146 102.232C170.644 101.129 172.456 100.536 174.316 100.542C175.119 100.616 175.905 100.815 176.646 101.132C177.262 101.399 177.897 101.619 178.546 101.792C179.003 101.922 179.481 101.953 179.951 101.882C180.42 101.811 180.869 101.641 181.266 101.382C181.541 101.16 181.781 100.897 181.976 100.602Z" fill="#FAFAFA"/>
<path d="M111.919 108.202C111.919 108.202 111.739 108.472 111.199 108.592C110.821 108.651 110.436 108.63 110.067 108.53C109.698 108.43 109.355 108.253 109.059 108.012C108.251 107.265 107.616 106.35 107.199 105.332C106.982 104.75 106.643 104.222 106.205 103.782C105.767 103.342 105.239 103.001 104.659 102.782C103.395 102.581 102.104 102.65 100.869 102.982C99.7867 103.245 98.652 103.193 97.5987 102.832C97.2434 102.693 96.9196 102.484 96.6465 102.218C96.3734 101.952 96.1565 101.634 96.0087 101.282C95.8187 100.772 95.9187 100.462 95.9387 100.472C95.9587 100.482 95.9387 100.762 96.1887 101.202C96.5312 101.802 97.0776 102.26 97.7287 102.492C98.7298 102.769 99.7875 102.769 100.789 102.492C102.089 102.121 103.456 102.046 104.789 102.272C105.5 102.462 106.133 102.872 106.599 103.442C106.996 103.954 107.332 104.511 107.599 105.102C107.974 106.076 108.538 106.966 109.259 107.722C109.777 108.176 110.45 108.413 111.139 108.382C111.403 108.341 111.663 108.281 111.919 108.202Z" fill="#FAFAFA"/>
<path d="M110.407 102.311C110.407 102.311 110.187 102.431 109.807 102.311C109.283 102.11 108.842 101.736 108.557 101.251C108.237 100.584 107.781 99.9913 107.217 99.5114C106.392 99.147 105.465 99.0834 104.597 99.3314C103.635 99.5367 102.64 99.5367 101.677 99.3314C100.888 99.1474 100.143 98.8074 99.4874 98.3314C98.8528 97.9502 98.3449 97.3901 98.0273 96.7214C98.1073 96.6614 98.5874 97.3514 99.6974 98.0314C101.147 98.9036 102.877 99.1829 104.527 98.8114C105.51 98.5423 106.557 98.6456 107.467 99.1014C108.093 99.6438 108.577 100.33 108.877 101.101C109.101 101.544 109.449 101.912 109.877 102.161C110.187 102.311 110.407 102.311 110.407 102.311Z" fill="#FAFAFA"/>
<path d="M157.397 107.482C157.397 107.482 156.767 107.352 155.637 107.092C154.507 106.832 152.867 106.442 150.827 106.092C149.827 105.912 148.687 105.722 147.487 105.572C146.216 105.389 144.929 105.339 143.647 105.422C142.246 105.613 140.89 106.057 139.647 106.732C138.327 107.392 136.997 108.192 135.557 108.902C134.158 109.636 132.623 110.078 131.047 110.202C129.585 110.261 128.122 110.099 126.707 109.722C124.393 109.003 122.035 108.432 119.647 108.012C118.038 107.77 116.394 107.924 114.857 108.462C114.317 108.707 113.789 108.981 113.277 109.282C113.277 109.282 113.377 109.162 113.617 108.962C113.979 108.692 114.368 108.461 114.777 108.272C116.331 107.648 118.017 107.432 119.677 107.642C122.093 108.01 124.479 108.552 126.817 109.262C128.189 109.608 129.604 109.756 131.017 109.702C132.524 109.567 133.988 109.135 135.327 108.432C136.737 107.742 138.067 106.942 139.417 106.272C140.717 105.583 142.129 105.132 143.587 104.942C144.904 104.869 146.225 104.936 147.527 105.142C148.747 105.312 149.867 105.522 150.887 105.732C152.887 106.162 154.557 106.602 155.677 106.922C156.237 107.092 156.677 107.222 156.957 107.332C157.237 107.442 157.407 107.462 157.397 107.482Z" fill="#FAFAFA"/>
<path d="M158.43 112.502C158.43 112.502 157.83 112.262 156.77 111.812C155.71 111.362 154.15 110.742 152.19 110.142C151.126 109.804 150.035 109.556 148.93 109.402C147.669 109.294 146.4 109.461 145.21 109.892C142.66 110.762 140.21 112.632 137.21 113.812C135.739 114.373 134.174 114.645 132.6 114.612C131.156 114.581 129.718 114.427 128.3 114.152C125.949 113.615 123.563 113.244 121.16 113.042C119.546 112.939 117.927 113.147 116.39 113.652C115.31 114.042 114.78 114.412 114.75 114.372C114.72 114.332 114.87 114.252 115.12 114.082C115.498 113.841 115.896 113.633 116.31 113.462C117.858 112.866 119.513 112.6 121.17 112.682C123.596 112.827 126.006 113.161 128.38 113.682C131.04 114.132 134.12 114.492 137.02 113.332C139.92 112.172 142.36 110.332 145.02 109.442C146.277 109.002 147.616 108.848 148.94 108.992C150.069 109.155 151.18 109.423 152.26 109.792C153.813 110.314 155.333 110.932 156.81 111.642C157.33 111.892 157.73 112.102 157.99 112.252C158.147 112.316 158.294 112.4 158.43 112.502Z" fill="#FAFAFA"/>
<path d="M145.068 110.711C145.068 110.711 144.818 110.791 144.348 110.831C143.681 110.886 143.011 110.869 142.348 110.781C141.358 110.664 140.384 110.433 139.448 110.091C138.304 109.667 137.217 109.106 136.208 108.421C135.21 107.711 134.301 106.886 133.498 105.961C132.851 105.203 132.297 104.371 131.848 103.481C131.531 102.89 131.28 102.267 131.098 101.621C130.978 101.171 130.918 100.911 130.958 100.901C130.998 100.891 131.338 101.901 132.168 103.311C132.653 104.145 133.22 104.928 133.858 105.651C134.658 106.521 135.546 107.305 136.508 107.991C137.481 108.656 138.524 109.212 139.618 109.651C140.52 109.998 141.455 110.256 142.408 110.421C144.028 110.691 145.068 110.611 145.068 110.711Z" fill="#263238"/>
<g opacity="0.3">
<path opacity="0.3" d="M130.988 101.981C131.668 105.701 133.088 109.411 135.798 112.051C138.508 114.691 142.698 116.051 146.218 114.641C146.603 114.536 146.957 114.339 147.249 114.067C147.542 113.796 147.764 113.457 147.898 113.081C147.943 112.624 147.833 112.165 147.587 111.777C147.34 111.39 146.971 111.095 146.538 110.941C145.659 110.667 144.739 110.542 143.818 110.571C141.195 110.396 138.659 109.554 136.452 108.124C134.246 106.694 132.441 104.724 131.208 102.401" fill="black"/>
</g>
<path d="M160.309 116.822C160.116 116.512 159.971 116.175 159.879 115.822C159.629 115.192 159.289 114.272 158.879 113.132C158.079 110.842 157.049 107.672 156.009 104.132C154.969 100.592 154.139 97.3522 153.579 95.0022C153.299 93.8222 153.089 92.8721 152.959 92.2021C152.87 91.8758 152.82 91.5402 152.809 91.2021C152.971 91.5176 153.089 91.8541 153.159 92.2021C153.379 92.9621 153.639 93.8721 153.939 94.9521C154.579 97.2821 155.479 100.492 156.509 104.032C157.539 107.572 158.509 110.752 159.229 113.032C159.549 114.102 159.829 115.032 160.059 115.772C160.18 116.112 160.264 116.464 160.309 116.822Z" fill="#263238"/>
<path d="M115.168 145.452C115.168 145.452 123.808 136.192 131.368 134.372C138.928 132.552 166.008 122.982 166.008 122.982L164.298 117.592C166.04 117.407 167.657 116.597 168.848 115.312L170.598 113.572C172.978 110.972 175.848 109.572 180.008 110.982L182.628 111.762L185.358 119.762C185.994 121.628 186.21 123.611 185.99 125.57C185.769 127.529 185.118 129.414 184.083 131.092C183.048 132.769 181.654 134.197 180.002 135.272C178.35 136.348 176.481 137.044 174.528 137.312L115.168 145.452Z" fill="#FFBE9D"/>
<path d="M177.237 124.132C175.445 123.534 173.605 123.093 171.737 122.812C169.863 122.699 167.982 122.752 166.117 122.972C167.935 122.323 169.875 122.091 171.794 122.292C173.713 122.492 175.563 123.121 177.207 124.132H177.237Z" fill="#EB996E"/>
<path d="M116.469 18.8719C115.739 6.31185 132.099 -2.50814 143.269 0.64186C153.759 3.64186 158.269 8.82186 159.959 15.8419C161.649 22.8619 161.599 30.4619 158.849 37.1519C157.489 40.4419 155.049 43.7919 151.509 44.1519" fill="#263238"/>
<path d="M149.957 11.1622C150.844 11.2548 151.663 11.6775 152.252 12.3464C152.841 13.0152 153.157 13.8811 153.137 14.7722L151.137 62.9222C151.067 68.6122 142.757 71.8222 136.677 71.6922C130.527 71.5622 130.317 68.5522 130.227 63.1422C130.087 54.1422 130.087 50.7122 130.087 50.7622C130.087 50.8122 122.297 49.4722 120.737 39.3122C119.937 34.3122 120.187 26.0022 120.617 19.2522C120.997 13.1722 125.027 5.70216 131.087 6.35216L149.957 11.1622Z" fill="#FFBE9D"/>
<path d="M123.199 25.8416C123.199 26.1789 123.329 26.5033 123.561 26.7473C123.794 26.9913 124.112 27.1361 124.449 27.1516C124.615 27.1652 124.781 27.1455 124.938 27.0937C125.096 27.0418 125.242 26.9589 125.367 26.8498C125.491 26.7407 125.593 26.6077 125.666 26.4585C125.738 26.3094 125.78 26.1472 125.789 25.9816C125.795 25.6418 125.667 25.3135 125.433 25.0668C125.2 24.82 124.879 24.6746 124.539 24.6616C124.373 24.6494 124.207 24.6704 124.049 24.7233C123.892 24.7763 123.746 24.8602 123.621 24.9701C123.497 25.08 123.395 25.2137 123.322 25.3633C123.25 25.5129 123.208 25.6755 123.199 25.8416Z" fill="#263238"/>
<path d="M122.356 23.5721C122.516 23.7421 123.506 23.0221 124.896 23.0221C126.286 23.0221 127.326 23.7221 127.476 23.5521C127.626 23.3821 127.386 23.1721 126.936 22.8421C126.332 22.4238 125.612 22.2037 124.876 22.2121C124.157 22.2092 123.456 22.4371 122.876 22.8621C122.426 23.1921 122.276 23.5021 122.356 23.5721Z" fill="#263238"/>
<path d="M136.867 25.8416C136.867 26.1805 136.998 26.5064 137.233 26.7507C137.468 26.9949 137.788 27.1387 138.127 27.1516C138.292 27.1638 138.458 27.1432 138.615 27.0908C138.772 27.0384 138.917 26.9554 139.042 26.8466C139.166 26.7378 139.268 26.6053 139.341 26.4568C139.414 26.3083 139.457 26.1468 139.467 25.9816C139.47 25.6426 139.342 25.3156 139.108 25.0695C138.875 24.8233 138.556 24.6771 138.217 24.6616C138.051 24.6494 137.884 24.6703 137.726 24.7232C137.567 24.776 137.421 24.8598 137.296 24.9695C137.17 25.0793 137.068 25.2129 136.994 25.3626C136.92 25.5123 136.877 25.6751 136.867 25.8416Z" fill="#263238"/>
<path d="M136.106 23.8417C136.266 24.0117 137.256 23.2817 138.646 23.2817C140.036 23.2817 141.076 23.9817 141.226 23.8117C141.376 23.6417 141.136 23.4317 140.686 23.1017C140.08 22.6875 139.361 22.4678 138.626 22.4717C137.907 22.4688 137.206 22.6966 136.626 23.1217C136.176 23.4517 136.026 23.7617 136.106 23.8417Z" fill="#263238"/>
<path d="M131.028 34.2118C130.292 33.9796 129.529 33.8418 128.758 33.8018C128.398 33.8018 128.068 33.6918 128.008 33.4518C127.972 33.0831 128.052 32.7123 128.238 32.3918L129.298 29.6718C130.768 25.8018 131.828 22.6118 131.668 22.5518C130.515 24.7765 129.536 27.0867 128.738 29.4618C128.388 30.4618 128.048 31.3318 127.738 32.2018C127.51 32.631 127.446 33.1287 127.558 33.6018C127.607 33.728 127.685 33.8408 127.786 33.9312C127.886 34.0215 128.007 34.0868 128.138 34.1218C128.338 34.1726 128.542 34.2028 128.748 34.2118C129.505 34.3055 130.271 34.3055 131.028 34.2118Z" fill="#263238"/>
<path d="M130.066 50.7616C134.838 50.834 139.535 49.5809 143.636 47.1416C143.636 47.1416 140.346 54.1416 130.196 53.1416L130.066 50.7616Z" fill="#EB996E"/>
<path d="M131.619 37.5815C131.885 37.2464 132.233 36.9844 132.628 36.82C133.023 36.6556 133.454 36.5942 133.879 36.6415C134.188 36.67 134.489 36.7609 134.762 36.9087C135.035 37.0565 135.276 37.2582 135.469 37.5015C135.657 37.7328 135.768 38.0167 135.788 38.314C135.808 38.6113 135.735 38.9074 135.579 39.1615C135.356 39.4143 135.063 39.5943 134.736 39.6781C134.41 39.7619 134.066 39.7457 133.749 39.6315C133.087 39.3969 132.479 39.0332 131.959 38.5615C131.804 38.448 131.669 38.3094 131.559 38.1515C131.51 38.0735 131.484 37.9834 131.484 37.8915C131.484 37.7995 131.51 37.7094 131.559 37.6315" fill="#EB996E"/>
<path d="M135.148 35.1818C134.918 35.1818 134.918 36.6818 133.618 37.7618C132.318 38.8418 130.698 38.6718 130.688 38.8818C130.678 39.0918 131.048 39.1818 131.688 39.2018C132.58 39.2109 133.447 38.9065 134.138 38.3418C134.797 37.8023 135.22 37.0277 135.318 36.1818C135.418 35.5418 135.248 35.1718 135.148 35.1818Z" fill="#263238"/>
<path d="M135.48 21.3923C135.62 21.7723 137.01 21.5923 138.65 21.7823C140.29 21.9723 141.65 22.4323 141.84 22.0923C141.94 21.9323 141.71 21.5723 141.17 21.2023C140.457 20.7503 139.651 20.4667 138.812 20.3731C137.974 20.2795 137.125 20.3784 136.33 20.6623C135.74 20.9123 135.42 21.2123 135.48 21.3923Z" fill="#263238"/>
<path d="M122.868 19.5314C123.118 19.8414 124.078 19.5314 125.238 19.5314C126.398 19.5314 127.378 19.7414 127.608 19.4114C127.708 19.2514 127.548 18.9314 127.118 18.6314C126.547 18.2641 125.877 18.0825 125.198 18.1114C124.516 18.1171 123.854 18.3414 123.308 18.7514C122.898 19.0414 122.738 19.3714 122.868 19.5314Z" fill="#263238"/>
<path d="M136.088 3.00195C132.641 3.1691 129.291 4.20076 126.348 6.00195C124.694 6.84917 123.224 8.01514 122.023 9.43274C120.821 10.8503 119.912 12.4916 119.348 14.262C119.206 14.6277 119.14 15.0183 119.154 15.4102C119.168 15.802 119.261 16.1871 119.428 16.542C119.749 16.9499 120.202 17.2331 120.71 17.3426C121.217 17.4522 121.747 17.3812 122.208 17.142C123.116 16.6388 123.891 15.9256 124.468 15.062C124.714 15.998 125.265 16.8249 126.035 17.4114C126.805 17.9978 127.749 18.3101 128.717 18.2986C129.685 18.2871 130.621 17.9525 131.376 17.3479C132.132 16.7434 132.664 15.9036 132.888 14.962C132.964 15.9335 133.412 16.8383 134.139 17.4882C134.865 18.1381 135.814 18.4833 136.788 18.452C137.762 18.3685 138.691 18.0009 139.459 17.3948C140.227 16.7887 140.8 15.9706 141.108 15.042C141.339 16.8162 141.946 18.5208 142.888 20.042C143.369 20.786 144.068 21.3642 144.889 21.6986C145.71 22.033 146.613 22.1075 147.478 21.912C147.11 23.4027 147.134 24.9633 147.548 26.442C148.078 27.882 150.548 58.902 152.008 58.442C153.468 57.982 153.068 26.442 153.398 24.982C154.115 22.2089 154.478 19.3562 154.478 16.492C154.573 13.5466 153.62 10.6629 151.789 8.35394C149.958 6.04495 147.367 4.46033 144.478 3.88195C141.588 3.21684 138.621 2.94439 135.658 3.07195" fill="#263238"/>
<path d="M100.808 43.1423C100.808 43.1423 100.698 42.9624 100.408 42.6824C99.9915 42.2701 99.4569 41.9976 98.8784 41.9023C98.4306 41.8161 97.97 41.8221 97.5246 41.9201C97.0792 42.0182 96.6586 42.2061 96.2884 42.4724C95.834 42.8636 95.4884 43.3657 95.2852 43.9299C95.082 44.4941 95.0279 45.1012 95.1284 45.6923C95.2188 46.3854 95.48 47.0452 95.8884 47.6124C96.352 48.2107 96.9567 48.6849 97.6484 48.9923C98.4197 49.3285 99.252 49.502 100.093 49.502C100.935 49.502 101.767 49.3285 102.538 48.9923C104.263 48.2137 105.75 46.9923 106.848 45.4523C108.065 43.8146 109.001 41.9865 109.618 40.0424C110.938 36.0424 111.298 31.9823 111.848 28.3423C112.259 25.0887 113.12 21.9081 114.408 18.8923C115.295 16.8493 116.612 15.0211 118.268 13.5323C118.729 13.1314 119.221 12.767 119.738 12.4423C119.91 12.3247 120.094 12.2273 120.288 12.1523C120.288 12.1523 119.558 12.6123 118.408 13.6423C116.828 15.1561 115.578 16.9812 114.738 19.0023C113.51 22.0012 112.695 25.1535 112.318 28.3723C111.788 32.0023 111.448 36.0823 110.098 40.1623C109.466 42.162 108.503 44.0415 107.248 45.7224C106.085 47.3229 104.523 48.5915 102.718 49.4023C101.889 49.7641 100.993 49.9508 100.088 49.9508C99.1834 49.9508 98.288 49.7641 97.4584 49.4023C96.7074 49.0542 96.0545 48.5251 95.5584 47.8624C95.1152 47.2383 94.8366 46.5126 94.7484 45.7523C94.6513 45.1026 94.7258 44.4387 94.9643 43.8265C95.2029 43.2143 95.5973 42.6751 96.1084 42.2623C96.5116 41.982 96.9691 41.7891 97.4513 41.6961C97.9335 41.6031 98.4298 41.6121 98.9084 41.7224C99.5134 41.8498 100.063 42.1647 100.478 42.6223C100.624 42.7702 100.737 42.9475 100.808 43.1423Z" fill="#263238"/>
<path d="M154.566 59.7616C154.566 59.7016 155.156 59.4416 156.136 58.7616C157.498 57.7744 158.662 56.5395 159.566 55.1216C160.906 53.0167 161.782 50.651 162.136 48.1816C162.513 45.141 162.381 42.0589 161.746 39.0616C161.126 35.8616 160.206 32.8716 159.416 30.1416C158.626 27.4116 157.946 24.9216 157.546 22.8016C157.219 21.1262 157.026 19.4275 156.966 17.7216C156.966 17.1216 156.966 16.6516 156.966 16.3316C156.956 16.1699 156.973 16.0076 157.016 15.8516C157.066 15.8516 157.016 16.5216 157.146 17.7116C157.276 19.3929 157.52 21.0634 157.876 22.7116C158.326 24.8016 159.016 27.2616 159.876 29.9816C160.825 32.9384 161.619 35.9424 162.256 38.9816C162.91 42.0312 163.028 45.1713 162.606 48.2616C162.225 50.7929 161.294 53.2098 159.876 55.3416C158.924 56.7763 157.689 58.0013 156.246 58.9416C155.857 59.1977 155.445 59.4186 155.016 59.6016C154.872 59.6683 154.721 59.7219 154.566 59.7616Z" fill="#263238"/>
<path d="M156.377 53.2516C156.268 53.3316 156.146 53.3925 156.017 53.4316C155.661 53.5607 155.292 53.6512 154.917 53.7016C153.502 53.8469 152.076 53.5499 150.837 52.8516C149.004 51.7962 147.615 50.1123 146.927 48.1116C146.103 45.696 145.833 43.1258 146.137 40.5916C146.377 37.9116 146.867 35.4216 147.087 33.1316C147.307 30.8416 147.437 28.7716 147.477 27.0316C147.517 25.2916 147.477 23.8816 147.477 22.9016C147.434 22.3992 147.434 21.894 147.477 21.3916C147.588 21.8844 147.652 22.3867 147.667 22.8916C147.747 23.8916 147.827 25.2816 147.837 27.0416C147.846 29.0917 147.753 31.1409 147.557 33.1816C147.357 35.4916 146.887 38.0016 146.647 40.6416C146.349 43.0983 146.595 45.5904 147.367 47.9416C148.002 49.8553 149.296 51.4817 151.017 52.5316C152.182 53.234 153.527 53.5815 154.887 53.5316C155.857 53.4216 156.357 53.2016 156.377 53.2516Z" fill="#263238"/>
<path d="M90.9695 62.3921C90.9618 62.0518 91.016 61.713 91.1295 61.3921C91.4438 60.5057 92.0234 59.7376 92.7895 59.1921C93.9961 58.3122 95.4372 57.8109 96.9295 57.7521C98.6495 57.5921 100.599 57.8421 102.709 57.7521C105.017 57.5444 107.241 56.7903 109.199 55.5521C111.436 54.1104 113.35 52.2207 114.819 50.0021C116.427 47.5381 117.557 44.7937 118.149 41.9121C118.786 38.8078 119.051 35.639 118.939 32.4721C118.939 29.2121 118.489 26.0521 118.299 22.9521C118.007 19.968 118.196 16.9563 118.859 14.0321C119.474 11.54 120.782 9.27281 122.631 7.49261C124.481 5.7124 126.796 4.49187 129.309 3.9721C131.234 3.58953 133.22 3.64765 135.119 4.1421C136.54 4.51056 137.891 5.10842 139.119 5.91209C139.895 6.41504 140.613 7.00192 141.259 7.66209C141.489 7.89209 141.629 8.0821 141.739 8.2021C141.849 8.32209 141.899 8.3921 141.889 8.4021C141.014 7.52971 140.048 6.75208 139.009 6.0821C137.773 5.31897 136.423 4.75855 135.009 4.4221C133.149 3.97291 131.213 3.94217 129.339 4.3321C127.079 4.82642 124.987 5.90182 123.269 7.4521C121.286 9.23073 119.891 11.5712 119.269 14.1621C118.638 17.0368 118.463 19.9929 118.749 22.9221C118.959 25.9921 119.359 29.1721 119.419 32.4621C119.52 35.6698 119.245 38.8783 118.599 42.0221C117.989 44.9644 116.825 47.764 115.169 50.2721C113.655 52.5389 111.683 54.4635 109.379 55.9221C107.358 57.1812 105.064 57.9358 102.689 58.1221C100.509 58.2421 98.5795 57.9621 96.8995 58.1221C95.4681 58.1663 94.0797 58.6211 92.8995 59.4321C92.1417 59.9392 91.5558 60.6646 91.2195 61.5121C91.0095 62.0521 91.0095 62.3921 90.9695 62.3921Z" fill="#455A64"/>
<path d="M141.098 0.872086C141.098 0.822086 141.588 1.04209 142.098 1.65209C142.796 2.46424 143.219 3.47549 143.308 4.54208C143.399 5.61008 143.154 6.67978 142.608 7.60209C142.178 8.29209 141.768 8.60209 141.728 8.60209C141.688 8.60209 141.968 8.16209 142.278 7.47208C142.701 6.59068 142.881 5.61218 142.798 4.63805C142.716 3.66393 142.374 2.72964 141.808 1.93208C141.408 1.25208 141.048 0.932086 141.098 0.872086Z" fill="#455A64"/>
<path d="M161.067 26.8022C160.942 26.4041 160.851 25.9959 160.797 25.5822C160.647 24.7822 160.437 23.6422 160.127 22.2322C159.817 20.8222 159.447 19.1422 158.947 17.3122C158.697 16.3922 158.417 15.4322 158.067 14.4622C157.737 13.4685 157.251 12.5335 156.627 11.6922C155.434 10.0403 153.802 8.75516 151.917 7.98217C150.376 7.36315 148.689 7.20001 147.057 7.51217C145.949 7.70742 144.894 8.12959 143.957 8.75217C143.637 9.0128 143.303 9.25647 142.957 9.48217C142.957 9.48217 143.017 9.38217 143.157 9.22217C143.369 8.98973 143.604 8.77871 143.857 8.59217C144.782 7.88174 145.855 7.38949 146.997 7.15217C148.701 6.77156 150.479 6.90379 152.107 7.53217C154.09 8.31797 155.807 9.65367 157.057 11.3822C157.712 12.2639 158.219 13.2468 158.557 14.2922C158.907 15.2922 159.177 16.2922 159.427 17.1822C159.897 19.0422 160.247 20.7322 160.497 22.1822C160.747 23.6322 160.927 24.7622 161.007 25.5722C161.08 25.9778 161.101 26.3913 161.067 26.8022Z" fill="#455A64"/>
<path d="M142.14 8.94215C141.044 8.82126 139.968 8.55908 138.94 8.16214C137.825 7.79113 136.681 7.5135 135.52 7.33215C134.113 7.1281 132.678 7.28643 131.35 7.79214C130.022 8.28827 128.844 9.11829 127.93 10.2021C127.186 11.0795 126.631 12.1008 126.3 13.2021C126.032 14.2483 125.887 15.3223 125.87 16.4021C125.755 16.1233 125.701 15.8235 125.71 15.5221C125.66 14.7084 125.738 13.892 125.94 13.1021C126.232 11.9119 126.785 10.8017 127.56 9.85215C128.511 8.68071 129.757 7.78338 131.17 7.25214C132.579 6.72033 134.102 6.56523 135.59 6.80215C136.775 7.02641 137.937 7.36121 139.06 7.80215C140.96 8.53215 142.16 8.87215 142.14 8.94215Z" fill="#455A64"/>
</svg>
